<svg xmlns="http://www.w3.org/2000/svg" style="display:block" viewBox="0 0 2048 2048"><path fill="#FEFEFE" d="M0 0h2048v2048H0z"/><path fill="#CF3915" d="M1103 715.735c2.06.163 3.95.269 5.87 1.138 3.73 1.69 4.91 4.824 6.22 8.399-2.36-.072-4.8-.145-6.95-1.253-3.59-1.853-4.36-4.687-5.14-8.284"/><path fill="#E86327" d="M520.394 1270.62c.629.02 1.486.01 2.087.13 2.34.47 3.844 2 4.979 4.06 1.486 2.69 1.491 5.28.683 8.17l-3.249-.64c-3.388-3.58-4.324-6.85-4.5-11.72"/><path fill="#9D2316" d="M1043.33 678.641c2.47.57 5.99 1.207 8.03 2.813 2.25 1.761 1.97 3.632 2.15 6.191-3.45.123-6.31.141-9.2-1.987-1.43-2.913-1.19-3.857-.98-7.017"/><path fill="#CF3915" d="M802.083 1526.88c3.082.8 6.056 1.44 8.828 3.08 1.116 2.98.574 3.64-.265 6.63-2.973-.76-5.324-1.54-7.982-3.09-1.583-2.96-1.156-3.43-.581-6.62m280.727-824.22c.43-.034.86-.09 1.29-.103 3.34-.096 5.33.752 7.78 2.938 1.37 3.636 1.16 4.279.46 7.939-2.24-1.353-4.95-2.729-6.93-4.434-2.4-2.069-2.46-3.291-2.6-6.34m174.97 155.68c2.65 1.478 5.61 4.131 6.43 7.155.83 3.043-.07 4.106-1.43 6.727-2.67-2.624-6.13-5.566-6.94-9.356-.45-2.093.81-2.876 1.94-4.526m-646.15 538.98c4.458 1.76 7.729 5.34 9.66 9.63l-1.331 3.08c-.591-.12-1.207-.16-1.773-.36-2.58-.95-5.62-3.81-6.749-6.29-1.316-2.9-.865-3.21.193-6.06m-19.35-20.9c1.96.36 3.12.85 4.583 2.17 2.721 2.45 6.2 5.99 6.381 9.67l-2.815.52c-2.057-.49-3.529-1.46-4.988-2.97-2.779-2.87-3.38-5.61-3.161-9.39m757.56-361.8c.74.12 1.34.17 2.04.52 1.84.92 3.79 3.91 4.49 5.82 1.29 3.55.88 5.04-.43 8.48-3.41-2-4.89-4.1-6.11-7.95-1.02-3.24-1.47-3.86.01-6.87m-49.32-93.193c2.78 1.837 6.09 5.315 7.3 8.485 1.03 2.728.37 3.271-.71 5.861-.29-.055-.59-.076-.87-.163-2.64-.816-5.39-4.03-6.33-6.626-1.14-3.162-.58-4.524.61-7.557"/><path fill="#E86327" d="M561.942 1334.42c3.966 2.54 7.009 8.02 8.545 12.41l-1.401 2.28-2.376-.44c-2.095-1.9-4.125-3.8-5.203-6.48-1.384-3.45-1.021-4.42.435-7.77m107.094 116.16c.387 0 .776-.03 1.161 0 3.419.3 7.924 2.83 9.942 5.64 1.633 2.27 1.334 2.53.85 5.14-3.282.2-6.94-1.78-9.32-4.06-2.478-2.37-2.714-3.37-2.633-6.72"/><path fill="#CF3915" d="M1063.38 689.338c3.65 1.02 7.31 1.717 10.29 4.176 1.53 3.05.9 3.542.03 6.73-2.73-.52-6.83-1.668-8.76-3.797-2.2-2.421-1.69-4.18-1.56-7.109M629.301 1415.38c3.449.88 6.681 2.74 8.953 5.54 2.163 2.68 2.442 3.9 2.083 7.21l-2.846-.02c-2.104-1.11-3.868-2.22-5.442-4.04-2.485-2.88-2.869-5.03-2.748-8.69"/><path fill="#E86327" d="M648.452 1433.47c1.423.16 2.493.46 3.777 1.11 3.873 1.94 6.587 3.58 8.006 7.87l-2.144 3.18-1.286.02c-4.436-2.57-7.021-4.61-9.5-9.13zM506.559 1242.5c.905.44 1.335.59 2.114 1.14 4.957 3.46 8.628 10.8 9.673 16.62-1.559.19-3.478.92-4.861.01-4.441-2.93-5.694-12.87-6.926-17.77m-53.618-101.31c4.173 1.02 91.952 65.31 99.573 72.7-9.831 8.93-25.108 15.08-36.674 21.85-8.191 5.75-56.528 34.2-62.956 34.07-.19-.25-.417-.48-.57-.76-2.204-4-1.133-117.96.627-127.86"/><path fill="#FEFEFE" d="M458.982 1153.67c11.12 6.05 21.696 15.01 31.954 22.43 17.164 12.4 34.467 24.57 51.407 37.29-9.982 5.19-19.657 10.72-29.321 16.47-17.428 11.01-36.604 20.76-54.96 30.18z"/><path fill="#E86327" d="M1378.37 1072.04c13.71-12.08 35.21-22.87 51.48-31.29l-7.86 102.07c-1.12 13.6-1.6 27.39-3.37 40.92-12.97-5.97-25.09-18.05-36.66-26.57-21.42-15.78-44.74-30.11-64.57-47.85 9.62-6.68 25.97-19.15 36.65-22.84 5.26-4.24 11.57-7.58 17.34-11.11-1.45-3.09-3.4-7.23-2.48-10.72.37-1.39.59-1.01 2.14-1.73 3.3 1.48 3.94 5.87 6.47 8.39.26.27.57.49.86.73"/><path fill="#FEFEFE" d="M1420.57 1053.93c2.31 7.82-6.96 100.67-8.75 117.05-13.55-12.34-30.32-22.72-45.32-33.35-12.23-9.11-24.82-17.97-36.45-27.83 16.61-11.83 34.54-21.61 51.98-32.1 12.94-7.78 25.46-16.22 38.54-23.77"/><path fill="#E86327" d="M844.529 1480.56c13.47 11.39 32.687 34.48 45.636 48.47a4994 4994 0 0 1 90.556 98.66c-23.431-2.98-46.935-7.65-70.268-11.46-32.699-6.9-66.265-11.6-99.194-17.55-15.24-2.76-30.95-5.05-45.785-9.55 9.897-7.04 20.6-13.05 30.905-19.48 14.857-9.27 29.422-18.81 44.043-28.43a718 718 0 0 1 4.107-60.66"/><path fill="#18214D" d="M1583.55 1102.87c9.4.35 20.82 5.36 29.91 7.96 30.41 8.7 61.04 17.29 90.97 27.5.87 32.14-.45 64.58-.51 96.76 17.73 8.87 41.76 28.54 56.03 42.32 33.75-18.41 67.33-38.41 100.16-58.45 20.49-12.51 48.16-31.44 69.87-40.29 7.08 1.89 14.8 5.98 19.93 11.33 4.3 4.49 6.66 9.96 6.49 16.21-.4 14.66-6.8 33.49-10.15 48.06l-19.67 87.28-34.34 150.17c-8.51 38.16-16.23 77.12-26.86 114.74-1.63 5.77-4.61 16.84-9.09 20.78-21.21 18.63-46.89 31-71.1 45.24l-87.74 52.5-343.97 202.59c-19.83 12.52-44.32 23.75-62.73 37.39-12.92-5.67-25.11-14.04-37.21-21.33a2266 2266 0 0 0-51.11-29.91 24218 24218 0 0 1-284.439-167.99 135.7 135.7 0 0 1-.286-23.97c10.142-9.58 28.358-17.35 40.652-24.49a6137 6137 0 0 1 94.093-54.45c20.25-11.54 39.86-24.17 60.01-35.92a18105 18105 0 0 0 157.48-92.16l.12-167.44c.01-12.92-1.84-50.79.97-60.79 12.75-11.26 30.04-19.35 44.74-27.89l58.58-34.52a8217 8217 0 0 1 137.95-80.92c23.43-13.58 46.87-28.55 71.25-40.31"/><path fill="#FEFEFE" d="m1366.95 1560.01.58.55c.89 7.96-10.09 47.94-12.71 57.85-7.07 4.01-14.13 8.02-21.37 11.7-4.32-6.23-1.54-39.39-1.12-48.47 10.48-8.24 23.18-14.74 34.62-21.63m336.9-316.38c16.76 10.95 33.23 25.31 48.72 38.05-5.39 3.71-11.39 6.82-17.07 10.11a1619 1619 0 0 0-31.57 18.56c-.47-22.21-.2-44.5-.08-66.72m-111.68-129.71c23.37 6.54 46.78 12.8 70.08 19.61 10.19 2.98 20.94 5.51 30.77 9.52-12.37 6.36-24.35 13.28-36.35 20.3-21.79 12.14-43.66 24.58-64.67 38.03-.13-29.04-1.22-58.47.17-87.46m-67.52 271.91c1.35.23 2.53.61 3.77 1.25 5.74 2.99 7.68 12.11 9.49 17.74-50.85 28.17-100.46 58.58-151.67 86.12-4.43 9.97-6.13 22.08-8.56 32.75-12.76 5.95-25.15 13.72-37.29 20.86l-3.19.93c-1.66-.44-2.94-.41-4.14-1.75-6.14-6.8-3.03-33.48-2.87-42.59 14.66-10.6 31.1-18.73 46.66-27.93a7505 7505 0 0 1 95.7-56.42c17.32-10.18 35.49-19.69 52.1-30.96m171.1-236c2.33 16.2.41 36.33.36 52.95l-.22 112.23c-34.72 19.28-69.94 37.95-103.63 59l-.04-18.61c11.43-6.82 63.97-35.84 69.64-43.33 1.36-1.8 1.44-1.84 1.11-4.14l-2-.72c-13.33 2.05-55.23 29.73-68.98 38.09l-.69-68.55c.05-1.9-.28-3.76.79-5.39 6.85-10.32 57.16-27.26 66.68-42.77.27-2.8.35-2.71-1.3-4.97-6.42-.44-53.14 32.67-65.79 36.75l-.76-.92c.15-2.31.08-3.19 1.78-5 9.67-10.32 47.03-25.2 58.3-35.91 2.29-2.18 2.99-3.83 3.12-6.94l-1.87-.87c-12.51 2.2-47.65 26.26-60.5 34.07l-.11-33.65a4062 4062 0 0 0 104.11-61.32"/><path fill="#FEFEFE" d="M1930.69 1186.78c4.47 2.2 7.33 4.69 10.62 8.44a28385 28385 0 0 1-361.61 209.74l-114.1 64.6c-20.85 11.7-42.62 22.43-62.72 35.35l-70.8 312.75c-4.92 21.59-10.05 43.17-14.66 64.83-4.08 19.18-7.61 38.54-12.61 57.51-2.72 10.3-5.92 10.19-14.91 15.4-18.08-9.85-35.5-20.91-53.3-31.25l-128.38-75.25c-57.87-34.24-116.843-67.22-173.814-102.88-3.175-1.62-6.135-3.67-9.122-5.61-.15-5.46-.012-10.97-.003-16.43a960 960 0 0 0 12.753 8.59c34.177 22.75 70.736 42.91 106.126 63.76a13768 13768 0 0 0 158.63 92.7 2630 2630 0 0 1 54.97 32.63c7.8 4.8 16.13 11.38 24.33 15.11 2.79 1.28 4.56.88 7.42.31 2.36-1.92 2.8-4.01 3.43-6.97a13076 13076 0 0 1 99.88-433.7c22.7-10.41 44.19-24.54 65.86-36.95l106.93-60.62a21207 21207 0 0 0 365.08-212.06"/><path fill="#FEFEFE" d="M1269.13 1525.09c3.58 3.92-1.45 227.66 1.05 257.15.34 3.95.65 8.69 3.48 11.63 12.52-2.72 34.79-19.29 47.17-26.26-13.42 53.1-23.99 106.99-36.62 160.3a12629 12629 0 0 0-173.4-102.01c-22.76-13.74-45.94-26.73-68.78-40.32a4080 4080 0 0 0-109.085-64.09c24.565-13.29 48.367-28.01 72.555-41.97 88.19-50.92 175.03-104.25 263.63-154.43"/><path fill="#FEFEFE" d="m1581.6 1112.88.99.19c1.46 1.91 1.31 2.61 1.43 4.93 1.5 27.57.02 56.13-.23 83.78a5556 5556 0 0 0-.16 104.71c-.04 24.06-.66 48.17-.09 72.23l-39.51 22.72-1.32-13.63c-.3-.46-.58-.92-.88-1.37-4.62-6.99-10.33-8.04-18.02-9.67l-133.8 78.84c-18.29 10.82-37.6 20.56-55.33 32.23-3.43 2.25-8.18 4.99-9.92 8.77-3.87 8.41-3.89 42.38-.23 50.99 2 4.69 8.42 6.49 12.76 8.27 12.82-6.72 25.27-14.57 37.8-21.83l-3.36 13.11c-11.09 6.58-43.35 21.12-46.84 32.92-2.72 9.17-3.87 46.84 1.12 54.07 1.39 2.02 3.85 3.69 6.32 4.08 7.09 1.11 14.32-5.68 19.78-9.47-.87 5.07-2.17 9.9-3.58 14.83-13.62 9.02-27.4 17.87-41.77 25.65-1.7-16.75-.98-34.08-.95-50.92l.21-80.64c.19-72.84-.93-145.8.01-218.62 8.58-7.66 19.82-13.43 29.71-19.3a2726 2726 0 0 1 51.35-29.74c36.67-21.08 72.76-43.29 109.34-64.56 10.13-5.88 20.18-12.2 30.45-17.82 8.58-4.7 17.88-8.66 26.05-14.04 3.06-2.01 5.45-3.81 7.21-7.06l-.69-2.22-2.42-.9c-11.11 1.11-33.62 16.87-44.4 23.02a12036 12036 0 0 0-146.71 86.31c-18.72 11-52.96 27.65-67.37 41.66-3.8 14.01-1.11 33.26-.94 47.77a5574 5574 0 0 1 .28 59.75l-.24 176.33c.13 21.88-.23 43.89.56 65.74.2 5.46.54 10.77 2.2 16.01l1.7.54c13.46-3.17 32.29-17.56 44-25.54-6.11 33.62-17.24 66.33-22.64 100.15-14.7 9.85-29.58 19.33-45.09 27.89l.69-493.41c15.55-10.31 32.33-19.2 48.47-28.58l75.45-44.12c59.51-34.67 118.42-70.59 178.61-104.05"/><path fill="#18214D" d="M1522.29 1274.8c.25.04.51.02.74.11 2.26.85 2.93 1.45 4.14 3.39-.71 3.05-1.39 4.08-3.83 6.08-11.62 9.54-32.85 19.16-46.43 26.74-30.6 17.09-60.45 35.56-90.58 53.44-18.06 10.72-39.65 21-55.43 34.81-.55 20.75-.29 41.57-.39 62.33 2.54 1.68 5.29 3.07 7.96 4.54 12.86-9.47 27.43-17.18 41.25-25.16l77.26-43.75 54.84-31.73c8.69-4.94 18.13-11.45 27.62-14.66 2.55-.87 3.57-.95 5.93.3.51 3.08-.12 3.54-1.53 6.23l-136.76 77.29c-23.47 13.41-46.53 28.27-70.52 40.66-4.46-2.5-8.77-5.21-13.11-7.91-3.75-20.15-1.41-48.6-1.29-69.54 11.92-15.9 43.84-30.96 61.4-41.45 24.04-14.35 47.92-28.87 72.24-42.74 22.26-12.69 45.19-24.72 66.49-38.98m2.98-64.16c4.18 1.78 9.01 3.77 12.13 7.21 7.37 8.1 4.58 24.44 4.37 34.53-12.87 12.32-40.89 26.47-56.93 35.96l-146.47 84.73c-1.19.14-2.14.3-3.37.26-3.2-.09-6.4-1.32-8.68-3.61-7.91-7.95-5.05-27.41-4.59-37.62 3.01-4.06 6.4-7.13 10.54-9.98 18.27-12.56 39.24-22.79 58.5-33.84 44.9-25.79 90.08-51.01 134.5-77.64"/><path fill="#FEFEFE" d="M1527.73 1220.98c1.22.68 2.41 1.65 3.56 2.47 4.15 7.23 2.63 17.7 2.45 25.86-64.89 40.27-132.08 76.74-197.61 115.96-.98-.53-2.51-1.25-3.33-2.08-5.34-5.46-2.97-22.73-2.77-29.81 15.14-10.08 31.68-18.56 47.51-27.53l76.35-43.43c21.87-12.44 51.04-32.88 73.84-41.44m418.47-19.08.68.4c1.3 2.56 1.22 4.09.78 6.94-2.48 15.96-6.96 32.17-10.45 47.96l-24.07 106.59a7871 7871 0 0 1-46.68 200.67c-3.05 12.59-5.25 25.4-8.45 37.94-2.39 9.4-4.47 17.26-12.21 23.62-17.16 14.11-38.97 24.49-58.2 35.66-26.51 15.39-52.68 31.43-78.97 47.18l-394.1 231.98-.57-.03-.91-1.27c1.88-12.29 5.79-24.68 8.52-36.88l19.76-88.14 44.83-201.35c7.68-34.24 16.34-68.23 23.45-102.6 25.66-15.42 52.4-29.71 78.53-44.37a8939 8939 0 0 0 136.89-77.66l194.3-112.14 85.72-49.89c13.8-8.08 27.19-16.81 41.15-24.61"/><path fill="#E86327" d="M1762.23 1448.73c1.95.52 2.59 1.05 3.92 2.55.77 3.25.04 6.02-.82 9.16-9.26 33.94-20.85 67.41-30.87 101.15-5.7 19.19-11.94 47.34-18.79 64.89-1.38 3.53-4.33 5.2-7.36 7.21-11.28 7.46-23.49 13.94-35.17 20.77l-61.71 36.5-50.32 30.1c-10.55 6.32-21.34 13.49-32.61 18.41-3.06-.91-4.57-3.98-6.32-6.46-.72-7.12-1.01-14.24-1.32-21.38a1273 1273 0 0 0-3.12-40.05c-2.02-19.57-12.87-93.17-7.96-107.72 1.31-3.89 3.75-7.72 6.94-10.32 5.36-4.37 12.26-7.59 18.2-11.18a1889 1889 0 0 1 54.84-31.76c23.88-13.52 47.66-28.9 72.38-40.67 8.51 6.43 15.3 15.39 23.1 22.75 26.48-11.93 51.67-29.62 76.99-43.95"/><path fill="#FEFEFE" d="m1671.14 1561.44 2.63-.2.94 1.48c-3.5 8.85-14.75 11.9-20.43 19.22l-3.31-.94c-.59-1.15-1.24-1.59-.74-2.93 2.34-6.23 15.04-13.7 20.91-16.63"/><path fill="#FEFEFE" d="M1654.28 1581.94c6.83-4.15 17.9-11.94 26.39-9.2 3.05.99 5.13 3.01 6.31 5.96 3.14 7.85-.22 17.92-3.67 25.12-5.61 11.72-14.32 21.09-24.85 28.55-7.44 4.85-15.75 10.42-25.15 8.1-2.86-.71-4.9-2.26-6.53-4.72-3.32-4.98-1.54-13.64-.03-18.9 3.25-11.24 11.06-20.15 19.6-27.83 2.47-2.21 5.98-4.45 7.93-7.08"/><path fill="#E86327" d="m1671.31 1582.89 2.47.53c1.4 1.11 2.75 2.06 3.46 3.79 2.03 4.98-1.56 12.73-3.83 17.08-6.9 13.27-16.71 21.3-30.8 25.77-.96-.25-1.73-.41-2.66-.84-2.11-1-3.95-3.37-4.47-5.67-.99-4.42.85-8.8 2.89-12.63 6.79-12.8 18.98-23.91 32.94-28.03"/><path fill="#FEFEFE" d="M1699.58 1521.87c4.28 1.58 6.98 7.1 11.33 9.05 1.56.69 4.82.23 6.85.92 3.35 16.27-5.03 62.66-5.72 82.03l-.04 1.27c-38.1 22.13-77.04 42.74-114.91 65.28.51-9.32.19-22.17 3.68-30.8 3.05 5.89 2.29 13.12 1.93 19.51 25.42-11.63 49.58-27.48 73.69-41.6 9.76-5.71 19.57-12.22 30.06-16.48 3.3-22.67 4.82-47.03 5.42-69.97-4.68-3.43-9.19-6.95-13.61-10.71-16.19 8.34-31.92 17.82-47.76 26.82-14.41 8.21-84.46 46.03-91.75 53.93-10.57 11.48-20.53 110.88-32.63 120.08-1.8-3.85-1.02-8.92.03-12.96a1537 1537 0 0 0 16.16-69.19c2.96-13.6 5.23-27.79 9.56-41 13.02-10.02 29.54-18.01 43.84-26.3 34.58-20.04 69.69-39.14 103.87-59.88"/><path fill="#18214D" d="M696.163 66.705c13.612 5.528 26.907 15.234 39.58 22.722a6504 6504 0 0 1 87.925 52.453l128.161 75.721c27.384 16.015 55.811 31.334 82.111 49.051l-.5 458.016c-12.44 9.236-27.08 16.54-40.495 24.332l-66.236 38.857-72.152 42.39c-12.514 7.271-25.484 16-39.001 21.217-16.408-7.659-32.601-17.984-48.236-27.169-30.083-17.673-59.86-35.743-90.33-52.76-13.326-7.442-26.878-15.999-41.044-21.678a9034 9034 0 0 0-.912 153.751c.062 30.385.816 60.733.155 91.118-16.932 10.814-34.791 19.964-52.173 29.994a6148 6148 0 0 1-98.669 56.51c-19.765 11.08-38.853 25.11-59.654 34.02-18.236-7.33-35.77-19.13-52.742-29a7918 7918 0 0 1-98.335-57.8l-109.469-64.137c-24.031-13.993-49.575-27.379-72.057-43.771-.976-17.663-.365-35.654-.395-53.36l.133-107.716c.005-85.299-1.23-170.78.04-256.063 21.488-16.122 47.183-28.309 70.267-42.178a4747 4747 0 0 1 98.231-58.327c13.494-7.9 27.586-18.294 42.12-23.765 58.986 37.358 121.161 70.801 178.284 110.979a19410 19410 0 0 0 .674-296.602c32.688-22.234 68.632-41.238 102.794-61.179 37.322-21.785 74.063-44.814 111.925-65.626"/><path fill="#FEFEFE" d="m881.389 225.726 1.768.832c1.5 5.424.718 11.937.653 17.55-31.922 20.878-65.403 39.546-98.398 58.673l-1.892-.473c-1.355-6.465-.574-14.027-.492-20.658 11.87-8.129 25.097-14.908 37.662-21.942zM495.52 545.916l1.412.093c5.33 2.599 8.795 14.568 10.947 19.777-8.76 6.806-19.831 11.996-29.542 17.326a4909 4909 0 0 1-65.298 34.779l-5.319 2.983c-2.683.006-2.486-.005-4.428-1.88-1.511-4.876-.501-10.198.944-15.008 1.589-5.287 5.705-9.122 9.888-12.496 9.972-8.046 22.829-13.755 34.134-19.771a1515 1515 0 0 0 47.262-25.803m403.04-303.314c10.234 3.848 19.676 10.832 29.345 16.031-16.885 7.948-32.911 17.766-49.062 27.091l-69.415 39.964-1.985 1.379c-7.169.015-18.931-9.157-25.14-13.092 22.93-12.3 45.221-26.026 67.662-39.2 13.629-8 28.663-15.551 41.417-24.83 2.815-2.047 5.004-4.653 7.178-7.343M515.731 570.121c12.871 6.114 29.69 18.292 41.913 26.282-36.672 19.568-72.417 40.391-109.487 59.319l-12.24 6.445c-9.519-9.777-19.041-19.528-26.948-30.694 10.43-8.264 23.493-14.14 35.23-20.422a3263 3263 0 0 0 46.306-25.286c8.382-4.663 18.012-9.304 25.226-15.644m50.136 31.771c9.769 2.814 32.924 19.391 42.935 25.57-18.331 8.702-35.878 19.108-53.512 29.121a4710 4710 0 0 1-78.992 44.347c-8.184 4.387-16.315 8.795-24.806 12.572-1.29-14.423-3.788-30.364-8.961-43.875 14.254-9.818 31.19-17.573 46.444-25.876 25.642-13.958 51.018-28.322 76.892-41.859m-35.6-288.358c4.505-.07 7.708 1.579 11.54 3.694 15.559 8.587 30.498 18.784 45.799 27.881l124.497 74.68a1509 1509 0 0 0 31.755 18.975c8.269 4.761 17.912 8.899 25.047 15.247.779 22.17.146 44.58.133 66.777l-.109 124.045-.176 62.293c-.064 8.386.83 18.763-.787 26.912-.468 2.357-1.492 2.841-3.265 4.237-12.783-3.405-36.859-20.016-49.376-27.385-26.171-15.407-52.756-30.379-78.393-46.655l.041-18.799c31.678 19.504 64.084 37.876 95.504 57.772 7.206 4.323 14.432 8.408 21.932 12.202 2.221-27.907.477-57.26.48-85.346l-.06-167.111c-7.963-6.058-17.086-10.913-25.672-16.045-17.624-10.534-35.527-20.655-53.065-31.321l-88.396-53.456c-14.186-8.595-28.864-19.437-43.977-26.11-.507 21.608.126 43.353.156 64.977l.322 126.708c-5.042-3.316-10.25-6.419-15.381-9.599.015-26.169-2.111-195.632 1.451-204.573"/><path fill="#FEFEFE" d="M641.833 427.03c1.47-.097 3.125-.28 4.58.013 4.561.92 9.669 9.437 12.082 13.163 21.37 33.002 38.849 75.756 30.427 115.761 3.016 6.532 5.552 12.595 6.384 19.847.777 6.767.106 14.308-4.379 19.764-6.527 7.942-11.38 5.661-19.903 5.447-2.801-.07-5.82.933-8.635 1.206-9.449.918-20.258-.596-27.717-7-5.399-4.634-7.2-9.841-7.69-16.731-1.069-9.912-3.211-19.598-7.61-28.604-3.613-7.397-9.532-16.014-17.857-18.459-2.792-.821-5.619-.784-8.129.886-6.633 4.415-7.293 13.816-8.296 20.941-7.28-4.308-14.579-8.472-21.188-13.789a385 385 0 0 1 1.823-4.22c7.559-17.182 10.597-13.268 25.818-19.638 1.576-.66 1.441-1.46 1.675-3.034.635-4.266-1.214-9.261-1.955-13.499-1.442-8.245 1.144-18.34 4.191-26.1 8.404-21.397 25.713-36.792 46.379-45.954"/><path fill="#18214D" d="M672.999 557.212c.946.185 1.673.27 2.569.741 3.643 1.914 6.21 6.897 7.106 10.735 1.469 6.29.665 11.972-2.81 17.378-1.835.203-3.26.355-5.096-.021-1.562-.321-2.188-.875-2.841-2.418-2.586-6.117-1.732-20.831 1.072-26.415m-27.117-106.329 2.012.706c20.526 24.61 27.097 61.875 28.971 92.959l-1.183.193c-.584.1-1.165.213-1.749.31-1.13.188-2.258.32-3.373.598-17.997 4.479-4.708 24.594-10.79 33.758-1.165 1.754-3.416 2.535-5.412 2.836-5.561.839-8.149-.265-12.459-3.614-1.835-4.633-3.077-9.482-4.386-14.281-6.098-22.36-14.393-36.455-34.909-48.17 1.156-10.294 2.497-20.164 6.42-29.823 7.134-17.568 19.594-28.206 36.858-35.472"/><path fill="#FEFEFE" d="M301.635 387.836c4.467 1.222 38.31 23.983 45.085 28.118l140.335 86.902c39.349 24.119 79.405 47.471 118.156 72.541 5.342 3.456 10.406 6.191 13.902 11.705 5.083 8.018 9.286 24.675 6.823 34.285-.572 2.232-1.075 2.338-2.951 3.391-2.873-.377-5.036-1.419-7.581-2.791-9.869-5.321-19.105-12.41-28.746-18.227-24.359-14.695-48.947-29.029-72.821-44.509-3.648-7.963-6.679-16.422-11.914-23.496-3.62.632-7.151 1.605-10.705 2.529a1418 1418 0 0 1-41.75-25.387l-109.061-66.969c-12.497-7.829-26.09-14.914-38.068-23.424-16.74 8.589-32.997 19.046-49.281 28.54-40.126 23.395-79.78 47.467-120.272 70.233-9.134-5.775-18.231-11.524-27.683-16.772 12.814-8.449 26.631-15.841 39.785-23.791 51.967-31.412 105.182-60.837 156.747-92.878m-50.615 322.32c8.151 3.98 15.987 9.649 23.709 14.485l52.485 33.366c.513 25.699 1.496 51.864-.052 77.522l-1.792-1.949c17.708 13.711 37.356 24.746 56.431 36.446a2141 2141 0 0 1-.381 68.872c-19.559 11.793-39.56 22.8-59.072 34.705-9.921-4.983-19.376-11.42-28.852-17.218-14.596-9.419-29.75-18.308-43.564-28.848l.047-14.202a1724 1724 0 0 0-22.236 11.672c-9.393-6.782-19.639-12.583-29.434-18.775a2056 2056 0 0 1-47.344-30.767 6364 6364 0 0 1 .236-72.899c13.142-9.564 28.697-17.319 42.8-25.52a826 826 0 0 1 .348-33.533c8.026-5.236 17.117-9.449 25.526-14.087 10.755-5.932 20.991-12.371 31.145-19.27"/><path fill="#E86327" d="m191.928 790.896.938.795c1.621 5.723.882 13.563.989 19.589 14.881 9.565 29.461 19.575 44.626 28.694l-12.05 7.564-9.013-6.45c-17.699-12.015-35.828-23.954-54.344-34.673 9.702-5.053 18.993-10.729 28.854-15.519m55.299 55.185c5.833 3.131 11.557 8.376 16.853 12.404-2.378 1.2-7.4-4.22-11.17-3.613-4.779 5.536.067 35.543-2.273 44.613-.793 3.075-2.391 3.25-4.955 4.571-5.005 2.634-9.862 5.745-14.749 8.604a2833 2833 0 0 0-.46-56.234zm123.686 33.803c1.054.17.38-.023 1.806 1.076 1.488 17.533.241 36.007.167 53.642-14.282 8.755-29.178 17.418-44.134 24.947l-.669-.193c-2.621-4.456-.929-46.775-.885-54.943 14.097-9.294 28.629-17.025 43.715-24.529m-54.115-110.841c2.554 3.786 1.15 51.289 1.142 59.316-14.276 8.994-29.485 16.934-44.013 25.589-.044-.046-.097-.083-.132-.136-3.005-4.536-.767-50.154-.617-58.568 14.058-9.318 29.148-17.509 43.62-26.201m.818 69.839c4.823 1.471 40.501 27.117 49.264 32.53-14.862 7.733-29.263 16.737-43.698 25.243a824 824 0 0 1-49.743-31.766 1175 1175 0 0 1 44.177-26.007"/><path fill="#E86327" d="M202.772 754.45c20.816 11.602 42.699 25.056 60.934 40.422l-.197 52.158c-20.74-13.132-41.396-26.069-60.961-40.936zm48.432-33.616c9.886 2.735 50.941 32.646 62.217 40.311-13.827 9.078-28.733 18.136-43.515 25.557-19.997-10.802-43.705-28.379-63.409-41.105 15.623-7.686 30.282-14.853 44.707-24.763m8.469 146.054c8.809 5.194 17.219 11.294 25.85 16.804 11.15 7.118 23.047 13.841 33.396 22.062a1811 1811 0 0 0 .086 57.274c-20.385-11.357-39.631-25.374-59.754-37.331a2895 2895 0 0 1 .422-58.809m-99.785-53.418c20.53 12.852 42.552 25.921 61.342 41.141a1268 1268 0 0 0 .613 56.737c-6.478-3.751-12.688-8.59-18.937-12.757l-42.829-28.403z"/><path fill="#FEFEFE" d="M695.256 119.075c13.445 6.165 26.556 15.14 39.355 22.627a3912 3912 0 0 1 78.087 46.403c17.846 10.846 41.151 22.348 57.211 34.995-16.473 8.325-32.361 18.114-48.493 27.112-13.906 7.755-31.609 15.341-43.586 25.75-4.316 9.89-1.807 31.025-1.868 42.683 9.728 7.786 27.033 13.73 34.847 21.787 8.306 8.565 5.819 27.322 5.805 38.45l-6.57 4.349a1189 1189 0 0 0-40.009-24.312L528.599 217.125a9001 9001 0 0 0 166.657-98.05M300.123 432.809c5.134.184 164.918 99.106 182.691 110.644-18.495 10.924-71.03 33.958-82.46 49.253-4.632 6.199-6.72 13.501-6.093 21.207 2.235 27.48 27.191 39.438 39.519 59.436 5.761 9.347 6.968 22.457 8.633 33.079-15.755-6.299-31.313-17.32-46.01-25.934-27.037-15.778-53.314-32.848-80.248-48.802-58.461-34.628-117.661-68.677-174.986-105.173 35.28-21.955 71.698-42.624 107.665-63.463 17.154-9.939 34.725-19.347 51.289-30.247m323.006 197.185c.213.132.46.22.639.396 2.462 2.411 3.208 7.531 3.433 10.788 1.085 15.712.476 31.881.44 47.633l-.386 82.168-.277 218.747c-27.57 15.324-54.732 31.524-82.078 47.244a4825 4825 0 0 0-113.352 66.01l-2.107 1.03-1.082-.66c-1.84-8.52-.418-19.44-.433-28.28l-.079-68.61c-.055-89.85-.604-179.799.447-269.643 40.752-21.059 80.535-44.865 120.414-67.584 24.385-13.891 48.499-28.368 74.421-39.239"/><path fill="#18214D" d="M595.523 936.769c2.737.548 5.55 1.032 7.552 3.185 5.046 5.428 2.824 18.885 2.522 25.971-48.415 27.733-97.065 55.725-144.379 85.295-.638-.06-1.284-.07-1.916-.18-2.627-.46-4.362-1.61-5.873-3.78-3.278-4.72-3.71-13.41-2.508-18.83.898-4.05 2.597-6.25 5.769-8.8 14.855-11.92 34.208-21.122 50.689-30.679a4876 4876 0 0 0 88.144-52.182"/><path fill="#FEFEFE" d="m595.54 946.837 1.749.487c1.622 3.969.973 8.869.876 13.104-45.388 27.446-91.48 53.692-136.74 81.382-2.457-3.94-2.92-8.83-3.79-13.34 21.549-16.11 46.873-28.42 70.227-41.799 22.727-13.023 44.746-27.144 67.678-39.834"/><path fill="#18214D" d="M592.756 691.815c3.178.117 6.644.388 8.918 2.928 5.093 5.69 3.181 18.96 3.031 26.296-13.834 11.957-34.772 21.807-50.9 31.037a9910 9910 0 0 0-90.508 51.921c-.31.138-.612.295-.93.414-3.162 1.178-4.855.729-7.714-.647-5.1-7.021-2.497-20.69-1.892-28.981 11.891-10.941 32.128-20.045 46.292-28.208 31.321-18.048 62.926-35.804 93.703-54.76"/><path fill="#FEFEFE" d="m594.623 699.892 1.497 1.237c1.498 5.07.897 10.769.829 16.021-14.326 10.569-31.251 19.105-46.714 27.984l-89.022 51.014-1.575-.851c-.808-5.644-.123-11.341.266-17.004 23.325-15.61 49.107-28.746 73.497-42.731 20.454-11.728 40.351-24.736 61.222-35.67"/><path fill="#18214D" d="M594.431 852.859c2.774.27 5.888.916 7.788 3.1 4.99 5.735 2.701 20.265 2.44 27.617-10.189 9.132-24.448 15.281-36.211 22.271l-106.957 62.306c-.667.149-1.378.339-2.065.333-2.35-.022-3.779-.498-5.189-2.485-4.379-6.174-2.196-20.621-1.92-28.041 20.484-14.406 42.532-26.412 64.208-38.903a2948 2948 0 0 0 77.906-46.198"/><path fill="#FEFEFE" d="m595.15 862.776 1.336.642c1.261 5.037.619 10.686.506 15.854-44.002 28.236-90.565 52.274-134.953 79.924l-1.44-1.122c-1.428-5.121-1.018-10.368-.931-15.637 15.547-11.358 33.61-20.53 50.25-30.291a3325 3325 0 0 1 85.232-49.37"/><path fill="#18214D" d="M594.601 772.929c3.4-.07 5.605-.091 8.276 2.142 2.776 5.05 3.152 20.952 1.296 26.56-.903 2.727-3.223 4.056-5.52 5.574-11.738 7.76-25.167 14.026-37.371 21.183a5440 5440 0 0 1-100.736 58.304c-3.051.547-4.495.061-6.925-1.59-4.396-7.874-2.381-20.337-2.076-29.141 14.207-11.626 33.504-20.507 49.424-29.84 30.891-18.111 61.325-37.701 93.632-53.192"/><path fill="#FEFEFE" d="m594.607 781.922 1.938 1.28c1.153 5.101.584 10.639.468 15.846-24.672 12.749-48.296 27.5-72.285 41.471-21.032 12.25-42.657 23.754-63.206 36.792l-1.432-.318c-1.052-5.543-.442-11.466-.28-17.088 21.058-13.846 43.642-26.198 65.426-38.937 22.775-13.318 45.583-27.632 69.371-39.046m102.53-705.625c8.221 3.072 16.203 10.202 23.926 14.649a3747 3747 0 0 1 96.401 57.015c67.393 40.729 136.481 78.748 203.046 120.86-6.59 2.962-22.129 8.205-25.844 14.107 9.614-4.111 18.544-9.672 28.614-12.676l1.49-.432c.85 67.727.3 135.529.37 203.267l-.17 247.51c-22.12 14.169-46.097 26.501-68.772 39.854l-134.546 79.704c-1.684-39.088.051-78.91.165-118.105l-.026-218.536-.283-75.851c-.075-13.512.897-28.114-1.074-41.466 3.815-1.55 7.508-3.359 11.224-5.128 21.709-13.108 44.232-24.941 66.125-37.763 28.169-16.498 56.568-34.591 86.082-48.476 2.695 4.024 5.662 11.329 9.876 13.597 2.705-.078 2.871-.047 4.998-1.691.669-6.02-8.861-18.623-12.151-23.972-15.344 10.386-32.792 18.602-48.889 27.883L824.19 375.988c-.097-8.631 1.065-18.312-.677-26.77-.104-.503-.236-1-.345-1.501-1.304-5.987-4.734-10.903-7.921-16.049 15.949-8.925 119.234-66.123 124.345-72.551-.326-.974-.283-1.03-.969-2.021-2.54-3.673-34.855-23.286-39.589-24.207-2.363.98-4.302 1.913-6.925 1.808-2.406-3.85-.222-9.746-.678-14.245-.275-2.713-1.387-3.702-3.355-5.382-3.534-.418-4.152.176-7.358 1.335-1.056.382-2.076 1.147-3.196 1.065-2.762-.204-29.927-18.243-34.382-20.97-37.011-22.663-74.883-43.977-112.164-66.199-9.211-5.49-21.942-15.385-31.234-19.077-2.643-1.051-4.55-.814-7.053.327-14.688 6.693-28.966 17.27-42.955 25.535-42.101 24.876-86.382 53.453-130.341 74.163l-26.879-15.03c38.361-24.064 78.053-46.323 117.18-69.135 29.063-16.945 57.777-34.958 87.443-50.787"/><path fill="#18214D" d="M991.492 674.891c3.511-.18 5.738-.333 8.888 1.342 5.29 5.685 2.86 17.904 2.63 25.144-17.83 10.718-36.425 20.411-54.381 30.992-32.043 18.882-63.733 38.573-96.243 56.631-.597.134-1.184.328-1.792.403-2.316.287-4.166.133-5.855-1.648-4.654-4.911-2.862-17.418-2.704-23.604 13.825-12.762 48.406-29.803 66.247-40.259 27.752-16.263 54.827-33.831 83.21-49.001"/><path fill="#FEFEFE" d="M993.621 683.963c1.912 3.368 1.208 8.59 1.195 12.41-49.097 25.413-94.643 57.619-143.326 83.708l-1.327-1.227c-.568-3.076-1.022-5.782-.22-8.872.566-2.18 1.93-3.109 3.671-4.349 17.818-12.686 38.673-22.854 57.616-33.915 27.4-16.001 54.241-33.081 82.391-47.755"/><path fill="#18214D" d="M992.935 592.755c2.79.167 5.35.225 7.385 2.469 4.54 5.006 2.69 17.85 2.5 24.352-11.459 10.239-27.344 17.049-40.539 24.999l-111.831 66.39a8.92 8.92 0 0 1-5.38-2.326c-5.991-5.434-4.207-18.071-4.075-25.265 11.545-10.101 28.065-17.928 41.301-25.843 36.69-21.941 74.081-42.584 110.639-64.776"/><path fill="#FEFEFE" d="m993.146 602.86 1.165.762c1.416 3.864.806 8.713.739 12.8a6340 6340 0 0 0-144.176 84.764l-1.116-.272c-1.704-3.557-.835-9.297-.757-13.233 9.485-6.987 20.146-12.742 30.27-18.746a2809 2809 0 0 1 47.901-27.983c22.012-12.58 43.546-26.295 65.974-38.092"/><path fill="#18214D" d="M992.591 513.952c1.23.064 2.48.119 3.701.284 2.019.273 4.208 1.286 5.328 3.064 2.89 4.567 1.87 16.108.58 21.268-.71 2.821-2.13 3.934-4.38 5.607-12.54 9.312-28.016 16.753-41.524 24.723-35.242 20.796-71.151 40.727-105.825 62.445-2.301.213-4.679-.499-6.435-2.088-5.544-5.017-3.29-19.146-2.954-25.701 16.449-13.889 42.525-26.589 61.683-37.779 29.66-17.324 59.323-36.088 89.826-51.823"/><path fill="#FEFEFE" d="M991.507 523.909c1.317.054.467-.056 2.463.745 1.533 3.565.897 8.132.813 11.958-48.328 27.651-95.399 58.031-144.444 84.355l-1.364-.11c-1.688-3.196-.985-8.252-.957-11.821 17.771-14.425 40.033-25.365 59.843-36.721z"/><path fill="#18214D" d="M989.169 433.961c3.843-.136 8.007-.485 10.777 2.758 4.724 5.529 2.144 17.525 1.344 24.31-13.352 11.017-31.418 19.138-46.457 27.947a5122 5122 0 0 0-103.279 61.137c-.828.391-2.127 1.053-2.998 1.228-2.725.548-3.668-.293-5.787-1.712-4.616-7.625-2.375-20.373-1.62-28.932 50.25-27.121 97.526-60.192 148.02-86.736"/><path fill="#FEFEFE" d="M990.698 442.766c1.3-.011 2.163.339 3.384.744 1.631 2.45 1.528 6.69.875 9.51-.788 3.403-3.867 4.983-6.585 6.811-18.105 12.175-38.191 22.359-57.147 33.249a2277 2277 0 0 0-80.205 48.064c-.647.43-1.496.429-2.258.578-1.663-3.947-.808-9.688-.71-13.955 46.036-30.545 96.261-54.965 142.646-85.001"/><path fill="#18214D" d="M996.879 309.737c1.52.315 2.84.211 3.931 1.427 5.86 6.564 3.04 77.29 2.98 91.425-35.036 22.192-71.796 41.618-107.48 62.74-11.59 6.86-37.71 25.29-48.489 29.092-2.735.965-5.825-1.324-8.179-2.605-4.5-12.665-1.861-54.982-1.729-70.409 14.345-13.265 57.787-35.591 76.81-46.514-4.025-3.894-7.602-7.129-8.808-12.867-.785-3.735.117-7.18 2.342-10.246 6.52-8.983 18.032-16.184 29.362-16.146 3.741.012 8.701 1.352 12.271.31.626-.183 1.197-.519 1.799-.771 15.652-6.563 30.583-16.79 45.19-25.436"/><path fill="#FEFEFE" d="M936.618 342.912c2.35.839 3.356 2.537 4.426 4.651 1.488 2.941 2.295 6.138.881 9.308-3.015 6.762-14.157 10.371-20.554 13.353-1.641-.336-2.366-.96-3.715-1.909-1.69-3.061-3.654-6.522-2.716-10.161 2.045-7.939 14.927-12.118 21.678-15.242"/><path fill="#FEFEFE" d="m994.582 320.933.632.598c2.821 8.756.573 64.605-.082 77.094-31.567 19.268-64.021 37.203-95.97 55.836-17.786 10.373-35.132 22.093-53.283 31.751-2.752-18.006-.756-43.364-.696-62.082 10.27-4.94 99.426-55.66 102.481-60.02 4.173-5.956 3.275-12.77 2.139-19.491 15.6-5.635 30.388-15.436 44.779-23.686"/></svg>