<svg xmlns="http://www.w3.org/2000/svg" style="display:block" viewBox="0 0 2048 2048"><path fill="#FFFEFE" d="M0 0h2048v2048H0z"/><path fill="#19375E" d="M1818.58 943.563c.34.017.68.024 1.02.051 3.07.247 4.37.481 6.36 2.746.31 3.123-.64 4.967-1.91 7.706-3-.344-4.08-.207-6.51-2.091-1.01-3.085.09-5.47 1.04-8.412m15.17 98.797c.84.32 1.5.53 2.29 1.04 1.97 1.27 3.24 3.18 3.42 5.55.23 2.89-1.28 4.61-2.96 6.68-.34-.14-.69-.26-1.02-.41-3.13-1.41-3.8-2.57-4.97-5.63.42-3.3 1.24-4.56 3.24-7.23m-140.35 609.25c3.36.15 5.55.39 8.11 2.69.69 3.21-.25 5.48-1.24 8.49-.55.09-1.08.27-1.63.29-2.64.09-3.33-.65-5.11-2.32-1.03-3.42-.74-5.66-.13-9.15m-227.85-.28c.92.18 2.14.39 2.98.75 2.65 1.13 3.12 1.92 4.27 4.35-.3 3.26-1.75 4.81-3.72 7.24-3.14-1.12-4.87-2.26-6.47-5.12-.02-3.16 1.24-4.74 2.94-7.22m219.73-1397.812c3.22 1.102 5.34 1.691 7.36 4.668.1 3.52-.52 4.396-2.08 7.451-1-.089-2.7-.192-3.61-.507-2.6-.893-3.16-2.215-4.33-4.442.16-3.323.74-4.451 2.66-7.17M1547.52 1746.38c.98.05 2.6.08 3.52.31 2.57.66 3.3 1.76 4.79 3.74.42 3.36-.11 4.64-1.46 7.6-.41 0-.83.02-1.24 0-3.42-.18-4.81-1.05-6.9-3.54-.56-3.31.11-5.1 1.29-8.11m-54.89-1.07c.97.06 2.49.11 3.4.35 2.72.71 3.27 1.63 4.74 3.81.24 3.28-.49 5.09-1.79 7.98-.37-.02-.73-.02-1.1-.06-3.25-.31-4.36-1.05-6.38-3.43-.64-3.36.11-5.51 1.13-8.65m145.93-1390.72c1.31-.046 3.23-.272 4.48.092 2.73.796 3.05 1.809 4.28 4.118-.04 3.556-.73 5.734-2.18 8.964-.39-.048-.79-.078-1.17-.146-3.18-.552-4.61-1.642-6.4-4.259-.74-3.537-.21-5.4.99-8.769m-22.58 89.75c1.35.467 3.3.96 4.45 1.787 2.27 1.635 2.26 2.719 2.7 5.266-1.14 3.194-2.48 4.359-5.13 6.409-3.39-1.578-5.12-2.77-6.56-6.276.62-3.377 2.25-4.839 4.54-7.186m-141.52 634.13c-.84-2.99-1.02-3.32-.05-6.23 8.38-.36 19.4-1.91 27.06 1.88l-.49 1.61c-8.57 3.63-17.47 2.45-26.52 2.74m465.16-86.401c2.63-.251 4.68-.433 7.28.286l.89 2.053c-.08 2.549-.27 4.269-1.31 6.612-1.97 4.42-3.54 9-5.18 13.55-2.09 1.28-2.13 1.49-4.52 1.18-2.74-4.43 1.67-18.259 2.84-23.681m-121.29-29.273c2.34-.069 4.08-.037 6.32.664.43 8.051 1.99 33.872-.96 40.29-2.3 0-3.97-.04-6.12-.88-1.84-5.312-1.51-34.761.76-40.074m14.21 98.974c2.52.59 3 .71 4.88 2.46 2.96 8.31 3.15 32.16.41 40.55-3-.5-3.59-.29-5.64-2.45-1.96-7.21-3.01-34.25.35-40.56m-219.6-596.904c2.55.086 5.45-.256 7.39 1.438 1.56 12.477.51 26.127.44 38.749-2.61.53-4.71 1.147-7.33.253-1.85-12.824-.55-27.409-.5-40.44M1493.79 1763.29c2.53.51 3.87.7 5.87 2.47 4.36 8.74 1.67 31.51 1.6 42.16-2.92-.48-4.68-.32-6.91-2.34-2.51-13.04-.7-28.94-.56-42.29m-29.47-94.79c1.88.54 3.69 1.23 5.53 1.91 3.42 4.36 1.42 35.61 1.27 43.17-2.63-.42-4.97-.17-6.82-2.18-1.55-13.75-.94-29.08.02-42.9m231.21-.17c1.4.27 2.7.73 4.06 1.17.59 1.22.76 1.44 1.1 2.97 1.49 6.79 1.64 36.25-1.37 41.11-2.16-.55-3.77-1.15-5.69-2.26-1.03-8.08-2.22-36.85 1.9-42.99m215.1-594.73c-.48 9.28 1.34 20.05-1.33 28.99-1.85 1.12-2.32 1.08-4.51 1.11l-1.5-1.66c-1.38-6.63-2.01-33.38.08-39.24 2.25-1.78 2.17-1.54 5.06-1.24 2.1 2.09 1.81 3.95 2.22 6.83zM1684.2 272.139c2.49.122 4.24.02 6.42 1.379 1.49 12.476 1.24 28.506-.09 41.025-2.48-.212-4.94-.344-7.36-.958-.79-7.03-2.17-36.723 1.03-41.446M1546.23 1764.58c2.34.04 4.53.35 6.84.69 3.17 3.95 1.46 36.32.75 43.06-2-.13-3.97-.39-5.97-.64-3.04-3.66-1.64-36.19-1.62-43.11m92.83-1392.806c3.19.239 5.29-.061 7.67 2.275 1.58 13.438.43 27.984.31 41.554-2.8-.007-5.06.159-7.59-1.254-2.09-13.393-.53-28.948-.39-42.575m-34.56 696.746c3.4-3.44 6.8-6.98 12-6.91 1.72.02 3.36.5 5 .95l1.2 1.47c-3.24 5.27-13.03 6.52-18.21 10.92-.81 8.01.16 16.1-.5 24.08-.24 3-.84 3.12-3.03 5.01l-2.03-.18c-1.47-1.98-1.87-3.87-2.12-6.28-.7-6.84-2.18-30.59 2.09-35.82l1.68-.12c2.12 2.09 2.88 4.17 3.92 6.88"/><path fill="#19375E" d="M1910.65 1068.39c4.65-4.31 8.53-7.5 15.17-7.13 3.71.2 6.52 1.14 8.94 4.11 6.23 7.64 6.26 23.85 5.03 33.3-.32 2.48-.71 3.75-2.46 5.63-2.74-.13-2.56-.33-4.46-2.36-2.86-8.44 3.31-27.99-6.57-33.38-2.89-1.58-6.35-.47-9.13.74-2.42 1.05-4.52 2.63-6.54 4.3zm-396.69 696.19 3.5.44c8.72 6.4 8.78-3.27 17.93.08 1.4 1.89 1.81 2.73 1.87 5.09-3.34 3.07-9.35 1.51-13.16 4.49-2.83 2.23-2.59 5.72-2.59 8.94l.01 1.19c.09 6.14.46 12.56-.1 18.68-.24 2.51-.25 3.72-2.26 5.4-1.55-.36-1.27-.1-2.54-1.29-5.75-5.43-2.72-34.86-2.66-43.02m63.1-88.65c3.3-3.77 6.42-6.28 11.51-6.86 2.65.84 3.65 1.33 5.35 3.55l.15 2.42c-2.59 2.27-4.74 2.08-8.06 2.13-2.11.03-3.5.31-5.47 1.17-9.85 10.57 1.19 24.13-5.62 33.95-2.58.52-3.06.65-5.51-.2-1.92-3.57-1.11-28.91-1.02-34.65.06-3.56.66-5.5 3.21-7.95l2.23.24c2.23 2.23 2.37 3.24 3.23 6.2m338.91-732.282c2.56.115 4.94-.066 7.11 1.486 1.95 12.104-.02 44.031-.03 58.336-2.04-.22-4.06-.51-6.09-.79-3.53-3.892-1.19-50.937-.99-59.032m-332.49-591.219c2.82.255 4.84-.077 7.11 1.713 2.24 19.768.48 41.27.41 61.228a212 212 0 0 1-6.03-.619c-.49-.511-1.18-.888-1.48-1.533-1.91-4.104-.09-52.341-.01-60.789m-139.88 93.765c1.82.648 3.59 1.575 5.36 2.371.55.763 1.31 1.411 1.65 2.287 1.73 4.467.84 50.117-.21 56.687-2.5-.27-4.22-.557-6.55-1.614-2.31-5.519-2.42-53.259-.25-59.731m146.75-2.435c2.94.205 4.97-.131 7.39 1.639 2.9 16.538.13 43.418 1.18 61.91-3.06-.429-5.33-.52-7.58-2.685-2.93-16.295-1.14-43.499-.99-60.864m267.63 1207.891c2.78-.05 5.03-.29 7.54 1.13 2.44 17.48.7 42.18.32 60.26-3 .24-5.18.62-7.58-1.36-2.03-19.45-.37-40.41-.28-60.03M1675.06 372.186c3.36-.214 8.26-.945 11.51-.038 2.52.705 3.62 1.802 4.9 3.984l-.85 1.839c-4.28 2.275-8.75.132-13.32.641-2.97.332-5.98 2.599-7.62 5.024-2.63 3.856-3.3 9.123-2.4 13.633.76 3.814 2.83 7.351 6.14 9.483 5.54 3.567 12.26 2.182 18.28.999 1.15 1.918.94 1.742.87 3.783-1.03.828-2 1.636-3.19 2.22-4.91 2.404-10.95 3.264-16.12 1.283a22.57 22.57 0 0 1-12.85-12.492c-2.35-5.597-2.46-12.234-.1-17.842 2.92-6.978 8.03-9.83 14.75-12.517m17.52 689.134c5.12.38 11.05 1.16 14.67 5.23l-1.71-1.48 1.23 1.95c-6.95 1.33-17.18 1.33-22.59 6.31-3.09 2.84-3.7 6.37-3.61 10.39.1 4.38.86 7.76 4.33 10.72 6.12 5.22 15.83 2.84 23.08 2.12-.52 1.4-.62 1.99-1.44 3.16-2.84 4.03-9.06 4.56-13.55 5.56-3.44-.81-7.25-1.64-10.27-3.52-4.68-2.91-8.13-8.09-9.42-13.41-1.39-5.77-.56-12.18 2.67-17.21 4.03-6.26 9.58-8.47 16.61-9.82m32.93 703.76c7.94-.1 10.48.49 16.72 5.54v1.99c-6.27 1.53-12.93-.26-19.31 1.93-2.88.99-5.47 2.82-6.55 5.79-1.29 3.57-.15 7.45 1.17 10.83 1.43 3.67 3.57 7.21 7.44 8.66 5.65 2.12 9.38.52 14.76-1.67 1.71.5 2.35.93 3.53 2.26-1.24 2.82-3.12 4.14-5.96 5.32-5.59 2.31-10.8 3.08-16.42.59-4.91-2.18-8.6-6.05-10.47-11.08-2.37-6.36-1.69-13.54 1.32-19.56 3.12-6.21 7.32-8.66 13.77-10.6m116.01-814.786c.75.166 1.72.359 2.42.624 2.46.927 2.7 1.413 3.89 3.615-.43 2.457-.69 4.126-.23 6.624 4.31 3.961 8.3.135 12.87 2.539.58 2.242.8 2.608.06 4.761-3.73 1.949-8.7 1.181-12.81 1.071-.11 8.289-.61 16.785.27 25.035 2.97 4.234 10.24 2.445 14.73 4.73.36.184.69.432 1.03.648-3.81 3.459-9.54 6.179-14.79 5.939-14.74-5.932-4.25-29.596-10.01-36.271l-4.93-.348-1.27-1.818c.25-2.493-.01-2.664 1.83-4.296 2.22-.098 3.87-.081 5.91-1.042.5-3.928.76-7.863 1.03-11.811m-158.26-3.955c1.88.33 3.64.811 5.48 1.308 3.34 4.027 1.83 41.805 1.86 49.032 6.96-.084 19.4-2.247 24.83 2.301l.19 4.24a491 491 0 0 1-32.58.11c-.36-18.838-1-38.204.22-56.991m-220.04-.081c2.08.388 3.27.783 5.01 1.994 4.38 8.771 1.76 37.903 1.8 49.019 5.91.137 11.78-.538 17.69-.495 4.39.031 7.84-.015 11.06 3.215l-.03 3.679c-11.86.72-23.92.3-35.8.28-.16-19.027-1.17-38.734.27-57.692m165.53-1.609c2.34.545 3.54 1.016 5.38 2.565 4.05 9.481 1.37 37.871 1.38 49.658 5.09-.034 10.73-.71 15.74-.304 2.82.228 4.24.676 6.01 2.838l-.51 4.144c-9.65.23-19.22.33-28.87 0-1.16-12.232-1.64-47.22.87-58.901m165.17-480.46a45.7 45.7 0 0 1 10.67.594c3.6.642 5.42 1.622 7.46 4.635l-.78 1.877c-5.23 2.642-11.13-.016-16.89 1.235-2.56.558-5.08 1.801-6.36 4.214-1.92 3.635-1.39 8.587-.59 12.452.78 3.697 2.41 7.554 5.81 9.551 5.19 3.058 10.18 2.034 15.57.381 1.33-.752 1.59-.546 3.06-.478l1.05 1.85c-.86 2.495-1.69 3.81-3.98 5.276-4.38 2.813-10.65 2.24-15.4.865-5.31-1.537-9.81-4.736-12.46-9.652-3.05-5.659-3.1-12.78-.98-18.755 2.63-7.396 6.96-10.752 13.82-14.045m-71.28 585.261c1.39.34 2.28.75 3.54 1.39 1.81 3.61 1.21 7.99 1.15 11.93 1.23-.01 2.46.01 3.69 0 2.17-.03 4.64-.34 6.7.5 1.99.81 2.3 1.34 3.17 3.14l-1.38 1.8c-3.93 2.09-8.02 1.4-12.32 1.19.09 6.38-.81 12.89-.43 19.23.18 2.96 1.05 5.93 3.56 7.76 4.05 2.95 9.04 1.24 13.49.33l-.82 4.81c-3.25 2.66-8.81 3.21-12.99 2.94-18.2-1.13-5.28-31.24-11-34.65-2.37-1.41-3.2 1.15-5.91-1.74.02-2.29-.31-2.57 1.07-4.53l3.87-.61c2.82-3.23 2.84-9.34 4.61-13.49m-167.29-98.993c1.71.323 3.15.859 4.75 1.519 1.62 2.886.81 4.426.32 7.639.94 2.279.93 2.269 3.09 3.447 3.28-.191 6.61-.803 9.64.706.83 2.095.9 2.244.37 4.42-3.71 1.959-8.53 1.375-12.64 1.378-.09 7.551-1.76 18.944 1.56 25.836.95 1.968 1.68 2.027 3.59 2.786 2.46-.617 4.45-1.29 6.98-.612l1.21 2.604c-2.79 2.41-5.5 3.78-9.09 4.7-2.46.62-4.94.41-7.01-1.18-9.3-7.16-2-21.716-5.48-30.355-1.25-3.119-3.72-3.517-6.62-4.541l-1.32-.452c-.37-2.408-.37-2.35.91-4.428 2.27-.42 4.32-.93 6.5-1.693 1.37-1.691 1.63-2.245 1.8-4.479.21-2.599.73-4.789 1.44-7.295m11.51 98.773 3.14 1.39c2.02 3.37 1.32 7.98 1.25 11.79 3.2-.07 7.21-.67 10.32-.15 2.34.38 3.5 1.15 4.71 3.1l-1.48 1.76c-4.51 2.38-8.9 1.92-13.84 1.86-.07 6.57-1.56 18.05.34 24.04 1.89 5.97 11.19 3.16 15.79 6.08-.57 1.01-.88 1.65-1.61 2.61-1.54 2.01-4.09 2.2-6.43 2.52-3.86.52-8.06.8-11.09-2.2-7.04-6.97-2.3-18.43-3.93-26.8-.83-4.28-2.64-5.33-6.14-7.52-1.48-.93-1.18-1.11-1.64-2.72 2.04-3.34 4.88-1.4 7.38-4.46.45-4.36.6-7.64 3.23-11.3m-25.41 608.11c2.2.33 3.22.59 4.93 2.04 1.25 2.84.35 5.08-.34 7.96-.48 1.98-.5.87.27 3.13 3.55 1.44 6.33-.44 10.09-.38 1.7.02 1.78.71 2.86 1.86.3 2.15.45 2.79-.31 4.89-3.98 1.36-8.74.83-12.93.78.12 7.04-2.85 21.87 2.65 26.94 3.19 2.94 8.13 2.03 12.11 1.8-.95 3.18-.94 3.79-3.58 6.01-3.54.82-7.23 1.25-10.8.26-14.22-3.95-4.04-25.6-9.01-34.78-1.9-.19-3.21-.43-4.93-1.25l-.49-2.65c1.76-3.07 4.81-1.73 6.07-4.52 1.96-4.36-.04-7.65 3.41-12.09m-25.89-1203.61c1.65-.071 3.12-.166 4.74.217 1.95.461 2.44.278 3.5 2.073-.63 2.22-1.72 4.809-1.12 7.108.91 3.471 8.18 1.444 11.06 3.085.52 2.627.77 3.079-.25 5.507-2.97 1.687-7.18 1.038-10.54.938-.07 6.196-.81 13.344.22 19.409 2.3 13.596 6.25 5.167 11.96 9.322l.38 3.836c-1.47.939-2.86 1.53-4.52 2.019-3.11.915-7.32 1.87-10.2-.099-8.08-5.513-4.59-25.425-6-34.053-2.96-2.3-5.09.54-8.1-1.557-.03-2.25.23-3.116 1.46-5.003 1.9-.783 3.49-1.34 5.08-2.693 2.09-1.781 2.03-7.414 2.33-10.109m287.53 594.68 2.07 1.37c1.61 3.76 1 8.12.88 12.13 3.31-.09 7.39-.57 10.63.19 2.16.5 3.29 1.67 4.14 3.62l-1.71 2c-3.99 2.06-8.3 1.47-12.67 1.38-.38 7.5-2.29 20.46 2.06 26.82 3.07 2.23 6.19 1.18 9.71 1.41 2.97.19 2.89.79 4.81 3.01-.68.74-.86.96-1.66 1.68-2.56 2.26-6.46 2.95-9.79 2.67-22.01-1.85-6.33-24.27-14.92-34.47-1.61-.61-3.18-1-4.41-2.28-.95-.99-.56-2.91-.59-4.22 1.87-3.27 3.37-.74 6.18-3.19l1.07-4.43c.85-3.71 1.41-5 4.2-7.69m-184.12-694.195c3.63-.284 6.85-.516 10.45.118 1.62 1.369 2.09 1.249 2.51 3.421-3.67 4.081-11.66 3.724-16.29 8.077-1.04 2.832-.94 3.157-.24 6.115 3.35 1.922 8.29.236 12.24 1.512 1.01 2.262 1.17 2.422.68 4.826-3.81 1.706-9.03 1.094-13.17 1.103-.71 7.93-.78 15.906-.96 23.863.03 2.916.39 7.215-.78 9.891-1.07 2.451-2.31 2.562-4.62 3.576-5.1-6.264-.03-28.054-2.3-36.596-1.84-.286-3.34-.585-5.05-1.344-.29-2.619-.73-3.345.41-5.805l3.75-.51c2.92-3.081 3.05-5.958 4.23-9.803 1.45-4.749 4.96-6.314 9.14-8.444m50.09 1223.995c.02 8.37 2.31 27.3-2.3 33.85l-2.06.28c-9.43-6.05 1.03-25.75-5.5-34.21-2.1-.21-3.6-.44-5.52-1.37-.45-2.47-.91-2.27.53-4.54 1.77-.08 3.44-.11 5.16-.58 2.43-.65 2.36-11.9 4.33-14.66 2.13-3 5.01-4.84 8.68-5.3 3.63-.45 8.18.49 10.93 3.01 1.59 1.45 1.09.69 1.27 3.08-3.03 2.05-6.24 1.01-9.66 1.41-1.63.2-3.26.85-4.26 2.17-2.27 3.01-1.72 6.48-1.22 9.95l.16 1.03c3.98.03 6.18-.37 9.7 1.58l.66 1.99c-1.63 1.77-2.2 2.43-4.79 2.71-1.89.21-4.2-.22-6.11-.4M1512.09 1062c1.63.02 3.26.19 4.88.3 6.08 3.43 10.3 9.68 14.65 15.02 3.79-4.81 7.3-9.9 10.91-14.84l8.53-.01c-5.01 6.52-9.77 13.26-14.62 19.9 4.26 5.28 9.8 11.15 12.8 17.24 1.26 2.54 1.12 2.8.27 5.36-.51-.03-1.01-.01-1.51-.08-6.14-.87-13.07-11.91-16.91-16.73-4.76 6.92-8.63 12.21-15.48 17.27l-2.24-1.08c.96-7.59 8.76-15.58 13.45-21.43-4.45-6.18-13.06-13.47-14.73-20.92m221.08-597.513c2.27.606 3.54.828 5.32 2.465 2.27 2.091-.04.395 2.79 2.275 3.77-1.657 7.67-3.581 11.66-4.612 3.51-.905 7.23-1.002 10.29 1.241 3.24 2.377 4.88 6.783 5.59 10.588 1.74 9.253 1.62 23.693-3.75 31.587l-2.31-.975c-2.21-7.476-.96-18.444-.97-26.306-.27-3.649-.62-5.579-3.15-8.227-2.75-.885-5.37-1.693-8.3-1.497-15.39 1.029-5.09 28.421-11.33 35.704-2.55.292-2.81.215-5.11-.931-2.97-4.355-1.04-33.931-.73-41.312m30.49 1205.153c3.38.92 3.6 1.07 5.87 3.74 3.86.98 8.71-2.39 12.6-3.29 3.4-.78 7.95.06 10.83 1.99 2.44 1.63 5.21 6.24 5.67 9.06 1.37 8.31 2.07 24.92-2.7 31.94l-1.24-.16c-4.36-6.95-2.86-19.44-2.74-27.53-.75-2.27-1.25-4.24-3.07-5.92-2.12-1.97-7.58-2.3-10.36-1.85-14.97 2.42-4.3 26.91-9.93 35.58l-2.27.32c-.94-.64-1.66-1.06-2.43-1.97-3.23-3.83-1.54-35.96-.23-41.91m-87.67 95.51c5.1-.57 10.33-1.54 14.8 1.66 4.35 3.11 6.47 8.6 7.35 13.68 1.12 6.5 2.39 20.5-1.94 25.67-1.09 1.31-1.68.94-3.22 1.02-6.3-5.69 1.01-20.87-3.17-29.29-1.91-3.85-4.19-4.8-8.01-6.2-.37-.14-.74-.26-1.11-.4-2.95.71-6.5 1.49-8.9 3.46-5.43 4.44-2.12 16.29-2.62 22.76-.28 3.63-.72 7.4-3.65 9.84l-1.82-.54c-.6-1.01-.78-1.22-1.2-2.21-2.34-5.39-2.55-32.16-.3-37.42 2.96-1.35 5-.55 8.13.23 1.83.45 3.99-1.35 5.66-2.26m-171.7-94.92c1.93 0 3.91-.01 5.8.41 5.62 1.25 7.86 5.27 10.79 9.84.15 8.37 1.56 20.48-.14 28.53-.51 2.41-1.68 2.97-3.5 4.43-6.08-2.84-.72-26.41-6.49-33.15-2.19-2.56-4.98-2.38-8.04-2.82-2.31.22-5.02.25-7.24.85-.04.01-2.66.9-2.94 1.33-3.94 6.01 2.59 25.86-1.74 32.58-2.6.97-2.79 1.03-5.47.34-3.16-5.02-1.31-31.69-1.13-39.15l.69-.23-.14-1.37-.49.82.17-1.44c3.86-2.52 4.99 1.14 8.2 1.65 2.1.33 9.18-2.14 11.67-2.62m63.02 94.41c2.68.2 4.59.4 7.12 1.43l.72 3.15c5.15-.38 9.27-4.79 14.36-4.8 3.12-.01 7.83 1.85 9.92 4.25 5.4 6.19 4.17 15.71 4.04 23.35-.09 4.93-.07 13.01-3.77 16.57-.26-.19-.57-.32-.79-.56-4.52-4.87-3.06-19.69-2.93-26.28-.37-2.18-.7-4.78-2.05-6.61-1.43-1.92-2.88-3.05-5.29-3.45-2.83-.47-5.7-.02-7.98 1.85-7.39 6.08-4.53 20.74-5.7 29.34-.37 2.76-.74 4.13-2.92 5.83-1.5-.33-1.98-.53-3.12-1.65-3.53-3.46-1.62-35.75-1.61-42.42m153.72-1492.43c4.46-.218 8.94-.353 12.81 2.181 3.93 2.57 6.21 7.691 6.99 12.153 1.48 8.347 1.41 21.443-3.28 28.587l-1.99.079c-7.61-6.865 2.19-23.928-5.38-32.385-2.7-3.012-5.36-3.169-9.14-3.408l-1.13-.061c-16.45 9.787-3.83 24.219-9.57 33.82-.73 1.219-1.49.925-2.74 1.095l-1.87-1.564c-4.23-9.952-2.57-27.317-1.42-38.127 1.19-1.845 1.23-1.968 3.27-2.746l.95.513c1.1 1.79 1.97 3.282 3.59 4.642 2.85-2.312 5.5-3.465 8.91-4.779m-237.91 191.832c1.98-.17 4.04-.375 6.03-.122 3.49.445 7.05 2.265 9.05 5.23 5 7.395 4.09 27.462 2.5 36.025-2.01 1.607-2.23 1.496-4.83 1.591-7.67-4.061 2.04-26.414-5.84-33.81-2.65-2.485-5.8-2.118-9.06-1.586-.32.052-.64.113-.96.17-11.43 10.095-4.21 20.364-6.91 32.729-.43 1.983-.63 1.988-2.37 3.192-2.16-.56-3.14-.731-4.35-2.868-2.43-4.284-1.75-29.425-.47-34.885.61-2.604 1.19-3.534 3.4-4.951l2.36.732c.86 1.748 1.39 2.907 2.77 4.307 2.8-2.066 5.73-3.899 8.68-5.754m-32.94 1286.728c9.31-.2 19.15-.85 28.42-.23 2.46.17 3.54.27 5.3 2.12-.22 2.34-.3 2.32-1.95 4.02-7.12 2.43-15.65 1.25-23.12 1.13l-.03 19.53c6.04.13 14.59-1.92 19.87 1.44 1.65 1.05 1.75 3.28 2.25 5.09-7.31.84-15.04.53-22.41.68-.11 5.49 1.74 18.96-1.85 22.98-2.01.74-2.91 1.07-5 .49-3.91-6.94-1.77-47.01-1.48-57.25m289.37-789.695c.94-.025 1.88-.063 2.82-.026 4.93.198 8.6 2.212 11.88 5.826 3.26 3.575 6.6 8.775 5.89 13.855-.24 1.672-1.67 4.891-3.21 5.725-3.72 2.003-20.27 1.626-24.4.375-.8-2.38-.51-2.166.23-4.389 5.43-3.317 10.76.415 16.27-1.467 1.48-.506 1.58-1.365 2.3-2.615.07-2.85.01-4.173-1.34-6.797a15.6 15.6 0 0 0-8.25-3.64c-3.11-.356-5.44.536-7.71 2.625-3.3 3.028-3.41 7.259-3.68 11.401.23 4.593.16 10.043 3.93 13.354 6.3 5.538 13.43-.532 20.07.77 2.62.513 2.73 1.662 3.86 3.825l-.92 1.533c-7.29 2.88-16.27 4.01-23.71.98-4.91-1.99-8.68-5.788-10.49-10.785-2.06-5.673-2.02-13.572.84-18.985 3.31-6.276 9.02-9.677 15.62-11.565M1475.03 1096.8c7.59.02 18.54-1.67 25.75.2 2.43.63 3.36 2.15 4.4 4.22l-1.01 1.54c-1.4.52-2.72.88-4.22.98-6.78.42-27.38 1.87-32.4-2.45-1.33-9.9-1.9-42.74.09-52.11 1.36-1.44 1.49-1.86 3.49-2.5 8.4-2.66 24.89-1.34 32.65 2.49l-.34 2.67c-8.68 2.46-19.44 1.47-28.44 1.47.06 6.37.03 12.59-.59 18.93-.97 2.91-.79 3.24.05 6.23.97 5.9.54 12.34.57 18.33m-21.08-739.689c6.18-.358 14.74-1.133 19.66 3.119.5 2.287.57 2.363-.42 4.467-5.17 2.062-11.49-.824-17.01-.245-2.79.293-3.89 1.257-5.69 3.254-.7 2.56-1.08 5.174-.06 7.725 2.53 6.308 11.54 9.165 17.1 12.095 4.13 2.171 7.57 4.706 8.78 9.449.89 3.473-.79 8.466-2.75 11.333-3.18 4.656-8.66 6.228-13.89 7.295-5.98-.181-14.52-.525-19.38-4.306-1.24-2.252-1.74-2.073-1.09-4.705 6.72-3.016 17.69 4.903 25.2.661 2.18-1.229 3.24-2.378 3.58-4.901 1.08-7.988-21.02-16.636-25.9-24.836-1.62-2.726-2.64-5.872-1.41-8.972 2.1-5.3 8.27-9.331 13.28-11.433m139.47 605.006a115 115 0 0 1 4.88-.209c4.21-.065 7.99.592 11.03 3.726 6.28 6.482 5.95 16.785 5.65 25.213-.17 4.833.06 9.993-3.66 13.453l-2.15-.3c-1.27-1.36-2.26-2.48-3.84-3.48-2.96 1.37-6.02 2.95-9.11 3.96-4.37 1.42-8.41-1.11-12.08-3.13-2.13-3.142-3.28-6.312-3.59-10.127-1.25-15.113 22.11-6.086 26.39-13.549 1.41-2.467 1.3-3.348.45-5.809-7.53-5.036-16.61.241-24.26-2.771l.48-1.713c3.14-3.109 5.61-4.012 9.81-5.264"/><path fill="#FFFEFE" d="M1602.96 985.468c2.62-.189 2.66-.101 4.86 1.36.18 2.12-.22 3.602-1.4 5.419-3.16 4.869-8.81 5.824-14.05 6.608-2.36-2.018-3.14-3.26-4.32-6.028.24-1.514.05-2.531 1.22-3.65 3.7-3.545 8.9-3.417 13.69-3.709"/><path fill="#19375E" d="M1625.34 1688.34c-.22-3.61-.22-6.44-2.16-9.57-5.97-3.77-17.59 1.54-21.39-3.3 1.29-2.47 3.53-3.43 6.08-4.28 5.57-1.85 12.38-2.18 17.62.8 3.26 1.85 5.97 5.34 6.87 8.99 1.62 6.54 2.55 25.07-.48 30.83-.65 1.24-1.43 1.08-2.67 1.42-1.98-.82-2.64-1.09-4.15-2.7-1.75.69-3.52 1.4-5.34 1.87-5.4 1.41-12.02.07-16.59-3.1-2.32-1.61-4.27-4.04-4.43-6.97-.15-2.64 1.14-5.19 2.87-7.1 6.25-6.9 15.27-6.49 23.77-6.89"/><path fill="#FFFEFE" d="M1623.79 1704.15c-2.32 1.13-4.49 2.12-7.08 2.46-3.21.42-5.45-.48-8.03-2.39-1.12-2.46-1.08-2.39-.32-4.98 5.03-5.49 10.56-4.69 17.52-5.07-.19 3.79-.32 6.58-2.09 9.98"/><path fill="#19375E" d="M1638.01 1062.15c6.47-.48 14.27-1.27 19.62 2.97 4.71 8.63 4.98 23.14 4.25 32.82-.23 3.02-.46 3.93-2.82 5.82-3.2-.38-3.87-3.88-6.03-3.87-8.75.05-5.14 7.13-21.17 2.48-2.02-2.44-3.14-4.33-4.1-7.39-.93-2.94-1.65-5.28.15-8.07 4.45-6.86 17.27-6.94 24.55-8.93 1.31-2.59.83-3.64.48-6.46-5.13-4.16-15.55-1.54-21.97-2.9l-.12-2.94c2.25-1.59 4.63-2.47 7.16-3.53"/><path fill="#FFFEFE" d="M1648.53 1084.3c1.49-.18 2.35-.27 3.81.21 1.52.5 1.41 1.13 2.09 2.46-.22 1.79-.43 3.08-1.36 4.66-2.85 4.86-5.74 5.87-10.99 7.12-1.63-.69-4.19-1.78-5.36-3.14-1.91-2.23-1.78-2.97-1.44-5.64 3.98-4.77 7.37-5 13.25-5.67"/><path fill="#19375E" d="M1880.85 962.287c5.83-.445 11.63-1.338 16.36 2.829 4.57 4.023 6 9.645 6.39 15.507.41 6.274.93 17.955-3.21 22.737-2.73-.06-3.48-1.33-5.53-2.98-4.49.06-7.37 2.54-11.51 3.71-4.35 1.22-8.39-1.07-11.92-3.28-1.82-2.755-3.4-7.184-2.83-10.527 2.27-13.452 20.09-7.741 26.23-12.774.13-2.939.15-3.286-1.34-5.799-6.6-4.214-15.19-1.911-22.67-2.29l.31-1.876c2.95-2.476 6.2-3.75 9.72-5.257"/><path fill="#FFFEFE" d="m1885.15 985.261 1.73-.182c3.47-.348 5.06-.526 7.79 1.709.47 1.66.91 2.137.3 3.862-1.49 4.237-4.23 5.63-8.03 7.476-.51.004-1.01.024-1.52.01-3.57-.1-5.37-.648-7.91-3.183-.86-2.678-.92-2.862-.08-5.537 2.32-2.719 4.34-3.217 7.72-4.155"/><path fill="#19375E" d="M1548.2 373.13c6.16-.447 12.16-.604 17.15 3.619 5.73 4.838 6.25 12.276 6.79 19.209a797 797 0 0 0-16.61.095c-4.69.123-9.33.012-12.7 3.585.55 2.659 1.57 3.815 3.63 5.592 4.1 3.543 8.67 3.243 13.74 2.762.91-.225 2.3-.598 3.2-.678 2.53-.223 3.15.055 5.02 1.514l-.22 1.699c-.82.862-1.61 1.734-2.63 2.372-4.95 3.106-11.95 3.127-17.38 1.461-5.05-1.552-9.26-4.886-11.7-9.607-2.85-5.508-3.15-12.154-1.24-18.011 2.33-7.165 6.38-10.394 12.95-13.612"/><path fill="#FFFEFE" d="m1548.58 378.999.97-.042c4.68-.163 8.1.542 11.44 4.077 1.73 1.833 2.23 3.024 2.26 5.488-2.1 1.812-2.69 1.621-5.5 1.887-4.88.345-10.31 1.515-14.58-1.345l-.28-2.298c1.43-3.2 3.29-5.239 5.69-7.767"/><path fill="#19375E" d="M1767.54 1765.29c4.26-.21 8.2-.02 11.46 3.07 3.85 3.64 4.85 11.75 5.23 16.73.5 6.67 1.65 18.15-2.88 23.43-3.52.23-4.08-2.61-7.43-2.86-4.31-.32-8.15 2.44-12.33 2.24-4.21-.2-7.59-3.27-10.51-5.94-1.36-2.91-2.13-7.1-1.39-10.31 2.19-9.39 17.95-5.87 24.35-9.48 1.39-2.78 1.95-3.55 1.8-6.73-7.17-6.25-17.11 1.02-23.96-3.11l.48-1.87c3.76-4.41 9.77-4.38 15.18-5.17"/><path fill="#FFFEFE" d="M1773.6 1788.48c.97-.27 1.69.01 2.67.2l.66 1.84c-.56 3.4-1.12 6.11-3.55 8.7-2.76 2.95-6.22 2.84-9.94 2.99-1.56-.98-3.78-2.43-4.81-4.04-1.32-2.07-1.06-2.69-.49-4.87 4.49-4.42 9.57-4.48 15.46-4.82"/><path fill="#19375E" d="M1520.73 961.136c4.86.334 9.92 1.52 13.36 5.238 5.23 5.665 4.89 13.573 4.91 20.74-8.14-.104-19.74-1.954-26.8 2.711l-.41 2.734c1.96 1.688 4.05 2.688 6.49 3.557 6.07 2.163 9.68 1.506 15.4-1.111l.61-.402 1.15.609c.1.885.32 2.451.2 3.302-.38 2.516-1.91 3.596-4.06 4.656-4.31 2.14-13.17 1.2-17.34-.93-5.26-2.682-9.24-7.341-10.76-13.068-1.64-6.132-.51-12.52 2.63-17.971 3.56-6.173 8.02-8.133 14.62-10.065"/><path fill="#FFFEFE" d="M1519.1 967.797c2.3.047 4.32.235 6.42 1.269 2.83 1.392 5.53 5.35 6.07 8.364.33 1.859-.19 1.868-1.21 3.251l-3.13.371-5.19.062c-3.87.069-5.63-.017-9.06-1.962-.82-1.307-1.58-1.737-1.21-3.363.86-3.735 4.33-5.983 7.31-7.992"/><path fill="#19375E" d="M1823.04 1670.2a103 103 0 0 1 2.43-.13c5.29-.19 10.31.12 14.23 4.09 7.01 7.09 6.37 18.61 5.97 27.84-.18 4.27.04 8.27-3.22 11.26-3.06-.15-2.97-.76-5.08-3.05-1.76-.28-1.16-.4-2.76.13-1.51.5-3.04 1.07-4.53 1.62-5.69 2.1-9.08 1.35-14.7-.75-1.58-1.58-3.1-3.33-3.88-5.46-1.22-3.37-1.21-7.73.55-10.91 4.08-7.39 16.8-6.18 24.06-7.58l.75-1.92c-.87-2.82-1.57-5.16-4.08-7.04-4.78-3.56-11.51-.36-16.64.47l-.95-1.5c.17-.88.38-2.27.81-3.04 1.54-2.76 4.31-3.13 7.04-4.03"/><path fill="#FFFEFE" d="M1824.36 1694.34c2.85-.26 6.95-1.01 9.73-.17 1.74.53 3.16 1.59 4.1 3.14.77 1.28.29 1.99.04 3.37-2.11 2.72-3.74 3.87-6.82 5.38-3.67.66-7.54.75-10.61-1.73-2.14-1.74-2.17-2.68-2.26-5.17 1.48-2.82 3.09-3.51 5.82-4.82"/><path fill="#19375E" d="M1762.49 1061.12c2.76-.16 5.55-.27 8.3-.01 3.45.32 6.33 1.8 8.52 4.49 6.31 7.76 5.16 22.51 4.14 31.92-.34 3.09-.17 4.37-2.59 6.3-2.52-.34-3.17-1.57-4.96-3.26-4.51.54-7.8 3.29-12.07 4.31-4.23 1.02-8.3-1.63-11.68-3.76-2.16-3.4-3.8-7.17-3.25-11.29 1.91-14.2 20.57-7.42 26.46-12.21.19-1 .7-2.96.56-4.04-1.38-10.23-17.69-1.22-23.54-5.47l.13-.82 1.02 1.96-.65-2.65c2.51-3.25 5.84-4.32 9.61-5.47"/><path fill="#FFFEFE" d="M1761.39 1085.21c4.42-.38 9.96-1.69 13.66 1.35 1.37 1.12 1.03 1.77 1.21 3.41-1.47 3.36-2.88 5.2-5.54 7.71-3.61.62-7.79 1.02-10.96-1.17-2.51-1.74-2.63-2.6-3.1-5.39 1.08-3.17 2.16-3.96 4.73-5.91"/><path fill="#19375E" d="M1626.06 1765.13c4.98-.36 10.64-.73 14.97 2.18 3.78 2.53 6.02 6.93 6.91 11.28 1.35 6.55 2.12 22.07-1.5 27.66-10.14.99-20.63 3.03-30.13-1.31-.24-.3-.49-.6-.71-.91-2.09-3.02-4.1-8.01-3.01-11.7 2.75-9.3 18.46-7.23 25.42-10.67 1.94-.95 2.05-1.55 2.74-3.44-4.13-10.16-15.56-2.38-23.03-5.73l.04-1.39c2.41-3.27 4.64-4.33 8.3-5.97"/><path fill="#FFFEFE" d="M1627.76 1789.29c3.92-.24 7.68-.96 11.15 1.23 1.71 2.48 1.77 2.24 1.24 5.18-2.05 2.93-3.9 4.06-7.04 5.7-3.8.33-8.3.68-11.16-2.45-1.83-1.99-1.61-2.86-1.25-5.27 2.13-2.74 3.92-3.34 7.06-4.39"/><path fill="#19375E" d="M1558.66 464.154c5.14.376 9.71.677 13.54 4.504 3.42 3.422 7.97 9.292 8 14.327-5.06 10.452-23.37 1.048-31.49 7.396l.25 2.382c1.59 2.288 3.12 4.344 5.41 5.987 5.23 3.744 12.59 2.1 18.43 1.046 1.29-.654 1.85-.584 3.27-.577 1.09 2.08 1 2.012.42 4.312-2.3 2.156-4.34 3.283-7.45 3.988-6.3 1.429-14.37-.056-19.8-3.524a20.46 20.46 0 0 1-9.05-13.222 22.9 22.9 0 0 1 3.32-17.323c3.83-5.786 8.56-7.946 15.15-9.296"/><path fill="#FFFEFE" d="M1558.21 469.927c5.57.354 8.04 1.483 11.73 5.668.75 2.786.71 2.665-.59 5.255-3.55 1.927-6.65 1.4-10.6 1.396-3.17.216-6.63 1.011-9.39-.858-.58-1.469-1.27-2.069-.58-3.627 1.77-3.984 5.7-6.022 9.43-7.834"/><path fill="#19375E" d="M1646.56 272.135c2.66-.18 5.44-.471 8.1-.34 3.57.177 6.56 1.794 8.88 4.479 7.51 8.72 5.9 27.334 5 38.147-2.06 1.564-1.66 1.201-4.01 1.059-7.18-6.591-13.71 3.593-27.94-2.528-2.48-3.68-4.57-8.301-3.43-12.838 2.5-9.947 18.69-9.227 26.14-13.26.78-1.304 1.47-1.595.92-3.16-3.38-9.524-15.81-2.353-22.88-5.468l-.17-1.693c2.65-2.863 5.73-3.386 9.39-4.398"/><path fill="#FFFEFE" d="m1656.96 295.389 2.46.257 1.63 2.112c-.05 2.895-.41 5.225-2.53 7.388-4.09 4.182-7.6 3.915-13.11 3.786-1-.978-2.55-2.259-3.2-3.479-1.25-2.356-.96-3.269-.28-5.624 4.28-4.21 9.42-4.124 15.03-4.44"/><path fill="#19375E" d="M1833.89 464.118c4.22-.347 8.61-.563 12.73.645 4.09 1.197 8.06 4.257 9.81 8.203 1.71 3.873 2.99 8.374 1.31 12.321-5.14 4.372-14.22 2.947-20.56 3.111-3.38.087-6.82.089-9.28 2.673.3 3.107 1.91 5.504 4.41 7.464 3.67 2.872 8.55 2.432 12.92 2.296 3.4-.647 6.15-1.578 9.16.454l-.22 1.878c-.88.777-1.67 1.472-2.74 2-5.46 2.708-12.83 3.526-18.66 1.624-4.88-1.592-8.97-5.518-11.1-10.139-2.94-6.366-2.67-13.813-.14-20.26 2.6-6.63 6.02-9.39 12.36-12.27"/><path fill="#FFFEFE" d="M1836.97 470.064a65 65 0 0 1 2.33-.022c3.8.05 7.3 1.308 9.69 4.454 1.53 2.022 1.65 2.654 1.5 5.022-2.3 2.125-3.23 2.029-6.24 2.565l-5.17.113c-3.88.101-6.1.14-9.64-1.567-.73-1.122-1.43-1.44-.97-2.847 1.15-3.517 5.54-5.865 8.5-7.718"/><path fill="#19375E" d="M1696.96 464.135c4.92-.449 9.62-1.042 14.13 1.39 5.25 2.828 9.4 8.378 10.83 14.132.65 2.628.58 4.583-.88 6.865-6.49 4.274-22.52 2.397-30.38 2.427 1.24 3.232 2.58 6.43 5.2 8.808 3.91 3.554 8.47 3.301 13.44 3.078 1.33-.476 2.84-1.147 4.23-1.371 2.33-.378 2.76-.121 4.61 1.093-.2 1.903.21 1.624-1.11 2.759-4.39 3.791-11.45 4.999-17.07 4.346-5.13-.596-9.53-3.034-12.57-7.243-6.54-9.046-4.57-19.743-3.13-29.971z"/><path fill="#FFFEFE" d="M1697.68 470.094c2.23-.175 4.79-.592 6.99-.329 2.81.334 5.44 2.426 7.18 4.588 1.6 1.986 2.03 3.881 1.84 6.395-2.07 2.366-2.27 2.09-5.44 2.492l-5.73.028c-3.97.038-6.59.025-10.31-1.485-.91-1.109-1.84-1.549-1.61-3.101.55-3.726 4.32-6.432 7.08-8.588"/><path fill="#19375E" d="M1551.33 1554.78c1.78.41 3.38 1.06 5.07 1.75 3.17 9.01 20.16 48.97 20.29 53.24.03.79-.42 1.52-.64 2.27l-2.17.79c-5.27-2.43-8.03-11.79-10.34-16.89l-13.46.23-10.17-.12c-1.82 4.98-3.34 10.42-6.02 15-2.66 1.25-3.2 1.32-6.14 1.1l-1.19-1.48c1.85-7.3 20.72-53.23 24.77-55.89"/><path fill="#FFFEFE" d="M1552.16 1565.57c2.19 5.62 5.7 11.87 7.07 17.71.61 2.56.97 4.06-.55 6.33l-4.95.27-7.03.07c-1.33-.74-1.97-.68-2.46-2.26-1.63-5.34 5.61-16.97 7.92-22.12"/><path fill="#19375E" d="M1562.79 271.748c1.88.024 3.55-.109 5.3.628 1.36.573 1.39 1.86 1.88 3.152 2.41 1.341 11.86-4.8 16.4-4.382 4.02.369 5.96 3.191 8.16 6.16l.71.979c2.03.009 1.29.236 3.09-.659 2.84-1.41 5.55-2.934 8.52-4.091 3.18-1.238 7.15-2.278 10.31-.413 4.37 2.572 5.86 8.872 6.45 13.514.93 7.152 3.04 22.207-1.34 27.706-2.37.637-3.36.839-5.67-.05-2.37-5.2-.47-14.743-.29-20.46.12-3.984-.17-9.82-3.54-12.602-2.7-2.234-5.82-1.491-8.9-.803-.34.075-.67.158-1.01.237-12.88 11.743-1.76 25.135-6.89 33.988-2.45.434-2.61.401-4.86-.657-4.96-7.889-.49-18.987-2.15-27.739-.53-2.763-2.29-5.298-4.87-6.499a8.67 8.67 0 0 0-7.16-.119c-10.69 4.658-4.45 23.855-8.18 32.816-2.08 1.583-1.97 1.7-4.54 1.497-3.46-9.715-1.44-31.201-1.42-42.203m60.38 1299.442c4.58-.49 9.48-1.02 13.88.68 4.91 1.89 8.97 6 10.93 10.86a22.28 22.28 0 0 1-.5 17.55c-2.94 6.26-7.33 9.18-13.59 11.63-3.12.44-6.65.67-9.74-.05-5.23-1.22-10.02-4.58-12.74-9.23a20.98 20.98 0 0 1-1.92-16.82c2.26-7.46 7.08-11.07 13.68-14.62"/><path fill="#FFFEFE" d="M1626 1577.08c1.66-.01 3.37-.04 5.02.17 3.46.44 6.47 2.59 8.35 5.46 2.47 3.78 2.86 8.3 1.65 12.58-1.49 5.3-4.06 7.74-8.73 10.42-1.47-.02-2.96-.01-4.42-.22-3.8-.53-7.01-2.74-9.09-5.93-2.44-3.73-2.8-8.09-1.64-12.34 1.43-5.27 4.35-7.41 8.86-10.14"/><path fill="#19375E" d="M1731.51 1669.26c3.69.41 7.04.96 10.3 2.83 4.89 2.8 8.46 7.3 9.94 12.74a23.15 23.15 0 0 1-2.23 17.7c-3.96 6.86-8.99 8.83-16.39 10.67-3.7-.43-7.17-.92-10.48-2.74-5.15-2.84-8.74-8.06-10.06-13.73a23.67 23.67 0 0 1 3.54-19.04c3.99-5.67 8.82-7.3 15.38-8.43"/><path fill="#FFFEFE" d="M1730.34 1675.79c1.54.15 3.15.3 4.64.72 3.81 1.07 6.97 4.27 8.65 7.76a16.47 16.47 0 0 1 .46 13.25c-1.92 4.86-4.57 6.65-9.31 8.51-1.77-.2-3.6-.37-5.33-.81-3.66-.92-6.51-3.81-8.17-7.09-2.13-4.21-2.16-8.87-.53-13.26 1.86-4.96 4.96-6.91 9.59-9.08"/><path fill="#19375E" d="M1863.73 1062.28c4.86-.64 9.49-1.29 14.17.6 5.18 2.09 9.47 6.57 11.58 11.71 2.31 5.59 2.43 12.11-.01 17.68-2.69 6.14-7.11 9.29-13.18 11.66-3.46.67-6.86 1.03-10.37.39-5.09-.93-9.72-4.31-12.43-8.67a23.76 23.76 0 0 1-2.56-18.9c2.06-7.33 6.27-11.04 12.8-14.47"/><path fill="#FFFEFE" d="M1868.07 1068.01c2.58.12 5.5.26 7.84 1.47 2.98 1.55 5.31 4.68 6.5 7.77a16.95 16.95 0 0 1-.62 13.46c-1.93 3.95-4.6 5.63-8.62 7.07-2.16-.13-4.52-.2-6.58-.9-3.19-1.08-5.64-3.74-7.16-6.66-1.95-3.74-2.09-7.99-.82-11.98 1.74-5.46 4.55-7.6 9.46-10.23"/><path fill="#19375E" d="M1529.71 272.208c3.81.072 7.89.253 11.38 1.95 4.85 2.356 8.45 6.985 10.09 12.064a24.5 24.5 0 0 1-1.78 19.404c-3.45 6.169-8.13 7.863-14.69 9.504-4.98-.222-9.49-.458-13.88-3.115a21.77 21.77 0 0 1-9.89-14.054c-1.28-5.944-.24-12.34 3.34-17.316 4.06-5.63 8.87-7.19 15.43-8.437"/><path fill="#FFFEFE" d="M1530 278.212c1.5.178 3.06.314 4.53.718 3.75 1.033 6.35 4.097 7.96 7.496 2.23 4.73 2.32 9.784.39 14.644-1.9 4.769-4.43 5.921-8.96 7.741-2.26-.31-4.91-.636-7.02-1.587-3.6-1.631-6.09-5.331-7.38-8.94-1.54-4.342-1.34-8.806.83-12.912 2.24-4.228 5.22-5.813 9.65-7.16"/><path fill="#19375E" d="M1672.27 1651.51c2.59.21 4.32.53 6.76 1.56 3.2 4.36 2.71 50.76 1.57 57.98-.25 1.63-1.38 1.91-2.62 2.85-2.6-.58-5.14-4.32-6.61-4.25-8.69.45-7.32 5.31-19.21 1.82-4.05-3.35-6.7-6.29-8.33-11.38-2.15-6.73-1.78-14.29 1.67-20.53 2.29-4.16 6.05-7.28 10.65-8.52 6.46-1.75 11.22.41 16.7 3.65a434 434 0 0 1-.58-23.18"/><path fill="#FFFEFE" d="M1659.96 1677.07c1.37.18 2.74.35 4.07.7 3.87 1.02 6.57 3.11 8.34 6.69 2.34 4.73 2.09 9.52.22 14.35-1.84 4.76-4.78 5.82-9.18 7.73-1.82-.15-3.72-.22-5.45-.84-3.21-1.15-5.56-3.81-6.99-6.83-1.99-4.19-2.04-8.75-.4-13.08 1.84-4.83 4.79-6.79 9.39-8.72"/><path fill="#19375E" d="M1506.29 372.082c3-.085 6.05.11 8.83 1.345 4.84 2.146 8.49 6.407 10.22 11.366 2.37 6.794 1.36 14.21-1.9 20.53-9.89 19.223-20.16 4.007-28.17 6.508l-.25 4.919a272 272 0 0 1 .11 4.089c.07 4.171.56 8.625-2.55 11.846-2.52.316-2.47.016-4.63-1.023-3.62-10.655-.67-44.24-.71-57.433 2.08-1.394 4.01-.741 6.45-.599 1.22.896 2.12 1.476 3.53 2.097 3.11-1.05 6.07-2.305 9.07-3.645"/><path fill="#FFFEFE" d="M1505.01 379.028c2.26.311 4.78.551 6.83 1.621 3.09 1.622 5.31 4.866 6.53 8.05 1.59 4.145 1.34 8.576-.67 12.531-2.15 4.229-4.56 5.371-8.87 6.766-2.38-.121-4.92-.153-7.12-1.162-3-1.369-4.92-4.209-6.04-7.195-1.68-4.452-1.17-9.354.84-13.619 1.88-4.018 4.52-5.401 8.5-6.992"/><path fill="#19375E" d="m1460.99 1551.52 5.03.41c6.86 4.41 18.16 35.25 23.16 44.2 4.12-8.44 15.18-39.97 22.3-43.13 1.63.5 1.88.24 2.86 1.78 2.91 4.55 4.51 51.24 2.74 57.48-.46 1.6-.44 1.08-2.25 1.97-1.76-.68-1.23-.28-2.7-1.75-4.54-4.53-3.19-15.06-3.22-21.23l-.62-18.4c-4.5 9.81-8.28 22.3-14.35 31.11-1.6 2.34-2.47 2.95-5.2 3.51-7.24-3.79-15.33-26.23-19.41-33.8-.07 7 1.02 37.98-1.93 41.63-2.41.68-2.45 1.22-4.82.07-4.3-12.21-1.83-49.27-1.59-63.85m189.5-1087.322c4.35.451 7.92 1.678 11.91 3.454l1.11.503c1.38-.704 2.39-1.382 3.6-2.37.43-.345.84-.702 1.26-1.053l2.05.393c.82 1.581.77 1.155 1.05 2.755 2.03 11.711 3.23 40.622-3.35 50.092a17.4 17.4 0 0 1-11.47 7.353c-6.94 1.228-15.33-.356-21.09-4.407-.72-2.746.38-3.706 1.56-6.166 6.07-.474 11.73 4.899 18.49 3.508 3.45-.708 5.38-2.41 7.23-5.263 2.12-3.273 2.99-5.954 2.12-9.777l-1.53-.736c-2.2 1.205-4.4 2.336-6.83 3.026-4.56 1.295-9.11.721-13.2-1.713-5.09-3.034-8.55-8.342-9.91-14.05-1.39-5.801-.72-12.161 2.61-17.199 3.57-5.396 8.31-7.106 14.39-8.35"/><path fill="#FFFEFE" d="M1648.83 470.919c2.19-.006 4.06.017 6.21.511 3.74.861 6.91 3.846 8.79 7.089 2.08 3.607 2.38 7.637 1.27 11.614-1.35 4.799-3.91 6.426-8 8.761-1.2.056-2.43.141-3.62.073-3.88-.223-6.82-1.408-9.31-4.436-2.58-3.142-3.49-7-2.99-10.999.71-5.745 3.21-9.118 7.65-12.613"/><path fill="#19375E" d="M1782.37 961.09c8.61-.277 18.46 1.661 27.15 2.525l1.01 1.67-.92 1.481c-2.5.937-4.67 1.574-6.52 3.608.2 4.972.75 10.721-2.47 14.941-4.24 5.569-12.38 5.866-18.75 6.486 5.61 1.606 12.44 2.965 17.56 5.741 2.72 1.474 5.24 3.768 5.78 6.978.73 4.24-1.57 8.07-3.6 11.57-5.35 3.83-11.38 6.31-18.05 6.28-4.92-.02-10.26-1.52-13.61-5.32-2.26-2.55-3.14-5.77-2.73-9.13.77-6.43 5.45-10.371 10.22-14.159-3.17-3.305-6.19-6.301-7.72-10.712-1.46-4.219-1.92-8.904.21-12.98 2.71-5.196 7.14-7.137 12.44-8.979"/><path fill="#FFFEFE" d="M1779.41 999.482c1.8.275 3.54.678 5.32 1.088 5.22 1.23 9.53 1.56 12.54 6.41-.56 3.43-1.53 4.19-3.71 6.8-.25.09-.5.18-.76.26-4.47 1.3-11.54 2.29-15.53-.84-1.81-1.42-2.65-3.23-2.53-5.51.17-3.34 2.62-5.82 4.67-8.208m5.58-32.435c4.08.726 7.4 1.232 9.7 5.147 1.36 2.308 1.56 4.641.62 7.15-1.58 4.234-4.63 5.42-8.54 6.836-.86-.111-1.72-.212-2.56-.387-3.08-.641-5.34-1.635-6.92-4.584-1.26-2.356-1.25-4.78-.32-7.224 1.53-3.99 4.33-5.417 8.02-6.938"/><path fill="#19375E" d="M1454.85 257.076c12.29-.412 26.94-2.304 37.39 5.487 6.38 4.749 10.08 12.207 10.99 20.013 1.12 9.622-1.79 16.705-7.57 24.157-11.72 9.621-26.16 7.883-40.35 7.88a2773 2773 0 0 1-.46-57.537"/><path fill="#FFFEFE" d="M1463.12 264.035c8.95-.205 17.13-.51 24.59 5.341 4.34 3.399 7.6 8.701 7.87 14.292.34 6.767-2.6 13.733-6.95 18.743-7.64 5.751-16.4 5.161-25.45 5.17-.3-14.5-.07-29.042-.06-43.546"/><path fill="#66C9D2" d="M1316.43 1657.21c3.06-9.59 7.71-18.97 17.03-23.95 6.41-3.42 14.38-3.65 21.17-1.21 8.04 2.88 15.09 9.36 18.59 17.15 3.07 6.86 3.32 15.53.64 22.55-2.75 7.19-8.71 12.38-15.65 15.42a30.25 30.25 0 0 1-23.18.43c-8.46-3.35-13.38-9.95-16.62-18.22a94 94 0 0 1-1.43-3.93l-249.85.3-75.238.2c-16.237.02-32.757-.56-48.95.71l.025-9.53c74.493 1.34 149.183.86 223.703.74 49.85-.07 99.95.84 149.76-.66"/><path fill="#FFFEFE" d="M1345.7 1639.22c3.33.26 6.57.66 9.62 2.14 4.92 2.39 8.83 6.54 10.59 11.75a22.85 22.85 0 0 1-1.94 18.75c-4.08 7.11-9.24 9.26-16.85 11.36-4.28-.72-8.16-1.59-11.84-4-5.27-3.45-9.07-8.76-10.17-15a20.34 20.34 0 0 1 3.38-15.41c4.32-6.12 10.15-8.22 17.21-9.59"/><path fill="#66C9D2" d="M1059.93 1234.25c-1.03-11.71-1.67-21.65 6.43-31.27 4.92-5.86 11.82-9.66 19.48-10.33 6.99-.61 14.02 1.83 19.36 6.32 6.75 5.67 10.28 14.06 10.66 22.77.19 4.33-.36 8.73-.82 13.03 8.11 8.07 16.29 15.96 23.96 24.46 9.88 10.95 19.44 22.85 29.94 33.18 7.86-7.33 16.32-13.67 27.69-13.18 7.34.32 13.57 3.75 18.43 9.16 3.58 3.97 5.61 8.71 7.62 13.6l481.1.33 150.38-.2c16.93-.02 53.27-1.91 68.11.68.72 2.35.85 3.9.64 6.35-3.06 1.82-6.3 2.06-9.79 2.21-19.63.82-39.69-.21-59.36-.27l-119.33.05-510.58-.02c-2.51 10.87-5.27 20.15-15.59 26.23-6.58 3.88-14.34 4.73-21.66 2.58-7.73-2.27-13.02-6.74-18.47-12.37-19.2 18.84-36.26 39.65-55.52 58.42 2.54 10.22 3.73 18.51-2.05 28.12-4 6.64-10.43 11.53-18.08 13.06-7.98 1.59-16.82-.52-23.34-5.34a29.18 29.18 0 0 1-11.47-19.79c-.56-4.46.14-9.32.58-13.78-32.22-36.83-70.073-69.28-121.139-72.77-8.36-.58-16.804-.45-25.176-.21l.086-8.63c9.744.12 19.656.49 29.359-.49 35.564-3.6 68.68-21.04 94.02-45.82 8.54-8.36 16.15-17.58 24.53-26.08"/><path fill="#FFFEFE" d="M1080.16 1376.14c3.38-.24 6.99-.56 10.33.18 5.68 1.27 11.1 5.37 13.98 10.4a21.14 21.14 0 0 1 2.02 16c-2.15 7.98-7.55 12.21-14.5 16.02-3.52.4-6.96.75-10.45-.12a20.9 20.9 0 0 1-13.5-10.74 23.42 23.42 0 0 1-1.46-17.71c2.34-7.35 6.98-10.65 13.58-14.03m3.11-175.06c3.86-.25 7.58-.5 11.27.9a21.1 21.1 0 0 1 12.17 12.26c2.17 5.74 2.11 12.24-.55 17.81-3.24 6.81-8.49 9.4-15.33 11.67-3.69.17-7.54.17-11.08-.99-4.97-1.61-9.29-5.63-11.49-10.33-2.58-5.51-2.64-12.04-.4-17.66 3.05-7.67 8.13-10.59 15.41-13.66m106.92 86.04c4.02.04 7.59.18 11.29 1.91 5.75 2.68 10.21 7.32 12.36 13.32 2.09 5.83 1.93 12.21-.8 17.81-3.26 6.65-8.46 9.71-15.25 11.96-3.14-.06-6.4-.02-9.42-.97-6.3-1.98-11.9-6.51-14.65-12.56a21.64 21.64 0 0 1-.14-17.24c3.16-7.6 9.29-11.32 16.61-14.23"/><path fill="#FFFEFE" d="M1110.26 1242.13c11.68 5.74 43.79 46.29 53.11 57.69-.46 6.63-.2 13.3-.1 19.93-16.85 20.22-35.98 38.83-53.56 58.47-5.78-5.59-11.5-10.45-19.8-11.36-10.99-1.21-19.51 5.3-27.58 11.73a1416 1416 0 0 0-20.23-19.2c-22.57-22.53-45.622-36.94-75.142-48.88 40.422-11.24 69.352-37.63 96.802-67.94 1.77 1.35 3.56 2.7 5.42 3.93 7.32 4.85 18.29 6.58 26.81 4.51 5.68-1.39 11.2-3.74 14.27-8.88"/><path fill="#EC8120" d="M1060.03 653.624c-2.95-8.109-3.2-18.159.35-26.154a27.26 27.26 0 0 1 15.28-14.364c7.31-2.779 15.29-2.155 22.31 1.169 6.96 3.297 12.8 9.277 15.08 16.732 2.36 7.704 1.02 15.073-1.94 22.383 20.49 21.238 37.9 45.555 59.16 66.02 5.31-7.308 13.53-12.787 22.55-14.302 6.93-1.165 13.95.985 19.6 5.031 6.99 5 10.85 12.183 14.18 19.869 10.4 3.242 29.88.843 41.32.896l122.02-.052 527.65-.929-.15 10.791a24660 24660 0 0 0-268.58-.804l-423.35-.55c-2.22 8.53-6.59 16.477-14.55 20.898-7.43 4.121-16.43 4.497-24.4 1.77-7.45-2.554-12.86-6.974-18.61-12.108-20.35 18.142-35.29 41.849-55.13 60.653a30.93 30.93 0 0 1 .08 23.262c-2.85 7.267-8.32 12.959-15.59 15.864a28.13 28.13 0 0 1-22.2-.462c-7.35-3.383-12.46-9.524-14.9-17.184-2.36-7.391-1.7-14.839-.76-22.381-32.75-31.334-60.73-66.192-108.885-71.579-12.792-1.431-26.007-.849-38.875-.646l-.072-9.579c51.206.182 77.058-2.994 114.912-40.56 11.24-11.148 22.09-22.719 33.5-33.684"/><path fill="#FFFEFE" d="M1081.01 619.032c3.52-.207 7.28-.303 10.69.764 5.8 1.816 10.83 6.513 13.35 12.003 2.35 5.134 2.71 10.976.64 16.261-2.71 6.931-8.08 10.066-14.61 12.915-3.57.276-7.39.635-10.86-.438-5.2-1.604-9.86-5.461-12.38-10.282a21.04 21.04 0 0 1-.94-17.198c2.65-7.006 7.59-10.858 14.11-14.025m5.86 182.141c3.52.352 7 1.111 10.14 2.828 5.17 2.836 8.84 7.526 10.25 13.266a21.83 21.83 0 0 1-2.87 17.104c-3.98 6.251-8.87 8.292-15.89 9.741-3.81-.327-7.42-.659-10.87-2.459a21.16 21.16 0 0 1-10.61-13.466c-1.51-5.956-.58-12.24 2.83-17.38 4.23-6.381 9.8-8.267 17.02-9.634m104.21-87.913c4.29-.141 8.6.011 12.67 1.531 5.57 2.084 10.35 6.629 12.64 12.115 2.05 4.899 2.19 10.365.15 15.294-3.02 7.267-8.78 10.454-15.66 13.464-4.58.698-9 1.003-13.41-.665-5.6-2.114-10.16-6.302-12.39-11.89a21.9 21.9 0 0 1 .58-17.655c3.31-6.867 8.51-9.723 15.42-12.194"/><path fill="#FFFEFE" d="M1064.27 660.716c7.28 3.357 11.7 7.611 20.27 8.361 8.41.734 15.56-3.419 21.86-8.511 21.46 22.107 41.13 45.952 62.53 68.173l-2.78 12.124c-19.73 20.09-38.16 41.328-56.72 62.489-2.22-1.859-4.46-3.733-6.9-5.306-7.74-4.99-13.83-5.3-22.66-3.522-5.65 2.598-10.14 5.752-14.82 9.77-39.25-34.037-44.88-56.403-100.025-71.301 44.905-11.55 68.355-40.459 99.245-72.277"/><path fill="#19375E" d="m902.79 1059.61 8.501.11c1.407 28.76.585 57.9.635 86.7l.095 160.22-.086 8.63c-.312 103.3-1.078 206.85.474 310.13 9.815 1.79 17.858 5.32 23.639 13.8 3.695 5.43 5.478 11.61 6.919 17.93l-.025 9.53c-.754 3.44-1.817 6.82-3.386 9.98a35.23 35.23 0 0 1-21.163 17.98c-9.287 2.76-20.025 1.59-28.412-3.3-10.438-6.08-13.899-15.33-16.602-26.41-11.03 5.77-21.317 13.91-31.388 21.21l-41.915 30.35-180.377 128.35a4842 4842 0 0 1-70.519 49.61c-13.524 9.38-27.125 19.68-41.55 27.6-13.897 7.63-29.543 13.11-44.914 16.87-64.431 15.75-135.268 3.21-191.645-31.16-62.688-38.22-109.158-104.37-126.136-175.66-18.303-76.86-7.42-156.33 34.561-223.66 39.119-62.75 97.813-103.5 169.754-119.96 44.807-10.25 96.064-6.69 138.993 9.61 29.236 11.1 53.163 28.66 78.524 46.42l55.398 38.61 130.852 90.05c40.105 27.98 79.794 56.98 121.264 82.93.653-5.13 1.722-10.18 4.218-14.77 5.399-9.91 14.116-13.29 24.378-16.12z"/><path fill="#FFFEFE" d="M901.141 1635.05c5.291-.46 10.828-.63 15.809 1.48a24.5 24.5 0 0 1 13.489 13.82c2.731 6.98 2.658 15.42-.59 22.22-3.588 7.51-9.228 11.01-16.904 13.48-3.909.23-7.842.55-11.663-.52a25.92 25.92 0 0 1-16.428-13.52 25.68 25.68 0 0 1-1.179-20.15c3.15-8.64 9.369-13.2 17.466-16.81M392.585 1506.4c36.893-4.63 81.836 9.56 111.141 31.82 33.313 25.29 55.476 65.31 60.91 106.54 5.578 42.32-4.955 87.01-31.357 120.99-29.652 38.15-66.619 57.04-114.042 63.05-44.08 3.21-83.751-9.19-118.044-37.19-32.068-26.19-51.01-65.98-54.88-106.82-4.206-44.39 7.284-87.32 36.025-121.74 27.092-32.45 68.415-52.72 110.247-56.65"/><path fill="#19375E" d="M390.908 1517.39c36.078-4.46 74.76 7.02 104.014 28.27 30.72 22.31 53.335 58.68 58.878 96.23 6.13 41.54-3.195 83.02-28.516 116.69-24.817 32.99-60.34 53.3-101.124 59.2-40.448 4.17-79.455-5.99-111.839-30.9-30.902-23.77-49.275-60.99-54.02-99.25-5.181-41.78 3.789-80.95 29.962-114.37 25.007-31.93 62.645-51.16 102.645-55.87"/><path fill="#FFFEFE" d="M373.892 1547.32c17.128-.4 44.722-2.4 60.647 1.71 4.07 7.26 1.883 32.77 1.898 42.53 18.222 9.63 30.791 21.33 38.034 40.92 17.49-.18 35.09-.77 52.565.01l.291 68.32a932 932 0 0 1-55.648.13c-15.123 22.02-25.069 25.25-47.478 36.54-1.073 2.13-.855 2.31-.368 4.69 3.794 3.92 10.225 3.09 14.111 6.45 5.721 4.96 2.985 35.39 2.908 43.38l-11.602.16a2151 2151 0 0 1-59.946-.05c-.468-14.37.336-28.82.835-43.19 5.972-2.83 13.534-3.82 18.578-8.27-2.516-2.87-9.137-4.79-12.851-6.53-14.802-6.96-25.342-17.99-33.539-31.89-17.82-.28-35.762.3-53.527-1.2-.013-16.89-2.237-53.21 2.127-67.94 4.633-3.76 39.747-1.62 48.387-1.74a75 75 0 0 1 2.961-6.57c6.541-12.75 19.617-25.24 33.55-29.48 2.043-.62 3.336-1.04 5.08-2.38l-.174-1.53c-3.105-2.91-7.239-4.2-11.122-5.81-.269-10.4-1.88-23.01.315-33.13.613-2.83 1.682-3.52 3.968-5.13"/><path fill="#19375E" d="M461.636 1634.93c-3.607-6.04-7.135-12.91-12.222-17.84-4.994-4.83-18.184-11.1-20.524-14.79 2.403-.96 3.539-1.16 6.019-.15 11.85 4.81 22 18.57 29.487 28.38 2.937.46 6.307.49 8.609 2.53l.394 2.97c-2.953 2.47-5.858.15-8.455 2.97.636 8.88 3.572 16.52 1.653 25.49l-4.132-1.44c.17-.37.374-.73.509-1.12 1.95-5.59 1.474-16.03-1.21-21.37-1.555-3.1-3.049-2.89-6.104-3.75 2.9-.2 3.821.18 5.976-1.88"/><path fill="#FFFEFE" d="m387.837 1602.2.618-1.66c2.84-7.74 3.794-15.65 12.288-19.58 2.91-1.35 5.996-1.28 8.934-.09 5.742 2.32 11.393 8.34 13.561 14.09 1.316 3.5 2.428 7.12 3.593 10.67 12.642 5.55 20.749 9.96 27.892 22.37 2.14 2.66 3.951 5.17 6.913 6.93-2.155 2.06-3.076 1.68-5.976 1.88 3.055.86 4.549.65 6.104 3.75 2.684 5.34 3.16 15.78 1.21 21.37-.135.39-.339.75-.509 1.12l4.132 1.44c3.598-.39 7.807-1.41 10.809 1.16.271.23.499.5.749.76-.635 2.54-.503 3.76-3.06 5-1.169.57-3.031.71-4.329.93-2.671 4.86-3.243 11.08-5.344 16.33-5.774 14.42-20.2 30.32-35.306 35.21-6.295 2.04-8.818-2.09-13.779 4.16-2.29 2.88-4.905 3.27-8.401 3.48-12.841.79-35.257-8.97-44.5-17.33-10.331-9.36-15.279-22.18-20.65-34.7l-2.282-2.03c-3.027-2.66-6.53-5.37-7.024-9.71-.502-4.41 4.144-9.22 6.8-12.44 2.475-3.01 3.127-4.47 3.607-8.45.045-.38.078-.75.117-1.13 4.537-12.94 10.406-23.07 19.801-33.09 4.593-3.75 9.897-7.6 15.345-9.98 3.389-1.48 5.241-1.82 8.687-.46"/><path fill="#19375E" d="M397.497 1635.82c10.807-.04 20.891-1.45 29.494 6.2 3.065 2.41 4.472 4.33 4.941 8.35.49 4.21.015 7.52-2.155 11.15-2.002 1.36-2.461 1.69-4.845 1.91-1.936-1.35-2.636-2.06-4.988-2.46l-.422 2.67c2.017 1.83 3.049 1.57 5.63 1.93l-.772 2.05a56 56 0 0 1-5.409 1.59c-1.88 3.24-.49 7.41-1.989 11.34 2.832.78 4.224 1.04 6.219 3.35.55 2.55.507 2.6-.616 4.96-2.335 1.66-3.598 2.01-6.446 2.24-7.445.8-15.453 1.18-22.805-.58-2.401-.58-4.473-1.41-5.867-3.54-.052-2.51.323-2.75 1.756-4.86 2.448-1.03 5.792-2 7.32-4.3.26-.39.482-.81.723-1.21.297-1.86.526-3.43.329-5.31-1.747-.89-3.092-1.67-4.527-3.01-1.901-6.24-.406-13.83-.366-20.33-4.034 3.6-3.522 13.1-7.907 15.81l-5.419-2.94c4.673-10.6 7.641-18.98 18.121-25.01"/><path fill="#FFFEFE" d="M399.078 1676.58c2.231-2.53 3.898-4.5 7.004-5.9 2.571.41 2.397.65 4.003 2.75.13 2.22.121 4.53.494 6.72-2.884.15-6.198.66-8.972-.25-1.601-.53-1.801-1.93-2.529-3.32m2.622-37.54c4.085-.12 9.814-1.02 13.563.63.563 3.46-2.109 5.82-4.053 8.61-.278.09-.542.25-.832.28-3.562.39-5.31-.52-7.934-2.67-1.276-3.16-1.968-3.55-.744-6.85"/><path fill="#19375E" d="m387.837 1602.2.618-1.66c2.84-7.74 3.794-15.65 12.288-19.58 2.91-1.35 5.996-1.28 8.934-.09 5.742 2.32 11.393 8.34 13.561 14.09 1.316 3.5 2.428 7.12 3.593 10.67 12.642 5.55 20.749 9.96 27.892 22.37 2.14 2.66 3.951 5.17 6.913 6.93-2.155 2.06-3.076 1.68-5.976 1.88-2.203 2.28-3.348 3.17-6.357 4.16-6.974-2.31-2.832-12.58-7.177-17.5-5.16-5.85-14.293-2.76-19.41-8.3-1.14-3.83-.399-5.45.489-9.29l-1.679-2.02c-1.321 3.21-1.441 6.4-2.23 9.72-5.376 3.47-12.598 8.29-19.346 6.22-3.813-1.16-5.742-3.31-8.077-6.4-5.953 1.25-10.802 4.18-16.16 6.9-12.123 10.2-16.606 22.15-21.056 36.9 2.467 2.5 4.282 3.53 4.899 7.05-1.756 3.13-3.835 6.01-5.591 9.13 6.974 13.54 11.829 25.65 24.085 35.45 6.419 1.72 11.461-4.98 15.148 1.31 3.426 5.85 2.602 13.77 10.225 16.75 2.326.92 3.752.89 6.01-.23 3.437-1.71 6.389-7.91 8.234-11.17l1.83-.12c6.319-1.62 13.677-4.95 19.165-8.48 9.61-6.2 19.69-17.89 21.896-29.25.442-2.28 1.551-5.57.214-7.52-3.134 3.29-5.033 15.61-11.699 23.89-8.108 10.07-19.033 17.26-32.065 18.4l-.959-.9c3.057-5.27 15.996-7.1 21.62-10.95 12.913-8.84 17.13-20.23 19.199-35.03.517-3.7 1.503-8.24 1.207-11.95-.344-4.3-3.249-8.82-2.409-13.06l2.026-.41 2.121 1.47c1.71 5.87 1.744 12.9 1.302 18.97-.02.28-.046.55-.069.83l1.419 1.67 4.132 1.44c3.598-.39 7.807-1.41 10.809 1.16.271.23.499.5.749.76-.635 2.54-.503 3.76-3.06 5-1.169.57-3.031.71-4.329.93-2.671 4.86-3.243 11.08-5.344 16.33-5.774 14.42-20.2 30.32-35.306 35.21-6.295 2.04-8.818-2.09-13.779 4.16-2.29 2.88-4.905 3.27-8.401 3.48-12.841.79-35.257-8.97-44.5-17.33-10.331-9.36-15.279-22.18-20.65-34.7l-2.282-2.03c-3.027-2.66-6.53-5.37-7.024-9.71-.502-4.41 4.144-9.22 6.8-12.44 2.475-3.01 3.127-4.47 3.607-8.45.045-.38.078-.75.117-1.13 4.537-12.94 10.406-23.07 19.801-33.09 4.593-3.75 9.897-7.6 15.345-9.98 3.389-1.48 5.241-1.82 8.687-.46"/><path fill="#FFFEFE" d="M343.017 1658.84c3.107-.05 4.832.04 7.636 1.66 1.128 1.66 2.24 2.73 1.546 4.91-1.025 3.22-3.331 3.99-5.994 5.53-2.271.12-3.763.4-5.85-.67-1.571-.81-1.439-1.62-1.995-3.16.783-3.62 2.31-5.47 4.657-8.27"/><path fill="#19375E" d="M363.805 1612.64c4.593-3.75 9.897-7.6 15.345-9.98 3.389-1.48 5.241-1.82 8.687-.46l.513 2.31c-6.717 3.09-17.708 7.06-22.325 12.87-8.2 9.84-14.621 19.21-17.347 31.97-1.65-1.07-3.145-2.38-4.674-3.62 4.537-12.94 10.406-23.07 19.801-33.09"/><path fill="#FFFEFE" d="M400.683 1586.86c1.562-.13 3.285-.34 4.845-.2 3.612.34 6.707 2.2 8.741 5.19 2.55 3.74 3.084 8.2 2.227 12.57-1.119 5.72-2.991 8.18-7.752 11.44-4.582.26-8.106.59-11.72-2.84-2.279-2.16-3.398-6.07-3.372-9.13.057-6.6 2.481-12.37 7.031-17.03"/><path fill="#EC8120" d="M871.923 1030.82c-10.994 5.76-21.373 13.75-31.573 20.85-20.781 14.46-41.254 29.38-61.862 44.09L603.549 1220.3c-41.115 29.48-76.731 60.56-126.185 75.89-66.549 20.64-139.717 8.83-200.274-23.6-61.449-32.9-108.388-95.9-128.033-162-21.875-73.59-17.383-158.786 19.706-226.8 34.559-63.373 90.598-113.022 160.482-133.373a260.5 260.5 0 0 1 176.906 11.922c30.669 13.185 57.4 37.086 84.405 56.451l182.328 132.793 50.24 36.408c15.961 11.713 31.585 24.029 49.012 33.519a179 179 0 0 1 3.74-9.18c4.779-10.9 9.954-15.392 21.101-19.641 1.601-.61 2.704-.997 4.17-1.975.333-.222.635-.488.952-.731 3.598-.807 6.129-.828 9.737-.064l1.426.783c14.749 8.013 21.975 10.888 27.138 27.838a79 79 0 0 1 .568 1.97l228.422-.28c47.22.12 94.58.85 141.78-.11 4.81-10.69 8.7-18.2 20.24-22.823 6.57-2.631 13.45-2.835 19.98.029 7.15 3.134 12.97 9.404 15.76 16.674 3.03 7.92 2.48 17.22-1.23 24.83-3.11 6.38-8.43 10.89-15.26 12.84-7.58 2.16-16.58 1.57-23.52-2.29-7.93-4.4-12.29-11.52-15.55-19.69l-370.734.36c-3.599 10.82-7.107 20.66-18.075 26.03-3.597 1.76-7.624 2.66-11.49 3.64l-8.501-.11c-2.095-.46-4.189-.95-6.231-1.61-12.787-4.15-18.793-16.11-24.636-27.18"/><path fill="#FFFEFE" d="M1334.13 1004.22c6.04-.68 12.2-.66 17.55 2.64 6.88 4.24 8.89 11.42 10.77 18.74-2.95 9.78-5.64 13.71-14.58 18.72-3.6.81-7.55 1.34-11.21.67a19.35 19.35 0 0 1-12.59-8.5c-3.23-5.02-4.05-11.48-2.64-17.24 1.86-7.58 6.16-11.29 12.7-15.03m-431.75-4.1c4.502-.297 8.681-.415 12.997 1.12a25.84 25.84 0 0 1 14.978 13.49 24.12 24.12 0 0 1 .57 19.2c-3.252 7.99-9.142 11.99-16.754 15.39-5.403.97-11.439 1.08-16.611-.97-6.303-2.5-11.027-7.42-13.354-13.79-2.368-6.47-2.229-13.94.742-20.2 3.66-7.71 9.745-11.31 17.432-14.24m-353.222 33.67c9.313-.2 18.644.01 27.958.1-2.824 49.21-22.044 86.97-56.702 121.39l-6.207 5.71c-4.688-7.56-10.432-13.76-16.644-20.09 33.764-32.22 48.042-60.84 51.595-107.11m-35.91-137.975c39.555 35.13 58.257 74.789 63.788 127.015l-16.536.15-10.962-.1c-2.617-41.998-23.726-78.176-54.104-106.241zm-221.226 3.794c7.383 4.165 15.124 14.746 21.11 21.026-21.136 19.305-39.752 46.552-46.526 74.681-2.087 8.664-2.002 20.644-5.887 28.444l-3.469.44-24.294-.31c6.601-52.636 22.334-85.827 59.066-124.281m-58.901 136.421 29.388.18c3.019 43.76 19.852 78.3 52.929 107.29l-10.325 11.11c-2.847 3.37-6.026 6.52-9.064 9.72-41.672-35.98-57.782-74.47-62.928-128.3m254.659 110.96c5.703 6.7 10.314 13.83 14.292 21.66-12.231 11.44-29.763 19.87-45.533 25.07-45.988 15.19-92.932 8.43-135.603-13.19-4.727-2.65-9.166-5.73-13.658-8.76 5.357-8.37 11.643-16.33 17.488-24.39 18.116 12.45 36.477 20.27 58.241 23.86 37.358 6.16 74.05-2.26 104.773-24.25m-99.259-289.613c41.593-5.293 81.877 10.362 116.052 32.738a403 403 0 0 1-19.517 19.442c-21.924-13.196-42.709-18.952-68.097-21.535-36.131-.78-64.688 6.502-95.306 25.744-6.278-7.494-13.598-14.297-20.469-21.253 23.578-19.963 56.991-31.612 87.337-35.136"/><path fill="#FFFEFE" d="M400.854 897.416c29.287-1.189 61.991 9.303 85.406 26.807a130.78 130.78 0 0 1 51.237 87.077 130.45 130.45 0 0 1-26.471 99.59c-24.728 31.94-58.697 47.05-97.791 51.98-34.987.13-67.527-9.97-94.702-32.49-26.706-22.12-42.179-53.65-45.128-88.09-3.169-36.99 8.602-71.247 32.463-99.535 23.403-27.745 59.496-42.23 94.986-45.339"/><path fill="#EC8120" d="M397.267 928.338c7.057-.214 20.721-2.548 26.02 2.63 4.525 4.421 3.786 10.969 3.673 16.733 10.045.112 20.011.577 29.274 4.928 5.643 2.651 10.726 6.982 12.73 13.056 1.359 4.119 1.056 8.246-.946 12.092-3.798 7.292-11.76 12.128-19.299 14.593-.46-.151-.918-.309-1.381-.454-12.385-3.876-25.502-15.862-38.6-14.499-5.318.554-11.479 2.823-14.858 7.178-1.423 1.833-2.27 4.214-1.6 6.534 3.118 10.801 40.32 17.971 50.943 22.611 11.778 5.15 23.442 12.86 27.967 25.5 4.387 12.25 3.253 29.09-2.587 40.66-8.466 16.78-24.396 24.61-41.376 30.04-.217 7.7-1.092 14.95-2.916 22.44-7.136 2.51-13.818 2.65-21.283 2.68-3.821-.23-7.629-.47-10.632-3.11-5.295-4.64-3.489-11.68-4.201-17.9-6.001-3.44-17.557-3.31-24.514-4.7-9.6-1.9-18.357-4.97-26.826-9.86.118-7.81-2.544-20.61 1.529-27.33 4.254-7.03 16.302-8.63 23.714-10.35 6.237 4.48 13.487 14.25 20.887 16.07 2.823.7 3.438.35 5.908-.86 1.056-1.84 2.156-3.65 3.293-5.44 4.926-.63 9.647 3.71 14.876 4.04 3.321.21 7.562-.42 9.818-3.07 2.055-2.41 3.017-6.98 2.089-10.03-2.79-9.19-23.854-11.59-31.961-14.42-6.764-2.36-13.466-5.39-19.522-9.24-12.084-7.68-20.3-19.12-23.335-33.15-2.82-13.024-.692-27.294 6.919-38.359 8.363-12.157 21.65-19.166 35.926-21.544.967-3.894 1.812-8.153 3.486-11.804 1.55-3.381 3.432-4.369 6.785-5.665"/><path fill="#FFFEFE" d="M400.047 939.761c5.89-.261 11.833-.133 17.731-.144.013 4.884-.514 10.867.857 15.561.261.891 1.189 2.818 2.078 3.182 4.527 1.857 25.371-2.115 36.224 5.205 2.362 1.593 2.66 2.721 3.17 5.414-1.514 5.62-7.114 10.645-11.707 13.864-13.805-7.062-26.2-16.775-42.688-14.935-6.776.755-15.557 4.422-19.59 10.182-3.156 4.508-3.915 12.609-2.56 17.824 4.312 16.586 44.384 20.726 59.737 29.476 9.289 5.29 16.97 13.01 19.498 23.68 2.369 10 1.576 19.75-3.903 28.51-9.35 14.96-24.424 20.52-40.744 24.13.036 5.84 1.421 17.05-3.248 21.37-1.268 1.17-3.965.73-5.652.77-3.363-.01-6.891.19-10.2-.4-2.798-6.09-.014-14.28-2.912-20.27-1.085-2.25-1.942-2.85-4.406-3.25-4.472-.71-10.101.78-14.681 1.05-9.114.52-20.674-4.73-29.031-8.05-.487-4.24-1.511-9.33-.475-13.51.762-3.08 1.868-4.95 4.597-6.69 9.12-1.67 19.551 8.96 27.509 12.58 4.228 1.93 7.868 2.96 12.353.99 10.922-4.8 25.037.04 33.878-10.01 3.491-3.97 4.99-10.57 4.551-15.74-1.178-13.86-27.904-17.42-38.292-21.34-8.741-3.29-17.696-7.62-24.918-13.63-8.446-7.03-13.59-15.63-14.386-26.716-.707-9.853 2.127-21.68 8.819-29.187 9.083-10.187 21.697-12.48 34.61-13.245 1.683-5.43 2.638-11.106 3.781-16.671"/><path fill="#19375E" d="M874.227 386.418c-22.755 13.21-43.655 31.05-65.081 46.365L656.791 540.639a3620 3620 0 0 1-66.763 46.549c-43.63 30.338-89.408 63.723-142.068 75.978-58.334 13.574-128.725-6.452-178.692-37.849-62.803-39.463-109.463-106.775-125.68-179.091a289.1 289.1 0 0 1 37.761-218.023c39.116-60.799 102.312-106.135 173.27-121.027 46.025-9.658 97.443-6.037 141.207 11.512 23.402 9.384 43.09 24.287 63.553 38.65l67.095 47.984L767.549 305.66c35.143 25.228 69.868 51.707 106.112 75.29 1.27-4.693 2.391-9.808 4.795-14.063 4.387-7.767 11.598-13.76 20.263-16.078a31.9 31.9 0 0 1 24.809 3.436c8.915 5.399 14.354 13.801 16.974 23.707l372.538-.001c.65-2.15 1.31-4.325 2.17-6.403 2.89-6.96 9.82-13.62 16.79-16.416 7.46-2.997 17.08-2.652 24.33.812 7 3.344 11.59 9.671 13.84 16.977a32.2 32.2 0 0 1-2.45 25.119c-3.66 6.789-9.75 12.272-17.26 14.386-7.87 2.215-15.9.188-22.81-3.871-8.99-5.286-11.5-12.074-14.17-21.607l-373.091.121c-1.431 6.384-3.136 12.478-7.041 17.846-5.395 7.416-13.409 10.956-22.198 12.503l.027 175.421c-.045 44.964-.662 90.081.441 135.029l.072 9.579c-1.089 17.305-.511 34.871-.48 52.215l.217 87.346c.128 37.39-2.184 75.655.409 112.911-3.608-.764-6.139-.743-9.737.064-.993-51.319.603-102.949.601-154.315l-.74-417.742c-5.094-1.76-10.551-3.705-14.958-6.871-8.603-6.18-11.234-14.661-12.775-24.637"/><path fill="#FFFEFE" d="M1336.98 362.154c4.89-.379 9.15-.756 13.74 1.292 5.35 2.383 9.44 7.097 11.35 12.581 1.94 5.582 1.76 11.898-.85 17.24-2.94 6.015-7.05 8.608-13.16 10.795-3.52.256-7.11.402-10.57-.418-5.53-1.31-10.53-5.226-13.2-10.231a21.44 21.44 0 0 1-1.16-17.268c2.5-6.947 7.42-10.825 13.85-13.991m-433.544-3.004c4.91.113 9.434.351 13.941 2.493a24 24 0 0 1 12.856 14.939 24.56 24.56 0 0 1-2.635 19.62c-4.296 6.971-10.631 9.951-18.371 11.591-4.515-.003-8.424-.435-12.577-2.334-6.2-2.835-10.793-7.677-12.963-14.17-2.094-6.269-1.3-13.28 1.86-19.055 3.956-7.231 10.22-10.817 17.889-13.084m-363.598-61.372.88.629c1.784 4.575.165 49.483.166 58.984-15.535 5.449-30.898 15.302-45.491 23.023-20.186 10.68-40.639 20.848-60.878 31.431l-.52-.048c-2.087-2.349-1.039-51.852-1.032-58.515 21.284-11.659 43.298-22.207 65.04-32.992 14.142-7.015 28.665-13.759 41.835-22.512"/><path fill="#19375E" d="M494.106 338.88c2.981.017 6.052-.229 8.439 1.897 2.136 1.904 3.303 4.262 3.412 7.138.214 5.618-2.314 9.576-6.045 13.481-3.462-.096-5.616-.206-8.303-2.583-2.396-2.12-3.448-5.498-3.344-8.614.176-5.246 2.028-7.912 5.841-11.319m-24.144 9.908c3.283.2 6.081.183 8.667 2.611 2.382 2.236 3.381 5.136 3.114 8.334-.465 5.567-2.948 8.23-7.052 11.726-2.889-.537-5.67-1.205-7.872-3.318-2.361-2.266-3.609-4.978-3.457-8.251.237-5.115 2.89-7.931 6.6-11.102m50.095-25.837c1.384-.101 3.064-.321 4.467-.166 2.593.287 5.325 1.389 6.887 3.597 1.633 2.308 2.296 4.77 1.959 7.566-.74 6.143-3.625 9.201-8.413 12.76-3.367-.248-7.211-.951-9.534-3.669-1.889-2.21-2.811-4.607-2.682-7.515.253-5.687 3.164-9.061 7.316-12.573"/><path fill="#FFFEFE" d="m538.83 436.87 1.466.259c2.416 6.672 1.079 49.003 1.359 58.958a3361 3361 0 0 1-106.221 54.046l-1.698.313c-2.761-4.291-1.139-48.9-1.119-57.239z"/><path fill="#19375E" d="M495.307 478.711c.468.032.938.042 1.404.095 3.274.373 5.754 1.683 7.521 4.569 1.87 3.055 1.707 6.651.573 9.908-1.569 4.501-4.138 6.003-8.15 8.116-2.78-1.016-5.175-2.171-7.026-4.588-1.779-2.323-2.633-4.936-2.154-7.891.81-5.004 3.832-7.521 7.832-10.209m-25.122 11.237c3.313-.245 6.667-.237 9.18 2.271 1.935 1.931 2.832 4.519 2.828 7.215-.007 5.89-2.585 9.656-6.728 13.536-3.068-.125-5.313-.204-7.798-2.346-2.492-2.147-3.464-5.199-3.391-8.395.123-5.378 2.258-8.546 5.909-12.281m49.831-26.026c.501-.013 1.003-.047 1.504-.039 3.432.052 7.12.911 9.39 3.726 2.056 2.548 2.765 5.3 2.335 8.496-.731 5.433-3.566 8.348-7.664 11.677-.367.026-.733.072-1.1.077-3.196.044-6.002-1.113-8.173-3.479-2.668-2.907-3.343-6.634-2.874-10.452.607-4.945 2.946-6.973 6.582-10.006"/><path fill="#FFFEFE" d="M540.234 365.107c2.796 4.992 1.237 52.036 1.219 61.923a2642 2642 0 0 0-106.884 56.291l-1.347-.257c-2.153-16.508-.425-43.525-.432-61.045 11.503-5.442 22.539-12.077 33.874-17.894 24.679-12.665 49.569-25.099 73.57-39.018"/><path fill="#19375E" d="M468.777 419.587c2.724-.047 5.367-.169 7.778 1.393 2.332 1.511 3.53 3.638 4.051 6.302 1.028 5.257-1.66 10.263-4.681 14.288-2.231-.137-4.255-.169-6.321-1.15-3.121-1.481-4.909-4.053-5.594-7.378-1.074-5.213 1.692-9.592 4.767-13.455m23.903-11.832c3.168.103 6.251.048 8.721 2.396 2.073 1.972 2.973 4.379 3.146 7.181.32 5.19-2.645 9.826-6.23 13.227-3.152-.665-5.776-1.361-8.047-3.889-2.24-2.494-3.309-5.57-3.051-8.911.347-4.498 2.214-7.053 5.461-10.004m27.304-13.807c1.105-.045 2.21-.085 3.317-.054 3.188.088 5.951 1.359 8.048 3.76 2.157 2.471 2.981 5.683 2.559 8.906-.684 5.217-3.304 7.804-7.315 10.898-1.112.108-2.226.211-3.344.223-3.191.032-6-1.311-8.072-3.743-2.478-2.909-3.004-6.723-2.294-10.368.934-4.79 3.255-6.861 7.101-9.622"/><path fill="#FFFEFE" d="M284.099 271.527c12.098 4.87 35.999 20.748 48.431 27.977 30.716 17.861 62.508 34.624 92.401 53.798l-.098 60.371c-45.373-30.25-94.896-54.425-141.678-82.413-.261-19.89.49-39.845.944-59.733m-.88 140.646c21.523 9.794 42.557 23.398 62.968 35.403l78.816 45.806-.087 59.512c-17.282-6.752-34.586-18.563-50.735-27.77a3460 3460 0 0 1-54.301-31.787c-12.218-7.214-24.805-13.98-36.381-22.206-.482-19.617-.202-39.33-.28-58.958m.763-71.595c9.544 5.109 18.636 11.461 28.065 16.86l112.497 65.212c.342 19.784 2 40.803-.052 60.426l-141.449-81.253c-.189-20.405.449-40.846.939-61.245m112.78-130.679a8682 8682 0 0 0 137.307 81.286c-10.209 6.913-21.803 12.259-32.79 17.836-23.655 12.006-47.951 23.216-71.093 36.159-1.312.072-2.252-.005-3.54-.469-5.674-2.046-22.099-13.905-28.674-17.714l-105.149-60.812c33.084-21.257 71.301-34.237 103.939-56.286"/></svg>