<svg xmlns="http://www.w3.org/2000/svg" style="display:block" viewBox="0 0 2048 2048"><path fill="#13416D" d="M0 0h2048v2048H0z"/><path fill="#EF6925" d="M415.374 107.917c2.828-.27 5.247-.616 8.021.24 1.579 2.78 1.23 4.418 1.223 7.574-2.599.273-4.54.417-7.141-.078-1.973-2.651-1.758-4.494-2.103-7.736m78.432 99.483c3.498.76 4.866 1.305 6.975 4.119.395 3.423-.556 5.251-1.997 8.221-.478-.079-.959-.139-1.433-.236-3.491-.708-4.766-1.493-6.577-4.398.127-3.433 1.166-4.995 3.032-7.706m-77.629-87.314c2.545.025 4.53.203 7.024.847 3.189 7.494.851 29.044.688 37.821-2.674.043-4.866.306-7.227-1.184-2.366-9.957-.548-26.764-.485-37.484m75.597 103.919c2.597.031 5.182.249 7.772.433 1.787 12.215.61 26.094.608 38.503-2.831.037-4.947.022-7.65-1.023-2.015-11.814-.708-25.842-.73-37.913M381.353 104.569l2.136 2.085c1.212 9.47 2.23 41.63-.177 50.321-.516 1.865-2.003 1.966-3.617 2.781-1.443-.855-1.972-1.281-3.038-2.478-1.156-7.417-2.627-45.019-.029-51.164zm14.761.24c2.363.084 4.499.357 6.818.82 3.025 4.92 1.265 45.09 1.208 53.708-2.708-.116-4.747-.339-7.365-1.173-2.835-9.321-.77-41.648-.661-53.355m146.995 2.91c2.316.002 4.617.184 6.926.343 6.198 4.372-2.518 38.448 3.389 45.256 2.393.288 3.974.288 6.057 1.622l-.1 3.085c-1.622.529-3.223 1.102-4.942 1.196-3.199.173-5.69-.779-7.862-3.129-5.989-6.479-3.462-38.392-3.468-48.373M485.9 121.046c2.149-.232 4.639-.567 6.769-.238 3.294.51 7.966 2.678 9.954 5.393-.546 2.619-1.135 2.735-3.202 4.509-3.119-.78-5.897-2.423-8.963-3.193-2.632-.661-3.921.125-6.077 1.488-1.444 2.257-1.972 4.153-2.248 6.78-.586 5.554-.379 11.845 3.33 16.297 3.173 1.667 6.278 1.328 9.75 1.276l1.515-.196.56 1.385c-.662 1.19-.811 1.598-1.809 2.683-2.154 2.34-6.988 3.329-9.974 2.682-4.468-.969-8.206-4.902-10.128-8.888-2.873-5.956-2.639-12.946-.387-19.057 2.142-5.815 5.433-8.37 10.91-10.921m-12.412 94.627c3.161 2.675.673 5.91 3.054 9.092 2.349-.003 4.505.06 6.839.395.955 1.714 1.865 2.469 1.62 4.465-1.532 1.534-2.599 1.593-4.661 1.849-1.801.223-3.293.4-5.007 1.049-.514 6.357-1.772 18.16.701 23.761 2.131.303 4.162.467 6.06 1.572 1.537.895 1.554 3.552 1.922 5.232-3.106.096-6.44.333-9.498-.334-13.987-3.051-3.065-22.552-8.165-31.02-1.701-.35-2.994-.761-4.539-1.555-.083-.711-.258-1.841-.14-2.53.584-3.42 3.529-2.278 5.837-4.557.147-1.037.261-2.971.695-3.997.975-2.308 3.151-2.579 5.282-3.422m-133.183 7.414c3.308-.081 7.677-.552 10.753.946 2.36 1.15 2.498 2.76 3.273 5.041-1.546 6.417-12.046-.745-19.402 4.157-2.361 3.323-3.01 6.392-2.826 10.469.161 3.563 1.71 7.39 4.641 9.595 5.651 4.251 13.377 2.755 19.989 2.383.064 1.301-.203 2.604-.369 3.893-1.081 1.584-1.952 3.027-3.79 3.84-3.527 1.562-8.878 1.093-12.47-.094-6.684-2.207-12.139-6.585-14.994-13.111-2.039-4.659-2.446-9.627-.482-14.376 2.616-6.322 9.649-10.482 15.677-12.743m270.583 1.024c3.31-.518 6.389-.526 9.719-.271 3.547.271 6.473.737 8.836 3.517l-1.075 2.003c-5.149 2.445-11.043 1.149-16.492 2.41-2.165.502-2.344.4-3.461 2.397.146.345.245.714.438 1.034 2.111 3.504 5.529 3.797 8.981 4.944 4.012 1.334 8.778 3.824 10.414 8.034 1.172 3.018 1.109 5.872-.445 8.752-2.423 4.488-6.132 5.793-10.798 7.093-3.03-.168-8.095.051-10.772-1.392-2.873-1.547-5.62-3.565-6.502-6.816l.957-1.63c5.245-1.961 9.727 3.098 15.398 2.943 2.522-.068 4.286-.918 6.001-2.643-1.6-5.734-15.515-10.89-20.655-14.421-1.15-1.744-1.361-3.514-.97-5.59 1.002-5.316 6.114-8.081 10.426-10.364m-311.882-1.008c5.011-.3 12.791-.47 16.706 3.172 1.148 1.068.856 1.757.966 3.194-1.184 2.111-1.171 3.038-3.446 4.057-1.785-1.296-3.635-2.83-5.561-3.892-2.281-1.258-4.021-1.542-6.545-.575-2.272.872-2.782 1.766-3.444 3.849 2.037 5.645 10.533 5.557 15.069 8.366 3.363 2.083 5.208 4.91 5.858 8.773.466 2.77-.199 5.566-1.976 7.755-3.588 4.417-8.335 5.622-13.721 6.354-5.037-.655-9.178-1.191-12.671-5.236-1.364-1.579-3.109-3.945-2.971-6.145.919-.784 2.373-2.414 3.431-2.851 3.696.581 5.308 3.896 7.777 6.661 2.508 1.203 5.382 1.597 8.091.669 2.443-.837 3.349-2.053 4.481-4.257-2.51-9.798-15.522-8.586-20.271-15.484-1.252-1.818-2.081-3.894-1.368-6.063 1.485-4.52 5.648-6.301 9.595-8.347m224.999 3.347c4.085-2.29 10.234-4.447 14.918-2.76 3.231 1.164 5.256 3.306 6.641 6.382 4.104 9.118 1.268 20.796 2.406 30.584l-1.13 1.582c-2.38.266-3.766.466-6.149.057-4.791-8.185 4.799-29.676-7.459-32.466-1.372-.312-2.759-.361-4.156-.359-14.594 8.13-2.672 24.228-8.057 32.699-2.854.352-4.615.378-7.472-.327-.114-.664-.274-1.323-.343-1.994-.408-3.91-.861-32.267.095-34.425.296-.668.99-1.076 1.485-1.614 2.933.105 4.651 1.644 6.924 3.397.244.189.481.386.722.579zm1.248-90.602c-1.369-3.171-1.67-4.35-4.449-6.524-4.1-.312-10.302.701-14.014-.457.323-2.546 2.614-4.073 4.616-5.623 2.897-2.241 6.925-4.22 10.679-3.436 3.559.743 6.35 3.722 7.928 6.848 3.376 6.69 4.562 22.425 2.09 29.774-.433 1.285-.633 1.453-1.314 2.417-1.959.257-2.845.315-4.56-.99-.578-.441-1.201-1.306-1.656-1.892-3.809 2.541-7.431 4.307-12.155 3.669-3.583-.484-7.165-2.358-9.013-5.562-1.225-2.124-1.505-4.672-.625-6.982 1.489-3.908 5.419-5.803 8.87-7.622 4.412-2.387 9.386-.558 13.603-3.62"/><path fill="#EF6925" d="M525.253 135.848c.091 3.899.354 7.86.071 11.748l-1.653-3.52c-2.96-1.85-7.045-1.103-10.431-.928-1.368-1.251-1.373-1.849-1.59-3.68 4.412-2.387 9.386-.558 13.603-3.62"/><path fill="#13416D" d="M513.24 143.148c3.386-.175 7.471-.922 10.431.928l1.653 3.52c-.768 1.389-1.871 2.92-2.212 4.464-2.696 1.574-5.357 3.353-8.624 2.483-2.58-.686-2.877-1.776-3.947-3.947.05-3.343.802-4.733 2.699-7.448"/><path fill="#EF6925" d="M369.715 223.06c3.526-.138 7.582-.382 10.958.857 3.599 1.322 6.086 4.112 7.72 7.512 3.541 7.37 3.228 23.005.463 30.732-.577.205-1.455.546-2.092.688-7.488 1.666-17.212 1.543-23.644-2.757a31.4 31.4 0 0 1-1.675-6.2c-.567-3.44.162-6.223 2.419-8.967 2.897-3.523 8.111-4.399 12.337-4.807 2.069-.2 3.505-.134 5.286-1.294.475-2.827-.031-3.737-.96-6.39-5.556-4.911-12.08-.244-18.267-2.071.092-.838.075-1.277.537-2.097 1.67-2.969 3.918-3.969 6.918-5.206"/><path fill="#13416D" d="M376.267 244.892c1.66.387 2.853.882 4.387 1.59 1.166 2.578 1.675 3.211.795 6.051-1.012 3.263-3.822 4.626-6.708 5.89-2.235-.869-3.429-1.701-5.139-3.378-.71-2.174-1.535-3.667-.266-5.881 1.645-2.869 4.084-3.258 6.931-4.272"/><path fill="#EF6925" d="M447.064 121.056c2.761-.17 5.763-.197 8.497.29 5.499.978 8.355 5.346 11.139 9.725l1.089 11.322c-6.405.062-20.487-1.897-25.667 1.294.083 1.059.101 1.933.442 2.977.867 2.651 2.396 4.452 4.961 5.584 4.995 2.206 10.627.187 15.301-1.716 1.803.713 2.398 1.14 3.454 2.772-1.019 2.15-1.473 2.734-3.616 3.999-4.877 2.877-10.593 2.936-15.89 1.316-4.981-1.525-9.037-4.915-11.33-9.605-2.387-4.884-2.489-10.533-.729-15.633 2.26-6.547 6.321-9.433 12.349-12.325"/><path fill="#13416D" d="M447.736 126.823c1.637.045 3.714-.031 5.243.676 2.301 1.064 4.637 3.907 5.312 6.304.482 1.709.24 1.26-.884 2.899l-3.157.298c-2.782.16-6.487.707-9.157.034-1.959-.493-1.981-.74-2.987-2.544.968-3.426 3.179-5.257 5.63-7.667"/><path fill="#EF6925" d="M247.083 208.738c9.301-.017 23.502-1.774 32.049 1.145l.213 3.548c-4.314 7.022-16.86-.87-23.375 3.975-1.221.908-1.102 4.442-1.277 5.962.131 3.747-.408 5.567 1.968 8.556 7.611 3.201 19.09-2.468 21.702 2.727-.3 1.451-.096 2.415-1.415 3.323-4.423 3.042-16.193 1.258-21.676 1l-.148 16.828c5.508-.091 10.991-.79 16.496-.978 3.057-.105 6.198-.634 8.486 1.498.102 2.104.729 3.307-.657 4.985-9.523 2.831-22.554 1.449-32.633 1.586zm168.327 14.311c3.198.208 7.169.38 10.018 2.035 1.405.816 2.403 3.809 4.175 3.744 6.52-.24 11.248-7.96 18.717-5.396 2.138.735 3.729 2.688 4.712 4.671 3.037 6.127 4.318 28.109 2.123 34.521l-2.274.533c-10.58-3.343-1.831-22.044-7.458-30.706-1.781-1.262-2.65-1.893-4.904-2.079-2.054-.169-3.699.494-5.154 1.977-5.059 5.157-3.493 14.158-3.442 20.951.066 2.6.619 6.238-.546 8.598-.644 1.303-2.249 1.317-3.535 1.71-9.215-4.048.232-25.161-7.279-33.105-1.714-.588-2.715-1.271-4.558-.864-14.44 3.19-4.313 23.148-9.447 32.089-2.161 1.205-2.417 1.493-4.843 1.267-.531-1.125-.973-2.111-1.229-3.337-1.106-5.304-1.822-32.355.387-36.065 3.089-.046 4.635 1.495 7.233 3.089 2.878.112 4.939-2.056 7.304-3.633m-74.669-115.207c3.472-.243 7.059-.898 10.288.665 2.955 3.36 17.924 44.976 18.256 49.447-2.43 1.039-3.58 1.235-6.199.849-3.472-2.501-4.02-7.823-6.288-11.485l-2.548-.423-18.021-.11c-1.352 3.875-2.616 7.713-4.496 11.372-2.621 1.082-3.181.844-6.02.351l-1.003-1.674c2.544-14.316 11.319-34.54 16.031-48.992"/><path fill="#13416D" d="M345.209 114.718c.321.398.689.762.963 1.193 2.542 4.011 8.17 18.906 6.984 23.667l-2.906.592c-3.078.161-6.148.672-9.023-.652-2.936-5.405 2.727-18.446 3.982-24.8"/><path fill="#EF6925" d="M571.123 224.156c3.692-.153 7.907-.618 11.401.806 4.284 1.745 7.708 5.533 9.447 9.779 2.464 6.016 2.178 13.268-.63 19.106-2.62 5.448-6.315 7.794-11.865 9.746-3.226.075-6.362.133-9.453-.94-4.917-1.707-9.09-5.71-11.221-10.432a21.04 21.04 0 0 1-.5-16.028c2.51-6.526 6.6-9.381 12.821-12.037"/><path fill="#13416D" d="M571.726 230.721c3.548-.149 6.848-.282 9.685 2.264 2.767 2.484 4.134 6.255 4.012 9.931-.202 6.069-2.05 10.008-6.337 14.176-3.341.006-6.428.02-9.118-2.347-2.849-2.507-4.298-6.436-4.263-10.174.057-5.965 1.916-9.683 6.021-13.85"/><path fill="#FEFEFE" d="M315.023 1616.85c3.565.85 5.732 1.64 7.711 5.03 5.881 10.09.438 26.05 11.507 33.06 3.573.36 6.01-1.69 8.643-3.84 6.22-5.09 13.406-14.53 21.687-15.33 6.944 1.66 33.678 25.91 37.561 31.92 2.042 3.16 3.18 6.77 2.27 10.53-2.746 11.36-21.806 17.17-20.257 28.19 1.739 2.11 2.829 3.11 5.661 3.48 7.032.91 18.971-1.55 24.002 4.38 5.446 6.43 2.763 32.07 3.384 41.31.049 2.54.426 5.92-.449 8.32-2.986 8.19-17.911 8.47-24.532 12.31-5.164 3-5.668 7.04-6.914 12.43 5.571 11.24 14.855 19.89 18.826 32.01-9.727 14.69-24.477 30.91-39.523 40.24-10.068-5.11-19.019-13.06-27.919-19.96-3.76 2.4-7.696 4.56-11.56 6.8-1.629 8.77-.537 26.33-7.742 32.56-5.297 4.59-39.951 1.61-48.397 1.52-2.944-11.24-5-23.27-6.67-34.77l-15.169-5.44a193 193 0 0 1-26.111 20.6c-12.613-10.34-29.239-24.66-37.583-38.64 4.923-9.88 11.005-18.71 18.194-27.06-2.757-5.42-5.515-10.78-8.621-16.01-7.341-1.03-15.841-1.54-22.901-3.63-2.457-.72-4.819-1.43-5.971-3.88-3.827-8.16-3.082-40.52-.124-49.19 6.143-5.75 21.199-6.82 29.375-8.42 2.255-5.31 4.794-9.97 7.935-14.81-5.596-8.48-11.918-16.34-16.559-25.43 9.769-11.28 27.673-32.76 40.179-39.75 8.162.06 21.799 13.63 28.381 18.92 3.657-.92 7.285-2.12 10.906-3.17 1.518-7.85 2.969-25.31 8.65-30.94 5.386-5.33 33.357-2.78 42.13-3.34"/><path fill="#13416D" d="m278.167 1628.19 36.048.02a906 906 0 0 0 4.892 29.47c6.391 3.33 13.908 6.06 19.159 11.05 8.603-6.14 16.256-14.14 24.011-21.33 11.831 7.47 22.256 17.14 32.599 26.51-7.865 9.3-16.383 18.05-24.25 27.38 2.025 5.7 4.461 10.97 7.162 16.37 9.012 1.66 18.103 1.97 27.127 3.93.463 12.75 1.664 25.47 2.702 38.18-8.796 3.73-17.946 5.65-27.214 7.78-2.309 9.34-4.841 18.37-8.058 27.44 6.982 7.41 14.159 14.93 19.34 23.74-8.056 10.6-18.805 20.2-27.901 30.02-8.736-6.52-16.788-13.87-25.631-20.29-7.171 4.53-13.504 8.43-21.821 10.5-.772 7.31-.976 27.13-5.487 32.08-11.472.2-22.96.15-34.435.22l-5.04-33.12c-9.199-2.42-17.537-4.82-25.949-9.38-7.864 7.17-16.226 13.7-24.557 20.31-8.384-9.22-17.358-18.01-25.965-27.03 6.243-8.18 12.29-16.66 19.431-24.09-5.508-8.69-9.043-17.23-12.12-27.02-9.69-1.61-19.569-2.56-29.317-3.81l-.051-37.26c9.786-1.49 19.576-3.14 29.428-4.12 2.72-9.84 6.506-18.18 11.595-27.03-5.5-7.74-11.263-15.25-16.617-23.09 9.347-9.85 19.676-18.88 29.189-28.62l23.281 18.83c7.712-2.96 15.503-4.76 23.58-6.41 2.678-10.34 4.389-20.55 4.869-31.23"/><path fill="#FEFEFE" d="M285.683 1694.33c12.109-1.65 26.981 2.08 37.005 8.74 12.132 8.07 20.639 21.66 23.409 35.89 2.886 14.81-.899 31.44-9.607 43.78-9.105 12.9-22.408 19.1-37.424 21.91a56.6 56.6 0 0 1-37.139-9.92 57.94 57.94 0 0 1-24.089-37.74 55.88 55.88 0 0 1 10.127-41.93c9.462-12.82 22.41-18.47 37.718-20.73"/><path fill="#13416D" d="M286.795 1705.29c10.278-.94 19.719 1.13 28.533 6.63 10.084 6.3 17.343 16.19 19.843 27.86 2.462 11.5-.173 23.92-6.615 33.7-7.464 11.33-17.892 16.58-30.761 19.32-10.586.62-20.323-.95-29.294-6.97-10.288-6.91-17.234-18.4-19.236-30.58a44.7 44.7 0 0 1 8.062-33.43c7.431-10.2 17.417-14.51 29.468-16.53"/><path fill="#FEFEFE" d="m356.929 1313.87 112.17-.09c14.231 0 47.103-1.99 58.908 1.47 2.746 18.25.96 38.78.974 57.32l.067 119.24c41.095-.03 82.461-.96 123.531-.03 1.462 31.44.576 63.25.645 94.74l.828 137.59-34.24 39.51c-6.887 7.84-14.328 15.49-20.663 23.76-32.932.68-65.889-.15-98.827-.17-18.547-.02-64.288 2.3-79.639-1.85-3.21-12.69-.429-35.08-.949-48.99.899-13.17-.218-27.13-.236-40.37l.254-80.82a5524 5524 0 0 1-105.632-.22 352 352 0 0 0-25.895-.6c-1.603-69.75.731-139.64-.093-209.42 20.551-31.79 47.062-60 68.797-91.07"/><path fill="#062351" d="m500.484 1539.2 52.696-.31c10.175-.06 21.035-.95 31.102.49l.82 1.63-1.303 2.3c-11.091-.02-80.286 1.49-84.846-1.3zm-45.998-176.71c2.491-.18 4.935-.47 7.402.06 1.594.35 1.085.19 2.039 1.68-.187.23-.342.5-.559.7-4.197 3.98-65.943 1.66-76.118 1.55-5.158-.05-10.392.27-15.402-1.11l.892-1.04c9.902-3.56 67.758-1.75 81.746-1.84m-98.78 53.8c17.328-.12 105.818-1.68 115.339 2.76-17.888 3.62-56.736 1.36-76.425 1.36-25.377 0-53.246 1.84-78.403-.41l-.102-.08c4.236-6.77 32.504 1.07 39.591-3.63"/><path fill="#13416D" d="M491.96 1552.2c9.477.94 19.429.39 28.973.42l53.434.12a664 664 0 0 1-22.575 27.85c-1.696 1.44-2.331 1.68-4.61 1.87-7.724.66-16.189-.29-23.993-.33l-52.979-.12c7.925-9.15 14.868-19.84 21.75-29.81m-124.025-177.57c9.242 1.71 20.202.88 29.616.94l54.559.34c-8.092 9.74-15.488 20.28-23.129 30.39-4.032 2.07-72.291.62-82.437.66 6.201-11.17 14.177-21.77 21.391-32.33m147.682.19c2.716 4.92 1.178 102.13 1.218 116.35h-32.972a586 586 0 0 1-10.432 15.24c-2.98-8.14-.681-72.03-.556-86.13 15.767-13.34 28.285-30.71 42.742-45.46m-214.959 40.24c18.171-.42 36.784 1.11 55.048 1.23-7.087 4.7-35.355-3.14-39.591 3.63l.102.08c-2.635 12.34-.729 36.44-.77 50.17l-.459 118.83 104.755.06.13 14.32c-39.699 1.4-79.874.13-119.613-.24z"/><path fill="#13416D" d="m488.178 1504 152.165.14-.068 27.81c-15.56 18.11-30.903 36.92-47.595 54l-32.424-.45c10.027-14.24 22.389-27.63 33.786-40.83 3.952-4.43 7.55-8.59 10.619-13.7-36.501-.58-73.057.33-109.547-.88-11.342 17.69-25.047 33.96-35.807 51.94-9.793.06-19.54.06-29.328-.36 16.342-27.19 41.202-50.54 58.199-77.67m149.582 45.63c1.936 2.03 1.981 3.7 2.288 6.45 2.049 18.28.896 38.01.928 56.42l-.04 106.42c-13.889 17.91-29.244 34.94-43.85 52.3l-.382.17-1.17-.95.839-.59-1.934-.76 1.024-.59c1.328-58.39.646-116.93.727-175.34 14.902-13.33 27.432-29.36 41.57-43.53M363.148 1326.4c51.082-1.66 102.679-.22 153.817-.27l-.043 33.8c-17.054 14.4-29.199 38.83-47.594 50.79-10.173-1.89-20.301-2.36-30.62-2.71 13.641-13.51 31.229-38.2 43.428-54.13.944-1.32 1.185-1.87 1.613-3.37l-1.493-1.54c-2.015-.48-3.606-.81-5.656-.48-2.52.41-4.703 4.76-6.305 6.9-4.449 1.54-14.647-1.11-19.788-1.15-26.324-.22-52.788.48-79.079-.82-13.112 12.66-24.355 30.65-33.853 46.21l10.281 7.26c-15.423.1-30.884-.34-46.308-.53 19.055-27.06 44.043-52.35 61.6-79.96m31.277 104.12c22.146-.3 44.557-.83 66.674.31a5631 5631 0 0 1-.121 88.99c-11.669 19.05-27.768 36.66-41.525 54.32-.126 2.2-.342 4.18-.843 6.32-8.697 1.77-19.89.31-28.86.19l-64.668-.34.558-149.76zM430.401 1592a8684 8684 0 0 1 104.182.37c15.203.18 38.208-2.01 52.197 2.53l.095.23-3.649-.94-.418 1.68.515.04c-16.386 1.67-33.244.78-49.715.76a5834 5834 0 0 0-86.437.22c-1.596 54.54-.356 109.5-.418 164.09 15.411.04 123.848 1.98 129.992-.5.738-.29 1.145-1.1 1.717-1.65l-.504-2.41c-1.453-1.48-2.774-2.59-4.896-2.96-8.958-1.56-21.32.07-30.555.06a6686 6686 0 0 1-85.973-.39l.044-27.63.17-118.76 128.01.16-.007 168.78c-51.136 1.43-102.659.21-153.834.3z"/><path fill="#FEFEFE" d="M1367.84 0h37.47a46813 46813 0 0 1-181.18 530.866l-63.77 186.514c-12.71 37.495-23.72 76.82-39.68 113.016 53.75 30.234 92.19 76.453 109.1 136.128 15.25 53.796 7.5 110.086-19.93 158.576-28.52 50.42-74.96 84.76-130.46 100.05-40.66 11.2-80.706 9.49-120.861-2.76-2.15 7.25-4.101 14.64-6.705 21.73 6.971 3.14 13.903 4.07 21.421 4.88l-207.834 584.55-58.468 163.2c-6.248 17-11.979 34.47-18.681 51.25h-67.456c6.103-18.55 13.267-36.75 19.681-55.2 34.275-98.57 71.367-196.14 105.887-294.62l98.732-278.64c24.562-69.84 47.765-140.46 75.01-209.31-11.505-7.3-22.976-14.69-33.673-23.16-47.974-37.98-72.332-93.42-79.477-153.04l-246.961.07-73.407-.17c-12.612-.04-25.999-.97-38.502.33-6.933.72-13.15 2.91-18.25 7.83-4.41 4.25-5.777 9.16-6.693 15.06-2.331 15.04-.631 31.91-.472 47.15.304 29.14.708 58.52-.284 87.64 8.138-6.3 25.892-27.5 32.23-30.07 2.711-1.1 4.788-1.15 7.483-.09 3.581 1.41 6.723 4.07 8.192 7.68 1.373 3.38 1.011 7.06-.493 10.32-3.12 6.77-51.905 60.11-58.457 62.2-3.058.98-6.061.69-8.889-.89-5.347-2.97-49.798-48.87-54.702-54.93-2.152-2.66-4.144-5.6-5.107-8.92-1.005-3.47-.699-7.33 1.51-10.3 2.457-3.3 6.786-5.06 10.814-5.13 12.256-.22 30.149 23.87 39.865 33.15.497-34.65.069-69.35.066-104-.001-22.35-2.446-51.04 15.165-67.99 7.439-7.16 17.794-13.2 28.022-14.89 17.002-2.81 35.109-1.73 52.312-1.73l79.193.05 151.1.61c29.021.02 58.078-.94 87.087-.14 4.441-42.35 20.351-81.05 46.141-114.851-11.8-10.986-22.856-22.728-34.737-33.642a95 95 0 0 1-4.08 2.235 38.5 38.5 0 0 1-30.927 1.903 40.82 40.82 0 0 1-23.871-22.123c-5.763-13.224-3.406-25.048 1.667-37.839-19.767-19.693-38.774-40.553-59.929-58.759-8.238 11.084-14.666 23.536-23.005 34.654a321.5 321.5 0 0 1-120.299 96.733A292.63 292.63 0 0 1 335.84 884.2c-72.579-27.007-136.08-83.559-168.245-154.433-33.467-73.743-39.378-158.754-10.273-235.054a311.58 311.58 0 0 1 162.667-172.646c70.466-31.477 156.728-35.016 228.876-7.154A299.77 299.77 0 0 1 715.741 473.2c36.787 83.107 32.916 160.166.534 243.782l5.706 7.087c6.802-8.634 12.94-17.958 19.289-26.939 7.226 4.936 14.877 9.307 22.368 13.828-7 11.089-15.817 20.636-24.704 30.211 13.343 14.528 28.062 27.994 41.857 42.118 9.108-3.544 18.753-5.088 28.332-2.498 10.932 2.956 20.007 11.213 25.145 21.165 6.311 12.224 6.119 24.23 2.164 37.05 10.833 10.194 24.88 21.228 33.089 33.627 17.686-16.828 36.486-31.65 58.241-42.931 50.103-25.979 104.908-31.922 158.938-14.715 13.35-29.839 22.14-63.012 32.66-94.053l58.94-171.341z"/><path fill="#13416D" d="M1088.31 983.148c17.52-1.429 32.76.157 48.4 8.439-3.56 7.808-6.02 16.193-8.76 24.323-7.14-3.47-14.68-6.53-22.5-8.08-6.18-1.23-13.32-1.63-18.73 2.16-2.6 1.81-3.94 3.72-4.5 6.89 2.65 10.96 29.24 14.58 38.7 20.82 6.61 4.36 9.64 10.33 11.13 18.01a33.24 33.24 0 0 1-5.21 25.18c-7.42 10.7-18.51 13.86-30.59 16.18-18.43 1.15-32.63-.6-49.6-8.02.08-8.84 2.34-16.63 4.77-25.05 11.71 5.15 23.64 9.48 36.59 9.66 5.21.08 11.08-.61 14.78-4.67 1.79-1.97 1.82-3.53 1.61-6.01-5.49-8.82-23.2-13.57-32.16-18.2-8.29-4.29-16.48-10.28-19.17-19.67-2.13-7.43-.38-15.99 3.49-22.57 6.61-11.28 19.61-16.575 31.75-19.392m-56.6-40.791 30.82.19c-9.56 22.725-21.85 44.948-32.75 67.083-13.86 28.17-26.99 56.95-41.554 84.74-11.933-.54-23.982-.31-35.931-.37a3864 3864 0 0 0-6.071-94.753c-1.304-18.688-2.929-37.419-3.383-56.149l28.102-.061c.111 41.085 3.913 82.093 6.054 123.083 10.204-26.41 21.98-51.96 33.523-77.789 6.83-15.275 13.05-31.362 21.19-45.974m-79.886 301.763c6.971 3.14 13.903 4.07 21.421 4.88l-207.834 584.55-58.468 163.2c-6.248 17-11.979 34.47-18.681 51.25h-22.188c9.787-32.57 22.655-64.53 34.254-96.52l52.622-147.14 128.259-360.72a10341 10341 0 0 0 70.615-199.5"/><path d="M526.473 394.544c4.572-.173 9.163-.169 13.738-.245 12.383 10.595 24.01 22.588 35.788 33.876 12.746 12.214 26.291 24.215 37.826 37.579.22 2.436.362 4.819.397 7.267a20317 20317 0 0 1 .323 218.945l-.348 71.536c-.08 13.017.57 26.615-.704 39.551-.297 3.021-.785 4.527-2.898 6.706-10.99 1.702-22.78.959-33.891.937l-52.612-.093-175.964.398c-14.623.012-68.595 2.632-79.122-.074-2.11-.543-4.285-1.215-5.157-3.42-1.858-4.701-1.805-12.281-1.886-17.32-.258-15.871.481-31.849.61-47.728l.32-96.857c.017-51.952-1.599-104.283-.272-156.191.124-4.875.515-9.653 2.763-14.059 7.13-4.703 71.12-2.379 84.463-2.343.107-11.416-2.515-69.744 2.471-75.167 3.944-1.62 7.806-2.366 12.038-2.731 17.431-1.5 35.835-.345 53.351-.349z"/><path fill="#FEFEFE" d="M542.927 415.297c10.435 5.63 37.049 34.765 47.523 44.828-16.259.436-32.587.157-48.853.173.231-15.017.465-30.005 1.33-45.001M311.013 626.485a842 842 0 0 1 39.023.297c.059 6.307 2.022 26.454-1.368 30.8l-39.69.094c-.036-9.738-.975-20.425.465-30.036z"/><path fill="#FEFEFE" d="M274.62 485.087a4552 4552 0 0 1 75.14.185c.046 21.207 2.594 55.57-.235 74.901-5.193 1.151-13.287 3.418-16.55 7.948-1.445 2.008-2.094 3.818-1.581 6.307.577 2.802 2.473 5.803 4.805 7.442 1.495 1.051 2.125.595 3.813.409 4.434-3.203 6.723-9.015 9.413-13.697 1.352 14.943.801 30.299.84 45.307-13.451.114-41.209-2.248-52.885 2.059-1.296 2.338-1.574 4.462-1.775 7.083-.422 5.496-.584 42.18 1.752 44.77 11.182 4.451 39.655 1.945 52.737 1.949.414 16.215.213 32.492.295 48.716a3891 3891 0 0 1-.005 80.543c-25.122.321-50.282.053-75.409.063l-.204-218.574c.017-31.753-1.361-63.686-.151-95.411m88.37-77.608c55.025.135 112.619-2.461 167.298.538.071 10.335-4.181 57.888 1.753 63.067 1.861 1.624 4.448 2.28 6.853 2.475 7.273.59 15.075-.247 22.417-.322a1880 1880 0 0 1 39.758.204l.045 324.956c-23.835 2.56-57.132.561-81.788.502l-156.555.164.082-261.374c-.136-29.878-.904-59.709-.787-89.598.053-13.444-.519-27.242.924-40.612"/><path d="m398.818 575.454 79.327.002c13.766 0 28.161-.829 41.85.35 2.954.255 5.446.457 7.909 2.289.816 2.256 1.088 2.99-.145 5.305-1.542 2.899-3.753 3.521-6.619 4.464a3356 3356 0 0 0-113.168-.046c-5.669.06-12.607.339-16.925-3.838-.617-2.518-.382-2.975.425-5.477 2.145-2.387 4.354-2.52 7.346-3.049m-4.888-37.082c34.677-1.281 69.661-.418 104.374-.473 21.129-.034 43.609-1.721 64.531.171 1.908.173 3.239.425 4.819 1.604 1.174.876 1.681 2.448 1.781 3.877.195 2.785-1.416 4.529-3.088 6.446l-118.317-.065c-16.237-.006-38.919 1.976-54.276-.937-1.66-1.361-2.919-2.134-2.929-4.562-.01-2.887 1.334-4.094 3.105-6.061m1.415-38.073c19.087-.483 166.969-1.928 173.738.817 1.424 1.99 2.027 2.691 1.479 5.309-.573 2.738-2.379 3.903-4.497 5.349-37.06 1.164-74.494.133-111.588.127-12.207-.002-53.192 1.795-62.091-.892-2.088-2.075-1.939-2.028-2.107-4.99 1.253-3.237 2.282-3.914 5.066-5.72m69.784 206.228c20.249-.642 40.51-.105 60.761-.022 12.041.05 25.118-1.149 36.953.911 3.283.572 5.977 1.273 7.971 4.104-.205 2.459-.94 3.769-2.786 5.487-3.405 3.17-62.794 1.525-72.528 1.567l-70.006.162c-8.636.04-19.667 1.961-27.953-.182-3.734-.966-6.628-2.524-8.566-5.944l1.165-2.882c2.114-1.583 4.699-2.491 7.308-2.815 7.29-.905 15.518.084 22.904.102 14.92.037 29.857-.284 44.777-.488m-68.165-38.153 110.43-.004c16.791-.036 34.443-1.558 51.132-.209 3.616.293 8.451.637 11.095 3.42 1.131 1.19.749 2.138.773 3.665-1.893 2.982-2.329 3.979-5.514 5.705-52.442-.005-105.026-.89-157.445.268-5.359.118-11.593.726-15.74-3.225-.772-2.174-1.325-3.481-.254-5.784 1.266-2.726 2.932-2.958 5.523-3.836m-3.646 75.692c35.081-1.028 70.419-.107 105.528-.156 15.111-.021 56.155-2.261 68.347 1.117 1.815 1.648 3.025 2.329 3.096 5.004.078 2.924-1.448 4.747-3.159 6.846-22.975-.38-165.903 2.343-173.411-.97-2.65-1.168-2.871-2.028-3.984-4.489.297-3.373 1.549-4.838 3.583-7.352"/><path fill="#FEFEFE" d="M1405.31 0H2048v2048H688.262c6.702-16.78 12.433-34.25 18.681-51.25l58.468-163.2L973.245 1249c-7.518-.81-14.45-1.74-21.421-4.88 2.604-7.09 4.555-14.48 6.705-21.73 40.155 12.25 80.201 13.96 120.861 2.76 55.5-15.29 101.94-49.63 130.46-100.05 27.43-48.49 35.18-104.78 19.93-158.576-16.91-59.675-55.35-105.894-109.1-136.128 15.96-36.196 26.97-75.521 39.68-113.016l63.77-186.514A46813 46813 0 0 0 1405.31 0"/><path fill="#13416D" d="M1730.78 226.443c1.53.172 3.08.566 4.6.867 2.16 1.85 2.34 1.853 2.91 4.613-.74 3.425-2.33 4.935-4.68 7.345-.78-.221-1.64-.432-2.37-.798-2.57-1.289-2.96-1.924-4.06-4.416.43-3.371 1.54-4.951 3.6-7.611m-152.44 1.175c1.5.043 3.24.006 4.69.41 2.59.725 3.46 2.197 4.66 4.406-.26 3.46-1.05 4.497-3.11 7.105-1.5-.195-3.16-.336-4.59-.814-2.41-.805-3.24-1.983-4.41-4.106.05-3.12 1.07-4.545 2.76-7.001m-2.29 15.391c3-.086 5.63.035 8.6.459 1.56 11.818.54 24.956.52 36.937-2.94.008-6.29.495-8.87-1.115-1.6-11.516-.39-24.614-.25-36.281m151.67-.255c2.89.013 6.44-.527 8.86 1.256 1.63 11.769.56 25.058.53 36.999-3.11-.027-6.69.39-9.31-1.304-1.39-11.885-.26-24.956-.08-36.951m-110.29-2.016c.38.094.76.156 1.12.283 2.37.836 2.62.985 3.58 3.165-2.09 5.37-10.93 5.894-12.89 10.202-3.47 7.635 2.52 16.105-1.13 24.014-3.27 2.169-5.25 1.632-9.11 1.645-.07-12.052-1.4-26.033.85-37.779l1.81-.54c2.56.517 3.77 1.776 5.62 3.485l.75.704c1.65-.099 2-.334 3.35-1.379 1.95-1.514 3.89-2.621 6.05-3.8m8.45.521c4.37-.242 8.92 1.879 12.87 1.198 1.58-.274 3.12-.875 4.74-1.105 2.96-.421 5.31.264 7.62 2.04l-.17 1.935c-3.23 3.435-3.72 2.184-7.9 3.304-2.79.749-3.71 1.434-5.01 4.06-2.04 4.135-.5 13.171 1.28 17.105 1.35 2.98 3.33 2.994 6.15 3.944l1.24.498.64 2.431c-.81 2.044-1.1 2.82-3.27 3.825-3.43 1.587-9.73.524-12.88-1.115-5.17-7.433 2.76-16.832 1.71-25.351-.65-5.374-5.76-5.902-7.02-12.769m133.39-91.086c3.56-.126 5.58.144 8.69 1.984 1.29.767 9.81-2.254 12.58-2.203 1.62 1.572 1.18 1.994 1.33 4.159-2.53 4.704-7.58 5.227-10.79 8.957-1.98 2.302-1.96 4.782-2 7.638v1.042c.12 3.532.78 8.409-.12 11.814-.84 3.18-2.2 5.547-5.16 7.092l-1.87-1.057c-5.5-9.067-2.76-28.737-2.66-39.426m-228.09-13.203c3.33-.101 6.11-.184 9.32.78 2.12 16.442.52 34.79.47 51.451-3.19.054-6.25.437-9.17-1.085-2.63-9.933-.68-39.217-.62-51.146m171.89 93.532c3.05.584 4.21.589 6.16 3.058-.28 1.503-.79 3.394-.71 4.908.13 2.313.42 2.741 2.08 4.254 2.57.005 4.83.054 7.37.558.26.624.59 1.289.62 1.983.31 7.18-6.52 2.752-9.83 6.09-.23 4.678-.57 9.461.14 14.111.55 3.61 1.4 5.809 4.45 7.982 2.18.41 4.02.587 5.88 1.869l.28 5.372c-3.93.289-9.42 1.216-13.14-.269-11.58-4.635-4.28-20.772-8.11-29.708-1.88.065-2.8.114-4.61-.534-.38-2.442-.16-3.646.69-5.959 1.45-.447 2.74-.974 4.1-1.638 1.14-4.394 2.47-8.081 4.63-12.077m-152.7 22.978c4.18-5.795 7.08-10.831 14.41-12.57l.43 1.069c-.21 6.903-6.3 12.55-10.46 17.594 4.09 6.614 9.44 12.359 13.42 18.954l-1.91 2.146c-2.58.172-4.65.276-7.2-.214-4.69-3.348-6.84-9.031-9.5-14.02-5.36 5.997-7.51 11.931-15.71 14.699l-1-.972c.8-7.939 6.87-14.537 11.42-20.808-4.41-5.613-8.76-11.247-11.97-17.652 2.73-.035 6.26-.359 8.9.347 2.2.59 3.37 2.438 4.52 4.242zm264.27-12.201c2.16.141 4.29.211 6.34 1.043 3.01 1.223 5.83 4.129 6.86 7.195 1.54 4.577 1.84 25.129-1.06 29.008-1.62 2.164-2.71 2.238-5.15 2.465-7.05-5.614-1.63-19.711-3.82-27.951-.54-2.034-1.84-2.995-3.79-3.625-3.86-1.245-6.25-.337-9.74 1.084-3.56 6.906.02 16.856-1.07 24.313-.43 2.896-1.69 4.081-3.79 5.92-2.58.408-2.71.578-4.96-.687-2.77-6.823-1.09-29.595.19-37.329 3.88-.081 9.15 1.229 12.67.02 2.51-.863 4.68-1.15 7.32-1.456m-319.68-12.281c8.27.025 25.78-2.928 32.02 2.929.15 2.327.31 3.076-.66 5.154-6.84 1.229-14.42.627-21.38.6l.01 15.326c5.54.123 14.76-1.987 19.46 1.194 1.34.913 1.53 3.571 1.91 5.109-6.47 1.886-14.56.985-21.3.895-.13 6.668 2.2 14.373-2.11 19.89-2.4.791-3.54 1.108-6 .44-3.25-4.604-1.84-42.811-1.95-51.537m307.44-79.716c4.5.41 9.66 1.245 13.15 4.364 5.07 4.542 4.77 12.069 5.16 18.305-7.78.052-19.75-1.513-26.21 3.225l.83 3.116c6.82 4.32 13.12 4.15 20.78 3.051.22 1.922.17 3.72.08 5.651l-1.62 1.472c-7.18 1.673-14.72 2.644-21.34-1.385-4.09-2.484-6.77-6.482-7.83-11.119-1.48-6.467 0-13.578 3.79-18.997 3.57-5.098 7.24-6.57 13.21-7.683"/><path fill="#FEFEFE" d="M1800.14 156.883c1.85-.191 4.12-.409 5.9.257 3.03 1.134 4.41 3.76 5.82 6.444-.93 1.64-1.25 1.453-2.9 2.178-3.87.075-9.75.914-12.79-1.585.07-3.147 2.08-4.985 3.97-7.294"/><path fill="#13416D" d="M1730.75 149.225c5.72-.147 12.39.137 16.7 4.413 4.85 4.799 4.55 12.084 4.65 18.391-6.41-.055-18.41-1.487-23.93 1.51-1.57.853-1.22 1.079-1.61 2.671.48.859.72 1.394 1.43 2.157 4.47 4.752 12.94 3.628 18.88 3.635 1.81 1.375 2.02 1.541 2.79 3.664l-1.15 1.629c-5.41 3.003-12.66 3.834-18.63 2.105-4.91-1.42-8.83-4.657-11.02-9.287-2.69-5.679-2.53-12.443-.39-18.268 2.43-6.64 5.97-9.775 12.28-12.62"/><path fill="#FEFEFE" d="M1731.53 156.906c2.12-.024 4.44-.149 6.48.533 3.09 1.034 4.65 4.033 5.96 6.729-1.23 1.584-1.83 1.328-3.72 1.782-3.84.089-9.45.858-12.5-1.609-.03-3.141 1.96-5.072 3.78-7.435"/><path fill="#13416D" d="M1664.4 241.397c3.79-.63 8.25-1.301 12.05-.484 3.15.676 5.67 2.959 7.34 5.614 5.05 7.983 4.31 24.925 2.5 33.881l-2.47 1.281c-2.87-.32-4.14-1.766-6.15-3.65l-.83-.79c-1.92.16-1.15-.096-2.9.857-5.91 3.222-7.72 3.336-14.27 2.203-2.75-2.708-5.85-7.975-5.78-12.002.19-12.169 16.65-9.14 22.63-15.241l-.04-2.021c-1.43-1.616-1.66-2.346-3.81-2.981-4.1-1.208-6.89.628-10.41 2.525l-1.2.655c-1.05-.477-1.63-.679-2.61-1.432-1.99-1.538-2.71-3.417-3.16-5.764 2.41-2.52 5.72-2.212 9.11-2.651"/><path fill="#FEFEFE" d="M1666.14 263.102c1.77-.219 3.63-.524 5.42-.506 2.4.024 3.4.547 5.05 2.197.45 3.281-.71 5.568-1.91 8.524-1.16.139-3.01.508-4.22.332-2.87-.42-3.49-1.03-5.29-3.069-.6-2.972.01-4.717.95-7.478"/><path fill="#13416D" d="M1672.08 179.078c2.14-6.834 4.83-25.007 10.81-29.134 1.25-.863 1.14-.432 2.86.044 6.12 6.426 8.05 19.485 10.31 27.983 3.22-8.473 3.56-20.831 9.36-27.739 2.45-.824 2.92-.597 5.46.017 1.43 2.503.44 4.243-.08 6.985-2.4 10.788-6.58 21.767-9.89 32.351l-10.53-.225a1320 1320 0 0 0-6.25-24.827c-2.14 8.259-4.38 16.4-7.08 24.493-3.09.038-6.11-.097-9.19-.312-5.33-3.799-11.96-30.603-14.59-38.66 3.29-.164 6.25-.559 9.36.765 6.12 6.685 6.89 19.567 9.45 28.259m87.89 62.143c2.93-.099 6.12-.323 9.03.109 5.07.753 9.88 4.036 12.74 8.243 3.22 4.735 4.14 10.807 2.7 16.326-1.84 7.067-6.09 11.173-12.23 14.688-4.24.419-9.05.81-13.17-.505-4.76-1.52-8.76-5.555-10.79-10.046-2.43-5.404-2.72-11.881-.57-17.42 2.5-6.409 6.11-8.887 12.29-11.395"/><path fill="#FEFEFE" d="M1761.79 248.703c.9-.02 1.79-.051 2.69-.017 3.13.118 5.92 1.13 7.89 3.658 2.03 2.61 2.91 5.452 2.67 8.727-.37 5.179-2.56 8.229-6.31 11.612-2.81-.121-6.1-.156-8.49-1.826-2.69-1.875-4.47-5.455-4.55-8.706-.15-5.823 2.03-9.543 6.1-13.448"/><path fill="#13416D" d="M1620.8 150.298c3.89-.638 8.55-1.24 12.45-.431 4.94 1.024 9.64 4.618 12.35 8.807 3.12 4.823 4.48 11.199 2.93 16.797-1.75 6.315-5.12 9.81-10.63 13.056-3.32.821-7.01 1.495-10.44 1.416-5.09-.116-9.98-2.188-13.27-6.173-3.61-4.375-4.73-10.676-3.9-16.184 1.13-7.481 4.62-12.759 10.51-17.288"/><path fill="#FEFEFE" d="M1627.61 156.837a59 59 0 0 1 2.27.338c3.58.622 6.2 1.844 8.23 4.949 2.06 3.162 2.71 6.851 1.78 10.505-1.21 4.735-3.41 6.97-7.6 9.334-1.04-.054-2.09-.089-3.12-.212-2.95-.353-5.15-1.502-6.88-3.895-2.22-3.058-2.94-6.869-2.18-10.539 1.07-5.121 3.17-7.709 7.5-10.48"/><path fill="#13416D" d="M1496.59 137.986c3.2-.197 6.09-.446 9.24.281 4.95 4.029 16.8 43.045 17.55 49.993-2.43 1.158-3.64 1.607-6.34 1.326-3.45-2.075-3.37-6.096-5.85-8.993-1.04-1.224-2.43-.871-3.94-.999l-16.61.219c-.93 2.022-1.84 4.112-2.98 6.026-1.37 2.317-2.98 3.352-5.54 4.112-2.32-.883-2.13-1.106-3.26-3.368-.29-7.034 14.4-40.428 17.73-48.597"/><path fill="#FEFEFE" d="M1500.21 149.461c1.49 1.39 1.35.945 2.05 2.474 2.3 4.977 6.74 14.479 4.59 19.746l-3.64.456c-2.36.083-4.75.312-7.05-.312-1.55-.419-1.5-1.306-2.18-2.63-.08-2.365-.01-3.885.93-6.074 1.93-4.492 3.59-9.081 5.3-13.66"/><path fill="#13416D" d="M1569.02 137.062c9.87-.27 23.48-2.262 31.87 3.878 3.01 2.202 5.01 5.306 5.29 9.074.41 5.514-2.12 10.89-5.75 14.897-4.71 5.21-9.77 5.506-16.46 5.667-1.28-.088-1.98-.117-3.2.392-3.57 1.483-.79 13.665-2.69 17.476-.65 1.285-1.67 1.292-2.91 1.763-2.23-.436-3.78-.407-5.56-1.888-1.74-16.738-.63-34.405-.59-51.259"/><path fill="#FEFEFE" d="M1579.06 145.106c2.83-.158 6.08-.506 8.88-.025 2.72.465 5.86 2.077 7.11 4.634 1.88 3.855.3 8.332-.94 12.092-5.08 1.467-9.79 1.238-15.01 1.144-.29-5.955-.15-11.888-.04-17.845"/><path fill="#13416D" d="M1853.96 132.842c2.86-.082 5.16.014 7.97.725 2.17 3.898 1.72 48.516.34 55.196-4.3.98-6.54-1.823-10.61-1.466-6.69.585-7.38 3.156-15.17 1.206-3.05-2.206-5.86-4.933-7.6-8.298-2.83-5.473-3.55-12.059-1.62-17.937 1.54-4.658 4.65-8.283 9.07-10.409 6.05-2.908 11.55-.85 17.48 1.313z"/><path fill="#FEFEFE" d="M1841.13 157.942c2.88-.184 6.26-.553 8.7 1.329 2.47 1.909 4.04 5.936 3.99 8.973-.08 5.522-1.22 9.436-5.27 13.161-2.43-.083-5.27-.003-7.48-1.124-3.03-1.536-4.63-4.865-5.11-8.061-.76-5.079 1.99-10.574 5.17-14.278"/><path fill="#EF6925" d="M1405.31 0h21.3c-12.64 46.686-29.52 92.57-45.48 138.217l-43.29 126.91-109.2 322.19-54.92 155.858c-8.98 26.07-16.99 52.554-25.54 78.772 54.31 36.856 94.69 91.398 107.06 156.725a374 374 0 0 1 4.92 39.328l223.12-.13 62.46-.22c12.8-.05 26.35-1.07 39.02.93 8.85 1.41 17.97 7.19 24.29 13.35 6.44 6.29 11.01 13.64 13.12 22.41 4.11 17.1 1.83 38.11 1.81 55.74-.03 37.86-.77 75.88.21 113.73 8.8-7.75 40.38-44.54 50.16-43.25 2.62.34 4.15 1.59 5.6 3.71 2.1 3.09 1.44 8.29.23 11.56-1.23 3.34-3.26 6.34-5.58 9.02-5.4 6.23-53.14 54.94-57.01 56.45-3.76 1.46-7 1.1-10.52-.81-5.24-2.84-62.46-61.6-63.65-65.17-1.12-3.33-.48-7.03 1.26-10.03 1.45-2.5 3.16-4.05 5.74-5.34 5.4-.37 8.48 1.65 12.49 5.13 14.06 12.2 25.33 27.23 39.56 39.43a6926 6926 0 0 0 .21-100.08c.03-18.8 1.7-39.21-.83-57.84-.89-6.57-2.45-13.34-7.13-18.29-9.86-10.42-26.45-8.91-39.64-8.94l-181.8.2c-38.07.01-77.02-1.28-114.99 1-5.38 51.66-25.72 99.62-61.55 137.62 11.81 11.31 23.52 22.77 35.77 33.61 9.33-5.55 19.74-7.35 30.4-4.73 10.81 2.65 19.96 10.25 25.27 19.94a36.9 36.9 0 0 1 2.84 29.13c-.83 2.59-1.82 5.13-2.82 7.66a1315 1315 0 0 1 36.32 34.33c11.41-5.66 22.9-8.19 35.42-4.14a40.3 40.3 0 0 1 23.55 19.9c7.66 15.21 3.17 28.59-1.37 43.71 12.45 12.12 24.59 24.28 36.31 37.1-4.83 5.27-9.76 10.3-14.99 15.19l-38.83-37.1c-4.23 2.35-8.55 4.95-13.17 6.42-10.32 3.28-21.42 2.68-31-2.53a39.64 39.64 0 0 1-19.07-24.38c-4.12-14.81 1.19-26.74 8.54-39.25-11.47-10.35-22.34-21.54-33.64-32.11-3.13 2.47-6.38 4.69-10.01 6.39a36.47 36.47 0 0 1-27.87 1.05c-10.76-3.93-19.84-12.86-24.22-23.41-5.19-12.48-3.14-24.59 1.66-36.73-12.1-10.69-22.47-22.95-33.1-35.06a322 322 0 0 1-18.42 15.27c-38.05 28.79-88.66 45.58-136.29 45.68-18.46.04-36.548-2.54-54.775-5.12-7.518-.81-14.45-1.74-21.421-4.88 2.604-7.09 4.555-14.48 6.705-21.73 40.155 12.25 80.201 13.96 120.861 2.76 55.5-15.29 101.94-49.63 130.46-100.05 27.43-48.49 35.18-104.78 19.93-158.576-16.91-59.675-55.35-105.894-109.1-136.128 15.96-36.196 26.97-75.521 39.68-113.016l63.77-186.514A46813 46813 0 0 0 1405.31 0"/><path fill="#EF6925" d="M1612.49 311.418c69.84-6.011 144.7 15.593 199.34 59.399 62.85 50.392 103.69 116.924 112.3 197.952a296.98 296.98 0 0 1-65.49 217.917c-57.48 71.009-129.63 100.909-218.43 110.179-80.25 1.919-154.58-21.578-215.59-74.716a292.74 292.74 0 0 1-100.42-200.153c-4.66-72.76 19.19-147.64 67.6-202.596 59.25-67.278 131.47-102.345 220.69-107.982"/><path fill="#FEFEFE" d="M1495.82 404.093a18234 18234 0 0 1 192.53-.093c10.17 8.627 19.2 19.437 28.41 29.091a3543 3543 0 0 0 41.94 42.917 24316 24316 0 0 0 .01 296.177c.01 9.227 1.69 26.289-.99 34.454-.64 1.961-2.83 3.825-4.26 5.262-39.92 1.783-80.44.386-120.44.5-43.29.124-87.34 1.701-130.56-.249-3.8-.171-8.7-.023-11.77-2.261-.97-2.064-1.21-3.553-1.28-5.858-.8-26.684-.14-53.561-.15-80.273l-.06-154.637-.01-103.206c0-17.481-.99-35.655.32-53.071.32-4.282 3.27-6.171 6.31-8.753"/><path fill="#EF6925" d="M1690.01 426.866c6.6 5.332 12.5 12.401 18.44 18.488 9.1 9.335 18.66 18.482 27.16 28.378-15.11-1.039-30.38-.685-45.52-.71z"/><path fill="#EF6925" d="M1504.29 418.354c57.22 1.08 114.59.301 171.81.229.03 11.503-2.78 59.826 2.43 65.933 1.88 2.196 4.88 3.179 7.66 3.581 6.04.878 12.68.042 18.81-.022l39.02-.249c.13 103.312 1.27 206.769.06 310.069-79.89-1.351-160.09.075-240 .195z"/><path fill="#FEFEFE" d="m1529.04 592.897 145.15-.019.1 23.237-145.28-.021zm2.18 96.181 185.53.368.37 22.557-185.98-.008zm160.24 39.414a2013 2013 0 0 1 25.54-.002v23.622l-158.5-.203-27.48.055-.02-23.036zm-35.49-215.987a1700 1700 0 0 1 60.04.22l.01 23.64c-42.2-.628-84.52.088-126.73.042l-60.43-.148-.03-23.264zm-33.45 39.99a7068 7068 0 0 1 93.62.19v23.717a7048 7048 0 0 1-91.64.625l-95.46.119-.01-24.324z"/><path fill="#13416D" d="M1418.43 1394.69c59.59-53.26 139.92-76.85 218.92-72.44a305.17 305.17 0 0 1 212.07 103.41c50.09 56.48 72.62 131.67 68.13 206.41a295.7 295.7 0 0 1-97.23 201.9 306.22 306.22 0 0 1-226.91 77.26c-76.4-4.99-150.45-42.73-200.72-100.51a301.54 301.54 0 0 1-72.76-218.22c4.91-69.34 35.54-132.93 83.51-182.62 5.23-4.89 10.16-9.92 14.99-15.19"/><path fill="#EF6925" d="m1673.13 1400.51 1.37-.07c12.55 8.22 23.48 21.36 34.26 31.89a4729 4729 0 0 0 43.81 41.66l.18 66.86c15.07 9.51 51.26 37.9 62.36 51.22.97 73.86-.06 147.85.01 221.72a45 45 0 0 1-5.01 6.11c-2.46 2.52-4.98 3.9-8.48 4.38-21.21 2.93-50.92 1.18-72.83 1.32l-155.3.28-83.46.22c-14.89.03-30.28.85-45.13-.3-4.67-.36-8.94-.64-12.02-4.58-2.18-2.78-2.77-5.15-3.07-8.61-1.15-12.98-.48-26.46-.49-39.52l-.1-68.76v-75.48c.03-14.65-.55-29.53.72-44.12 6.65-6.85 14.75-12.39 22.3-18.23 16.88-13.05 34.46-25.9 49.56-41.01.42-25.43-.03-50.91-.11-76.34-.03-11.85-1.08-24.83.56-36.55.34-2.37 1.01-4.65 2.61-6.49 2.39-2.74 5.73-4.13 9.26-4.67 14.82-2.29 31.66-.79 46.79-.83 37.39-.1 74.85.75 112.21-.1"/><path fill="#FEFEFE" d="M1681.79 1419.7c7.72 5.87 14.59 13.26 21.69 19.89 11.69 10.93 23.7 21.63 34.69 33.27-8.92.04-49.54 2.83-54.13-2.35-4.98-5.6-2.39-41.26-2.25-50.81m-218.71 396.71-.25-.48c1.07-1.97 142.97-95.43 157.22-104.42 12.07 7.01 22.84 16.16 34.52 23.81 41.25 27 82.39 54.78 124.24 80.79-80.57-.33-161.06-1.57-241.64-.55-24.61.3-49.53-.33-74.09.85m-23.47-225.13c29.15 15.49 54.33 37.16 82.39 54.39 30.49 20.77 60.71 43.62 92.69 62-15.79 11.43-32.43 21.66-48.71 32.36-38.13 25.07-77 49.88-114.23 76.22-3.36 1.25-6.48.95-9.81-.18-2.11-2.5-1.91-4.14-2.06-7.42-1.29-28.33.12-57.26.1-85.66-.04-43.88-1.01-87.83-.37-131.71m356.86 1.6c2.21-.13 3.89.02 6.05.51.28.51.64.98.83 1.52 1.29 3.54-.31 109.06-.3 121.27 0 9.32 1.76 92.02-.2 95.08-1.6 2.5-4.14 3.61-6.93 4.28-2.74.65-5.47.88-8.12-.29-8.98-3.97-18.18-12.41-26.46-17.93a3672 3672 0 0 0-65.05-42.2l-71.71-47.34a3688 3688 0 0 0 98.9-66.01c23.11-16.13 47.83-36.6 72.99-48.89"/><path fill="#FEFEFE" d="M1508.43 1629.41c-.61-43.94.84-88 1.35-131.94.29-24.48-.96-49.29.24-73.72.21-4.19.44-8.62 2.12-12.5 2.97-1.92 5.58-2.33 9.09-2.58 8.92-.64 18.09.14 27.03.27a3397 3397 0 0 0 38.95.03l52.45-.13c9.22-.01 20.09-1.02 29.12.65 1.77.32 3.28.86 4.4 2.38 9.92 13.34-7.26 61.82 11.87 66.42 12.57 3.02 44.4.3 59.21.64.87 46.57 1.57 93.85-.15 140.39-13.2 12.26-30.42 22.49-45.46 32.48-26.2 17.4-52.76 34.54-78.44 52.68-9.19-7.92-21.75-14.1-31.95-21.01-22.11-14.98-43.94-31.92-67.13-45.12-3.98-3.34-8.36-6.09-12.7-8.94"/><path fill="#D4571D" d="M1636.42 1477.4c5.6-.17 16.23-1.67 20.61 2.56.87.84 1.52 1.75 2.24 2.7l-4 .51c-6.04-2.79-16.89-1.3-23.48-.94 3.12-1.71 3.37-1.56 4.63-4.83m-103.73 130.09c8.61-2.85 28.33-3.23 36.74.15.93 1.19 1.89 2.34 2.68 3.63l-3.72 1.5c-6.91-4.42-23.94-1.55-32.57-2.23-.79-1.14-2.1-2.11-3.13-3.05m145.86 7.95c.32-3.21.38-5.85 2.27-8.59 5.5-2.64 32.61-1.07 39.59.3 1.07 2.62 1.04 5.5 1.23 8.28l-3.32-1.71c-.46-.44-.88-.9-1.36-1.31-3.88-3.21-28.89-1.85-34.43-.91z"/><path fill="#EF6925" d="M1532.69 1607.49c1.03.94 2.34 1.91 3.13 3.05 8.63.68 25.66-2.19 32.57 2.23l3.72-1.5v1.65c-.03 3.25-.22 5.02-2.54 7.31-7.74 2.16-17.51 2.77-25.55 2.1-3.87-.33-8.67-1.15-11.11-4.47-2.11-2.87-.86-7.2-.22-10.37"/><path fill="#FEFEFE" d="M1535.82 1610.54c8.63.68 25.66-2.19 32.57 2.23l-1.36 2.71c-2.21 1.09-3.72 1.09-6.14 1.28-6.53.5-19.64 2.18-24.8-2.23z"/><path fill="#EF6925" d="M1682.53 1611.5c5.54-.94 30.55-2.3 34.43.91.48.41.9.87 1.36 1.31l3.32 1.71c-.68 1.86-1.36 3.94-3.13 4.96-5.56 3.21-30.15 3.18-35.94.53-2.61-1.2-2.98-3.04-4.02-5.48z"/><path fill="#FEFEFE" d="M1682.53 1611.5c5.54-.94 30.55-2.3 34.43.91.48.41.9.87 1.36 1.31-.94.95-1.89 1.94-3.18 2.42-6.03 2.26-23.77 2.44-29.96-.18-1.64-.7-2-2.89-2.65-4.46"/><path d="M1529.33 1526.38c10.56-.3 21.18-.16 31.74-.22.24 9.69.15 19.4.2 29.1l-32.1.11c-.11-9.68-.21-19.32.16-28.99"/><path fill="#EF6925" d="m1547.32 1531.83.7-1.97c3.31-.77 6.34-.55 9.72-.37l-.67 12.74c-2.11-.81-5.96-1.76-6.78-4.11-.74-2.13-.5-3.08-1.95-5.05-.32-.43-.68-.83-1.02-1.24"/><path fill="#EF6925" d="M1547.32 1531.83c.34.41.7.81 1.02 1.24 1.45 1.97 1.21 2.92 1.95 5.05.82 2.35 4.67 3.3 6.78 4.11-.03 3.3.35 5.26-1.29 8.16-4.33 2.4-10.43.58-15.28.91l-.42-.94c4.42-5.86 5.77-11.51 7.24-18.53"/><path fill="#EF6925" d="m1531.08 1529.23 14.87.28c-2.25 5.81-7.38 14.52-7.47 20.51l1.6.34.42.94c-1.24.19-2.8.54-4.08.53-1.44-.02-2.69.06-3.68-1.07-1.89-2.12-2.14-4.91-1.98-7.62.28-4.64.28-9.27.32-13.91"/><path d="m1684.42 1512.99 36.5.05a1452 1452 0 0 1-.41 27.05l-35.78.06c-.57-9.01-.3-18.13-.31-27.16"/><path fill="#EF6925" d="M1695.05 1516.53c7.04-.36 14.15-.24 21.2-.3l-.3 19.01c-6.92.54-16.89 2.38-23.64.62-1.96-.51-1.29-.08-2.29-1.83l.68-1.31c2.58.54 4.51.94 7.17.64l.75-2c3.09-4.01 7.02-5.78 11.39-8.1l-.54-1.01 1.21.38-.38-.78c-2.58-1.31-3.95-1.88-6.93-1.94-3.04 1.31-3.65 2.41-5.28 5.13l.55-.75-1.58 4.71c-2.56.97-2.74.92-5.39.23-1.87-1.9-2.98-3.5-3.12-6.28-.12-2.38.65-4.04 2.04-5.86zm-82.2-73.74c2.39-2.45 5.02-2.62 8.26-2.71 4.91-.13 9.84.27 14.74.63.06 11.73-1.11 25.17.57 36.69-1.26 3.27-1.51 3.12-4.63 4.83 6.59-.36 17.44-1.85 23.48.94l4-.51c-.15 3.34.1 7.11-2.36 9.71-4.37 4.61-15.14 2.85-20.96 2.69-1.84 7.05-2.9 15.04-9.72 19.15-2.13 1.29-4.37 1.98-6.82 1.14-2.97-1.03-5.34-3.6-6.46-6.5-1.23-3.16-1.93-6.67-2.74-9.97-5.57-5.89-13.72-.46-18.01-4.96-3.28-3.45-2.57-7.61-2.39-12.01 5.24-4.8 11.67-4.15 18.37-4.43l1.52-.79c4.85-7.82 1.33-24.51 3.15-33.9"/><path fill="#FEFEFE" d="m1605.18 1482.14 2.84.89.94 1.94c-.55 2.99-.57 3.5-2.6 5.72-1.64.53-2.79.88-4.55.53-3.67-.73-5.32-2.69-7.05-5.7l1.16-2.26c3.07-.36 6.21-.61 9.26-1.12m11.15-30.64 1.91-4.79c1.3.62.84.12 1.32 1.42.83 2.26 1.27 3.93 3.36 5.33 2.34-.34 2.55-.61 4.34-2.2.25-1.85.39-3.35.31-5.22l1.55-.18c4.93 7.38.81 26.89 2.67 36.37 6.59-.36 17.44-1.85 23.48.94-.34 1.5-.43 4.09-1.79 4.92-5.41 3.35-15.97 1.06-22.23 1.06-1.24 5.79-2.23 16.54-7.67 20-1.22.77-2.84 1.27-4.2 1.77a341 341 0 0 0-6.88-19.41c1.96-13.69 7.12-26.13 3.83-40.01"/><path fill="#EF6925" d="M1615.05 1574.18c3.1-1.99 7.44-3.77 11.17-2.81 1.76.45 3.23 2.31 3.87 3.93 2.03 5.08 1.19 11.55 1.06 16.94 3.17 3.75 6.76 7.47 9.54 11.51 6.18.32 14.81-.79 19.61 3.77-.05 4.32.56 9.02-2.28 12.58-4.25 2.78-10.87 1.89-15.81 1.93-6.43 3.94-9.77 5.72-11.97 13.34-.16.64-.34 1.27-.48 1.91-1.53 6.57 1.83 15.24-3.82 19.91-3.77.88-7.42.14-11.11-.8-2.88-11.65 1.25-20.06-4.08-32.94-4.52-.81-11.26.08-15.04-2.74-2.46-1.84-2.72-4.41-3.14-7.22.22-4.55.34-5.76 3.51-9.02 3.09-.97 5.51-1.29 8.74-1.31a501 501 0 0 0 5.07-1.5c5.04-6.26 4.39-19.57 5.16-27.48"/><path fill="#D4571D" d="M1597.05 1610.51c4.15-.55 10.87-2.19 14.54.32 1.04.71 1.47 2.33 1.99 3.44l1.07-.38c.12 2.7.38 5.19-.43 7.81l-3.47 1.75c-4.52-.81-11.26.08-15.04-2.74-2.46-1.84-2.72-4.41-3.14-7.22 1.93-.7 2.98-1.59 4.48-2.98"/><path fill="#FEFEFE" d="M1597.05 1610.51c4.15-.55 10.87-2.19 14.54.32 1.04.71 1.47 2.33 1.99 3.44-1.07 1.84-1.25 2.26-3.43 2.91-3.67 1.1-8.17.81-11.35-1.44-1.4-.99-1.42-3.6-1.75-5.23m24.59-34.56c4.37 5.02 4.02 11.99 4.59 18.35 4.09 3.33 7.83 6.29 8.78 11.75 1.77-1.35 3.57-1.71 5.68-2.3 6.18.32 14.81-.79 19.61 3.77-1.4 1.02-2.83 2.36-4.48 2.86l-1.71 6.56c-4.67.02-14.92-1.05-18.82 1.62s-4.22 10.1-8.39 12.96c-1.69.87-3.14.96-3.71 2.91-1.66 5.7 2.62 14.52-2.23 18.57-.28-.59-5.29-36.74-5.36-39.34.3-3.6.05-7.21-.09-10.82 1.59-8.12 1.75-19.88 6.13-26.89"/><path fill="#D4571D" d="M1640.69 1603.75c6.18.32 14.81-.79 19.61 3.77-1.4 1.02-2.83 2.36-4.48 2.86-3.22-.42-6.37-.66-9.58-.08-1.6.29-3.11.53-4.74.67-2.73.22-4.39.97-6.53-.82l.04-4.1c1.77-1.35 3.57-1.71 5.68-2.3"/></svg>