<svg xmlns="http://www.w3.org/2000/svg" style="display:block" viewBox="0 0 2048 2048"><path fill="#FEFEFE" d="M0 0h2048v2048H0z"/><path fill="#E95F2E" d="m1149.4 1876.36 2.36.05c1.9 2.51 1.55 7.18 1.72 10.3-10.66 1.93-21.79 2.52-32.58 3.6 6.59 29.58 8.43 61.34 12.01 91.46-2.97.41-6.11 1.37-8.82-.22-5.43-6.85-4.63-20.72-5.78-29.31-2.44-20-4.13-40.32-7.74-60.14-8.87 1.04-17.83 2.57-26.75 3.08-3 .17-6.26.45-8.65-1.68-.23-2.49.7-4.66 1.47-6.98 1.71-1.83 3.8-1.95 6.17-2.34 8.79-1.47 18.01-1.67 26.9-2.59a788 788 0 0 0 39.69-5.23m-477.557-57.13c13.219 5.36 71.4 20.71 77.125 30.24-.127 2.41.046 3.93-1.58 5.86-9.917-.14-25.879-7.53-35.56-10.84-6.32 18.36-11.637 37.19-17.39 55.75l-10.547 36.29-10.877-4.16c8.348-30.9 19.277-61.03 27.393-92.06-10.981-4.37-22.753-7.59-33.988-11.34zm345.037 65.99a125 125 0 0 1 5.62-.28c15.7-.55 30.15 4.41 41.64 15.16l-6.47 9.18c-9.1-7.38-19.43-13-31.41-13.47-10.46-.41-20.51 3.23-28.061 10.51-8.477 8.17-12.824 19.39-12.602 31.12.214 11.26 4.392 22.94 12.859 30.63 11.004 9.99 25.374 10.48 39.344 9.62 7.86-2.36 13.7-6.09 20.28-10.8l9.16 8.81c-6.52 4.48-13.41 8.22-20.96 10.63-14.84 4.73-32.05 4.16-45.85-3.41-11.508-6.32-20.237-16.37-23.776-29.12-3.81-13.73-3.16-31.17 4.139-43.54 8.147-13.81 21.157-20.88 36.087-25.04m-435.459-108.65 13.162 6.28c1.685 17.96 6.121 36.12 9.495 53.85 14.547-8.39 29.052-18.97 44.422-25.55l11.397 5.06c-18.77 10.55-36.304 23.12-55.241 33.43 3.082 16.06 9.526 48.99 9.789 64.24-4.016-1.18-7.903-3.05-11.76-4.68-3.942-16.94-5.787-34.79-8.004-52.05l-46.264 25.95c-4.019-2.03-7.786-4.62-11.585-7.04 19.423-9.75 38.049-21.06 56.733-32.14-5.296-22.01-8.288-45.02-12.144-67.35m949.539-50.7c7.6 5.78 54.02 74.59 63.89 89l-22.97 14.18c-.45.43-1.15.44-1.74.62-9.53-7.46-53.04-74.99-61.92-89.23 7.43-5.16 14.74-10.31 22.74-14.57m-623.239 152.45 10.724.89c12.367 35.21 22.657 71.35 37.524 105.6-4.446-.48-8.962-.56-13.429-.78-2.692-7.92-5.075-15.97-7.598-23.95l-26.693-1.91a779 779 0 0 1-34.168-2.52c-3.127 6.85-7.124 13.16-11.055 19.57-4.165-.1-8.343-.49-12.5-.78 17.133-32.95 38.345-64.14 57.195-96.12"/><path fill="#FEFEFE" d="M910.678 1893.58c4.8 3.59 16.538 47.92 18.959 55.75a746 746 0 0 0-26.881-2.57l-20.286-1.93c7.451-17.77 18.473-34.63 28.208-51.25"/><path fill="#E95F2E" d="M1335 1835.26c2.83-.21 5.69-.45 8.52-.47a31.6 31.6 0 0 1 22.65 9.63c6.71 6.92 9.65 16.36 9.35 25.89-.42 13.47-7.21 21.49-16.7 30.03 7.92 4.51 28.08 14.46 30.93 22.89-1.02 2.14-1.31 2.5-3.75 3.23-.73.23-3.13.43-3.74.33-3.57-.56-30.5-18.11-35.93-21.24l-13.17 2.74-11.04 2.44c2.01 8.3 10.53 26.53 8.57 33.98-2.29 2.04-2.6 2.23-5.62 2.73-2.03-.96-2.39-1.12-3.45-3.19-5.37-10.54-8.27-23.3-11.88-34.55-6.54-20.41-13.1-40.92-20.56-61.01 15.39-3.84 30.2-10.72 45.82-13.43"/><path fill="#FEFEFE" d="M1338.01 1845.19c5.56-.35 9.85-.01 14.83 2.66a22.87 22.87 0 0 1 11.36 13.93 24.6 24.6 0 0 1-2.28 19.38c-6.81 11.52-20.62 14.45-32.58 17.43-3.66.69-7.32 1.8-10.94 2.7l-14.86-46.06c11.42-3.51 22.83-7.32 34.47-10.04"/><path fill="#E95F2E" d="M769.265 1853.25c17.439 4.35 39.413 6.26 55.069 15.14 7.593 4.31 13.354 10.85 15.403 19.46 2.263 9.52.272 22.07-4.892 30.38-5.769 9.3-15.187 11.72-25.105 14.18 5.272 13.61 13.156 26.53 20.171 39.3-4.991-.26-10.183-.03-14.33-3.11-6.988-12.04-13.101-24.65-19.43-37.05-9.08-2.07-18.172-4.18-27.426-5.29-3.123 10.42-4.362 21.52-6.078 32.25-3.984-.6-7.943-1.5-11.895-2.29 7.44-33.85 14.934-68.48 18.513-102.97"/><path fill="#FEFEFE" d="M779.975 1865.5c13.26 3.07 34.794 6.17 44.313 16.76 3.793 4.22 5.297 9.54 5.028 15.14a31.33 31.33 0 0 1-10.71 22.36c-14.135 5.91-33.801-.67-48.201-3.59a2938 2938 0 0 1 9.57-50.67"/><path fill="#E95F2E" d="M507.242 1726.6c4.873 2.58 9.585 6.37 14.298 9.34 17.263 10.87 33.922 21.91 50.373 33.99-5.068 5.76-9.442 11.91-13.865 18.17-13.86-8.92-27.282-18.44-41.286-27.15-1.978 5.55-4.881 9.42-8.565 13.9 12.85 9.46 25.909 18.44 39.1 27.42a756 756 0 0 0-15.301 20.43c-12.054-10.13-26.269-18.61-39.262-27.58l-6.815 16.48c14.098 11.64 29.395 22.38 44.494 32.69a761 761 0 0 0-13.135 18.26c-17.55-8.57-54.386-34.98-69.853-47.69 20.583-28.9 38.789-59.66 59.817-88.26m960.628 39.31c9.36 4.44 18.85 13.8 26.89 20.4 21.25 17.46 41.83 35.79 63.21 53.03-9.31 5.99-19.27 10.29-27.38 17.98-4.07-5.34-8.37-8.79-13.97-12.34-5.47 2.48-10.7 5.52-15.97 8.39-7.58 4.25-14.99 8.66-22.3 13.37.52 5.58.54 11.25.73 16.86-9.21 3.79-17.73 9-27.06 12.55-2-36.92-5.83-77.94-11.29-114.52a2871 2871 0 0 0 27.14-15.72"/><path fill="#FEFEFE" d="M1469.32 1801.56c8.84 5.05 18.29 15.37 25.04 23.04l-7.81 5.86-14.42 9.07c-2.03-12.32-1.38-25.45-2.81-37.97"/><path fill="#E95F2E" d="M1221.92 1862.38c12.47-.35 24.05 2.76 34.14 10.27 11.16 8.31 18.08 20.44 20.17 34.11 2.17 14.21-1.38 29.41-10.23 40.82-10.03 12.94-23.86 19.28-39.75 21.18-12.53-.3-23.4-2.94-33.74-10.4a49.9 49.9 0 0 1-20.5-34.34c-1.85-14.67 2.47-30.85 11.71-42.44 9.97-12.51 22.82-17.52 38.2-19.2"/><path fill="#FEFEFE" d="M1218.61 1873.23c8.39-.56 15.99-.04 23.72 3.59 10.22 4.8 18.1 14.13 21.47 24.87a44.37 44.37 0 0 1-3.29 33.83c-6.27 11.66-16.66 18.13-28.99 21.81-8.75.85-16.78.03-24.78-3.84a42.4 42.4 0 0 1-21.91-25.49c-3.49-11.14-2.06-23.03 3.55-33.21 6.81-12.35 17.27-17.69 30.23-21.56"/><path fill="#132033" d="M1541.17 1200.28c14.17-.57 26.4 1.61 38.59 9.09 14.74 9.04 24.77 23.45 28.71 40.23 4.35 18.54 2.43 39.65-7.8 55.98-9.6 15.33-23.95 25.38-41.57 29.3-15.45 1.75-29.1-.63-42.11-9.39-15.01-10.1-25.62-25.3-28.92-43.17-3.64-19.72.91-41.35 12.4-57.81 9.59-13.75 24.49-21.44 40.7-24.23m-355.73-512.065c13.15-.956 25.82.976 37.42 7.456 15.56 8.685 25.34 24.104 29.71 41.067 4.93 19.113 2.99 40.336-7.26 57.421-9.72 16.22-24.7 26.335-42.87 30.749-14 1.134-27 .039-39.32-7.538-15.79-9.706-26.99-26.97-31.01-44.903a73.37 73.37 0 0 1 10.05-55.791c10.3-15.754 24.99-24.767 43.28-28.461m226.53-309.932a61.5 61.5 0 0 1 38.68 8.799c16.66 10.462 28.3 29.12 32.54 48.129 4.55 20.422.95 42.772-10.4 60.416-11 17.106-26.26 26.248-45.85 30.387-15.93.775-30.47-1.771-43.77-10.983-16.07-11.128-26.41-29.848-29.85-48.841a78.94 78.94 0 0 1 12.92-59.903c11.2-15.777 26.79-24.806 45.73-28.004"/><path fill="#FEFEFE" d="M1411.63 409.076c7.69-.846 15.03-.138 22.22 2.87a41.3 41.3 0 0 1 22.25 22.569 44.5 44.5 0 0 1-1.61 35.797c-6.01 12.452-15.31 19.56-28.11 23.833-8.02 1.12-15.03.489-22.51-2.859-10.76-4.816-19.08-14.376-22.97-25.444a44.32 44.32 0 0 1 1.9-33.869c6.06-12.283 16.3-18.671 28.83-22.897"/><path fill="#132033" d="M1841.21 673.074c1.63-.083 2.85-.005 4.45.208 5.52 6.931 7.27 19.777 9.34 28.412 14.67 61.204 20.55 124.016 22.86 186.774-14.38-7.809-28.25-17.193-42.3-25.628-34.55-20.735-68.89-40.989-105.31-58.344a910 910 0 0 0-121.89-47.406c15.53-10.331 33.65-16.939 50.86-23.94 31.95-12.993 64.73-25.133 97.69-35.294 27.98-8.63 56.43-15.776 84.3-24.782m-459.39 96.389c29.99-.184 62.4.375 91.88 6.097-183.71 114.625-319.29 247.46-433.48 431.63a2482 2482 0 0 1-10.19-23.56c-41.752-101.23-62.188-208.348-68.645-317.369a1063 1063 0 0 1 152.475-55.812c13.43 22.659 31.61 39.737 57.75 46.271a86.35 86.35 0 0 0 66.75-10.085c26.37-16.034 40.25-41.193 47.42-70.416 32.04-2.942 63.84-5.93 96.04-6.756m-46.78-651.402c23.15 6.262 46.68 17.603 68.36 27.829 27.24 12.851 54.28 26.675 79.98 42.431 73.68 45.174 155.68 114.567 208.15 183.315-15.22 2.639-30.82 3.762-46.14 5.934-47.4 6.718-94.54 13.838-140.97 25.635-5.88-11.012-12.89-21.627-21.6-30.608a88.02 88.02 0 0 0-62.58-26.855c-23.96-.269-48.22 8.811-65.36 25.705-24.63 24.278-33.25 54.002-33.41 87.708-18.97 6.862-37.93 13.424-56.73 20.798-24.6 9.076-48.83 19.883-72.81 30.498a1556 1556 0 0 0-205.911 108.995 595 595 0 0 1 10.151-38.114 889.27 889.27 0 0 1 253.1-399.365c26.31-23.463 54.57-47.247 85.77-63.906m392.76 301.492c35.94 52.508 65.84 106.521 89.77 165.502 5.39 13.281 11.25 26.635 15.53 40.318-21.28 7.344-43.85 11.649-65.41 18.333a1255.4 1255.4 0 0 0-178.05 71.069c-15.57 7.682-32.16 15.153-46.63 24.757-10.83-.629-21.76-2.678-32.5-4.188a1404 1404 0 0 0-56.3-7.178c-58.67-6.143-111.64-4.389-170.21 1.099-6.92-16.559-14.38-32.506-26.62-45.9a89.05 89.05 0 0 0-62.09-28.71c-23.9-.833-45.5 7.692-62.81 24.119-26.31 24.971-33.57 52.269-34.47 87.514l-22.51 6.647c-38.77 11.506-76.031 27.488-114.466 39.982-.189-43.587 5.22-86.94 11.71-129.952 30.776-21.576 64.216-40.721 96.996-59.093 22.34-12.521 44.41-25.369 67.26-36.961 63.45-32.179 128.88-58.71 195.27-84.03 6.37 10.803 12.85 20.231 21.79 29.131 17.79 17.697 39.23 28.531 64.65 28.3a91.6 91.6 0 0 0 65.74-28.171c21.98-22.858 31.13-52.218 30.5-83.427 37.8-10.595 78.36-15.599 117.31-20.179 26.49-3.115 52.96-6.287 79.58-8.111 5.22-.596 10.71-.592 15.96-.871m127.16 559.026c7.4-.745 15.02-.697 22.45-.959-7.16 146.44-63.57 315.05-150.17 433.72-33.37-27.48-68.24-53.84-103.1-79.4a143 143 0 0 0 5.24-8.78c14.91-26.84 19.52-53.94 10.93-83.68-7.66-26.5-23.52-49.21-48.12-62.46-21.94-11.83-47.46-15.3-71.4-7.89-25.11 7.79-43.56 25.47-55.47 48.59-13.71 26.59-15.75 56.32-6.34 84.66 8.46 25.51 27.63 47.94 51.78 59.85 26 12.82 50.92 10.51 77.65 1.27 25.61 22.55 54.4 42.61 81.45 63.45 8.99 6.93 21.94 14.82 28.95 23.61l-.53 2.12c-48.23 60.5-102.35 114.27-165.36 159.34-21.51 15.39-44.43 28.62-66.1 43.7-32.4-15.41-70.26-35.18-98.35-57.17-5.02-16.45-5.98-36.65-7.31-53.81-6.9-88.98 8.35-169 43.45-250.82 19.36-45.14 44.52-88.39 76.64-125.75a538.6 538.6 0 0 1 373.71-189.591"/><path fill="#132033" d="M1545.06 787.054c24.23 4.293 48.59 12.186 71.81 20.269a780.4 780.4 0 0 1 194.05 97.484c12.43 8.479 27.1 16.945 37.77 27.469a583.08 583.08 0 0 0-362.92 165.344 571.6 571.6 0 0 0-172.34 408.4 1203 1203 0 0 0 2.68 54.73c-14.58-10.92-28.35-23.99-41.86-36.22-84.98-76.87-151.98-165.61-207.42-265.58 22.59-43 49.84-84.5 78.67-123.53a1154.2 1154.2 0 0 1 260.14-256.785c45.22-32.671 93.02-60.779 139.42-91.581"/><path fill="#132033" d="M981.882 58.558c18.878-1.311 38.248-.68 57.158-.01 63.53 2.255 125 11.212 186.83 25.685 21.11 4.94 42.41 9.536 62.45 17.973-120.67 77.628-231.85 192.409-301.72 317.896-18.76 33.691-36.742 69.01-50.442 105.107a904.7 904.7 0 0 0-48.872 442.104c5.082 37.267 12.036 74.957 22.374 111.147 7.948 27.83 16.58 56.01 26.982 83.02a937.66 937.66 0 0 0 343.298 429.41c45.9 31.92 94.49 58.51 143.32 85.58-123.38 68.84-277.36 101.59-417.89 100.1-217.821-6.98-419.015-81.53-579.535-230.8a840.6 840.6 0 0 1-128.211-152.94c-91.084-138.32-136.608-287.8-142.381-453.075a849.75 849.75 0 0 1 223.449-603.654 859.65 859.65 0 0 1 603.19-277.543"/><path fill="#FEFEFE" d="M354.523 921.184c11.664 5.741 22.429 16.834 33.055 24.476 11.93 8.58 24.624 15.716 36.666 24.027l-.653 1.005c-10.308-1.489-21.033-4.398-30.962-7.52-11.972-3.763-34.361-12.072-39.966-24.186-2.782-6.013-.062-11.994 1.86-17.802m11.254 67.162c21.315-2.948 50.868 3.322 72.53 6.1-11.942 2.99-25.085 3.966-37.301 5.804-10.746 1.03-49.054 11.8-56.131 7.11-1.305-.87-2.213-2.02-2.418-3.56-.355-2.67.684-5.71 2.386-7.792 4.154-5.081 14.706-6.74 20.934-7.662m128.882 251.084c154.073-6.38 245.537 63.8 338.064 178.89 11.591 14.42 22.362 29.55 33.621 44.24 71.657 93.47 142.966 189.08 251.236 242.52 24.36 12.02 49.23 19.73 75.3 27.06a1879 1879 0 0 1-23.17 4.6 815 815 0 0 1-166.32 14.33c-13.14-.26-27.539.07-40.26-3.53-13.428-3.79-26.673-11.91-38.865-18.71-93.781-52.27-137.705-149.78-190.608-237.83-26.859-44.7-55.389-88.52-87.856-129.38-28.676-36.1-63.233-70.27-102.7-94.35-9.124-5.57-18.506-11.09-28.102-15.8-5.165-2.53-22.317-6.91-24.58-11.09z"/><path fill="#FEFEFE" d="M975.576 83.428a884.2 884.2 0 0 1 256.874 27.29c-44.95 29.762-84.69 69.657-123.57 106.827-37.52-8.227-74.1-14.577-112.588-16.084-144.352-5.653-279.753 47.38-385.28 145.447-44.859 41.689-99.014 119.285-109.693 180.315-3.059 17.482-.535 35.059-1.295 52.632-2.255 52.143-81.05 86.791-120.37 110.308-16.454 9.841-32.622 20.531-46.673 33.651-12.19 11.383-24.157 25.763-24.289 43.331-.227 30.152 30.321 53.384 49.366 72.933 2.857 2.933 6.869 7.523 7.206 11.831.317 4.038-1.989 9.605-3.545 13.393-3.41 8.301-7.664 17.208-12.721 24.64-9.611 14.126-21.639 24.04-21.51 42.893.107 15.55 8.872 25.397 19.043 35.892-6.262 2.954-12.538 5.499-17.552 10.406-9.131 8.935-10.409 20.169-10.413 32.287 3.85 8.68 11.375 15.09 16.167 23.26 3.357 5.73 4.23 12.2 4.339 18.74.52 31.35-24.675 47.45-31.299 75.7-5.102 21.76-.841 43.9 10.959 62.76 14.45 23.09 39.383 42.11 66.148 48.04 13.162 2.92 26.675 3.65 39.878 6.74 33.853 7.94 68.834 21.02 98.578 38.99 115.354 69.71 180.058 213.68 249.076 324.65 33.082 50.3 66.323 95.32 117.067 129.3-165.502-26.72-306.251-90.56-432.12-201.61a829.8 829.8 0 0 1-274.573-570.096c-14.089-228.327 58.379-437.719 209.935-608.863a834.9 834.9 0 0 1 423.663-252.688c52.393-12.637 105.443-19.577 159.192-22.916"/><path fill="#FEFEFE" d="M945.219 225.5c47.756-3.683 97.961 1.977 144.471 12.857-52.93 54.398-100.78 121.451-136.142 188.627-92.375 175.485-119.21 383.231-85.5 577.906 6.204 35.83 13.76 71.36 24.582 106.1a965.55 965.55 0 0 0 476.21 563.17c-22.51 11.51-99.65 44.67-122.02 42.89-14.84-1.19-30.52-6.22-44.98-9.79-105.59-26.03-172.44-88.92-242.156-168.28-61.83-73.65-115.808-162.94-188.08-226.18-85.949-75.2-164.827-102.11-278.385-99.76-27.037.55-64.746 6.44-89.987 3.44a89.9 89.9 0 0 1-42.562-17.13c-19.339-14.42-35.588-41.37-26.706-65.76 3.4-9.34 9.646-17.76 14.868-26.15 14.504-23.33 18.711-47.52 14.669-74.65 49.97-7.62 101.113-17.56 149.199-33.306-14.147-9.747-29.476-18.025-43.851-27.521-33.632-22.22-65.619-45.518-96.794-71.064 6.468-15.282 15.554-29.456 21.308-45.077-9.674-34.912-57.179-63.25-58.868-85.618-2.508-33.217 93.179-77.499 118.508-93.885 17.876-11.564 35.696-25.262 49.685-41.36 22.773-26.205 23.865-40.397 21.441-73.832-4.116-56.777 42.168-126.102 78.233-167.714 85.196-98.298 213.635-158.832 342.857-167.913"/><path fill="#132033" d="M378.644 772.107a56 56 0 0 1 2.468-.103c8.64-.108 30.886 21.662 37.472 28.414 2.785 2.856 5.5 5.672 5.046 9.98-.544 5.155-4.308 8.922-8.286 11.793-2.012.44-4.26.805-6.297.308-8.57-2.095-28.142-21.39-33.42-29.087-2.778-4.053-5.363-9.343-3.861-14.356 1.156-3.861 3.341-5.454 6.878-6.949m84.368-10.558c5.297 3.092 10.205 10.264 13.598 15.342 10.546 15.783 19.198 36.513 15.008 55.723-2.493 11.431-8.913 22.124-18.939 28.434-9.863 6.206-19.746 6.77-30.781 4.379-10.036-4.065-17.819-8.928-26.332-15.616 8.72.638 17.059.795 25.593-1.43 10.464-2.73 19.249-8.98 24.506-18.52 11.53-20.926 3.093-46.981-2.653-68.312m97.335-234.335a156 156 0 0 1 7.641-.169c50.433.191 119.086 46.349 153.752 82.012 1.799 1.851 3.994 3.619 3.92 6.261l-3.304-1.283c-35.883-17.892-73.352-36.398-111.456-48.897-16.208-5.317-33.164-7.309-49.189-12.442-3.347-1.072-6.254-2.569-8.126-5.664-1.814-2.999-2.161-6.437-1.276-9.802 1.27-4.831 3.82-7.553 8.038-10.016m13.203 51.269c39.704 15.35 83.778 70.289 107.289 105.354-14.182.284-28.432-.171-42.618-.346a5496 5496 0 0 1-106.217-.032c9.687-9.58 20.172-18.959 28.01-30.168 15.53-22.207 17.967-48.735 13.536-74.808"/><path fill="#FEFEFE" d="M597.619 623.527c11.564 6.813 28.611 25.76 35.832 37.069l-.529 1.059-8.801.277-38.227-.331c5.288-12.569 8.643-24.841 11.725-38.074"/></svg>