<svg xmlns="http://www.w3.org/2000/svg" style="display:block" viewBox="0 0 2048 2048"><path fill="#FEFEFE" d="M0 0h2048v2048H0z"/><path fill="#E75C1E" d="M1194.74 1697.06c25.6-.94 51.43-.29 77.06-.33l126.41-.04c-.21 6.6 2.21 22.42-1.19 27.47-.79 1.17-3.42.87-4.77.96l-127.16-.09c-22.9.05-45.96.84-68.84-.08-1.89-1.33-3.73-2.66-5.34-4.33-2.67-2.76-4.41-6.63-4.17-10.52.34-5.83 3.8-9.44 8-13.04"/><path fill="#183553" d="M648.964 323.994c68.829-1.344 137.836-.093 206.689-.209 3.684 3.862 6.551 7.705 9.46 12.15l-7.962 11.532-4.245 5.352a18333 18333 0 0 1-203.814.666z"/><path fill="#E75C1E" d="M1679.13 804.144c1.64.092 3.3.181 4.92.487 5.89 1.12 8.58 4.934 11.83 9.6 1.91 40.785.28 82.271.41 123.14a19735 19735 0 0 1-.22 259.779c-4.18 5.16-8.95 8.91-14.3 12.72-5.72-1.53-10.38-6.14-14.62-10.08-.82-16.62-.38-33.52-.45-50.16l.02-111.78a11644 11644 0 0 1-.22-158.487c.1-22.537-.54-45.178.32-67.698 3.97-3.376 7.4-5.677 12.31-7.521"/><path fill="#183553" d="m1339.38 869.065 14.22-.072a904 904 0 0 1 7.58 28.222c17.7 70.956 14.13 143.775-24.51 207.515-63.61 104.92-195.74 167.22-307.06 207.77-36.288 13.22-72.485 25.56-110.056 34.65 9.992 7.08 30.819 12.21 35.163 24.12-.364 2.91-.475 2.87-2.604 4.92-3.759 1.27-6.499 1.36-10.375.38-5.455-1.38-10.196-5.32-15.213-7.79-9.184-4.52-18.617-8.66-27.895-13-1.669-.84-3.058-1.9-4.585-2.98-.703-1.78-1.227-2.46-.998-4.42.304-2.6 1.331-5.22 2.523-7.53 3.037-5.88 7.097-11.27 10.237-17.12 4.472-8.34 7.802-17.46 12.688-25.55 1.351-2.23 3.163-5.38 5.468-6.77 1.971-1.18 4.24-1.44 6.403-.6 2.332.9 4.058 3.28 4.758 5.6.59 1.95.548 4.49-.233 6.39-2.736 6.66-15.807 25.33-20.34 32.27 26.323-9.24 53.51-15.94 79.897-25.1 115.572-40.11 266.972-104.55 331.402-215.09 44.48-76.31 34.53-145.217 13.53-225.815m-246.63-204.619c9.6.941 55.71 23.64 64.24 29.972-1.16 6.355-25.88 54.259-30.16 60.668-1.68 2.519-4.19 4.218-7.29 4.43-2.6.178-3.27-.122-5.05-1.734-3.28-10.294 14.7-36.6 19.25-47.606-40.75 12.328-80.71 28.307-120.34 43.791-96.304 37.626-193.041 77.949-261.084 159.354-42.683 51.065-64.588 112.949-58.634 179.649.612 11.92 2.462 24.24 4.938 35.93 1.65 7.79 4.804 16.82 4.898 24.76.041 3.41-1.212 4.91-3.592 7.14-2.747.88-4.055 1.48-6.918.34-2.283-.9-3.397-3.4-4.045-5.59-19.689-66.56-14.065-144.1 19.803-204.77 62.584-112.118 181.412-164.901 295.804-209.085 41.46-16.014 83.4-32.774 126.17-44.952-9.7-6.566-20.89-9.743-31.18-15.13-4.5-2.353-8.53-5.057-10.06-10.091.12-3.139 1.46-4.673 3.25-7.076"/><path fill="#E75C1E" d="M1557.52 1167.38c12.2 3.67 24.63 11.13 36.2 16.52l87.39 40.97c13.9-4.99 27.7-12.4 41.09-18.77 28.05-13.33 56.26-27.31 85.25-38.46-5.3 11.74-12.1 23.06-18.25 34.39a3806 3806 0 0 1-41.09 73.52c-10.19 17.19-19.32 35.17-29.01 52.67-12.24 22.1-24.98 43.87-36.85 66.18-19.18-33.13-37.36-66.81-56.12-100.18-23.49-41.79-47.55-83.76-68.61-126.84m-331.9 421.7c-.15 7.99-51.33 99.39-58.28 119.73 21.15 41.29 36.47 85.6 58.65 126.32-40.57-18.87-79.45-41.8-119.46-61.92-40.19-22.68-81.89-42.93-122.607-64.7 34.857-16.47 68.977-34.64 103.657-51.51 46.02-22.39 92.87-43.9 138.04-67.92"/><path fill="#183553" d="M819.977 212.941c8.79 3.057 17.355 8.143 25.687 12.346 21.711 10.952 43.053 22.616 64.567 33.948 50.763 26.739 102.869 51.878 152.449 80.706-18.51 11.66-38.84 21.28-58.34 31.18a5050 5050 0 0 0-75.421 38.979c-38.678 20.442-78.34 39.15-117.613 58.423 24.278-44.213 49.845-87.707 73.973-132.003l-46.684-86.625c-6.217-11.711-14.653-24.363-18.618-36.954"/><path fill="#0981A5" d="M365.121 649.442c2.563.572 4.666.991 6.588 2.961 9.678 9.922 30.3 57.262 38.156 72.159a5117 5117 0 0 1 47.01 89.716c6.875 13.138 14.746 26.073 20.994 39.499 2.282 4.903 4.565 10.049 4.671 15.529-1.181 1.044-1.683 1.872-3.324 2.108-3.209.463-6.157-.815-8.902-2.374-11.903-6.758-23.271-16.897-34.481-24.875-21.139-15.045-42.753-29.329-63.594-44.804 1.174 45.759.223 91.615.11 137.389l.135 179.82c-.097 42.38-.784 85 .69 127.35 2.048 2.99 4.296 5.59 6.062 8.78.471 3.38-.661 5.03-2.263 7.83-.737.24-1.215.43-2.03.47-2.626.15-5.441-1.2-7.25-3.07-4.892-5.06-6.132-14.65-6.631-21.43-1.126-15.31-.227-31.23-.221-46.6l-.058-87.5.072-304.386c-8.32 7.119-95.982 73.109-100.263 74.389-.775.232-1.615.096-2.423.145-2.726-1.355-3.894-2.033-5.642-4.661-.646-4.941 26.859-52.639 31.001-60.8 17.427-34.336 35.958-68.037 53.5-102.307a3351 3351 0 0 0 16.928-33.356c3.598-7.354 6.624-15.153 11.165-21.982"/><path fill="#FEFEFE" d="M368.653 668.756c5.191 5.721 23.825 46.633 29.306 57.23 21.771 42.094 45.218 83.607 66.243 126.029-30.558-23.443-62.302-45.575-93.584-68.069-.541-.307-1.044-.692-1.622-.921-2.562-1.016-4.579-.867-6.961.387-9.8 5.159-19.351 14.465-28.129 21.403-19.183 15.16-38.989 31.137-59.96 43.691 12.141-24.848 26.138-48.928 38.86-73.505 18.364-35.478 35.861-71.645 55.847-106.245"/><path fill="#183553" d="M1077.72 825.5c1.99-.135 4.33-.488 6.3-.26.48.057 2.4.44 3 .847 7.81 5.294 19.96 21.752 26.78 29.389l60.01 66.899c-1.53 10.735-.8 22.28-.81 33.127v249.948c-20.05.69-40.28 0-60.35.1a11243 11243 0 0 1-136.15.41c-31.823.02-63.916-.77-95.694.78l.207-244.398.059-85.513c.015-14.421-.607-29.158.079-43.551.085-1.782.507-3.106 1.193-4.732 2.525-2.021 4.779-2.083 7.98-2.321 19.718-1.464 40.232-.52 60.026-.517 42.434.006 84.94.617 127.37-.208"/><path fill="#FEFEFE" d="M1088.25 844.613c8.8 5.675 17.08 18.509 24.19 26.489 14.64 16.416 29.69 32.494 43.93 49.261-22.76.999-45.89.262-68.7.283a3452 3452 0 0 1 .58-76.033"/><path fill="#FEFEFE" d="m1058.91 837.529 18.48-.298.22 83.597-97.184.133c-13.06.007-26.878-1.276-39.824-.302-2.86.215-5.646.579-7.938 2.433-1.296 1.049-1.482 2.561-1.519 4.179-.058 2.492 1.247 4.288 2.813 6.005 11.194 2.849 47.965.496 61.663.471l164.719-.148-.17 259.701-19.98.08-247.495.47.196-215.442c-.008-46.491-1.599-93.538.623-139.941 55.123-.885 110.266-.114 165.396-.938"/><path fill="#183553" d="M922.942 1149.33c14.792.15 29.584.66 44.377.56 13.063-.09 28.116-1.89 40.831.49 3.52.66 6.29 1.55 8.32 4.69.17 2.45-.14 4.27-1.63 6.34-1.77 2.45-2.3 2.64-5.09 3.15-27.679-1.83-55.729 2.19-83.292.46-3.966-.25-5.561-.58-8.231-3.57-.758-2.54-1.171-4.91-.214-7.48 1.069-2.86 2.268-3.39 4.929-4.64m9.65-186.467 134.128-.089c12.57-.057 46.12-1.865 56.75.246 2.42.482 2.74 1.472 4.01 3.382.17 3.492-.64 5.363-2.18 8.466-11.84 1.105-24.39.361-36.3.347l-68.1.081-58.937.284c-8.224.035-18.272 1.147-26.273-.239-2.704-.469-2.716-1.016-4.164-3.204-.434-3.578.019-5.845 1.066-9.274m.888 40.167c23.515.44 183.68-2.08 190.89.69 2.58.99 3.18 2.26 4.2 4.67-.31 3.39-1.29 4.86-3.34 7.52-15.83.59-185.91 1.66-190.062.03-1.982-.77-3.247-2.12-3.735-4.23-.719-3.1.751-5.98 2.047-8.68m151.29 52.15c10.95-1.13 21.58-.53 31.24 5.35 8.51 5.17 14.06 13.61 16.14 23.27 2.75 12.73-.86 25.48-7.93 36.16-4.51 6.81-17.39 23.7-25.59 25.06-15.87 2.63-25.75 3.61-40.9 10.36-7.28 3.45-14.36 7.4-21.64 10.91 3.79-11.34 7.94-22.4 12.46-33.46a283 283 0 0 1-22.29-22.67c4.11-6.82 9.72-12.94 14.76-19.09 12.8-15.62 23.62-29.96 43.75-35.89"/><path fill="#FEFEFE" d="M1082.17 1095.93c1.9.47 4.36 1.12 5.94 2.3 1.98 1.48 2.06 2.95 2.42 5.17-2.25 8.43-17.01 21.04-23.35 28.02l-1.59 1.06c1.22-5.09 6.47-8.62 7.56-13.57 1.03-4.64-1.82-9.71-.6-13.88 1.19-4.06 6.36-6.97 9.62-9.1"/><path fill="#FEFEFE" d="M1086.02 1067.19c4.05-.19 8.36-.34 12.39.22 7.51 1.02 14.93 4.48 19.32 10.86 4.44 6.44 5.22 14.42 3.57 21.94-2.73 12.44-12.11 26.42-23.2 32.92-8.6 5.04-15.32 4.32-24.51 2.05 7.31-7.71 16.58-13.45 23.42-21.37 4.04-4.67 4.33-8.18 3.72-14.1-4.54-7.75-10.78-10.49-18.64-13.91-2.85 1.52-5.55 3.16-7.95 5.34-4.66 4.23-14.85 14.51-14.84 21.03.01 2.03 3.33 4.47 4.75 5.89-.72 2.81-3.44 4.85-5.43 6.92-5.68-6.15-11.25-12.44-17.68-17.85 14.63-15.32 22.71-34.76 45.08-39.94"/><path fill="#E75C1E" d="M1443.65 362.432a262.85 262.85 0 0 1 182.11 59.609c51.99 42.451 84.96 106.857 91.67 173.342 7.21 71.502-12.55 141.948-58.36 197.575-48.72 59.177-109.09 84.592-183.83 91.773a267.04 267.04 0 0 1-190.44-65.736c-51-45.175-81.99-113.581-85.66-181.33-3.85-70.873 18.84-137.503 66.45-190.404a261.96 261.96 0 0 1 178.06-84.829"/><path fill="#FEFEFE" d="M1440.13 372.418c59.45-6.669 128.72 18.123 175 54.777 49.39 39.118 84.52 100.027 91.71 162.814 7.63 66.553-7.95 136.584-50.38 189.414-44.98 56.008-105.13 87.638-176.21 95.45a260.96 260.96 0 0 1-184.16-59.208c-49.78-41.811-81.49-105.765-86.7-170.285-5.43-67.209 13.71-133.074 58-184.513a253.84 253.84 0 0 1 172.74-88.449"/><path fill="#E75C1E" d="m1455.57 404.437 1.11-.038c56.51-1.526 112.12 21.621 152.99 60.267 42.97 40.642 65.71 98.802 67.21 157.399 1.45 56.534-22.83 113.643-61.74 154.349a219 219 0 0 1-153.49 67.754c-58.5.438-108.52-20.36-151.54-59.371a218.92 218.92 0 0 1-71-152.541c-2.83-59.532 19.97-115.583 59.94-159.202 40.36-44.033 97.78-66.236 156.52-68.617"/><path fill="#FEFEFE" d="M1442.18 415.403c47.77-4.098 98.64 9.542 137.3 38.105 45.15 33.356 76.13 81.923 84.31 137.787 7.97 54.364-3.3 110.15-36.7 154.607-38.07 50.66-88.57 79.106-150.92 87.858l-1.07.125c-49.25 5.484-105.81-12.802-144.09-43.795-47.16-38.187-75.44-88.637-81.4-149.219-5.06-51.408 11.63-106.287 44.4-146.145 37.48-45.591 89.22-73.597 148.17-79.323"/><path fill="#E75C1E" d="M1360.48 477.968c50.11 1.207 100.92 1.498 151.01-.245 19.79 20.67 37.39 43.764 57.83 63.766l.62 147.377c.01 19.716 2.22 41.363-.44 60.807-13.13.907-26.67.365-39.84.377l-71.46-.007c-30.82.024-69.13 2.236-99.1-.173-.76-14.426-.23-29.141-.24-43.602l-.02-80.348-.07-89.258c-.06-16.371-.65-32.892-.14-49.25.1-3.474.44-6.213 1.85-9.444"/><path fill="#FEFEFE" d="M1514.69 494.78c5.71 3.786 36.62 38.317 40.74 45.3-13.55-2.243-26.7-3.316-40.4-3.934-.28-13.551-1.5-27.901-.34-41.366"/><path fill="#FEFEFE" d="M1367.64 487.42c46.07-.196 92.46-1.289 138.48.69-.06 10.746-2.14 39.535 1.59 48.455 3.09 7.387 13.21 5.306 19.48 7.642-3.82 2.071-101.75.145-117.01.511-4.94.118-10.41.263-14 4.042-.3 2.48-.11 2.524 1.21 4.678 7.79 4.252 142.63-.325 163.61-.804l-.02 54.866a8742 8742 0 0 0-.05 132.838 8284 8284 0 0 1-193.07.669c-2.41-84.354.05-169.172-.22-253.587"/><path fill="#E75C1E" d="M1398.17 711.29c13.97-.634 56.12-.865 68.31 1.389.48.923.69 1.191.85 2.359.31 2.387-.26 4.717-1.66 6.553-11.38-.041-60.15 2.119-67.3-.455-1.31-.473-1.47-1.525-2.09-2.68.07-3.463-.08-4.164 1.89-7.166m-1.22-136.057c17.32-.001 139.16-1.771 144.29.77 1.35 3.126.73 5.968.35 9.234-17.65-.049-136.99 1.175-142.44-.579-.7-.225-1.21-.831-1.81-1.246-.87-3.199-.92-4.907-.39-8.179m-.54 30.729 95.71-.025c15.74.015 33.31-1.629 48.77.635 1.84 2.759 1.18 6.066 1.03 9.231l-95.03.019c-14.68-.007-30.55 1.428-45.05-.003-2.22-.22-3.45-.788-5.19-2.263-1.31-2.637-.69-4.825-.24-7.594m95.15 92.035c-5.58-6.959-8.85-14.742-8.55-23.779.43-12.951 7.61-23.829 16.9-32.323 4.68-4.272 12.87-12.282 19.47-12.017l1.54 1.719c-.41 10.568-17.18 18.486-18.44 28.451-.07.621-.1 1.246-.16 1.869.26-.164.5-.34.76-.492 5-2.912 16.69-3.277 22.31-1.857 2.89.732 4 1.625 5.85 3.89.37 2.506.24 3.581-.79 5.896-2.08.752-3.72.848-5.92.887-1.05 3.652.17 6.471-1.72 9.895-2.56.907-2.56 1.087-5.06.127-1.26-2.599-2.14-5.106-2.96-7.871-2.27-.527-4.07.078-6.29.576-3.17-.859-5.29-2.292-6.93-5.17-1.36-2.375-1-3.121-.63-5.739l-1.06-1.184c-2.71 1.934-3.64 4.645-4.2 7.89-1 5.782-.32 16.958 3.74 21.464 2.38 2.651 4.86 3.507 8.39 3.391 8.61-.283 21.9-8.919 26.81-15.537 13.44-18.123-13.52-27.779-14.65-37.504 1.88-1.873 3.43-2.647 6.17-2.741 3.06-.105 7.25 3.955 9.44 6.056 6.55 6.28 10.63 13.943 10.76 23.163.12 9.47-4.42 18.335-10.97 24.962-9.87 9.983-19.6 12.673-33.28 12.921-8.3 7.304-17.67 13.591-26.89 19.667 4.57-9.503 10.46-17.908 16.36-26.61"/><path fill="#0981A5" d="M575.267 1162.43c69.087-3.04 131.763 17.08 185.222 61.26a254.64 254.64 0 0 1 91.402 174.45 265.07 265.07 0 0 1-60.97 194.86c-46.958 55.77-112.993 85.28-184.676 91.63l-.641.06c-65.838 4.04-134.25-17.85-183.991-61.5-56.884-49.92-88.354-110.69-92.929-186.7a257.03 257.03 0 0 1 63.637-184.32c48.024-53.71 110.728-85.95 182.946-89.74"/><path fill="#FEFEFE" d="M580.35 1172.42a258.8 258.8 0 0 1 169.778 56.45 251.88 251.88 0 0 1 91.726 168.64c7.203 67.22-14.348 133.57-56.772 185.75-47.052 57.86-108.415 84.05-181.346 91.54-68.623 2.01-130.545-19.49-181.755-65.43a250.86 250.86 0 0 1-83.077-171.83 247.76 247.76 0 0 1 65.366-182.72c45.852-50.53 108.204-78.95 176.08-82.4"/><path fill="#0981A5" d="M587.533 1203.45c55.534-1.49 110.539 20.07 151.799 56.86 43.952 39.19 68.765 92.35 71.828 151.13 3.129 60.05-16.83 116.48-57.356 160.86-41.012 44.92-97.535 69.67-157.964 72.37-57.37 1.35-115.588-22.07-157.372-60.83a217.52 217.52 0 0 1-68.964-151.9c-2.163-59.52 20.528-116.44 60.859-159.77 41.787-44.89 96.686-66.61 157.17-68.72"/><path fill="#FEFEFE" d="M587.404 1213.44c58.226 1.45 105.307 19.79 148.745 58.65 38.323 34.28 62.123 87.5 64.901 138.6 3.147 57.89-15.697 110.31-54.533 153.3-40.617 44.96-92.165 66.65-151.807 69.84-53.643-.82-105.482-18.52-145.574-54.84a208.12 208.12 0 0 1-68.673-145.71 210.8 210.8 0 0 1 54.136-150.21c40.299-43.9 93.84-66.98 152.805-69.63"/><path fill="#0981A5" d="M622.611 1283.48c.805-.04 1.613-.03 2.42-.01 1.784.06 3.219.34 4.664 1.48 9.729 7.7 18.206 18.61 26.584 27.75a4808 4808 0 0 0 36.738 39.26l-.029 132.27c-.018 24.58 1.116 49.84-.723 74.31l2.924.67-3.922.13.308 2.35c-13.137 4.64-127.682 2.11-151.153 2.06-14.435.07-57.555 3.12-68.779-3.27-1.527-2.08-1.433-4.27-1.577-6.76-.79-13.65-.103-27.74-.028-41.43l.715-88.09a6718 6718 0 0 0-.412-80.78c-.175-14.4-.968-29.03-.432-43.41.164-4.41.092-11.32 3.127-14.69 14.923-3.78 34.401-1.56 49.796-1.55 33.237.02 66.553.58 99.779-.29"/><path fill="#FEFEFE" d="M631.159 1301.46c7.3 3.97 37.037 39.06 44.31 47.58-14.826.62-29.625.69-44.463.69z"/><path fill="#FEFEFE" d="M488.55 1293.5a7089 7089 0 0 1 132.107.47c.138 8.18-2.009 57.33 1.607 62.16 1.33 1.78 3.609 2.63 5.706 3.05 9.458 1.91 43.156.1 54.72.14 1.102 51.16.504 102.59.096 153.76-.068 8.43 1.311 32.29-.448 38.93-2.287 2.34-2.924 1.87-6.088 2.01l-124.782-.19c-23.572-.04-47.671 1.03-71.151-.83l-.021-176.85-.226-53.27c-.038-9-.939-19.04.433-27.89 2.606-1.95 4.846-1.41 8.047-1.49"/><path fill="#0981A5" d="M501.245 1349.24c20.415-.11 40.882.56 61.303.73 10.13.09 20.496-.79 30.582.01 2.967.24 6.471.55 8.83 2.55 1.07.9.727.9.913 2.49-1.436 2.6-1.955 3.88-4.787 5.16l-60.679.09c-12.297.08-25.227 1-37.429-.31-2.032-1.53-2.213-1.58-2.952-3.99.722-3.05 2.159-4.52 4.219-6.73m-.034 71.17c16.596-.37 149.471-1.86 154.622 1.17 1.167.69 1.169 1.77 1.562 2.97-.688 3.2-1.262 4.35-3.492 6.75-18.66-.18-148.245 2.1-153.845-1.54-2.257-1.47-2.439-2.3-3.076-4.73 1.299-2.73 1.668-2.97 4.229-4.62m-.362-36.44c32.528-1.03 65.425-.08 97.987.09 16.504.08 33.651-1.09 50.059-.37 2.856.12 4.863.35 7.359 1.77 1.252 2.06 1.936 3.16 1.096 5.71-.889 2.7-2.268 3.21-4.6 4.28-15.74.45-145.072 1.46-151.077-.65-2.532-.89-2.874-1.75-4.124-3.91.412-3.75.978-4.12 3.3-6.92m168.692 69.46c.278-.02.561-.12.836-.06 2.513.47 3.115 1.18 4.533 3.1-.913 14.81-3.256 40.26-8.165 53.78-1.333.29-1.279.5-2.478.03-4.3-1.66-6.893-7.55-9.038-11.36-8.218 9.08-50.836 46.28-61.024 48.91-2.616.68-2.884.76-5.037-.56-1.72-8.9 8.41-31.06 11.801-40.5l16.154-43.72c11.117 5.51 34.496 24.31 42.352 33.76.465-10.76 3.09-21.56 5.092-32.13-9.669.49-19.003 3.07-28.782 3.35-2.813-2.24-7.589-5.36-8.472-8.87 3.507-2.95 35.477-4.96 42.228-5.73"/><path fill="#FEFEFE" d="M624.967 1478.68c5.972 5.67 12.331 10.57 18.971 15.43-8.762 8.56-18.217 16.37-27.551 24.3l-12.66 10.96c7.023-16.73 12.073-35.02 21.24-50.69"/><path fill="#183553" d="M1678.53 1432.43c.35-.04.7-.08 1.05-.1a281.23 281.23 0 0 1 200.34 69.01 263.08 263.08 0 0 1 89.76 182.53 257.46 257.46 0 0 1-62.27 188.41c-52.1 59.7-118.69 89.21-197.16 94.26-.44.05-.88.11-1.33.14-69.72 4.91-145.09-21.59-197.41-67.52a269.5 269.5 0 0 1-92.02-186.68c-4.22-68.32 19.45-139.3 65.12-190.54 12-13.45 25.92-25.09 40.43-35.73 46.7-34.28 95.96-50.29 153.49-53.78"/><path fill="#FEFEFE" d="M1548.57 1507.83c70.25-1.33 140.81-.43 211.08-.12 7.71 11.21 17.33 21.18 26.39 31.29 19.73 22.04 41.88 44.7 58.89 68.85l-.27 183.83v59.04c-.01 10.11.62 20.71-.21 30.76-.14 1.73-.4 2.55-1.42 3.94a26352 26352 0 0 1-294.39 1.38c-1.41-14.84-.18-30.87-.09-45.82l.38-90.17c.17-80.94-1.62-162.07-.36-242.98"/><path fill="#183553" d="M1763.03 1538.47c4.32 2.71 50.79 56.91 57.34 64.72-19.16.78-38.43.41-57.61.45z"/><path fill="#183553" d="M1562.61 1522.74c60.57-1.67 121.61 0 182.22.21l-.41 80.98-151.83-.1-.21 17.25 236.02-.18.34 97.6c.05 50.53.61 101.2-.5 151.72l-265.81.73z"/><path fill="#FEFEFE" d="m1591.71 1827.98 96.21-.27c.05 5.52-.11 11-.33 16.52a7031 7031 0 0 1-96.01.55c-.18-5.6.03-11.2.13-16.8m.2-133.14a14399 14399 0 0 1 202.3.11l-.04 17.61c-28.5.63-57.13-.1-85.64-.31l-116.59-.21zm30.04-45.34 172.12.21.03 17.23-26.85.23-175.45.12-.22-17.74zm150.61 84.8c2.62-.19 5.33-.2 7.94.04 8.53.76 17.49 5.17 22.95 11.82 5.05 6.17 6.53 13.67 5.61 21.46-2.13 18.02-20.04 43.77-37.6 49.86-7.09 2.46-16.31 1.16-22.23 6.12-8.15 6.82-15.97 14.02-23.81 21.19-2.56 2.4-6.1 6.5-9.52 7.48-2.28.66-2.8.14-4.52-1.13-3.17-10.35 12.57-39.92 17.17-50.75-3.39-1.25-7.58-2.46-10.47-4.66a13.6 13.6 0 0 1-5.23-9.55c-.56-6.29 3.46-12.4 7.15-17.13 13.43-17.21 30.22-31.91 52.56-34.75"/><path fill="#183553" d="M1763.82 1769.54c1.06.96 2.21 1.92 3.12 3.04 1.54 1.91 2.43 4.41 1.78 6.86-.89 3.3-3.63 4.97-6.27 6.83-2.99-2.2-4.37-3.53-4.93-7.2.96-3.78 3.86-6.6 6.3-9.53"/><path fill="#183553" d="M1761.55 1748.12c4.07-.15 7.97.07 11.92 1.21 6.61 1.89 12.46 6.13 15.51 12.39 3.11 6.39 3.38 15.35.7 21.94-3.54 8.7-13.3 19.45-22.04 22.87-3.02-.32-3.36-.36-5.69-2.27-.51-1.88-1.13-3.43.19-5.21.66-.89 3-2.23 3.92-2.92 7.07-5.3 10.86-8.37 14.87-16.36.35-3.75.63-7.55-.99-11.06-1.98-4.3-7.06-8.64-11.58-10.03-19.24-5.92-18.83 26.51-29.19 31.66-.65-.88-.85-1.05-1.27-2.22-2.79-7.86-.1-18.25 3.9-25.19 4.58-7.95 11.02-12.43 19.75-14.81M342.746 78.446c66.372-5.174 138.202 21.868 188.221 64.688a277.4 277.4 0 0 1 95.772 187.407c5.743 75.782-17.004 147.785-66.905 205.348-48.211 55.613-120.076 84.044-192.257 88.934-74.769 1.22-142.417-23.629-197.989-73.735a276.4 276.4 0 0 1-90.354-191.569c-3.35-67.825 22.512-140.271 68.4-190.458 52.852-57.805 116.942-87.143 195.112-90.615"/><path fill="#FEFEFE" d="m226.64 160.484 197.844.556c28.09 28.99 55.83 58.523 83.249 88.159-2.139 17.685-.576 37.002-.565 54.897.017 26.634 2.067 231.377.231 235.127-.405.826-1.163 1.427-1.745 2.14-3.436 1.493-6.705 1.388-10.404 1.477l-186.471.105-58.613.104c-10.817.014-22.168.716-32.909-.411-2.711-.285-5.335-.066-7.109-2.22-1.709-11.413-.418-24.288-.478-35.852l-.205-82.563-.29-165.865c-.01-27.5-.54-55.123.087-82.612.088-3.843-.141-8.587 2.081-11.759 4.888-1.695 10.176-1.272 15.297-1.283"/><path fill="#183553" d="M433.628 399.312c2.176.128 4.308.328 6.442.792 6.384 1.39 13.63 5.496 17.147 11.155 3.557 5.722 3.761 13.615 2.05 19.968-3.894 14.451-18.266 26.253-30.563 33.7-3.934-.007-7.89-.296-11.821-.476 6.215-7.715 12.728-15.22 19.102-22.805l4.916-6.609c-5.43-6.26-12.269-11.518-18.539-16.923-3.919 3.706-15.416 18.681-19.678 19.285-1.513-1.771-2.771-2.858-4.767-4.062l-4.358 1.748c-.101-1.771.57-2.15 1.587-3.636 9.359-13.679 21.499-29.048 38.482-32.137m-11.81-222.816c6.221 4.692 11.799 12.84 17.206 18.597 13.495 14.367 36.788 36.077 47.568 50.901l-65.301.032a5114 5114 0 0 1 .527-69.53"/><path fill="#183553" d="m289.5 174.166 119.535.145-.007 71.053-86.058-.34c-13.141-.053-28.577-1.841-41.374.53-2.468 1.858-3.652 3.328-5.307 5.942-.096 1.999-.524 3.197 1.093 4.704 3.716 3.462 9.927 4.225 14.747 4.575 21.059 1.532 43.598-.375 64.84-.458l138.077-.238.591 269.586c-91.43 1.418-183.103.021-274.562.172l.339-355.59c7.616-.069 15.248.083 22.866.13l.13 217.205-.137 70.64c-.016 13.738-1.039 28.285.912 41.884l137.894.008c2.511-6.105 21.177-29.154 27.453-29.456 7.259-.349 9.294 7.009 24.296.293 13.729-6.147 31.977-23.575 37.188-37.821 3.493-9.549 2.127-20.338-2.478-29.277-5.105-9.909-14.501-17.947-25.309-20.895-10.194-2.78-20.875-.473-29.732 5.068-9.919 6.205-42.015 45.547-44.006 56.769-.412 2.322-.118 2.558 1.211 4.318 7.511 2.181 20.125-5.239 26.589-8.777-8.848 15.106-15.918 31.504-22.108 47.857l-121.095.332a29726 29726 0 0 0 1.154-318.321z"/><path fill="#FEFEFE" d="M286.366 288.264c37.322-.779 74.792.35 112.134.431 14.564.031 53.662-1.911 66.135 1.05 2.799.664 5.149 2.54 6.218 5.288.834 2.142.429 4.564-.923 6.412-1.763 2.41-4.046 2.333-6.68 2.74l-137.287.359c-9.519-.006-35.087 1.676-42.003-.643-2.782-.932-3.782-1.948-5.215-4.433-.416-2.541-.445-4.406.954-6.7 1.684-2.761 3.82-3.512 6.667-4.504m-1.212 43.964c30.471-.828 61.166-.145 91.666-.17 26.477-.021 53.205-.847 79.657.067 5.364.185 10.057.164 13.923 4.341.62 1.675.919 2.705.564 4.533-.804 4.128-3.114 5.746-6.438 7.764-34.82 1.638-70.471.18-105.397.192-22.719.008-49.301 1.864-71.624-.117-2.957-.262-4.639-1.445-6.844-3.285-1.069-2.375-1.854-4.192-1.015-6.84 1.006-3.172 2.895-4.638 5.508-6.485"/></svg>