<svg xmlns="http://www.w3.org/2000/svg" style="display:block" viewBox="0 0 2048 2048"><path fill="#FEFEFE" d="M0 0h2048v2048H0z"/><path fill="#0B2A42" d="M802.603 1737.1c2.714.19 2.913-.11 4.729 1.85.196 1.17.839 2.56.078 3.59-4.71 6.4-68.385 18.6-79.797 21.2 9.214 11.95 47.65 53.47 48.789 64.85-1.339 2.68-1.459 2.62-4.2 3.89-8.516-10.14-16.431-20.99-24.869-31.26-10.938-13.31-24.442-27.28-32.887-42.29 9.617-3.33 20.036-5.14 29.939-7.49a2088 2088 0 0 0 58.218-14.34"/><path fill="#F17816" d="M738.889 1301.06c4.106 11.01 10.11 21.26 16.077 31.35a321.33 321.33 0 0 0 142.432 127.09 300.95 300.95 0 0 0 231.672 7.12c71.48-26.99 138.29-83.29 170.14-153.8a138 138 0 0 0 3.57-8.66c3.41 1.73 7.15 3.32 10.19 5.65-8.18 10.56-14.48 27.76-22.37 39.69a333.5 333.5 0 0 1-114.8 106.71 314.07 314.07 0 0 1-242.685 26.91c-72.29-20.76-135.438-70.44-177.537-132.18-9.569-14.03-17.262-28.91-25.481-43.72 2.642-2.31 5.88-4.18 8.792-6.16"/><path fill="#0B2A42" d="M523.679 719.813c-12.926-17.243-25.498-34.551-36.135-53.33-40.939-72.268-54.775-156.051-43.019-237.92a366.28 366.28 0 0 1 141.306-241.806 310.26 310.26 0 0 1 231.965-58.704c83.758 12.416 159.862 62.74 209.644 130.495 49.67 67.607 73.22 145.688 73.82 229.227 157.46 15.93 295.38 104.48 394.02 225.442 61.97 76.006 103.93 161.705 131 255.739 7.07 24.565 14.29 50.864 17.09 76.274 9.73-.53 41.77-5.21 48.6-1.44.58 2.1.66 2.87-.01 5.04-2.49 8.05-7.43 16.33-10.88 24.07-9.9 22.19-20.33 44.35-28.99 67.05 91.76 9.82 171.02 51.84 229.14 124.03 57.68 71.66 83.98 170.78 73.89 261.78-10.03 90.5-56.18 179.1-127.76 236.01a306.98 306.98 0 0 1-230.86 66.22c-77.67-8.95-156.44-52.39-204.95-114.01a621 621 0 0 1-30.53-43.26c-29.4 20.07-53.48 40.52-85.07 59.08a604.2 604.2 0 0 1-420.948 74.87c-12.414-2.33-68.386-13.23-74.625-19.96l.53-3.67c10.81-2.47 51.367 11.04 65.071 13.89 9.732 2.03 19.79 3.6 29.638 5.01 137.944 19.73 272.544-4.1 393.184-75.24 30.71-18.12 59.66-39.48 87.52-61.67-6.76-13.82-14.42-27.61-20.01-41.94a370.83 370.83 0 0 1-6.35-255.42 419 419 0 0 1 14.78-37.23 3236 3236 0 0 0-31.77-18.63c-3.04-2.33-6.78-3.92-10.19-5.65a138 138 0 0 1-3.57 8.66c-31.85 70.51-98.66 126.81-170.14 153.8a300.95 300.95 0 0 1-231.672-7.12 321.33 321.33 0 0 1-142.432-127.09c-5.967-10.09-11.971-20.34-16.077-31.35-2.912 1.98-6.15 3.85-8.792 6.16a806 806 0 0 0-53.993 34.06c15.894 24.21 30.476 48.81 41.9 75.5 29.556 69.02 36.027 148.78 21.083 222.06-17.797 87.27-70.218 169.32-144.892 218.42-68.675 45.15-154.163 64.99-235.205 48.11-86.15-17.94-157.859-70.18-205.489-143.45a365.88 365.88 0 0 1-50.76-275.84 356.38 356.38 0 0 1 152.619-224.57c22.075-14.25 47.603-25.92 72.498-34.36-4.813-156.65 43.775-323.601 138.328-449.412-6.945-6.265-23.915-17.576-25.548-26.784 7.941-6.929 68.563-25.951 83.041-31.141"/><path fill="#FEFEFE" d="M515.76 732.137c2.002 8.832-7.894 55.731-10.274 67.517l-26.986-22.65c-8.4-7.216-16.977-14.295-24.862-22.078 19.6-9.471 41.505-15.736 62.122-22.789m1140.01 321.293c7.96-.33 15.97-.31 23.94-.44-9.39 25.27-21.9 49.43-33.04 73.97l-5.4-10.43c-11.4-20.25-24.27-39.69-35.42-60.05a3226 3226 0 0 1 49.92-3.05m-43.73 95.15a131 131 0 0 1 5.26-.39c79.72-4.33 161.2 28.37 220.12 81.2 64.16 57.51 105.51 145.92 110.29 232.03 5.15 92.68-23.6 186.74-86.29 256.4-53.18 59.11-127.52 99.12-207.67 103.43-72.25 7.1-153.3-21.14-209.2-66.62a347.47 347.47 0 0 1-124.61-235.15 358.3 358.3 0 0 1 79.53-260.76c54.67-66.58 127.5-101.71 212.57-110.14"/><path fill="#0B2A42" d="M1616.19 1187.4c.35-.04.69-.08 1.04-.11 68.54-4.93 140.95 23.83 192.16 68.19 59.85 51.85 95.76 131.79 100.91 210.25 5.18 78.96-22.97 163.92-75.13 223.41-45.82 52.27-112.23 88.1-181.92 92.76-65.51 4.6-133.49-15.83-184.62-57.28-64.82-52.55-102.01-124.88-110.4-207.76-8.22-81.16 13.85-164.88 65.91-228.44 50.37-61.49 112.73-93.2 192.05-101.02"/><path fill="#FEFEFE" d="M1520.38 1315.24c53.68.59 107.48-.99 161.13.21 19.34 16.09 56.97 57.93 72.54 78.79 1.01 56.83-.13 113.84-.14 170.68l.18 55.03c.04 8.66.92 18.48-.19 27.03-.43 3.26-1.66 4.07-3.77 6.38-17.64 2.6-226.11 1.03-229.78-.46-1.66-.68-1.66-2.17-2.01-3.73-2.96-12.96-1.11-29.07-1.07-42.41l.21-73.36.15-134.31c-.04-24.47-.96-49.15-.06-73.59.15-4.05.6-6.81 2.81-10.26"/><path fill="#0B2A42" d="M1682.75 1332.58c9.22 8.81 17.22 20.07 25.72 29.68 8.77 9.91 18.99 19.11 26.89 29.7-17.37 1.28-35.25.41-52.67.36z"/><path fill="#0B2A42" d="m1529.89 1328.27 139.92.23c-.02 25.36-.58 50.88.37 76.22 23.29 1.74 47.59.41 70.99.34-.03 24.73 1.74 230.62-1.23 235.36l-210.93.31z"/><path fill="#FEFEFE" d="M1561.49 1530.06c12.12-.11 44-2.7 53.7 1.1 2.64 1.04 3.23 2.19 4.42 4.65-.12 3.39-1.01 5.04-2.8 7.88-14.08 1.27-40.54 1.71-54.29-.17-2-1.73-2.88-2.33-3.46-5.05-.65-3.01 1.02-5.93 2.43-8.41m.07 62.81c9.31-.69 49.57-2.6 56.38 2.15 2.31 1.61 2.19 2.16 2.51 4.77-1.04 3.11-2.34 4.26-4.77 6.26-11.94.48-43.45 3.4-53.06-.64-2.58-1.09-3.15-2.27-4.26-4.72.06-3.31 1.47-5.16 3.2-7.82m1.46-31.6c10.16.09 47.45-3 54.21 2.87 1.96 1.7 2.32 3.75 2.18 6.22-.16 2.88-1.34 4-3.53 5.53-9.98.13-47.3 2.81-54.09-1.89-2.46-1.69-2.42-2.49-2.92-5.23.87-3.27 1.96-4.94 4.15-7.5m70.08-31.12 47.82-.13c9.45-.02 19.29-.62 28.68.65 2.05 1.39 3.38 2.06 3.89 4.75.57 2.94-.82 5.65-2.05 8.2-13.92 1.14-64.92 1.85-77.11-.16-1.26-1.07-2.24-1.57-2.84-3.18-1.4-3.79-.18-6.76 1.61-10.13m2.32 31c12.32.17 69.69-2.3 76.28 2.17 1.35 2.4 1.92 3.34 1.51 6.23-.38 2.74-2.23 4.03-4.24 5.59-11.2.91-68.56 3.04-75.84-1.96-2.18-1.5-2.24-2.71-2.59-5.07.97-3.32 2.35-4.66 4.88-6.96m-2.59 30.93c10.8-.03 72.51-1.61 77.33.97 2.26 1.2 3.23 2.52 3.81 4.99.69 2.95-1.03 6.06-2.47 8.48a1961 1961 0 0 0-47.87-.22c-9.76.01-19.84.56-29.55-.61-2.52-1.68-2.91-2.01-4.23-4.73.19-3.64 1.22-5.72 2.98-8.88m-73.7-192.89c14.23.14 80.8-2.46 88.58 3.39 1.61 1.22 2.56 2.44 2.25 4.5-.3 2.12-5.21 5.52-6.95 6.62-12.02.27-81.87 1.81-88.5-1.98-.86-1.41-1.54-1.92-1.39-3.66.37-4.23 2.8-6.46 6.01-8.87m-4.61 23.84c22.7-.63 149.22-1.68 161.81 2.35.6 1.23 1.12 2.33 1.43 3.67 1.02 4.39 1.08 64.16.21 71.64-.32 2.8-1.44 5.06-2.84 7.47-1.22.28-2.32.53-3.57.63-25.21 1.83-53.17.09-78.64.03-21.39-.04-43.99 1.67-65.22-.17-4.26-.37-9.39-.56-12.6-3.54-3.34-10.51-3.82-71.95-.58-82.08"/><path fill="#0B2A42" d="M1566.94 1436.47a10514 10514 0 0 1 138.08.03l-.01 59.62a6497 6497 0 0 1-137.96-.08c-1.31-19.49-.83-40.03-.11-59.57"/><path fill="#FEFEFE" d="M1667.07 1446.16c2.22 1.26 4.33 2.68 6.46 4.08.77 1.5 1.54 2.23 1.28 3.98-.89 6.16-12.47 13.11-17.15 16.82l-4.5 4.15c-.75 3.69 5.13 7.42 5.87 11.77-1.39 1.96-1.7 2.04-4.09 2.57-6.93 1.52-10.63-1.33-15.86-5.18-3.15 1.27-6.33 2.61-9.55 3.68-4.61 1.52-9.35 2.75-13.83.56l-.62-2.5c1.14-3.81 2.99-5.88 5.63-8.81-6.06-4.62-13.09-8.33-18.87-13.27-3.48-2.97-5.89-5.61-6.25-10.33.83-3.27 3.15-4.9 5.56-7.05 11.43 3.49 23.95 16.67 33.03 24.35 11.51-7.42 22.02-16.5 32.89-24.82M399.645 1221.41c.258-.04.514-.1.774-.13 73.136-8.16 158.67 22.58 215.377 68.92 70.305 57.45 112.308 146.7 120.928 236.29a353.04 353.04 0 0 1-45.189 212.76c-8.628 15.29-17.61 30.12-28.86 43.67-55.787 67.18-131.555 110.22-218.919 118.49a297.7 297.7 0 0 1-209.595-63.16 350.67 350.67 0 0 1-129.422-240.42 356.26 356.26 0 0 1 78.532-259.92c54.877-66.78 130.155-108.28 216.374-116.5"/><path fill="#0B2A42" d="M415.014 1260.44a263.44 263.44 0 0 1 177.777 61.2c62.583 52.62 99.305 128.49 106.266 209.51 7.231 84.16-16.882 168.6-71.761 233.57-52.123 61.7-117.064 91.49-196.514 98.17a261.8 261.8 0 0 1-185.372-67.44 305.87 305.87 0 0 1-102.44-211.64 316.23 316.23 0 0 1 80.587-232.72 279.17 279.17 0 0 1 191.457-90.65"/><path fill="#FEFEFE" d="M303.88 1399.82c56.485-.74 113.06-.15 169.556-.19 9.79 8.23 18.47 18.46 27.236 27.78l44.745 47.65c.606 40.77-.242 81.62-.3 122.4l.613 125.6c-27.231 1.02-54.67.18-81.934.24l-159.969.38z"/><path fill="#0B2A42" d="M473.031 1417.81c16.927 14.4 38.245 37.48 52.139 55.01-17.272.28-34.566.14-51.841.17z"/><path fill="#0B2A42" d="m314.647 1412.32 147.505-.12a4919 4919 0 0 0 .009 73.83l70.867-.04.746 224.84-218.746-.1c-.728-34.74-.223-69.6-.248-104.35z"/><path fill="#FEFEFE" d="M414.22 1502.95c9.321-.22 18.687-.04 28.013-.05 2.875 7.63 4.626 15.66 6.585 23.56 3.437.49 6.879 2.06 10.284 2.25 3.73.2 6.593-1.83 9.166-4.24 3.276-3.07 6.772-5.73 10.337-8.45 9.611 6.94 18.005 16.84 25.456 25.98l-14.599 18.55 5.35 12.45a119 119 0 0 1 14.566 1.14c2.89.43 4.777 1.08 6.532 3.43 1.543 10.54 2.789 26.41-.427 36.61-4.933 2.02-12.943.93-18.306.81l-6.673 8.96c4.508 6.54 9.559 12.83 14.319 19.21-6.675 10.13-16.443 19.21-26.346 26.15-6.302-3.68-11.482-8.86-16.549-14.03-4.073 3.05-7.88 6.49-11.748 9.8-.131 7.83-.081 14.65-5.567 20.7-7.601.18-21.928 3.01-28.251-1.24-5.821-3.91-5.908-13.07-6.862-19.35-5.33-2.25-10.625-4.27-15.231-7.85-3.913 3.5-9.707 11.26-15.049 11.52-10.408-2.71-22.034-16.58-27.555-25.54 4.429-5.44 9.836-10.29 14.819-15.24-2.26-4.84-4.173-9.84-6.172-14.8-7.199-1-14.25-1.83-21.119-4.3a775 775 0 0 1 .305-37l21.229-.37 6.888-11.26c-5.367-5.6-11.176-11.61-14.717-18.56 7.109-9.45 16.266-18.48 24.718-26.76 6.36 4.1 11.562 8.86 17.094 13.99 4.547-3.03 8.689-4.91 13.799-6.72.374-7.96 1.533-12.54 5.711-19.35"/><path fill="#0B2A42" d="M420.874 1516.01c3.959-.09 8.354-.73 11.945 1.18 3.351 4.71 2.424 11.21 2.443 16.85 10.526 3.02 19.124 5.13 28.006 11.96 5.033-4.2 9.615-9.17 14.277-13.79l10.258 10.12-14.556 14.92c1.198 1.95 2.346 3.93 3.529 5.9 3.176 5.27 5.028 17.42 8.354 20.41 4.32 3.88 13.348 2.79 18.827 2.82l.028 16.38-19.18-.19c-2.231 9.24-5.28 17.45-9.868 25.78 4.807 4.81 9.133 10.21 13.565 15.36-3.081 3.35-6.414 6.52-9.619 9.75-4.812-4.69-10.155-8.62-15.51-12.66-8.174 5.59-15.871 8.55-25.291 11.46.1 6.56.986 14.3-.394 20.68l-1.696.74-15.008.16-.058-20.15c-11.778-2.23-20.011-5.04-29.577-12.44-3.802 3.96-8.023 9.45-13.606 10.72-3.034.69-4.894-.02-7.392-1.68-1.081-2.44-1.163-4.38-.417-6.94 1.856-6.37 7.512-8.94 12.779-12.07-7.484-10.92-11.061-17.73-12.572-31.03l-19.395-.07.001-15.9 19.601-.15c3.108-10.19 6.618-18.16 12.276-27.24-4.074-5.12-9.008-9.44-13.791-13.89 3.209-3.67 6.025-7.76 8.946-11.67l14.417 14.11c7.781-5.3 21.922-8.94 25.657-12.93 4.128-4.42 3.1-10.94 3.021-16.5"/><path fill="#FEFEFE" d="M421.193 1551.11c9.399-.58 17.769-.63 26.493 3.63 9.955 4.87 17.016 13.78 20.469 24.21a47 47 0 0 1-3.218 36.51c-6.627 12.52-16.627 18.91-29.769 22.98-9.165 1.28-17.885.23-26.123-4.19-11.002-5.9-18.959-17.43-22.242-29.3a43 43 0 0 1 4.207-33.39c6.877-11.78 17.422-17.21 30.183-20.45"/><path fill="#0B2A42" d="M423.368 1572.08c3.569-.23 7.374-.38 10.817.75 5.688 1.87 10.394 6.43 12.749 11.89a22.57 22.57 0 0 1 .094 17.85c-2.845 6.63-7.562 9.62-13.988 12.31-3.888.45-8.302.95-12.061-.37a21.56 21.56 0 0 1-12.425-11.55c-2.652-5.95-2.742-13.05-.034-18.99 3.088-6.77 8.085-9.55 14.848-11.89"/><path fill="#FEFEFE" d="M758.74 133.437c.06-.007.12-.017.18-.02 75.741-4.442 153.295 25.765 210.283 74.887A360.84 360.84 0 0 1 1091.3 452.356c7.14 95.137-21.25 188.725-83.94 261.271-58.31 67.485-133.355 108.629-223.018 115.142-78.266 2.246-152.165-21.162-212.167-72.153a356.27 356.27 0 0 1-122.623-243.155c-6.922-90.765 21.767-193.294 81.792-262.888 61.417-71.209 133.014-110.17 227.396-117.136"/><path fill="#2B5D8F" d="M764.939 174.441c70.109-2.519 135.373 24.015 187.014 70.789 62.897 56.965 98.127 136.324 102.467 220.537a319.88 319.88 0 0 1-83.099 232.657c-50.503 55.918-117.298 89.42-192.753 93.327a267.46 267.46 0 0 1-186.307-68.192 313.88 313.88 0 0 1-103.974-215.386c-3.704-67.871 9.925-128.816 44.175-188.059 10.421-18.026 21.522-35.147 35.544-50.651 53.252-58.88 117.191-91.095 196.933-95.022"/><path fill="#FEFEFE" d="M656.337 309.063a13524 13524 0 0 1 171.403.312c9.134 8.469 17.098 18.545 25.267 27.946a1623 1623 0 0 1 42.044 49.729l.175 174.699c-.057 27.351 1.427 55.815-.342 83.04-.176 2.711-.61 4.176-2.453 6.29-17.444.789-35.122.202-52.588.189l-97.585.054-54.944.266c-8.99.048-19.909 1.285-28.64-.563-1.469-.311-2.177-.56-2.75-1.953-1.094-2.664-1.305-5.608-1.367-8.462-.39-18.039.134-36.256.07-54.324l-.434-132.065-.158-88.703c-.019-15.509-.588-31.287.113-46.774.168-3.727.613-6.293 2.189-9.681"/><path fill="#2B5D8F" d="M824.11 326.448c11.556 6.78 48.802 52.202 58.383 64.14-19.206 1.175-39.047.138-58.322.126z"/><path fill="#2B5D8F" d="M664.979 321.41a14283 14283 0 0 1 147.638.562c.397 16.425.167 33.052-.155 49.48-.137 6.984-1.19 14.559-.342 21.463.296 2.412 1.086 5.211 2.813 7.014 2.01 2.099 5.344 2.973 8.123 3.342 6.619.879 13.75.139 20.443.089l39.491-.059.551 152.683c.079 27.43 1.258 55.598-.726 82.953-25.564.959-51.406.251-77.002.227l-140.891-.173z"/><path fill="#FEFEFE" d="M697.513 585.473a2987 2987 0 0 0 51.926-.144c9.609-.085 20.03-.945 29.554.143 2.931.335 4.897.867 6.438 3.612 2.115 3.769 1.53 11.329.386 15.36-2.471 2.261-3.406 2.177-6.619 2.755-18.526 1.245-37.378.377-55.942.309-7.985-.029-16.551.97-24.455.309-3.045-.255-6.29-1.302-8.106-3.937-2.958-4.292-2.638-11.858-1.262-16.644 2.73-1.846 4.832-1.541 8.08-1.763m-8.227-204.467c32.152-1.98 65.493-.723 97.723-.142.243 7.331.147 14.598-.071 21.93-16.613.432-83.785 2.265-95.63-1.171-4.014-4.874-2.318-14.674-2.022-20.617m1.204 163.987 113.385.062c17.197.011 36.613-1.89 53.492.82 2.315 2.006 3.005 3.936 3.303 6.993.395 4.045.688 10.714-1.949 13.965-35.271.434-70.577-.358-105.851-.359-19.079-.001-40.146 1.949-59.021-.173-2.969-.334-3.418-.167-5.212-2.496-1.069-6.466-.191-12.619 1.853-18.812m1.125-122.566c33.688-1.764 68.108-.339 101.893-.277 16.629.03 49.38-1.938 64.506 1.283 3.481 3.909 3.395 10.555 2.716 15.633-.373 2.793-1.096 3.139-3.123 4.865-19 .358-161.314 1.83-166.91-1.428-2.793-4.012-2.956-7.701-2.592-12.48.268-3.516.886-5.247 3.51-7.596m-2.312 81.74a1429 1429 0 0 1 17.621-.188l95.274-.057c16.613-.001 33.808-.989 50.333.322 2.562.204 5.315.205 7.229 2.107 1.917 5.974.958 12.426-.031 18.507-8.837 2.951-152.774 2.281-169.204.086-3.38-4.387-1.498-15.395-1.222-20.777m38.745-41.656c16.095-.133 122.748-2.171 129.593 2.38 2.421 1.61 3.237 4.792 3.428 7.52.222 3.184.157 7.202-2.421 9.444-6.171 5.367-29.575 2.913-38.148 2.858l-87.906.219c-11.517.038-23.506 1.045-34.947.525-1.721-.078-3.184-.478-4.632-1.441-2.868-1.909-4.43-5.02-5.05-8.341-.773-4.136-.241-7.533 2.224-10.971 6.519-4.258 28.996-2.184 37.859-2.193m373.112 33.804c149.04 14.389 286.73 99.239 380.96 213.587 82.69 100.356 127.94 209.195 152.9 336.168-10.68.35-35.8-1.14-44.03 3.78-.7 1.97-.85 1.16-.1 2.67 4.22 8.62 10 16.72 15.14 24.82 12.59 19.83 26.26 40.25 35.8 61.75-87.96.82-167.96 29.48-230.26 93.17-26 26.58-46.05 56.66-63.53 89.34a1214 1214 0 0 0-31.95-19.62c-2.86-1.54-5.64-3.25-8.44-4.91-31.62-18.94-62.23-39.88-94.08-58.3l-3.35 7.86 63.21 38.98c9.73 6.04 20.14 11.77 29.35 18.55a138 138 0 0 1-3.57 8.66c-31.85 70.51-98.66 126.81-170.14 153.8a300.95 300.95 0 0 1-231.672-7.12 321.33 321.33 0 0 1-142.432-127.09c-5.967-10.09-11.971-20.34-16.077-31.35a2213 2213 0 0 0 58.846-37.48c4.962-3.29 10.632-5.88 15.37-9.39 2.055-1.53 2.593-2.2 3.509-4.49l-2.103-3.67-2.115-.51c-8.8 3.55-17.273 10.24-25.324 15.33l-52.463 33.2c-2.422 1.75-4.776 3.58-7.457 4.91-18.837 12.18-37.888 24.33-57.03 36.02a313.76 313.76 0 0 0-207.535-120.11c-43.116-5.6-84.503-1.18-126.498 9.57a722.4 722.4 0 0 1 94.048-375.477c12.451-21.917 26.204-46.987 42.792-65.997 6.397 5.618 30.032 28.854 37.294 29.186 2.795-1.91 2.803-3.949 3.452-7.198 5.053-25.316 10.821-54.494 13.805-79.923 12.317 12.662 24.476 25.454 38.044 36.803a315.97 315.97 0 0 0 199.724 75.426c83.448 1.056 163.757-33.7 223.291-91.752 72.351-70.551 103.641-149.936 112.621-249.193"/><path fill="#F17816" d="M727.152 1298.96c-7.833-16.34-15.712-32.67-21.208-49.98-22.084-69.57-18.884-149.9 5.272-218.36 30.555-86.59 93.456-162.765 176.82-202.662 74.1-35.464 156.294-39.054 233.554-11.625 82.59 29.323 151.7 95.54 188.95 174.394a382.4 382.4 0 0 1 15.44 287.763 209 209 0 0 1-9.89 23.49c-2.86-1.54-5.64-3.25-8.44-4.91a478 478 0 0 0 10.21-25.29c6.42-17.74 10.3-36.2 13.49-54.76 12.85-74.85 3.76-149.24-28.52-218.105-35.95-76.704-98.01-141.407-178.76-170.569-78.66-28.404-155.912-27.447-232.134 8.542-80.275 37.903-141.269 112.367-170.564 195.302-24.881 70.43-28.193 148.56-4.533 219.84 4.815 14.51 11.214 28.25 17.77 42.02-2.422 1.75-4.776 3.58-7.457 4.91"/><path fill="#FEFEFE" d="M734.609 1294.05c-6.556-13.77-12.955-27.51-17.77-42.02-23.66-71.28-20.348-149.41 4.533-219.84 29.295-82.935 90.289-157.399 170.564-195.302 76.222-35.989 153.474-36.946 232.134-8.542 80.75 29.162 142.81 93.865 178.76 170.569 32.28 68.865 41.37 143.255 28.52 218.105-3.19 18.56-7.07 37.02-13.49 54.76a478 478 0 0 1-10.21 25.29c-31.62-18.94-62.23-39.88-94.08-58.3l-3.35 7.86 63.21 38.98c9.73 6.04 20.14 11.77 29.35 18.55a138 138 0 0 1-3.57 8.66c-31.85 70.51-98.66 126.81-170.14 153.8a300.95 300.95 0 0 1-231.672-7.12 321.33 321.33 0 0 1-142.432-127.09c-5.967-10.09-11.971-20.34-16.077-31.35a2213 2213 0 0 0 58.846-37.48c4.962-3.29 10.632-5.88 15.37-9.39 2.055-1.53 2.593-2.2 3.509-4.49l-2.103-3.67-2.115-.51c-8.8 3.55-17.273 10.24-25.324 15.33z"/><path fill="#F17816" d="M1111.37 848.727c.35.011.69.016 1.04.033 10.08.492 23.97 5.718 30.68 13.148 1.06 3.446.58 4.514-.2 7.948-8.68-1.453-26.74-7.385-32.44-14.095-.58-3.092-.04-4.103.92-7.034m51.83 24.541c.56.174 1.13.335 1.68.521 8.71 2.896 25.88 15.099 30.2 23.592.1 3.573-.49 3.901-2.45 6.743-5.02-1.198-28.5-19.241-32.05-23.525-.1-3.219 1.08-4.548 2.62-7.331m49.55 39.221c10.34 3.974 24.51 19.21 29.49 29.143-.73 2.701-2.99 3.874-5.09 5.662l-2.05.224c-7.06-4.641-21.08-21.53-26.17-28.593.55-3.269 1.66-4.001 3.82-6.436m75.04 110.031c2.52 1.69 3.29 2.64 4.47 5.42 2.78 6.56 13.85 35.34 11.83 40.01l-6.27 2.25-2.16-1.28c-3.07-5.73-3.42-11.98-5.57-17.99-2.88-8.02-7.56-14.95-8.07-23.7 1.56-2.99 2.84-3.18 5.77-4.71m12.38 69.76c2.99-.42 5.36-.88 8.31.08 4.64 7.01 7.54 40.71 6.32 49.18-3.37-.47-5.61-.73-8.36-2.81-2.24-5.94-6.23-39.22-6.27-46.45m-46.55-132.656a32 32 0 0 1 1.76 1.426c6.71 5.79 23.36 31.105 23.39 40.04.01 1.86-1.4 2.63-2.58 3.9-1.46-.4-3.27-.81-4.57-1.59-4.78-2.86-20.26-31.105-22.66-37.433.75-2.944 2.57-4.185 4.66-6.343m-43.4 287.006c-21.7 43.1-61.56 81.31-106.05 99.88a211 211 0 0 1-161.46-.26 208.05 208.05 0 0 1-113.899-112.1c-22.868-55.31-20.648-116.05 2.369-170.99a220.45 220.45 0 0 1 118.842-118 202.83 202.83 0 0 1 152.778 1.12c53.73 22.68 93.7 66.95 115.48 120.6 24.14 59.46 19.64 113.71-4.71 171.89z"/><path fill="#FEFEFE" d="m1131.56 1170.11 6.46 1.15c2.84 3.44 1.5 75.85 1.54 87.43-2.81.16-4.94.19-7.69-.64-2.67-6.87-.79-75.51-.31-87.94m-86.73 16.82c2.56-.05 4.29-.23 6.64.91 1.34 1.86 1.48 2.92 1.44 5.18l-.19 9.24c4.32-.2 9.85-1.15 13.64 1.29 1.61 1.05 1.08.67 1.59 2.8-.22.28-.42.58-.67.84-3.44 3.54-9.95 2.25-14.43 2.03.14 9.17-3.44 33.23 2.66 39.66 3.82 4.03 8.57 3.24 13.69 3.29-.52 1.29-1.25 2.53-1.9 3.77-2.34 1.65-4.53 3.36-7.56 3.36-3.11 0-6.12-1.5-8.38-3.58-11.29-10.36-5.51-25.52-6.08-38.52-.15-3.44-.86-5.1-3.36-7.41-2.21-.14-3.31-.1-5.3-1.17-.16-2.14-.21-3.05.94-4.89 1.63-.48 3.74-.93 5.06-2.1 3.58-3.17 2.37-10.41 2.21-14.7m-23.55 14.27c2.25.19 4.24.64 6.42 1.24-.67 7.22-11.38 20.08-15.55 26.43 4.6 7.03 13.62 17.01 15.63 25.06.51 2.05.53 1.21-.63 3.12-1.11.03-2.2.13-3.3-.15-6.58-1.66-13.05-16.42-16.72-22.1l-14.541 22.79c-.152.04-.3.09-.454.12-2.422.37-3.939.85-5.98-.58.188-7.86 12.009-21.26 16.615-27.82-3.93-6.83-14.24-18.39-14.874-25.72 2.598-1.56 5.026-.41 7.943.08a634 634 0 0 0 12.641 18.99c4.56-6.96 8.63-14.25 12.8-21.46m-136.042-21.25c9.276-.12 45.98-2.78 52.772 1.53.439 2.57.251 2.7-.943 5.05-4.549 3.15-14.375 1.6-19.872 1.5l.36 49.32c.042 5.51 1.355 15.11-1.452 19.64-2.606.8-2.954.78-5.594.08-3.721-6.49-1.251-57.18-1.234-68.92-7.561-.19-15.512 1.71-22.697-1.03-1.866-2.61-1.372-4.02-1.34-7.17m68.96 21.1c2.934-.12 5.619-.03 8.496.64 7.02 1.63 10.584 6.25 14.187 12.12.519 6.04.431 12.11.456 18.16-10.008.05-23.563-2.35-33.069.75-.676 1.34-1.046 2.25-.887 3.81.526 5.17 4.161 10.48 8.489 13.23 4.821 3.08 10.054 2.61 15.342 1.25 2.382-.95 3.917-1.55 6.535-1.54l1.332 1.61-.765 2.3c-1.849 1.86-3.41 3.22-5.809 4.34-5.821 2.72-11.912 2.47-17.819.09-5.83-2.35-10.12-7.02-12.44-12.81-3.738-9.32-2.993-21.64 1.252-30.67 3.243-6.9 7.61-10.72 14.7-13.28"/><path fill="#F17816" d="M953.771 1208.97c2.273-.24 4.905-.68 7.155-.17 3.364.76 6.532 4.02 8.188 6.94 1.327 2.34 1.301 4.28.67 6.84-2.366 2.48-3.276 1.9-6.599 2l-19.074-.43c2.33-6.56 4.284-10.64 9.66-15.18"/><path fill="#FEFEFE" d="M1089.69 1201.15c3.27-.27 6.69-.66 9.96-.42 5.11.37 10.35 2.71 13.52 6.82 5.29 6.86 4.54 15.99 3.78 24.07-6.64.11-27.64-1.93-32.19 1.14-1.05.7-1.16 2.13-1.11 3.31.21 4.67 4.77 10.54 8.41 13.2 3.94 2.89 7.93 2.78 12.55 2.06 1.65-.67 3.41-1.51 5.14-1.96 2.69-.7 2.96-.69 5.15.72l-.08 2.24c-1.2 1.37-2.26 2.56-3.84 3.51-5.62 3.36-12.53 3.89-18.76 2.08-5.97-1.75-10.48-5.33-13.35-10.86-4.58-8.85-4.62-21.84-1.65-31.21 2.35-7.43 5.64-11.15 12.47-14.7"/><path fill="#F17816" d="M1093.84 1207.89c2.2 0 4.68-.11 6.8.52 3.54 1.04 6.98 4.76 8.61 7.97 1.41 2.78.77 4.34-.25 7.01-3.11 2.1-4.81 1.58-8.5 1.56l-16.99-.11c1.88-7.84 3.36-12.42 10.33-16.95"/><path fill="#FEFEFE" d="M1068.59 1052.35c6.62-.24 13.23-.01 19.86.17a2081 2081 0 0 1-.12 63.72c10.65-.07 21.26-.12 31.91.39l-.08 19.58-52.06-.03zm-64.46-.3c17.44-.32 34.92-.05 52.36-.01.1 5.72-.06 11.47-.11 17.19a2322 2322 0 0 1-31.69.05l-.11 18.78a2063 2063 0 0 1 24.76.18l.01 17.22-25.26-.27v30.76l-20.1-.03zm-70.78.17c14.865-.31 39.198-3.86 51.076 6.74 5.426 4.83 7.947 11.65 8.231 18.81.336 8.47-2.245 17.24-8.319 23.34-5.964 5.99-11.788 6.98-19.891 7.05-3.242-.13-6.793-.83-9.595 1.08-4.202 6.3-1.515 19.19-1.493 26.83l-19.795-.04c-.765-27.87-.182-55.92-.214-83.81"/><path fill="#F17816" d="M954.133 1070.52c2.876 0 5.867-.03 8.713.42 3.414.54 5.444 1.96 7.524 4.7 1.358 4.78-.163 7.83-2.434 11.91-2.75 1.15-6.944 3.18-9.982 2.96-1.535-.11-2.576-.37-3.48-1.63-3.019-4.23-.852-13.43-.341-18.36"/></svg>