<svg xmlns="http://www.w3.org/2000/svg" style="display:block" viewBox="0 0 2048 2048"><path fill="#FEFEFE" d="M0 0h2048v2048H0z"/><path fill="#12284F" d="M1012.64 383.871c.99 1.107 1.15 2.061 1.31 3.572.55 5.296 1.01 47.08-.25 49.828-.27.584-.87.951-1.3 1.427l-2.91-.022c-1.71-2.267-1.35-3.634-1.46-6.426-.05-10.134 1.62-21.856-.13-31.794-1.36-7.689-6-1.613-10.061-4.567 1.934-4.654 10.581-9.256 14.801-12.018m-104.505.553c5.6-.569 11.308-.347 16.934-.347-.276 7.91-2.551 37.948 1.014 43.333l5.299.849c1.67 1.997 1.453 2.095 1.4 4.738-3.193 1.699-8.211 1.005-11.78.98-3.61.03-8.721 1.015-11.832-1.034l-.067-2.331c2.903-2.882 5.973-.455 9.269-2.699 1.664-9.435 1.234-23.128.277-32.792-.726-7.331-6.444-3.78-10.514-7.047zm-33.094-1.145c6.319-.183 17.792-1.88 23.586.808 1.736.806 1.135.383 1.946 2.351l-.971 1.688c-5.803 1.132-12.579.677-18.532.773l-.023 18.322c5.585-.101 15.633-1.286 20.531 1.328-.899 2.382-1.486 2.215-3.577 3.487l-17.048.413c-.075 7.458.529 15.667-.662 23.007l-1.939.908-1.347-.85c-4.648-9.474-2.146-40.234-1.964-52.235M998.796 1739.05c9.824.44 19.834-.56 29.614.27 2.92.25 4.26-.22 6.21 2.03-.41 1.38-.21 1.49-1.35 2.42-2.7 2.22-8.66 1.39-12 1.31l.23 40.67c.17 2.56.48 5.13-.07 7.67-.35 1.6-1.09 1.67-2.34 2.56l-1.94-.54c-4.23-7.61-2.45-39.38-2.68-49.89-4.6-.31-8.92.48-13.46-.73-2.327-2.2-1.962-2.52-2.214-5.77m152.664 19.83-.16-1.2c-.5-3.54-.71-6.89-3.94-9.05-1.36-.91-2.35-.92-3.95-.61-4.64.9-8 6.62-12.81 6.41-1.35-1.56-1.43-1.81-1.74-3.86 3.08-3.98 6.87-7.23 12.03-8.01 4.08-.61 8.05.5 11.31 3.02 2.93 2.27 5.36 5.8 5.53 9.61.15 3.06-.72 4.54-2.29 6.98l-1.42.77c-.74.98-1.35 2.01-1.99 3.05.2.21.41.43.61.65 3.68 4.06 7.03 9.88 6.44 15.58-.49 4.67-3.93 9.41-7.69 12.03-3.86 2.69-8.31 3.25-12.84 2.15-4.09-.99-7.77-2.99-9.94-6.66l.54-1.55c4.9-.9 9.05 2.99 14.15 2.31 2.95-.39 5.13-1.43 6.86-3.97 1.85-2.72 2.59-5.83 1.51-9.05-1.11-3.33-2.95-4.73-5.96-6.16-3.2-1.52-5.69-2.33-7.33-5.62 3.08-3.21 5.75 1.19 13.08-6.82m444.27-793.797c6.66.073 24.95-2.181 29.54 2.031-.15 2.309-.38 2.444-1.86 4.264-4.81 2.28-14.78.895-20.29.788l-.05 14.656c6.42.148 13-1.265 19.21.706 2.08 2.444 1.5 3.277 1.35 6.395l-20.88-.019c.15 7.816 1.02 14.946-2.95 21.966l-1.87-.08c-4.98-8.55-2.68-39.917-2.2-50.707m38.42.7c7.1-.105 23.96-2.255 29.67 1.624 1.54 1.046 1.05.708 1.35 2.77-3.64 3.411-18.13 2.297-23.45 2.38l.03 14.175c6.06.167 14.06-1.523 19.72.841 1.82.759 1.98 2.649 2.69 4.36-5.15 3.636-16.08 2.057-22.48 1.95-.12 6.287 2.2 15.167-1.7 20.457-2.47.95-2.56 1.1-5.07.35-2.25-15.696-.8-33.05-.76-48.907m42.46-.514c6.88-.402 17.7-1.567 23.45 2.837 2.37 1.813 3.63 4.006 3.73 7.023.42 12.673-16.71 25.811-24.46 34.701 7.91.37 18.95-1.6 26.3 1.19 2.16.82 2.24 1.46 3.17 3.42l-.73 1.47-4.82.32c-8.53.06-19.35 1.32-27.63-.23-2.71-.51-2.87-.94-4.21-3.11.43-12.22 17.82-20.498 24.18-29.907 1.76-2.602 2.41-4.37 1.89-7.46-6.96-6.901-19.21-.402-26.21-5.329l-.24-1.996c1.73-2.331 2.84-2.184 5.58-2.929m-635.39 773.871c8.47-.02 22.09-1.6 29.48 2.59l-.22 1.53c-5.21 3.81-15.97 2.36-22.34 2.33l.01 18.49c6.13-.1 14.15-1.3 19.77 1.32 1.44 2.08 1.5 1.92 1.11 4.4-6.24 2.65-15.47-1.4-20.89 2.47-.02 5.64.28 11.28.49 16.92 5.23.19 13-.41 17.78 1.39 1.62.62 1.43 1.55 1.96 3.05l-.97 1.36c-7.43 2.49-18.75 1.03-26.69 1.04zM963.507 383.517c.119.006.239-.002.357.017.111.018 2.925.563 2.939.571 3.968 2.361-1.396 27.177 2.233 32.389 1.643.405 3.219.833 4.81 1.409.312 2.108.219 2.45-.586 4.434l-3.983.404c-2.518 3.444-.604 8.029-2.689 11.946l-1.468-.297c-2.58-3.338-2.901-7.03-3.58-11.061l-.309-.444c-4.993-2.571-17.64-1.021-23.559-1.037 6.278-14.056 15.571-26.916 25.835-38.331"/><path fill="#FEFEFE" d="M960.47 395.728c2.593 3.974 1.334 15.805 1.402 20.972l-12.098-.599-1.565-.506c.164-5.911 8.634-14.977 12.261-19.867"/><path fill="#12284F" d="M1745.27 962.365c1.27.834 2.21 1.537 3.1 2.842 4.86 7.092 18.96 42.703 17.69 50.843l-1.41-.11c-4.48-4.47-6.16-9.57-8.57-15.28l-10.83-.19c-2.83-.25-5.44-.4-8.29-.17-4.2 2.29-6.31 6.07-8.02 10.38-.83 2.09-1.71 4.16-2.57 6.23l-3.11.09c-1.98-1.54-1.39-.6-2.06-2.59 7.42-17.71 14.95-35.131 24.07-52.045"/><path fill="#FEFEFE" d="M1745.32 975.724c2.58 2.922 5.57 8.381 6.89 12.002.93 2.549 1.01 4.301-.12 6.708l-4.33.787c-1.51-.048-3.34.034-4.8-.322-2.68-.654-2.9-1.084-4.13-3.325.07-5.321 4.11-11.154 6.49-15.85"/><path fill="#12284F" d="M1090.91 1739.37c2.92.12 4.27.1 6.75 1.87 5.57 12.53 17.16 41.31 17.34 54.33-2.01 1.21-1.91.88-4.09.62-3.56-3.88-3.09-9.75-5.59-14.29-1.06-1.92-1.13-1.51-3.07-2.09l-16.52.19c-1.89 5.49-3.34 13.57-8.66 16.35l-1.7-.75c-1.25-5.44 13.21-47.81 15.54-56.23"/><path fill="#FEFEFE" d="M1094.24 1750.62c2.85 2.78 4.23 8.65 5.52 12.43 1.05 3.1 2.6 7.5 1.07 10.58l-3.6.56c-2.38.11-5.22.55-7.47-.35-.93-.37-.97-.49-1.34-1.44-1.06-2.68-.36-4.96.69-7.47 1.95-4.68 3.5-9.51 5.13-14.31"/><path fill="#12284F" d="M643.438 661.597c12.807 10.516 24.292 23.797 35.957 35.607 5.737 5.809 13.282 11.951 18.033 18.52-.49 1.218-.537 2.282-1.818 2.893-2.431 1.161-5.783.628-8.425.525-26.704-3.17-59.308.98-86.906-.354-2.644-.128-4.815.195-6.624-1.801-.368-2.937-.431-4.328.669-7.184 17.313-15.125 31.917-33.166 49.114-48.206"/><path fill="#FEFEFE" d="M643.753 673.676c10.426 7.56 26.335 27.258 35.86 37.497l-36.371-.017-36.995-.34c12.135-12.664 25.054-24.769 37.506-37.14"/><path fill="#12284F" d="M189.258 486.148c14.168-.997 28.86-.412 43.076-.407l77.919.113 237.987.184c1.653 70.585.707 141.371.709 211.982l-.769 303.31c-10.16 9.7-22.316 19.87-34.429 26.9-2.723-10.24-.883-27.55-.866-38.707l.075-76.124-.22-261.756c-.165-43.717.546-87.742-1.086-131.418-41.458-1.204-83.227-.1-124.712-.04l-233.144-.026c4.988-3.866 10.016-7.558 15.241-11.097l19.963-.583c-.321-7.414-1.131-14.996.256-22.331"/><path fill="#12284F" d="M235.319 464.433c-.14-5.87-1.796-17.783 1.863-22.594 18.223-2.346 37.976-.844 56.408-.856l108.946-.054 122.602-.147c22.299-.072 45.627-1.537 67.775.478 2.047 23.917.781 48.706.805 72.748l.05 131.202c-.026 21.131-1.921 43.694.556 64.593-1.1 2.856-1.037 4.247-.669 7.184 1.809 1.996 3.98 1.673 6.624 1.801 27.598 1.334 60.202-2.816 86.906.354-11.044 1.264-22.794.612-33.925.644l-59.444.133.181 20.292c15.103.239 90.686-2.522 98.704 1.021 2.368 1.046 3.201 2.646 4.039 4.94-1.399 7.171-42.701 45.535-50.959 53.339-18.172-15.143-34.934-33.597-52.036-50.076l-.26 215.233c-11.293 8.577-22.071 17.761-33.629 25.996l.304-345.635-.225-108.529c-.072-17.114 1.246-36.09-.639-53.026-.324-2.907-1.078-4.114-3.076-6.155-14.559-1.352-29.579-.618-44.22-.642l-80.317.062a15379 15379 0 0 1-229.885-.872 1267 1267 0 0 1 15.896-11.335c5.951.258 11.678.404 17.625-.099"/><path fill="#FEFEFE" d="m634.639 748.5 50.298-.279c-10.748 12.086-22.84 23.275-34.298 34.704l-4.936 4.823c-13.41-12.639-26.868-25.607-39.52-39.004z"/><path fill="#E87136" d="m1069.59 186.679 176.83-41.977c43.65-10.732 86.78-22.985 130.67-32.775-21.2 35.05-39.89 71.404-59.34 107.432a20436 20436 0 0 1 398.11 255.061 13094 13094 0 0 0 207.35 133.44c-24.58 20.427-52.81 37.682-78.76 56.47-79.62 57.652-160.91 112.906-241.14 169.695l-274.63 195.135c-43.53 30.79-86.15 63.78-131.23 92.26l.13 72.25c-.01 15.25-.77 31.19.89 46.34-3.39 3.67-12.16 14.5-16.81 14.62-1.72.04-1.06.14-2.61-.58-.9-46.75-1.4-93.8-.24-140.54 15.92-14.97 38.24-28.38 56.2-41.13l115.43-81.746 315.45-223.665 136.29-96.391c28.68-20.228 58.65-39.418 85.74-61.758-19.51-14.837-40.79-27.52-61.51-40.563a3397 3397 0 0 1-67.98-43.984l-319.79-206.638-99.05-62.92c-15.7-9.987-31.69-19.541-47.02-30.098 10.92-27.904 31.87-53.406 43.67-81.852l-131.6 31.053c-35.16 8.319-70.48 16.254-105.26 26.089 16.15 24.873 28.96 53.16 42.97 79.366 22.97 42.981 46.76 85.482 69.41 128.642 14.02-22.001 27.16-44.551 40.91-66.72 10.22 6.451 19.92 13.824 30.03 20.475l76.3 49.505 167.79 108.201 82.43 53.208c21.46 13.805 42.73 27.973 64.99 40.448-29.96 17.253-60.07 41.476-88.41 61.684l-144.81 101.407-239.1 167.737c-25.25 17.695-49.95 36.167-75.21 53.809-18.41 12.851-38.4 24.741-55.3 39.541-13.01 11.4-23.33 26.71-28.23 43.37-5.42 18.39-9.22 104.07-.29 120.54.35 7.96 2.73 25.71-1.28 32.38l-3 .88a120.8 120.8 0 0 1-14.13-35.84c-7.81-34.39-7.09-89.86 1.82-124.13 5-19.22 13.84-32.57 28.13-46.15 19.31-18.37 42.72-33.305 64.61-48.394a2532 2532 0 0 0 57.22-40.739c110.36-79.91 223.62-155.745 334.48-234.955l77.04-54.618c16.5-11.75 33.24-23.315 48.85-36.242a3356 3356 0 0 0-108.13-70.315l-114.8-73.777c-52.28-33.532-103.24-69.516-156.4-101.594-14.24 25.991-28.96 53.087-45.15 77.888-34.95-60.679-67.56-123.023-101.22-184.462-13.58-24.785-26.35-50.397-41.31-74.373"/><path fill="#12284F" d="M141.085 530.021c42.32-1.355 85.027-.079 127.393-.04l232.673-.132.011 331.009.307 117.47c.005 21.234.576 42.722-.385 63.922-.09 1.98-.064 3.16-1.353 4.75a7666 7666 0 0 0-185.848-.43l-172.863.01-.355-327.036c-.072-63.113-1.012-126.436.42-189.523"/><path fill="#FEFEFE" d="m442.861 789.42 2.546-.035c3.555 4.367 1.833 16.513 1.634 22.32-22.258 6.244-57.857 9.144-81.766 12.766a8726 8726 0 0 0-172.009 26.889c-5.302-6.537-4.119-13.657-3.66-21.483 50.437-10.473 101.774-17.377 152.703-24.994 33.474-5.007 67.004-11.189 100.552-15.463m-3.795 71.985c1.633-.269 3.341-.183 4.991-.203l1.545 1.514c1.865 6.184.821 13.342.687 19.775-83.027 14.975-166.77 26.066-250.068 39.386-2.689.112-2.768.09-4.982-1.441-3.256-6.16-1.773-13.173-1.201-19.854 35.857-6.873 72.22-11.934 108.272-17.71 46.847-7.505 93.689-15.465 140.756-21.467m-.355-142.087c2.731-.594 4.936-.827 7.25.651 2.767 6.193 1.53 13.883 1.346 20.546-24.366 6.2-57.104 9.529-82.596 13.555-55.744 8.805-111.583 17.689-167.473 25.502l-4.347.43c-2.297-1.71-2.961-3.161-3.779-5.957-1.248-4.262-.637-10.554 2.02-14.196 1.912-2.62 6.885-3.475 9.939-4.111 21.878-4.555 44.655-6.601 66.767-10.007a11978 11978 0 0 0 170.873-26.413M191.254 581.84c27.915-1.664 56.923-.067 84.952-.077l169.514.203c.679 14.595 2.124 80.978-.96 90.601-27.464 1.998-55.888.645-83.449.861a6742 6742 0 0 1-170.267-.594c-1.053-29.065-1.559-62.046.21-90.994"/><path fill="#12284F" d="M1593.95 1075.52a15989 15989 0 0 1 217.35-.46l59.38.1c11.33.02 23.79-.89 34.93 1.22 1.39 2.87 1.52 5.79 1.61 8.93.49 16.81-.14 33.82-.13 50.66l.09 114.01-.2 359.39c-9.91-.46-19.88-.33-29.81-.39.13 8.69.19 17.3-.35 25.99l-29.95-.05a681 681 0 0 1-.28 29.04c-9.85.25-19.76-.02-29.62-.06.09 10.32 1.25 22.26-1.6 32.2-2.27 2.28-5.23 1.83-8.36 1.95-39.13 1.5-78.85.22-118.03.15l-213.48.31c-8.41.04-16.83.29-25.24.46-3.28-25.58-1.19-66.44-1.18-93.56l.03-183.03c-8.65 10.38-42.87 49.6-52.35 54.93-1.22.69-3.17 1.74-4.52 1.14-4.62-2.04-49.58-50.1-51.13-54.8-.84-2.54-.77-2.97.48-5.1 11.41-5.88 43.97-2.42 58.62-3.81l1.95-.2c-4.5-5.61-9.97-10.03-15.57-14.47-16.98.37-34.1.82-51.06.2 22.96-16.41 37.31-39.14 55.8-59.76 7.67 6.1 14.48 13.82 21.39 20.77a1504 1504 0 0 1 36.9 37.95 15765 15765 0 0 1-.4-165.59c-.03-17.39-2.66-56.93.9-71.78 4.98-3.9 18.39-2.38 24.86-2.37-.07-6.86-1.87-17.76 3.62-22.86 5.2-4.84 20.35-2.69 27.31-2.51.16-6.74-1.09-21.04 4.23-25.87 5.56-5.06 16.04-3.36 22.91-3.22-.11-7.58-1.68-21.05 3.19-27.17 11.25-4.48 44.23-2.31 57.71-2.34"/><path fill="#FEFEFE" d="M1390.33 1353.7c9.62 4.08 48.84 46.75 58.34 57.08-16.76 20.52-36.44 38.97-53.83 59.08-9.22-8.7-17.71-18.58-26.34-27.89l-17.16-18.43c12.78-.62 25.66-.32 38.46-.31-2.08 3.98-3.37 8.21-4.78 12.46 5.91-4.33 12.21-7.77 18.22-11.88 2.97-2.04 6.42-5.02 6.7-8.9.27-3.85-2.49-7.65-4.99-10.3-3.62-3.83-11.64-12.79-16.31-14.47-2.12-.75-11.12 1.86-13.73 2.18-5.46.68-11.17.41-16.66.28 10.02-13.32 21.24-26.22 32.08-38.9m410.2-211.23c12.78-.41 25.59-.38 38.37-.5l-.23 514.02c-7.16 0-14.33.28-21.49.44l-.24-294.93c.03-23.9 2.15-192.66-1.51-200.49-2.64-1.76-5.18-2.15-8.3-2.22-33.04-.66-66.48.66-99.58.74l-224.64-.19.05-16.77 159.02.34a9218 9218 0 0 0 158.55-.44"/><path fill="#FEFEFE" d="M1518.43 1113.48a12937 12937 0 0 1 189.53.2l161-.48-.04 349.02c0 51.6 1.39 103.54.26 155.08-.07 3.12.06 6.41-1.58 9.16l-3.35.47-17.27.01.03-316.41c.12-59.01 1.78-118.48.03-177.46-32.86-.87-66.08.87-98.98 1.02l-234.8.28c-.2-5.69-1.38-13.66 1.17-18.87.89-1.82 2.18-1.54 4-2.02"/><path fill="#FEFEFE" d="M1541.14 1084.13c66.26-1.36 132.75-.57 199.03-.49 52.9.06 105.94-.83 158.82.11l-.14 340.69.03 112.39c.01 20.71.82 41.72-.35 62.37-7.07 1.16-14.1 1.04-21.25 1.03l-.22-320.24.12-106.22c.02-18.89.59-37.97-.11-56.84-.13-3.63-.03-8.18-1.88-11.37-12.46-1.81-26.11-.77-38.73-.75l-69.38.13-226.01-.08z"/><path fill="#FEFEFE" d="M1697.13 1167.51a7418 7418 0 0 1 111.6-.31c.73 66.68-.01 133.42-.03 200.11l.28 323.05-244.23.12-107.17.17c-1.32-73.68.08-147.52.25-221.21l-.92-301.62z"/><path fill="#12284F" d="M1749.69 1441.39c.19-.04.37-.1.56-.12 4.36-.6 7.67-.18 11.2 2.54 2.7 2.09 4.6 5.22 4.98 8.64.36 3.23-.63 6.23-2.69 8.74-2.82 3.42-7.35 4.59-11.45 5.58-26.05 6.29-58 9.27-85.04 13.41a11559 11559 0 0 1-139.32 21.64c-3.99.78-8.27 1.55-12.34 1.66-2.68.08-4.33-.95-6.23-2.75-3.06-6.28-1.59-15.42-1.45-22.31 80.9-10.19 160.96-26.57 241.78-37.03"/><path fill="#FEFEFE" d="M1752.75 1449.43c1.37-.26 2.31-.07 3.68.14l1.69 2.66c-.11 1.31.11 2.31-.83 3.34-2.66 2.92-8.5 3.99-12.29 4.7-20.79 3.87-42.12 5.64-63.04 8.95a8568 8568 0 0 1-160.99 25.4c-1.47.26-2.95.22-4.44.26l-1.52-1.83c-.01-2.79.07-3.17 1.52-5.55 11.27-5.81 49.56-8.84 64.24-11.2a7928 7928 0 0 1 171.98-26.87"/><path fill="#12284F" d="M1750.13 1515.34c3.81-.45 7.55.09 10.67 2.47a12.24 12.24 0 0 1 4.69 8.2 12.6 12.6 0 0 1-2.49 9.39c-2.06 2.65-4.73 4.16-7.94 4.99-12.7 3.28-26.84 4.46-39.85 6.48a4573 4573 0 0 1-87.21 12.96c-35.35 5.01-70.21 12.59-105.68 16.79l-14.42 1.66c-.2-8.61.01-17.24.13-25.85 7.74-1.74 15.96-2.25 23.84-3.4l44.3-6.9z"/><path fill="#FEFEFE" d="M1745.67 1524.36c2.04-.42 5-.94 7.04-.59 2.62.44 4.08 2.06 5.75 3.95l-.37 1.89c-2.96 2.13-6.81 2.86-10.34 3.56-33.97 6.82-69.04 11.04-103.31 16.2-39.08 5.88-78.07 12.62-117.2 18.08-3.36.82-7.32 1.9-10.48.45-1.23-2.62-1.05-4.39-.79-7.16 5.32-3.24 208.31-33.31 229.7-36.38"/><path fill="#12284F" d="M1751.72 1369.39c2.65-.45 4.98-.8 7.43.61 3.01 1.74 5.18 4.49 6.04 7.88.9 3.58.26 7.56-1.82 10.62-2.16 3.2-4.99 4.66-8.63 5.65-8.62 2.35-18.04 3.06-26.89 4.3a3439 3439 0 0 0-41.65 6.22c-54.21 8.29-108.6 16.07-162.7 25.02a995 995 0 0 1-15.33 1.8c-.79-8.51-.43-17.17-.35-25.71 14.06-2.89 28.63-4.38 42.84-6.48l60.62-9.28c46.84-6.82 93.49-14.42 140.44-20.63"/><path fill="#FEFEFE" d="m1752.61 1377.44 2.82-.2c1.24 1.14 2.3 1.9 2.84 3.56.46 1.4-.5 2.07-1.23 3.22-2.85 1.72-5.44 2.55-8.7 3.25-17.34 3.72-35.77 4.66-53.35 7.53l-173.76 26.83c-1.76.4-2.78.41-4.55.02-.54-.92-.83-1.3-1.13-2.42-.55-2.1-.25-4.11.86-5.9 13.26-4.41 43.83-6.96 59.14-9.41 58.76-9.41 117.97-19.54 177.06-26.48"/><path fill="#12284F" d="M1504.22 1235.08c30.02 0 240.63-1.85 249.6 1.7.46 1.07.62 1.35.92 2.4 2.04 7.18 1.91 76.36-.94 81.14-56.24-.59-112.59-.07-168.83.28-26.72.16-54.49 2-81.11.12-.99-1.76-.8-1.1-1.2-3.09-2.16-10.61-2.05-65.91-.52-77.72.25-1.95 1.01-3.22 2.08-4.83"/><path fill="#FEFEFE" d="m1509.05 1243.23 238.95.47a2001 2001 0 0 1-.05 69.23c-79.63.79-159.34-.03-238.98-.05zM1099.38 199.907c34.78-9.835 70.1-17.77 105.26-26.089l131.6-31.053c-11.8 28.446-32.75 53.948-43.67 81.852 15.33 10.557 31.32 20.111 47.02 30.098l99.05 62.92 319.79 206.638a3397 3397 0 0 0 67.98 43.984c20.72 13.043 42 25.726 61.51 40.563-27.09 22.34-57.06 41.53-85.74 61.758l-136.29 96.391-315.45 223.665-115.43 81.746c-17.96 12.75-40.28 26.16-56.2 41.13-1.16 46.74-.66 93.79.24 140.54 1.55.72.89.62 2.61.58 4.65-.12 13.42-10.95 16.81-14.62 10.11-10.08 20.8-23.19 32.64-31.01 12.68 10.72 24.13 23.19 35.75 35.03 8.87 9.04 18.53 17.91 26.41 27.83-15.3 17.71-34.26 33.07-51.48 48.94 10.79 16.84 16.73 34.84 21.48 54.11 17.84 0 39.11-3.57 56.37-1.84 1.3.13 2.86-.04 3.59 1.19 5.25 8.8 3.85 79.15 1.15 90.95l-.04-.49-.71 1.87c-9.69 3.11-50.46-.14-63.84-.6-5.71 20.11-13.78 37.73-24.21 55.75 15.78 16.46 32.53 32.01 47.51 49.22-7.44 9.43-18.14 17.72-26.92 26.05-11.3 10.74-22.06 22.08-33.63 32.52-17.85-15.12-34.53-30.95-51.07-47.51-15.26 7.27-31.23 12.12-47.29 17.27-.34 16.16 2.17 55.13-1.31 68.43-9.76 4.83-70.67 2.32-85.68 2.29-1.73-23.42-.45-47.78-.75-71.3-17.01-3.17-32.71-10.56-48.228-17.94a1910 1910 0 0 0-45.836 45.5c-11.462-8.38-58.696-55.93-65.633-67.7a2129 2129 0 0 0 46.455-45.53c-8.702-16.64-16.419-32.72-21.034-51.06l-67.767-.13c-3.001-16.97-1.985-74.05-.178-92.19 22.727-1.56 46.409-.42 69.258-.65 5.943-19.39 14.224-36.81 24.687-54.12a725 725 0 0 1-38.95-37.41c-2.872-2.97-7.493-7.02-7.398-11.28 5.646-9.6 52.756-54.37 63.227-59.15 8.006 3.19 37.741 37.01 45.948 45.41 14.539-7.59 31.149-16 47.589-18.08l3-.88c4.01-6.67 1.63-24.42 1.28-32.38-8.93-16.47-5.13-102.15.29-120.54 4.9-16.66 15.22-31.97 28.23-43.37 16.9-14.8 36.89-26.69 55.3-39.541 25.26-17.642 49.96-36.114 75.21-53.809l239.1-167.737 144.81-101.407c28.34-20.208 58.45-44.431 88.41-61.684-22.26-12.475-43.53-26.643-64.99-40.448l-82.43-53.208L1359 411.175l-76.3-49.505c-10.11-6.651-19.81-14.024-30.03-20.475-13.75 22.169-26.89 44.719-40.91 66.72-22.65-43.16-46.44-85.661-69.41-128.642-14.01-26.206-26.82-54.493-42.97-79.366"/><path fill="#12284F" d="M1772.52 611.382c-45.11-30.184-91.4-58.715-137-88.157L1319.24 317.95c-11.88-7.81-67.09-40.841-72.51-48.175l-.15-2.655c4.41-1.462 8.44.274 12.39 2.316 7.35 3.807 14.11 9.493 21.04 14.069l47.98 31.005 186.95 121.738 176.41 113.42c31.61 20.246 64.36 39.542 94.79 61.498-14.84 11.734-30.83 22.206-46.31 33.082l-73.31 52.178-364.17 258.853-115.4 81.861c-24.46 17.26-49.25 33.64-72.91 52.07l-.27 76.63c4.69.19 9.27-.03 13.58 2.05 3.96 5.42 2.12 56.53 2.36 67.58 17.17 4.33 33.74 10.08 49.34 18.58 1.55.72.89.62 2.61.58 4.65-.12 13.42-10.95 16.81-14.62 10.11-10.08 20.8-23.19 32.64-31.01 12.68 10.72 24.13 23.19 35.75 35.03 8.87 9.04 18.53 17.91 26.41 27.83-15.3 17.71-34.26 33.07-51.48 48.94 10.79 16.84 16.73 34.84 21.48 54.11 17.84 0 39.11-3.57 56.37-1.84 1.3.13 2.86-.04 3.59 1.19 5.25 8.8 3.85 79.15 1.15 90.95l-.04-.49-.71 1.87c-9.69 3.11-50.46-.14-63.84-.6-5.71 20.11-13.78 37.73-24.21 55.75 15.78 16.46 32.53 32.01 47.51 49.22-7.44 9.43-18.14 17.72-26.92 26.05-11.3 10.74-22.06 22.08-33.63 32.52-17.85-15.12-34.53-30.95-51.07-47.51-15.26 7.27-31.23 12.12-47.29 17.27-.34 16.16 2.17 55.13-1.31 68.43-9.76 4.83-70.67 2.32-85.68 2.29-1.73-23.42-.45-47.78-.75-71.3-17.01-3.17-32.71-10.56-48.228-17.94a1910 1910 0 0 0-45.836 45.5c-11.462-8.38-58.696-55.93-65.633-67.7a2129 2129 0 0 0 46.455-45.53c-8.702-16.64-16.419-32.72-21.034-51.06l-67.767-.13c-3.001-16.97-1.985-74.05-.178-92.19 22.727-1.56 46.409-.42 69.258-.65 5.943-19.39 14.224-36.81 24.687-54.12a725 725 0 0 1-38.95-37.41c-2.872-2.97-7.493-7.02-7.398-11.28 5.646-9.6 52.756-54.37 63.227-59.15 8.006 3.19 37.741 37.01 45.948 45.41 14.539-7.59 31.149-16 47.589-18.08l3-.88c4.01-6.67 1.63-24.42 1.28-32.38.15-7.64-1.58-31.94 2.86-36.35 16.69-3.62 42.34.14 60.13.35a3106 3106 0 0 0-.59-81.32c13.67-10.15 28.05-19.36 41.94-29.22l144.58-101.91z"/><path fill="#FEFEFE" d="M1051.17 1171.27a3795 3795 0 0 1 69.83 2.85 2511 2511 0 0 0 1.12 66.88c22.29 6.01 41.97 14.35 62.25 25.38 14-15.84 30.12-33.37 46.54-46.6 17.71 16.17 35 33.89 50.4 52.28-15.75 16.87-33.99 31.29-49.78 48.06 13.27 21.38 19.96 37.85 25.36 62.3 19.7.63 39.52-1.27 59.24-1.49 2.75 25.79 1.92 51.98 1.65 77.86a1150 1150 0 0 1-64.09-1.31c-6.42 23.95-15.77 42.95-28.09 64.32 11.57 17.04 32.02 33.42 46.02 49.35l-49.43 47.72c-17.53-14.37-32.55-31.63-49.92-46.2-18.2 8.78-35.29 14.76-55.1 18.79-2.41 22.68-.93 46.62-.98 69.45-4.2 2.89-61.55 1.29-71.25 1.24-.07-23.27.33-46.64-.65-69.88-7.81-3.02-16.42-4.62-24.41-7.32-11.36-3.84-22.008-9.15-32.726-14.46-14.095 9.99-31.718 31.13-45.298 43.72-19.499-14.44-37.557-36.55-54.345-54.32 14.688-15.86 30.464-30.72 45.978-45.75-11.962-19.78-20.156-37.54-24.503-60.3a5242 5242 0 0 1-67.332.14c-1.076-25.51-.333-51.34-.348-76.89 17.215-.33 50.612 2.21 65.811-1.26 4.25-2.65 12.319-28.52 15.574-35.2 4.506-9.24 10.211-17.75 14.845-26.92-15.255-15.68-31.164-30.62-46.037-46.69 17.027-16.98 34.232-35.81 53.09-50.68 13.872 15.54 29.193 31.62 45.015 45.13 20.656-9.18 37.826-17.35 60.396-21.21.97-22.97.86-46.01 1.17-68.99"/><path fill="#12284F" d="M1076.77 1284.41c29.54-2.04 60.5 7.73 84.08 25.42 29.16 21.88 46.55 53.19 51.39 89.17 4.61 34.27-4.4 71.29-25.74 98.69-23.39 30.03-57.03 45.76-94.25 50.3-36.02.75-66.98-7.74-94.972-31.21-26.517-22.23-41.97-53.4-44.887-87.74a136.85 136.85 0 0 1 32.158-100.26c25.341-29.4 54.271-41.43 92.221-44.37"/><path fill="#FEFEFE" d="M1066.69 1293.34c29.25-4.86 62.73 4.98 86.85 21.44 26.4 18 43.49 46.52 49.27 77.75 5.93 32.04-.69 68.39-19.36 95.35-20.07 28.99-51.16 44.94-85.22 51a122.86 122.86 0 0 1-86.56-21.77 122.16 122.16 0 0 1-49.81-79.33 128.66 128.66 0 0 1 22.753-94.96c20.037-27.56 48.617-44.32 82.077-49.48"/><path fill="#12284F" d="M1071.68 1303.38c.18-.04.37-.08.56-.1 29.24-2.97 56.67 5.54 80.06 23.12 23.61 17.73 37.51 44.1 41.6 73.13a118.32 118.32 0 0 1-22.81 87.79c-18.33 23.74-46.91 38.39-76.4 42.01a110.03 110.03 0 0 1-78.75-21.4 113.64 113.64 0 0 1-44.93-76.3 113.6 113.6 0 0 1 22.606-84.93c19.734-25.42 46.424-39.39 78.064-43.32"/><path fill="#FEFEFE" d="M1077.65 1311.41c23.27-3.05 49.19 6.64 67.78 20.13a100.98 100.98 0 0 1 40.51 67.34 108.76 108.76 0 0 1-21.45 82.43c-18.49 24.46-43.86 36.75-73.71 40.8-27.32 1.47-52.83-7.36-74.19-24.39-21.205-16.92-35.529-43.99-38.248-70.94a106.7 106.7 0 0 1 23.268-77.51c19.25-23.41 46.4-35.08 76.04-37.86"/><path fill="#E87136" d="M1069.52 1332.61c2.55.67 5.81 3.36 7.08 5.7 2.04 3.77-1.16 2.68-1.68 5.62 1.28-.23 2.57-.43 3.84-.67 3.14-.59 4.98-1.18 8.13 0 1.79 2.07 2.05 1.9 1.85 4.59-2.64 3.38-7.11 5.49-10.75 7.7 1.91 1.36 3.74 2.82 5.57 4.28.13.5.25 1.01.38 1.5.18.65.37 1.29.55 1.93 1.79 6.63 43.57 44.53 51.37 49.55 5.01-5.81 15.32-19.63 23.58-19.94 2.31-.09 4.16.27 5.64 2.21 1.59 2.07 1.95 5.1 1.95 7.63 0 7.61-3.58 11.19-8.57 16.36l7.8 6.92c-1.83 2.12-3.62 4.68-5.72 6.53-2.24 1.97-4.68 1.61-7.44 1.41l-1.08-.09c-1.11.79-2.14 1.54-3.15 2.46-5.48 4.95-44.25 44.22-44.4 47.87 2.42.86 4.03 1.54 6.08 3.16.71 3.1.1 3.71-1.09 6.57-2.95.56-4.59.9-7.3-.58-7.8-4.24-15.52 3.58-24.28 1.44-1.93-1.71-2.09-1.75-2.59-4.25 2.16-3.44 6.37-5.72 9.66-8.02-3.17-3.67-7.03-6.56-9.95-10.47l.71-2.82c-16.14-15.01-31.6-31-46.97-46.79-3.17 4.02-6.42 7.64-10.02 11.27a70.3 70.3 0 0 1-21.809-21.16c15.269-11.02 49.889-44.8 61.049-59.83-1.39-3.8-7.39-1.46-10.33-4.47l.66-1.46c4.13-3.08 8.6-4.54 13.38-6.28 2.03-3.22 4.98-5.44 7.85-7.87"/><path fill="#FEFEFE" d="M1077.5 1372.64c18.98 13.09 32.13 33.64 50.09 47.73-12.13 8.09-32.18 30.32-43.88 41.67-.56.44-1.36.46-2.06.63-15.37-15.43-30.86-31-47.06-45.56 14.52-14.43 29.9-28.64 42.91-44.47"/><path fill="#12284F" d="M918.998 471.169c28.767-.101 58.075-1.306 86.772.35.69 22.822-.33 45.993-.36 68.859 17.88 2.936 34.11 10.462 49.93 18.969 15.1-11.84 32.67-33.981 47.3-48.202 11.98 10.255 23.29 21.641 34.73 32.501 10.15 9.635 20.89 19.045 30.28 29.427-15.77 17.684-34.39 32.494-49.27 51.131 11.67 15.205 18.09 32.36 25.24 49.916 22.71.942 45.6-.866 68.28.77 1.83 30.432.8 63.586-.19 94.132l-70.24.053c-6.49 19.513-14.51 36.279-24.98 53.878 15.42 15.55 30.16 31.927 46.43 46.59-6.41 7.055-13.82 13.465-20.63 20.153l-40.81 40.231c-15.22-11.81-34.01-33.755-48.34-48.248-15.78 7.023-31.42 12.378-48.13 16.65-.21 17.759 2.42 51.046-.88 66.855-2.45 2.044-4.356 1.969-7.466 2.508-3.069 3.106-1.186 47.438-1.654 55.398a113.4 113.4 0 0 1-3.373 21.87c-5.949 22.8-19.367 42.74-36.629 58.54-24.872 22.77-57.41 42.4-84.996 62.19a13363 13363 0 0 1-187.618 133.08l-192.118 136.05c-28.625 20.1-56.97 42.89-87.067 60.62 17.85 14.45 39.166 25.29 58.594 37.5 28.974 18.19 57.448 37.54 86.209 56.13l187.401 121.95c15.572 9.96 30.478 21.02 46.277 30.59 16.025-26.22 29.955-53.81 45.721-80.21 9.403 13.68 17.416 28.32 25.849 42.61l41.61 70.91c25.721 44.19 52.939 87.79 77.832 132.42-8.648 2.7-18.004 4.12-26.876 6a1284 1284 0 0 0-48.445 10.84c-26.334 6.48-52.873 11.61-79.307 17.6a10102 10102 0 0 1-167.91 37.15 3120 3120 0 0 1 55.315-93.74 30278 30278 0 0 1-370.873-241.86 11375 11375 0 0 1-169.339-110.82c-15.869-10.76-32.674-20.35-48.024-31.82 26.341-22.55 57.549-41.18 85.879-61.24a12483 12483 0 0 1 186.321-130.81c142.891-99.52 283.283-202.65 426.45-301.78l.108-87.284c-9.651-8.938-18.6-18.981-27.764-28.433-9.58-9.88-19.817-19.466-28.335-30.287 13.691-15.447 30.659-29.017 45.937-42.925-11.008-17.754-16.704-34.131-21.011-54.444-22.836-.148-45.563.91-68.379 1.531-1.416-30.567-.217-61.676-.183-92.302 23.007-.371 46.143.239 69.166.259 5.076-19.415 12.337-37.493 23.702-54.116-14.075-17.327-31.883-31.914-46.916-48.54 7.343-9.366 16.704-17.787 25.067-26.302 10.99-11.19 21.75-23.027 33.549-33.344 17.865 13.921 33.931 31.862 49.644 48.153 15.342-7.894 30.952-14.042 47.508-18.824.632-22.934-.07-45.918 1.012-68.833"/><path fill="#FEFEFE" d="M928.639 479.475c22.744-.189 45.677-.393 68.395.711.799 22.046-.173 44.131.781 66.192 21.335 5.442 40.015 11.9 58.985 23.273 16.32-14.619 30.98-31.58 46.27-47.303 16.9 17.41 35.04 33.845 52.64 50.571-14.85 16.997-32.69 31.434-47.18 48.755 3.98 8.31 9.12 15.902 13.37 24.056 6.01 11.543 10.39 23.738 14.44 36.072 22.37 2.109 45.38 1.193 67.84 1.214l-.28 77.186c-22.66-.029-45.77-.935-68.38.397-4.23 9.72-6.69 20.286-10.87 30.107-4.92 11.593-11.8 22.055-17.97 32.988 14.2 15.962 29.78 30.613 43.94 46.597-17.09 15.38-33.16 32.262-49.75 48.223-15.36-15.456-30.01-31.603-45.61-46.813-19.39 8.702-37.31 16.157-58.247 20.514-.924 20.602-.455 41.406-.558 62.035-.084 2.248.302 2.74-1.171 4.548-20.696 2.259-45.431.324-66.536.232a2825 2825 0 0 0-.461-66.738c-22.185-1.236-42.078-10.338-60.609-21.935-15.364 14.149-29.445 29.597-45.13 43.452-17.334-16.821-34.239-34.14-51.332-51.209 13.797-15.5 29.79-29.109 44.759-43.452-12.472-20.813-21.082-39.878-24.333-64.113l-66.804.977.108-74.342c22.569-.144 45.135.426 67.705-.068 3.323-24.482 12.587-44.115 28.472-62.928-15.048-16.543-34.057-30.871-47.407-48.747a2064 2064 0 0 1 47.851-47.799c16.68 15.348 32.103 32.029 48.692 47.513 18.175-11.557 36.291-17.698 56.705-24.067-.008-9.149-1.635-62.406 1.675-66.099"/><path fill="#12284F" d="M950.168 590.382c.261-.038.522-.088.785-.114 34.24-3.475 70.837 8.354 97.117 30.439a127.9 127.9 0 0 1 45.1 86.337c3.03 35.129-7.32 69.372-30.3 96.299-22.32 26.162-53.8 43.143-88.111 45.889-32.875 3.263-64.795-3.732-91.145-24.312-29.652-23.158-46.659-53.099-50.896-90.404-3.684-32.435 5.067-68.153 25.707-93.768a135.94 135.94 0 0 1 91.743-50.366"/><path fill="#FEFEFE" d="M954.622 598.421c29.506-2.569 61.438 8.096 84.658 26.139a122.94 122.94 0 0 1 45.6 80.932c3.76 32.344-4.9 63.615-25.26 89.114-21.94 27.473-52.68 43.501-87.378 47.219-32.174 2.174-60.398-5.143-85.631-25.821-26.406-21.64-42.793-50.918-46.078-85.009-2.958-30.688 6.1-63.024 26.032-86.736 22.609-26.896 53.095-42.869 88.057-45.838"/><path fill="#12284F" d="M949.699 609.318c30.046-2.798 58.061 4.244 82.081 22.821a112.82 112.82 0 0 1 43.47 75.435c3.49 28.888-3.63 56.738-21.71 79.652-19.92 25.24-46.45 40.38-78.302 44.305-.059.015-.117.037-.177.046-27.765 4.04-55.06-3.597-77.709-19.919a111.6 111.6 0 0 1-45.605-72.751c-4.754-30.035 1.979-60.434 20.069-84.982 18.974-25.747 46.689-39.751 77.883-44.607"/><path fill="#FEFEFE" d="M951.664 617.342c.291-.046.58-.101.872-.137 25.865-3.116 54.454 5.803 74.734 21.856 21.85 17.303 36.95 41.823 40.04 69.732 2.98 26.835-3.76 52.909-20.71 74.068-18.57 23.183-43.86 37.453-73.362 40.59-.576.124-1.149.268-1.729.37-23.738 4.167-50.956-5.454-70.072-19.117a103.17 103.17 0 0 1-41.575-67.458c-4.521-27.807 1.104-55.019 17.834-77.812 18.256-24.873 43.876-37.603 73.968-42.092"/><path fill="#E87136" d="M1020.31 706.67c15.5 6.438 5.88 6.802 9.93 13.381a44 44 0 0 0 2.99-1.999l.96-.718c6.68 4.377 12.59 12.651 17.99 18.606-1.66 1.323-3.22 2.584-4.66 4.148-6.07 6.612-13.34 11.93-19.74 18.236-10.2 10.044-20.75 25.683-33.09 32.79-2.382 1.372-1.973 4.978-5.101 6.924-3.448 1.368-6.534 2.808-10.284 2.886-3.175-2.126-2.283-5.423-4.333-8.147-2.477-3.29-8.496-6.237-11.873-9.177-3.448-3.003-6.495-6.513-9.539-9.918.202-.275.4-.553.606-.825l1.045-1.349c6.641-8.715 15.56-15.741 23.51-23.256 10-9.453 19.436-19.404 29.039-29.249 4.15-4.251 8.59-7.845 12.55-12.333"/><path fill="#FEFEFE" d="m1019.45 738.724 7.34 7.629c-9.97 11.118-20 22.416-31.193 32.328-2.587-2.223-5.139-4.692-7.869-6.721 5.748-9.913 22.902-24.528 31.722-33.236"/><path fill="#FEFEFE" d="m1011.8 728.064 5.4 6.798 2.25 3.862c-8.82 8.708-25.974 23.323-31.722 33.236l-.561.142c-1.151-2.066-2.716-3.881-4.16-5.752l-3.017-1.142c-1.717 2.086-1.76 3.397-2.929 5.732-.627-.923-.988-1.877-1.422-2.9 7.032-15.755 23.7-28.265 36.161-39.976"/><path fill="#E87136" d="M983.007 766.35c9.917-10.614 20.893-25.192 34.193-31.488l2.25 3.862c-8.82 8.708-25.974 23.323-31.722 33.236l-.561.142c-1.151-2.066-2.716-3.881-4.16-5.752m-25.983-119.488c2.055.915 3.029 1.777 4.5 3.47-.134 1.828-.365 3.29.296 5.052.531 1.414.446.94 2.103 1.722 4.547 2.147 9.337 3.732 11.176 8.847-1.23 1.764-1.642 2.414-2.106 4.583 2.91-.172 4.388-.001 7.18 1.116 1.797 2.218 1.857 2.528 2.157 5.38-3.961 10.242-37.487 40.205-46.8 49.195-1.736 1.675-3.083 2.801-3.89 5.138-2.131 6.177-6.03 8.456-10.856 12.419-3.789 3.112-6.428 4.359-11.216 5.636a26.7 26.7 0 0 1-5.442-2.57c-.624-2.474-.752-4.128-2.838-5.787l-2.786.878c-5.035-1.637-12.51-11.184-16.36-15.241 11.419-23.238 45.003-45.033 61.454-69.374l-.808-3.366c4.294-4.777 8.75-2.897 13.475-6.494.258-.196.507-.403.761-.604"/><path fill="#FEFEFE" d="M942.789 671.64c.478.148.986.219 1.433.444 2.147 1.078 3.876 3.202 4.62 5.376-5.968 5.488-35.031 35.403-39.033 37.164a466 466 0 0 0-8.246-1.221c6.298-9.409 31.65-32.193 41.226-41.763m10.902 9.075c2.43 2.889 4.501 6.021 6.629 9.133-11.15 13.681-24.815 25.786-37.423 38.133-2.37-3.497-5.205-6.035-8.322-8.839 12.861-12.998 26.421-25.236 39.116-38.427m-85.59 200.858c.079.032.165.052.238.097 8.284 5.003 17.117 8.686 25.946 12.633 1.26 49.595.582 99.357.554 148.977-49.619 37.59-102.121 71.77-152.725 108.07l-490.395 346.54c11.014 6.12 21.283 13.89 31.947 20.65l93.262 60.4 277.353 181.08a9514 9514 0 0 0 90.797 59.2c12.788 8.31 26.068 18.94 39.458 26.02 2.336 1.23 3.683 1.39 6.232.92l.784-1.78c-1.34-4.72-4.829-7.54-8.629-10.39-9.348-7.03-20.111-12.81-29.927-19.24l-76.04-49.63-257.02-168.47-91.548-59.43c-20.296-13.06-41.329-25.48-60.613-40a28402 28402 0 0 0 502.072-355.28c43.967-31.96 89.705-61.55 133.255-94.07l-.017-151.584 16.874 3.643c.258 12.332.472 24.743.286 37.075-.102 6.692-.959 13.637-.342 20.293.222 2.396.887 5.05 2.586 6.849 5.153 5.456 44.935 3.07 53.656 3.11.182 21.683 1.935 45.094-1.788 66.454-6.391 36.68-30.002 56.4-58.713 76.8l-37.085 26.36a52128 52128 0 0 1-509.337 359.83c24.644 16.6 50.467 31.76 75.516 47.77l110.728 72.25 162.721 106c23.224 15.12 46.119 30.85 69.6 45.56 12.248-23.82 26.699-46.94 39.753-70.38 24.239 38.11 46.267 78.19 68.955 117.26 15.491 26.67 32.334 52.72 47.115 79.77-85.257 17.34-169.962 37.86-254.863 56.88 11.659-25.29 28.229-48.78 42.564-72.69-12.595-7.49-24.635-15.87-36.983-23.76-43.024-27.49-85.152-56.12-127.983-83.85l-416.788-271.65c23.835-17.65 48.534-34.2 72.753-51.33l184.661-129.41 248.149-176.31 112.659-79.17c22.718-15.93 46.102-31.47 67.995-48.52.728-34.07.335-68.286.313-102.37 11.088-9.978 21.521-20.582 32.014-31.177"/></svg>