<svg xmlns="http://www.w3.org/2000/svg" style="display:block" viewBox="0 0 2048 2048"><path fill="#FEFEFE" d="M0 0h2048v2048H0z"/><path fill="#1D2D58" d="M970.803 639.707c.865.151 2.169.326 2.939.715 2.381 1.202 2.593 2.215 3.064 4.556-2.984 8.418-17.034 16.618-24.16 21.985-1.768-.304-3.083-1.411-4.253-2.73-1.055-1.189-.94-2.133-.685-3.703.96-5.897 18.018-16.938 23.095-20.823m189.087 931.203c.25.16.53.29.74.49 1.92 1.8 2 2.46 2.25 4.94-4.17 7.49-31.32 20.27-39.93 25.17-.64-.64-1.74-1.65-2.22-2.38-1.49-2.21-1.14-3.12-.61-5.51 7.2-8.9 28.93-17.31 39.77-22.71m794.8-626.456c.6.159 1.21.286 1.8.476 2.33.748 3.47 1.366 4.47 3.572-.69 11.852-7.72 37.81-13.11 48.267-3.01-.763-3.22-.704-5.15-3.096-1.55-8.172 8.05-41.015 11.99-49.219m-12.27-242.657c2.07.061 3.94.377 5.96.787 5.9 8.998 9.01 24.115 11.38 34.759 1.36 6.14 2.77 10.723-.8 16.356-.47.007-.96.144-1.41.022-2.14-.571-2.97-2.376-3.68-4.272-2.4-6.396-12.41-38.042-12.63-42.644-.1-2.039.35-3.2 1.18-5.008M1807.1 506.603c10.64 5.302 29.58 21.459 36.9 30.774-.47 3.196-2 4.289-4.07 6.709-6.31-2.829-31.59-24.628-36.35-30.296-.06-3.103 1.73-4.864 3.52-7.187m153.42 271.828c.76.115 1.88.247 2.58.529 2 .802 2.9 1.901 3.74 3.821 4.17 9.57 6.86 43.609 3.26 53.392-.91-.171-2.72-.485-3.55-.773-1.22-.427-2.24-.941-2.66-2.184-.91-2.668-4.47-44.661-4.59-49.87-.04-1.933.4-3.199 1.22-4.915M321.046 1670.42c1.975.57 3.776 1.32 5.655 2.15.685 7.43.656 14.9 1.318 22.35.695 7.81 3.017 17.65 2.445 25.33-.179 2.4-2.194 3.69-3.779 5.29-.811-.4-1.192-.53-1.911-1.21-4.551-4.32-5.347-18.74-5.917-24.84-.753-8.06-3.228-22.52 2.189-29.07m61.697 147.87c2.903.52 4.553 1.75 6.975 3.39 12.589 8.51 25.33 14.98 38.9 21.7 1.386 2.61 1.016 4.49.684 7.28-1.709-.14-3.418-.23-5.107-.55-9.377-1.75-37.982-16.53-42.209-24.84-1.414-2.78-.217-4.31.757-6.98m123.959 23.97c1.822.09 2.091.54 3.567 1.52.834 2.22 1.212 2.11.452 4.5-9.88 7.51-36.551 8.55-48.829 8.72-1.883-.49-3.741-1.48-5.532-2.26l.046-3c1.265-1.44 2.331-2.14 4.15-2.66 7.791-2.22 16.926-2.17 24.991-3.09 7.085-.81 14.157-2.37 21.155-3.73m-173.835-89.58c1.615-.04 3.583-.24 5.161.05 2.015.38 2.66.62 3.743 2.28 3.358 5.16 4.578 12.22 7.345 17.81 3.579 7.24 9.472 13.56 13.432 20.65 1.506 2.69 1.284 3.75.465 6.64l-3.408.42c-2.231-.63-3.481-1.86-4.998-3.54-8.39-9.3-22.282-31.55-21.74-44.31m249.227 62.45c.634.52 1.517 1.17 1.948 1.86 1.423 2.29 1.106 3.27.302 5.55-9.602 8.76-29.634 13.67-42.097 17.81-2.238-.52-3.343-1.8-4.779-3.47.136-.98.073-1.16.556-2.06 3.368-6.29 36.136-17.63 44.07-19.69M1862.79 558.843c.42.182.86.33 1.27.545 7.43 3.923 28.9 30.999 31.36 39.17-.44 3.02-.98 3.03-3.31 5.095l-2.44-.825c-6.64-7.429-27.68-30.488-30.82-38.711.79-2.848 1.78-3.337 3.94-5.274M333.355 1586.26c2.594 1.1 4.582 1.84 6.434 4.08.182 5.25-9.268 44.2-11.65 51.34-1.723.08-2.907-.11-4.559-.6-.791-1.06-.912-1.09-1.43-2.51-3.319-9.12 7.363-43.05 11.205-52.31M1963.32 861.475c2.83.431 4.78.717 7.17 2.439 3.91 10.704-1.64 43.368-4.37 54.925-1.92-.311-3.6-.886-5.42-1.551-2.98-4.877 2.09-47.969 2.62-55.813M367.566 1507.7c2.751.49 4.567.96 6.399 3.14-1.576 6.29-19.32 40.41-23.642 48.65-3.044-1.19-4.261-2.14-5.597-5.06.623-13.72 15.176-35.41 22.84-46.73M1909.72 624.275l3.23.836c7.26 6.376 22.28 34.336 23.87 43.902.52 3.088-.68 4.289-2.35 6.779l-3.45-1.134c-3.3-3.33-22.46-40.19-23.29-44.774-.46-2.554.7-3.519 1.99-5.609m20.61 395.235c2.43 1.39 4.14 2.46 6.06 4.54.64 7.85-18.43 40.13-24.04 46.99-2.27-.56-3.6-1.22-5.49-2.58-1.16-5.03 19.36-42.12 23.47-48.95m-705.21 513.12c.73.36 1.82.84 2.41 1.39 1.94 1.85 1.7 2.87 1.43 5.25-6.78 9.42-30.77 20.6-41.62 26.48-.71-.19-1.38-.33-2.02-.75-2.27-1.47-2.75-2.54-3.66-4.93.72-2 .85-2.67 2.63-3.96 10.97-7.93 28.39-15.5 40.83-23.48m132.02-71.9c2.02.26 3.09 1.13 4.84 2.17.9 1.65.49 1.99.18 3.77-6.25 8.5-32.65 20.97-43.01 26.5-2.86-.22-3.91-1.55-5.72-3.62.08-.38.12-.76.24-1.13 2.34-7.6 35.14-23.48 43.47-27.69m532.05-369.41c.87.24 2.03.52 2.82.94 2.35 1.24 2.8 1.95 3.57 4.3-4.73 10.11-26.89 34.85-35.72 42.75-.27.01-.54.06-.8.02-2.46-.33-3.08-.93-4.81-2.56-.06-.87-.43-1.78-.19-2.61 1.22-4.19 29.83-36.2 35.13-42.84m-597.42 406.55c.38.07.8.05 1.15.22 2.47 1.24 3.14 2.06 3.59 4.56-4.05 8.13-33.85 22.34-43.07 27.07-1.39-.65-2.73-1.53-4.06-2.29-1.17-2.35-1.3-2.36-.73-4.89 6.33-8.16 32.85-20.2 43.12-24.67m-254.74-908.255 2.93.905c1.68 2.09 1.72 2.212 1.85 4.893-3.67 7.608-32.8 27.978-41.29 34.198-1.494.157-.593.185-2.652-.504-1.47-2.821-1.683-3.262-1.471-6.412 6.073-10.549 30.013-25.755 40.633-33.08m536.46 178.924c2.26.143 3.75.195 5.72 1.369 1.1 1.675 1.63 2.735 1.84 4.775.38 3.732-.79 8.644-1.33 12.407-3.12 21.88-11.08 43.231-26.66 59.36-22.37 23.145-52.95 31.287-84.24 31.874-.41-.151-.84-.267-1.24-.453-2.46-1.143-4.44-2.164-5.37-4.691 5.85-7.177 27.48-4.412 36.55-6.488 9.73-2.229 20.72-7.123 29.3-12.236 21.97-13.095 36.79-36.8 42.07-61.601 1.65-7.728 1.04-15.752 3.11-23.438.08-.294.17-.586.25-.878"/><path fill="#1D2D58" d="M1235.98 220.921c22.81-.08 46.18 2.844 68.99 4.224 15.47.935 32.02.212 47.25 2.747.14.665.37 1.318.44 1.997.65 6.619-31.05 96.064-36.16 107.547-1.07 2.405-2.19 4.584-4.27 6.26-1.36 1.093-1.04.707-2.97.372-9.01-10.173-26.43-43.93-34.43-57.637-37.77 24.41-74.64 50.749-111.51 76.51-18.61 13.004-36.93 26.555-56.28 38.46 7.15 22.442 15.41 44.644 23.09 66.915 22.18 7.117 47.65 13.199 68.16 24.094 5 14.038 8.06 29.189 12.13 43.572 7.86 27.74 16.22 55.369 23.46 83.28-24.05 21.303-49.14 41.39-72.87 63.06-12.14-1.981-23.96-5.765-35.78-9.127a5487 5487 0 0 1-54.89-15.544l-54.3-185.403c-9.92 6.679-67.852 46.609-74.414 47.906-2.47.488-4.082-.642-6.172-1.81-.558-1.071-1.225-1.743-1.01-3.005.48-2.814 2.716-5.316 4.752-7.204 8.968-8.319 20.624-14.984 30.769-21.787a3701 3701 0 0 0 41.455-28.376c-3.56-11.867-7.7-24.088-10.05-36.233 17.76-13.23 36.06-25.87 54.05-38.801 11.13-8.002 22.92-18.151 35.16-24.162 5.99 8.622 8.91 20.162 12.36 30.02 35.94-26.401 73.14-51.176 109.88-76.462 18.32-12.605 37.11-24.923 54.58-38.685-5.37-8.143-31.18-42.314-31.93-49.203-.13-1.18.34-2.35.51-3.525"/><path fill="#FEFEFE" d="M1044.11 532.194a4120 4120 0 0 0 75.22 24.419c6.98 15.863 11.04 33.378 15.74 50.031a2004 2004 0 0 1 17.77 64.881c-24.91-5.549-49.49-14.735-74.33-21.092-14.05-38.2-23.35-79.03-34.4-118.239m146.59-29.269c4.15 5.179 28.81 98.846 33.25 113.449-18.43 17.604-41.3 34.5-61.06 50.95l-.26-.04c-.49-.416-1.09-.728-1.47-1.25-.45-.618-29.27-104.018-31.31-112.673a1703 1703 0 0 1 60.85-50.436m-104.74-130.134c5.3 3.242 31.67 90.097 37.71 103.479 15.3 3.785 45.69 13.505 59.88 19.694-12.12 10.307-50.93 45.638-62.29 51.13-2.61 1.263-6.43-.737-9-1.637-23.44-8.286-47.24-16.9-71.22-23.457-2.6-11.531-6.99-23.028-10.46-34.366a2165 2165 0 0 1-18.1-62.171c23.56-18.636 49.29-34.812 73.48-52.672"/><path fill="#1D2D58" d="M1668.34 1100.43c12.31-.76 25.4.34 37.65 1.78 63.85 7.51 119.49 36.48 159.42 87.29a284.17 284.17 0 0 1 57.63 209.45c-9.22 74.1-45.18 139.43-104.42 185.09-54.39 41.92-129.05 53.6-195.77 45.17-26.38-4.82-52.86-11.46-76.83-23.81-42.8-22.05-82.87-61.55-106.22-103.47-10.98-19.72-18.84-41.11-25.61-62.58-9.18 4.4-18.74 12.93-28.54 15.15-2.47.55-2.41-.07-4.39-1.36.04-1.19-.01-1.34.36-2.64 2.68-9.16 22-16.32 29.97-20.9a262.7 262.7 0 0 1-6.48-47.02c-3.64-74.49 25.07-142.67 74.95-197.06 48.92-53.33 116.51-81.77 188.28-85.09"/><path fill="#FEFEFE" d="M1702.75 1262.36c3.57-.33 7.45-.55 10.66 1.39 3.16 1.91 5.09 5.45 6.33 8.81 7.95 21.68 11.99 53.32 16.49 76.69 12.79 66.57 23.5 133.3 34.78 200.12-30.42 7.54-210.53 52.18-222.95 49.72 2.71-2.34 6.66-3.56 10.07-4.51 16.06-4.45 35.14-7.71 51.76-11.55l124.81-28.84a721 721 0 0 0 29.02-6.72c-2.69-30.12-41.28-261.09-49.19-275.45-3.31-1.75-6.92-.92-10.56-.37-27.74 4.19-55.63 11.88-83.08 17.83-37.89 8.22-76.25 15.47-113.94 24.4l-2.53-13.67c10.64-4.31 23.34-5.79 34.63-7.99a2043 2043 0 0 1 65.92-12.1c32.64-5.65 65.08-12.52 97.78-17.76"/><path fill="#FEFEFE" d="M1802.76 1164.02c2.55.6 6.91 2.55 8.69 4.47 3.87 4.2 5.37 18.72 6.61 24.77 7.39 36.28 13.39 73.06 19.88 109.52 4.74 26.65 10.13 53.17 14.67 79.86 4.07 23.96 10.62 48.42 12.89 72.54-25.97 9.46-54.29 15.34-81.23 21.34-4.87 1.08-10.34 3.51-15.23 3.66l-1.5-1.56c.01-9.12 73.92-13.32 86.94-27.89 4.01-13.8-14.67-101.42-18.22-120.34l-17.6-101.36c-2.82-16.18-4.29-33.72-9.25-49.33-1.27-4.03-2.52-7.05-5.93-9.69-2.48-.25-3.09-.19-5.19 1.5-4.97 3.99-4.36 10.56-4.39 16.2-31.73 4.98-63.68 14.14-94.79 22.16-32.64 8.42-65.37 16.23-97.63 26.03-.48-5.53-.5-11.15-.69-16.71 14.64-6.93 33.11-9.62 48.89-13.71l88.16-23.26c21.64-5.59 44.13-9.99 64.92-18.2"/><path fill="#FEFEFE" d="M1795.84 1196.36c5.23 5.77 43.91 225.7 47.23 253.64-17.79 7.52-56.21 14.25-77.26 19.22-8.18-38.91-14.2-78.53-20.11-117.83l8.21-5.26c.79-1.93.31-1.95-.41-3.8-2.05-.77-1.38-.83-3.24-.57-2.45.35-4.17 1.14-6.52-.04-2.23-7.6-9.02-35.28-7.55-42.03 1.97-.37 3.42-.77 5.19-1.71.56-2.52.15-2.78-.64-5.12a154 154 0 0 1-5.09-2.05c-3.22-3.43-3.44-8.09-4.25-12.56 12.32-3.73 24.86-6.58 37.39-9.55 5.73-1.24 13.64-2.16 18.28-5.73 0-2.16-.07-2.34-1.26-4.13-11.5-.92-43.35 9.19-56.17 12.78-2.84-6.78-4.12-9.97-10.87-13.63-.4-.22-.81-.43-1.21-.64l-.3-1.08a1008 1008 0 0 1 40.64-11.84c6.79-1.79 14.79-2.87 21.24-5.55 2.18-.91 2.67-1.53 3.94-3.4l-.51-2.06c-2.83-1.82-4.72-1.84-8.01-1.18-24.47 4.95-48.71 13.26-73.03 19.18-31.32 7.61-63.57 12.93-95.18 19.32-1.04-8.53-2.14-17-3.63-25.46 28.32-9.57 58.6-15.71 87.58-23.17 34.77-8.95 70.17-19.57 105.54-25.75"/><path fill="#1D2D58" d="M1803.54 1383.35c2.31.12 4.03.36 6.19 1.17 5.81 6.51 9.68 47.45 10.02 57.49-14.9 4.27-31.11 7.07-46.35 9.94a2823 2823 0 0 0-8.67-48.55c-1.46-5.39-3.2-10.25-.41-15.56l1.76-.06c7.44 7.66 11.94 44.12 14.54 56.14 10.79-2.34 21.53-4.59 32.43-6.38-3.45-17.78-8.06-36.16-9.51-54.19m-17.02-103.05c2.82-.4 4.76-.46 7.56.01 5.04 7.06 9.17 38.14 10.61 48.44-9.93 3.26-20.77 5.25-30.94 7.87l-11.16 2.92c-1.8-17.63-5.28-35.23-8.18-52.72 10.73-2.07 21.31-4.71 32.11-6.52"/><path fill="#FEFEFE" d="M1788.07 1288.34c.05.02.12.03.16.07 2.92 2.93 6.25 28.92 7.31 34.76a2270 2270 0 0 1-23.29 5.26c-4.76-5.88-6.37-26.79-7.64-35.02 7.73-2.08 15.62-3.52 23.46-5.07m-85.4-7c1.32.98 1.13 2.08 1.48 3.63l1.5-.08-.91.77 44.61 252.74c-24.96 4.57-49.62 11.28-74.26 17.26a5804 5804 0 0 1-120.37 28c-9.66-8.58-41.08-225.52-46.25-259.13 19.53-3.49 38.99-8.78 58.39-13.06z"/><path fill="#1D2D58" d="M1693.96 1345.31c.04.04.08.08.1.13 1.16 2.5 1.33 3.01.94 5.67-5.04 5.24-130.67 31.04-148.68 34.72-1.33-2.22-1.66-3.31-1.63-5.9.47-.6.78-1.38 1.42-1.79 2.87-1.85 133.62-29.47 147.85-32.83m-11.08-27.99c3.58-.68 5.98-.64 9.13 1.11.8 2.15 1.02 2.38.45 4.57-5.88 3.41-20.77 5.13-28.05 6.79-37.5 8.53-75.21 16.08-112.65 24.85-3 .63-5.84 1.1-8.89 1.33-2.21-1.19-2.08-1.13-2.91-3.52.16-.32.28-.66.47-.96 1.92-2.93 6.49-4.16 9.67-5.11 16.78-5 34.81-7.64 51.95-11.41 26.89-5.93 53.73-12.78 80.83-17.65m-88.2 202.88c1.9-.28 3.09-.39 4.95.16 6.06 8.02 7.66 24.79 9.94 34.43l-39.18 9.6c-2.47.55-4.33 1.12-6.82.27-4.53-9.85-5.57-24.59-7.66-35.45a1831 1831 0 0 1 38.77-9.01m60.15-27.72c3.9 5.51 8.19 39.83 9.74 48.93-12.82 3.79-26.48 6.11-39.53 9.18-4.47-16.29-6.79-33.75-9.84-50.39 13.02-2.94 26.39-6.1 39.63-7.72m40.84-114.25c1.47-.09 3.34-.76 4.44.4 5.72 6.07 9.35 40.48 10.24 49.86-12.31 1.71-24.87 5.36-37.03 8.11l-2.49-.17c-3.98-5.23-10.04-41.2-12.06-50.37 12.04-3.27 24.65-5.34 36.9-7.83"/><path fill="#FEFEFE" d="m1693.07 1387.31 1.53.84c3.57 10.74 4.8 22.64 7.48 33.7-8.16 2.06-16.4 3.89-24.6 5.82l-.66-.03c-3.09-3.43-6.87-29.09-8.38-35.39 8.05-2.09 16.46-3.35 24.63-4.94"/><path fill="#1D2D58" d="M1636.25 1391.21c1.91.05.94-.24 2.73 1.29 2.99 7.79 10.8 39.57 7.5 46.5-3.33 6.98-31.52 11.21-40.31 13.58-1.19-1.4-1.87-2.75-2.29-4.54-1.9-8.07-2.24-16.44-4.06-24.52-1.67-7.36-4.96-14.4-5.56-21.94 7.24-5.22 32.12-8.31 41.99-10.37"/><path fill="#FEFEFE" d="M1631.92 1399.34c5.5 8.28 6.33 25.9 7.93 35.84-9.14 2.58-18.39 4.78-27.59 7.11-3.94-4.67-6.72-29.29-7.98-36.32a1513 1513 0 0 1 27.64-6.63"/><path fill="#1D2D58" d="M1575.91 1405.38c3.26 3.42 8.75 42.77 10.06 50.38-13.89 5.2-28.36 8.33-42.8 11.54l-1.25-.85c-4.26-10.35-8.02-39.85-9.4-51.95 14.52-2.67 28.94-6.05 43.39-9.12"/><path fill="#FEFEFE" d="M1565.78 1415.21c1.48-.25 1.93-.11 3.32.29 4.93 8.81 6 24.76 7.92 35.01-8.45 2.64-17.2 4.62-25.76 6.87l-1.49.13c-3.64-4.46-7.13-28.82-8.78-35.99z"/><path fill="#1D2D58" d="m1706.08 1459.39.91.17c4.41 7.54 13.73 56.96 16.6 69.45-12.08 3.1-24.34 5.66-36.5 8.43-.82 0-1.86-.4-2.67-.61-3.5-6.54-12.67-59.49-14.71-70.46 11.97-2.96 24.23-4.91 36.37-6.98"/><path fill="#FEFEFE" d="M1661.3 1109.5c32.2-3.01 67.63 3.83 97.94 14.47 14.36 5.04 29.2 11.03 42.21 18.93 36.57 22.2 67.97 61.42 86.25 99.7a277.2 277.2 0 0 1 12.12 214.39c-21.33 60.02-64.02 113.46-122.32 140.85-69.52 32.66-142.47 31.82-213.69 6.23 52.46-13.14 105.93-22.91 158.55-35.65 17.65-4.27 37.54-7.38 54.24-14.26 6.34-7.62-10.52-53.13-7.28-65.87.45-1.8 1.05-1.71 2.52-2.67l1.08 1.09c.63 2.46 1.09 5.01 2.51 7.15.88 1.32 1.71 1.15 3.14 1.52 12.33-3.76 90.98-22.35 94.26-28.03 2.52-4.36 2.13-11.4 1.69-16.29-1.76-19.66-7.35-39.93-11.06-59.35l-20.18-108.41-12.43-71.08c-2.72-15.73-4.86-32.35-9.56-47.62-3.11-3.09-6.85-6.36-11.07-7.78-3.11-1.04-6.74-1.12-9.95-.53-7.89 1.43-15.85 4.25-23.61 6.33l-44.58 11.58-81.81 21.28c-19.33 5.08-40.24 8.93-58.08 18.07-4.88 6.65 3.88 48.54 5.32 58.8-19.7 2.43-86.62 12.43-100.27 21.77-1.83 4.68-1.33 10.64-.84 15.59 1.82 18.2 5.53 36.57 8.35 54.66a5730 5730 0 0 0 15.66 99.05c7.15 43.37 12.08 88.39 23.35 130.87-12.65-9.1-25.73-17.25-37.79-27.21-51.91-42.87-84.53-108.07-90.9-174.84-6.47-67.69 16.69-135.78 60.15-187.67 48.6-58.03 111.1-88.2 186.08-95.07"/><path fill="#1D2D58" d="M1590.46 70.398c39.24-5.92 97.14 7.304 132.07 26.189 15.39 8.323 29.89 18.649 44.63 28.089l76.81 49.025 89.12 57.753c16.28 10.402 33.24 20.066 49.04 31.182 3.28 2.312 6.73 4.434 7.93 8.465-3.49 7.932-49.34 44.905-58.33 52.851l-91.24 81.232c-26.94 23.532-54.35 46.179-80.71 70.409 5.71 3.22 11.6 6.112 17.17 9.577 3.52 2.191 8.17 4.798 9.16 9.101l-1.63 1.624c-2.31.513-3.99.957-6.35.412-3.57-.823-21.1-11.411-25.91-13.808-39.27 30.629-77.68 42.36-125.97 50.546-37.64 55.872-68.15 116.662-106.66 171.912 7.47 6.437 13.99 12.764 18.74 21.529 10.62 19.61 12.12 45.82 5.55 66.964-6.14 19.798-19.96 35.726-38.28 45.329-22.47 11.781-44.63 9.392-68.07 2.225-9.06 18.78-20.29 36.623-30.25 54.943l-58.99 108.173-111.49 204.05-116 207.28a2447 2447 0 0 0-27.48 50.47c-10.39 19.93-20.27 40.27-32.34 59.26 5.18 4.89 9.75 10.5 14.24 16.03 43.75 53.89 62.47 125.92 55.21 194.49a266.02 266.02 0 0 1-97.96 179.26 233.94 233.94 0 0 1-171.714 49.51c-21.772-1.93-44.171-8.01-64.422-16.02-52.283-20.67-99.31-60.05-128.481-108.28-8.619-14.24-15.231-29.45-21.795-44.72-8.607 4.88-18.609 10.39-28.224 12.89-2.888.75-6.198 1.56-8.934.03l-.137-1.19c4.491-9.46 25.405-16 34.766-20.07-18.151-72.15-17.714-137.72 20.139-204.1 35.524-62.29 91.734-106.13 160.929-124.93 53.017-14.4 114.761-9.3 164.405 14.57 16.488 7.92 31.228 18.63 47.078 27.67 13.53-19.13 24.34-41.82 35.64-62.44l58.95-106.6a24346 24346 0 0 0 176.51-317.7l64.87-118.903c7.62-13.971 14.59-28.298 22.48-42.112l-.8-.589c-7.03-5.064-12.46-11.99-17.18-19.2a109.28 109.28 0 0 1-16-82.985 115.46 115.46 0 0 1 51.64-72.743c26.95-17.103 58.92-19.529 89.44-12.515 5.19-14.454 12.05-28.573 18-42.753a3200 3200 0 0 1 40.38-93.948 213.4 213.4 0 0 1-91.28-43.519 236.82 236.82 0 0 1-86.09-163.111 238.04 238.04 0 0 1 53.33-171.014c38.88-46.533 94.35-74.195 154.49-79.79"/><path fill="#FEFEFE" d="M1465.77 670.415c1.7-.163 3.47-.141 5.18-.188 6.84-.191 18.24-2.232 23.5 2.729 2.86 6.486-1.05 14.008-3.18 20.291a544 544 0 0 0-9.64-.952c-23.54-2.076-44.68 2.679-63.02 18.215a77.04 77.04 0 0 0-27.41 53.9c-1.64 22.052 5.81 40.956 20.15 57.387l-4.3 8.73-8.24 15.086c-16.45-19.047-28.43-40.059-30.92-65.523-2.49-25.452 6.49-51.847 22.72-71.399 19.6-23.62 44.97-35.321 75.16-38.276m102.81-141.037c15.67 2.147 30.97 3.765 46.83 3.649-10.53 14.461-19.18 31.021-28.63 46.286-28.86 46.613-56.2 94.84-87.02 140.129a958 958 0 0 0-20.05 31.955c7.87-30.381 20.53-60.62 32.64-89.555l32.72-77.828c7.85-18.21 16.2-36.195 23.51-54.636"/><path fill="#FC8045" d="M1466.83 716.327c4.76-.369 9.2.49 13.88 1.248-2.52 9.176-17.15 41.792-13.48 48.742 1.2 2.282 2.41 2.317 4.68 2.858 10.67-2.419 26.81-31.609 33.39-41.278 10.32 9.117 17.16 19.761 18.98 33.618 2.11 16.088-1.55 30.636-11.49 43.552-7.7 8.3-17.32 14.648-28.34 17.56a53.53 53.53 0 0 1-42.28-6.639 53.5 53.5 0 0 1-24.21-35.335c-2.74-14.268.14-30.003 8.79-41.796 9.65-13.168 24.26-20.256 40.08-22.53"/><path fill="#FEFEFE" d="M1590.59 79.4c.34-.056.67-.132 1.01-.167 36.66-3.739 75.7 3.753 109.62 17.633 31.37 12.836 62.89 35.986 91.22 54.712l82.05 53.079 65.82 42.585c12.1 7.856 25.24 15.299 36.36 24.489-14.55 14.279-30.66 27.168-45.9 40.725l-93.6 83.009a5008 5008 0 0 1-64.79 56.581c-12.26 10.57-24.32 21.597-37.43 31.11-30.26 20.759-62.55 33.807-99.06 38.319-56.08 6.93-114.34-6.434-159.19-41.775-48.39-38.128-78.01-95.549-84.91-156.388-6.71-59.065 12.2-118.1 49.15-164.355 37.53-46.981 90.54-72.918 149.65-79.557"/><path fill="#1D2D58" d="M1597.57 122.46c17.11-.387 34.59 1.137 51.26 4.978 44.18 10.179 82.02 39.511 105.7 77.873a183.5 183.5 0 0 1 22.19 141.866c-11.28 46.382-39 88.45-80.2 113.342-43.18 26.091-91.01 29.621-139.28 17.86-32.96-9.865-60.44-28.694-84.44-53.072 17.02-42.486 57.01-65.038 95.74-84.52l-3.35-6.575c-4.21-1.119-9.13 1.683-13.47 2.434-6.71 1.164-15.22-3.009-20.37-6.99-30.08-23.219-34.15-82.929-37.98-118.122-7.87-1.449-15.33-3.832-21.72-8.851-3.11-2.445-5.6-5.53-5.85-9.624-.37-5.942 4.14-11.819 7.99-15.872 16.54-17.439 75.74-44.806 99.6-51.386 8.17-2.255 15.71-3.031 24.18-3.341"/><path fill="#FEFEFE" d="M1623.63 283.826c1.9 2.989 2.48 8.927 3.28 12.409 3.42 14.978 6.4 31.789 14.87 44.874-11.51 25.123-25.54 49.961-38.96 74.146l-7.92-13.376c-10.05-15.978-20.19-32.086-29.48-48.515 23.81-14.153 44.71-45.513 58.21-69.538m-121.65-65.276c-.54-3.527-1.63-7.533-.39-10.948 10.26-9.57 72.47-42.903 84.77-40.819 1.28.216 1.36.337 2.34.852 4.44 13.029 7.22 65.239 17.14 70.929.25.149.55.217.83.325 5.94-4.132 2.97-20.034 13.86-17.899 3.91.766 8.02 5.18 9.55 8.683 2.7 6.193 1.62 13.965-.9 20.03-2.95 7.08-6.77 9.73-13.4 13.088l4.17 7.862c-5.24 11.578-11.43 20.547-20.24 29.719-2.66 2.765-6.74 5.618-8.94 8.572-.17.978-.62 1.966-.95 2.902-5.16 3.675-11.66 9.182-17.7 11.095-9.34 2.955-18.9 8.68-28.82 5.102-10.87-3.918-18.45-15.524-23.11-25.615-6.04-13.04-23.4-66.489-17.61-80.174.22-.512.47-1.009.71-1.513l-1.48-.843z"/><path fill="#1D2D58" d="M1552.68 224.264c.27.1.55.186.82.301 2.71 1.162 5.15 2.799 5.97 5.799.78 2.862-.48 5.399-1.63 7.929-1.34-.359-3.09-.71-4.29-1.415-1.97-1.165-3.48-2.948-3.72-5.291-.3-3.047 1.23-4.981 2.85-7.323m-25.15 14.535c-1.14.552-.74.212-1.57 1.232-.8.985-1.59 1.974-2.41 2.948-2.92.272-2.85.419-5.18-1.322-1.2-2.559-1.89-4.847-1.34-7.711.51-2.635 1.19-3.635 3.37-5.084l2.19.753c2.5 2.656 3.81 4.95 5.28 8.278zm.34-.906c3.58 6.868 5.59 14.482 7.87 21.86 2.25 1.825 5.58 3.779 6.51 6.616-1.82 1.815-2.31 1.338-4.77 1.521-3.11-1.159-4.59-2.781-5.9-5.756-3.25-7.444-2.51-15.566-4.05-23.335zm40.16 32.85 2.41 1.973-.21 2.099c-6.71 7.032-17.88 9.328-27.06 10.849-1.73-1.484-2.44-2.063-3.44-4.166 11.76-1.661 18.48-4.271 28.3-10.755m-12.21-65.64c3.61-.105 8.3-.619 11.61 1.168 2.34 1.261 3.24 2.314 4.21 4.738l-.82 1.342c-4.65 1.628-9.59-.031-14.51.68-.28.041-.56.09-.85.135a129 129 0 0 1-4.91 2.268c-3.02 1.287-5.38 1.854-8.56.631l-.62-1.887c3.37-6.06 8.29-6.928 14.45-9.075"/><path fill="#1D2D58" d="M1501.98 218.55c3.11-3.077 6.36-5.126 10.88-5.187 2.09-.028 2.51.46 4.27 1.416 1.05 2.134 1.43 2.593 1.2 4.919-4.68 3.925-14.32-1.551-14.87 7.145-1.5 23.613 13.8 74.852 30.55 92.403 4.04 4.234 8.27 6.387 13.51 8.693 17.14-2.671 29.15-9.143 43.25-18.995-.17.978-.62 1.966-.95 2.902-5.16 3.675-11.66 9.182-17.7 11.095-9.34 2.955-18.9 8.68-28.82 5.102-10.87-3.918-18.45-15.524-23.11-25.615-6.04-13.04-23.4-66.489-17.61-80.174.22-.512.47-1.009.71-1.513l-1.48-.843z"/><path fill="#FEFEFE" d="M1617.55 132.934c19.52.387 39.88 4.928 57.65 13.02 40.39 18.38 70.86 54.313 86.12 95.547 15.32 41.421 16.02 88.056-2.55 128.635-35.74-32.457-68.33-46.171-116.68-47.528a1373 1373 0 0 1-13.67-57.224c6.57-6.487 10.51-12.152 11.59-21.671 1.12-9.744-1.53-18.469-7.56-26.09 1.89-12.338 3.31-24.676 3.13-37.181-.27-18.998-4.12-33.908-18.03-47.508M874.724 1459.43c.122-.01.243-.03.365-.04 58.965-3.69 122.01 19.05 165.821 58.42 50.49 45.36 78.57 111.02 81.79 178.32 3.16 66.33-22.6 136.23-67.53 185.19-44.08 48.03-101.334 72.53-165.92 75.2-56.532 2.32-117.56-22.64-160.258-58.82-52.374-44.38-81.422-104.99-86.956-173.01-5.462-67.14 16.629-129.4 60.118-180.28 43.731-51.16 106.066-79.83 172.57-84.98"/><path fill="#1D2D58" d="M936.768 1536.37c2.591.27 5.329.61 7.519 2.17 5.777 4.13 6.641 12.09 8.159 18.54 3.011.5 6.257.88 9.155 1.85 3.09 1.04 5.181 3.03 6.345 6.06 2.685 6.98 3.621 16.48 5.05 23.87l11.791 63.47c8.874 45.57 18.973 90.87 26.953 136.62 2.01 11.47 5.09 22.77 6.68 34.31.44 3.27 1.17 9.48-1.07 12.26-2.35 2.91-8.23 5.05-11.69 6.21-14.891 4.99-30.963 8.07-46.162 12.11-49.667 13.24-99.804 24.71-149.605 37.47-2.571.39-5.703 1.1-8.257.37-4.966-1.43-6.849-6.32-9.278-10.47-2.241-.07-4.902.02-6.914-1.09-5.037-2.79-7.358-10.79-8.392-15.96-2.12-10.61-3.239-21.46-5.154-32.12-6.935-38.61-13.745-77.47-21.292-115.95l-14.669-73.61c-2.759-13.86-6.568-28.32-7.667-42.42-.394-5.05.58-8.32 3.351-12.5 13.563-7.9 40.082-11.6 55.887-15.45a4282 4282 0 0 1 104.928-25.02c14.735-3.42 29.435-8.28 44.332-10.72"/><path fill="#FEFEFE" d="M954.521 1566.53c1.626.16 2.492.47 3.894 1.31 5.851 10.59 15.729 77.02 19.07 94.51 10.746 56.23 22.535 112.25 32.465 168.65-18.932 7.03-40.71 10.32-60.371 15.33l-141.284 36.1c-.473.07-.943.18-1.421.21-3.048.2-3.269-.43-5.431-2.42.357-2.29.32-1.92 2.35-2.78 13.008-5.48 29.345-7.57 43.075-11.08a6059 6059 0 0 1 102.284-25.86c11.448-2.83 42.637-8.24 50.674-15.15 1.824-4.37 1.254-9.25.714-13.84-3.108-26.65-9.552-53.73-14.727-80.06a5426 5426 0 0 1-24.174-125.93c-2.233-11.81-6.473-25.26-7.049-37.12-.03-.62-.046-1.25-.069-1.87m-20.207-20.26c2.301-.27 2.729-.31 4.834.61 3.036 3.98 3.738 9.17 4.892 13.96-24.468 6.88-49.814 11.42-74.572 17.22a10584 10584 0 0 1-125.05 29.78c-2.768.67-3.321 1.33-5.757-.08-1.521-4.26-2.726-9.12-1.106-13.51 10.358-5.85 33.135-8.24 45.266-11.27 50.236-12.56 100.658-26.75 151.493-36.71"/><path fill="#FEFEFE" d="M942.441 1570.16c.635-.02 1.584.37 2.205.54 4.657 9.52 14.723 73.85 17.631 89.26 9.995 52.94 22.435 105.7 29.947 159.05-47.706 14.4-96.736 25.43-145.006 37.91-18.635 4.82-37.923 8.7-56.084 15.07l-1.515-.95c-5.171-8.24-26.941-141.46-30.91-162.7-5.701-30.5-11.986-61.04-18.214-91.44 30.031-5.1 59.694-12.95 89.321-20.02z"/><path fill="#1D2D58" d="M921.599 1647.11c1.953-.28 3.164-.13 5.067.38l.642 1.58c-5.17 6.06-41.665 12.73-51.1 15.15-2.59.61-2.557.75-4.883-.49l-.173-2.01c3.882-4.88 42.576-12.65 50.447-14.61m15.962 53.08c1.754.19 1.586.49 2.724 1.73l-.492 1.78c-12.289 7.21-41.291 11.4-56.316 16.04l-1.645-.7c-.503-2.19-.449-2.07.682-4.03 7.689-3.91 44.928-12.65 55.047-14.82m-.098 23.02c1.362.16 2.224 1.87 3.095 2.89-.163.26-.283.55-.488.78-4.558 5.08-46.354 12.15-54.498 13.89l-3.03-.68-.418-1.1c6.195-6.22 44.349-13.33 55.339-15.78m-18.69-98.04c.718-.12 2.087-.38 2.785-.32 2.036.17 2.631 1.38 3.754 2.84-3.156 4.33-44.385 13.3-53.057 15.75-.944.37-2.234.38-3.248.51l-1.963-1.73.022-2.19c6.166-5.54 40.981-11.69 51.707-14.86m31.493 147.93c1.361-.33 1.697-.03 2.998.38l1.249 2.41-.82 1.76c-14.328 6.98-40.106 11.06-56.482 15.4-2.033.21-3.125.14-5.037-.59l.015-1.44c1.383-2.19 3.162-3.16 5.512-4.11 4.864-1.98 10.723-2.2 15.864-3.55 12.279-3.23 24.482-6.81 36.701-10.26m1.556 22.08c.104-.02.206-.05.311-.05 2.607-.08 2.976-.35 4.859 1.34l-.511 2.05c-8.798 6.8-45.631 12.99-58.756 16.3-2.263-.46-2.216-.91-3.732-2.52l.323 1.62-.761-1.94c5.616-5.36 47.796-13.92 58.267-16.8"/><path fill="#F2651C" d="M808.351 1619.5c3.049.49 7.874 1.68 9.926 4.19 1.819 2.22 1.528 3.96.898 6.57-2.52 10.44-15.142 48.99-23.435 54.05-5.995-.98-9.91-7.31-13.54-11.75-4.006-4.94-9.347-10.5-10.364-16.99-.415-2.65-.224-3.57 1.328-5.71 1.207-.19 1.412-.29 2.772-.12 6.126.78 12.183 9.51 15.849 13.92 4.8-14.51 8.946-30.88 16.566-44.16m30.235 156.24c2.277.48 4.752 1.25 6.823 2.33 2.438 1.26 3.43 2.95 4.321 5.49-1.645 12.56-20.174 48.29-27.081 60.77-8.282-5.02-13.671-11.43-19.863-18.72-3.147-3.57-7.502-7.92-9.11-12.46-1.012-2.85-1.029-4.89.284-7.58 1.863-.64 2.739-.7 4.728-.28 8.666 1.85 13.938 11.3 18.491 17.98 5.74-14.88 11.455-35.13 21.407-47.53m-9.188-82.05c2.092.02 4.468.04 6.231 1.38 2.087 1.58 3.063 3.83 3.18 6.39.54 11.72-20.55 53.05-28.57 62.84-6.196-1.16-12.063-9.47-16.167-13.97-2.572-3.04-5.379-6.13-7.525-9.49-2.233-3.5-3.556-7.62-2.52-11.71 1.751-1.26 1.852-1.26 3.921-.94 8.094 1.24 13.516 10.35 17.895 16.36 5.416-13.68 14.449-40.49 23.555-50.86"/><path fill="#1D2D58" d="M877.522 333.052c1.496.215 2.328.837 3.611 1.595 4.496 7.698 19.844 99.143 23.226 116.479a42570 42570 0 0 1 149.821 820.104c-.24.13-.48.27-.71.39l-1.21.63c-8.07 4.31-17.6 6.05-26.4 8.43 1.56 5 5.64 14.08 4.22 19.06-1.2 4.21-7.98 5.23-11.73 6.25-39.242 10.61-79.07 19.66-118.592 29.21a13464 13464 0 0 1-278.218 63.88c-8.913 1.96-82.006 16.59-84.033 17.78-.391.22-.73.53-1.095.8l.524-1.75.217 2c47.316-4.12 99.26-18.13 146.083-27.78l258.74-52.93c15.492-3.15 72.504-17.37 83.734-15.39 2.52.45 3.39 1.01 4.79 3.09l-.68 2.25c-3.92 3.26-11.31 4.16-16.33 5.34-33.068 7.83-66.843 13.55-100.143 20.39l-227.556 47.22c-33.44 5.54-66.375 13.88-99.597 20.52l-116.138 24.03c-17.754 3.72-35.652 6.79-53.308 10.96-7.18 6.43-16.359 22.49-25.538 25.02-1.716.48-1.861-.05-3.257-.86-.689-5.35 9.409-17.01 12.687-21.81-44.362 11.41-89.636 20.08-134.486 29.4-20.16 4.19-40.529 7.93-60.431 13.24-6.639-29.76-10.319-60.65-15.058-90.79l-25.576-158.08a30228 30228 0 0 0-75.58-416.593c-4.912-26.849-46.501-245.812-44.57-255.742 1.577-2.373 2.844-4.166 5.655-5.137 18.133-6.265 44.557-9.529 64.043-13.724 17.21-3.704 34.185-9.459 51.08-14.441z"/><path fill="#FEFEFE" d="M871.147 345.175c2.489-.358 1.328-.61 3.47.818 5.976 15.349 10.795 53.99 14.068 71.877l25.625 133.448 78.355 424.617a7434 7434 0 0 1 36.245 202.345c4.86 28.96 11.9 58.63 14.58 87.82l-18.09 3.79c-2.92-20.28-7.56-40.54-11.46-60.66a5265 5265 0 0 1-19.038-101.75l-82.975-451.257-31.704-161.253c-4.189-21.948-10.63-73.484-18.467-91.301-3.843-.876-7.84-.388-11.702.19-17.319 2.593-34.65 6.762-51.811 10.268a5923 5923 0 0 0-105.853 22.421l-258.337 56.327-182.626 38.438c11.024-4.865 23.131-7.938 34.666-11.449l60.317-18.173c61.822-18.901 123.325-38.521 185.395-56.67l229.738-67.783c36.478-10.765 72.675-22.888 109.604-32.063"/><path fill="#FEFEFE" d="m852.881 412.359 1.599.98c8.147 24.937 10.953 52.876 16.209 78.618 14.217 69.625 26.991 139.367 39.836 209.234l110.355 594.659c-51.178 13.95-103.429 25.1-155.068 37.26a17263 17263 0 0 1-287.627 65.66c-19.092 4.2-37.949 9.34-57.008 13.65l-298.902 66.71c-3.841-5.74-15.266-72.32-17.412-83.02-8.655-43.13-18.153-86.11-26.393-129.33l-56.233-307.089a12632 12632 0 0 1-49.234-268.57c-6.413-35.957-13.74-71.846-19.41-107.923 22.945-7.147 48.33-10.469 71.9-15.627l194.595-41.05 286.045-61.666c82.074-17.963 164.121-37.222 246.748-52.496"/><path fill="#1D2D58" d="M328.263 1277.27c3.056 2.87 5.969 22.98 7.167 28.44-20.929 5.27-42.387 8.91-63.413 14.04-4.927-4.47-6.103-21.27-7.397-28.18a2232 2232 0 0 0 63.643-14.3m107.446-75.93c1.932-.44 3.341-.34 5.297-.09 1.817 3.4 12.558 64.99 14.72 75.07-19.572 4.13-39.054 9.15-58.504 13.85-1.496.29-2.784.36-4.301.4-5.386-7.73-13.351-65.44-14.719-77.95 18.473-5.11 38.582-8.21 57.507-11.28m499.892-7.04c2.115-.24 2.64-.1 4.582.55 1.741 2.32 1.903 2.23 1.687 5.08-2.592 2.95-8.619 3.78-12.355 4.68-51.183 12.46-103.015 22.68-154.394 34.32l-314.278 71.94a17528 17528 0 0 0-197.589 45.49c-1.67.42-.993.42-2.702.18-1.849-.25-1.988-1.2-3.086-2.61-.162-1.46-.594-2.18.305-3.47 1.271-1.83 2.908-2.67 4.887-3.51 14.923-6.38 51.104-11.69 68.701-15.54l139.116-31.67a16910 16910 0 0 1 335.854-76.37c43.167-9.51 85.668-21.48 129.272-29.07M802.883 609.272c1.179-.197 2.407-.446 3.607-.487 2.524-.086 3.861-.076 5.799 1.571 4.036 14.341 4.971 42.821 6.585 58.699 1.725 16.958 6.205 36.192 5.093 53.025-1.279 1.875-1.992 2.384-4.111 3.188l-2.196-1.118c-4.932-8.407-10.075-76.253-12.137-92.559-17.677 19.084-33.731 39.907-51.291 59.21L481.061 990.68c-28.252 30.72-55.141 63.38-84.331 93.14-.082.01-.164.03-.247.03-2.616-.07-3.05.03-5.01-1.59-.506-3.35.105-4.77 2.083-7.51 8.126-11.27 18.96-21.58 28.334-31.87l54.584-59.934 101.324-110.719a10241 10241 0 0 1 82.054-91.147l74.989-81.978c21.723-23.693 51.148-54.718 68.907-81.087-25.347 6.23-51.806 10.762-77.651 14.497-4.273.618-11.927 2.417-15.426-.196l-.367-3.101c1.321-1.932 1.728-2.557 4.046-3.364 4.464-1.555 10.371-1.632 15.122-2.621 24.388-5.076 49.018-8.882 73.411-13.958M537.156 1099.2l4.854-.21c3.993 3.43 26.738 136.82 28.452 152.19a4796 4796 0 0 0-58.239 13.05c-1.266.32-2.216.26-3.509.21-3.321-3.34-25.613-135.33-29.081-152.57a3368 3368 0 0 0 57.523-12.67m100.518-127.024c1.593-.172.672-.262 2.631.883 2.1 7.909 3.068 16.149 4.614 24.185l10.423 55.556 30.822 171.39c-19.665 5.29-39.701 9.29-59.598 13.61-1.784.45-.749.37-3.108-.16-4.702-7.23-40.504-224.53-45.512-253.005 20.005-2.965 39.96-8.158 59.728-12.459m102.056-93.825 2.639-.151c3.683 4.748 53.706 287.37 59.15 321.25-20.105 4.17-40.264 8.13-60.138 13.32-2.152.17-2.018.47-4.003-.74-12.032-57.73-20.503-116.48-31.095-174.51l-15.73-87.833c-3.712-20.185-8.31-40.509-10.509-60.913 19.993-2.786 39.762-7.139 59.686-10.423M263.492 1043.18c20.148-1.37 37.718 1.3 54.949 12.49 20.423 13.26 34.904 36.4 39.873 60.06 4.781 22.76 1.018 47.91-11.822 67.49-13.778 21-34.64 32.61-58.775 37.66-19.757 2.25-37.957-1.52-54.846-12.2a88.9 88.9 0 0 1-39.231-56.12c-5.636-25.05-1.53-49.9 12.413-71.56 13.218-20.52 33.841-32.86 57.439-37.82"/><path fill="#FEFEFE" d="M267.96 1051.29c15.94-2.04 33.205 3.98 46.184 12.95a88.17 88.17 0 0 1 35.939 56.49c3.642 20.61-.11 41.96-12.233 59.21-13.364 19.01-31.207 28.15-53.647 31.98-17.198 1.08-32.386-1.69-46.949-11.32a83.24 83.24 0 0 1-35.34-52.97 86.03 86.03 0 0 1 13.555-64.62c12.633-18.53 30.884-27.66 52.491-31.72"/><path fill="#F2651C" d="M286.614 1086.38c4.94 2.69 9.999 5.15 15.029 7.67-5.456 12.17-10.742 24.34-14.113 37.29 8.599 7.16 20.65 16.22 26.359 25.99 1.299 2.22 1.86 3.39 1.203 5.96-.313.12-.615.27-.939.36-7.353 1.89-26.496-10.97-33.254-14.67-5.928 6.51-12.201 12.27-18.862 18.03-.945.51-1.879 1.04-2.85 1.5-2.54 1.21-4.867 1.97-7.561 1.02.199-2.85 10.484-29.32 12.33-35.27-10.228-3.86-20.17-8.86-30.075-13.49.698-3.53 1.304-7.38 2.558-10.75.831-2.23 2.693-4.04 5.036-4.61 5.58-1.36 23.924 11.27 29.423 14.21 4.539-11.47 9.191-22.74 15.716-33.24"/><path fill="#FC8045" d="M268.48 1125.33c5.501 3.37 16.325 5.98 18.917 12.04-.004 2.45-.168 3.53-1.49 5.61-7.241-3.2-13.741-7.11-20.395-11.38z"/><path fill="#1D2D58" d="M839.53 757.297c1.005-.211 2.773-.139 3.82-.176 1.911 2.315 2.458 6.005 3.055 8.916 1.095 5.341 1.475 10.811 2.491 16.172 9.803 51.706 18.283 103.652 27.794 155.414a12387 12387 0 0 1 27.583 150.877c5.086 28.17 10.694 56.33 14.787 84.66l-58.711 13.47c-.968.16-2.687.04-3.689.04-5.926-6.67-68.601-374.792-75.943-417.998a2123 2123 0 0 1 58.813-11.375M443.794 570.376c6.616.327 11.996 1.207 17.639 4.916 8.65 5.685 10.028 15.243 11.858 24.658 4.227 21.757 7.222 43.91 10.776 65.795l18.515 111.649 11.081 63.549c1.72 9.936 4.33 20.561 4.836 30.621.341 6.775-2.137 13.465-6.024 18.94-3.264 4.598-9.35 6.874-14.571 8.453-11.477 3.469-23.96 5.237-35.689 7.87l-87.729 19.471-122.454 27.884c-22.876 5.255-46.091 11.717-69.242 15.444-6.057-.121-11.903-1.336-16.597-5.408-4.735-4.108-6.643-10.847-8.101-16.732-3.1-12.51-4.715-25.607-7.045-38.304-6.359-34.663-11.735-69.448-17.885-104.135l-16.679-92.11c-2.576-14.619-5.977-29.644-7.416-44.411-.842-8.641.303-14.313 6.11-21.098 3.822-4.465 7.865-6.588 13.401-8.292 18.943-5.829 39.426-8.819 58.816-13.099a11489 11489 0 0 1 117.6-26.096l87.97-19.386c16.634-3.658 33.881-8.652 50.83-10.179"/><path fill="#FEFEFE" d="M439.636 579.222c4.511-.589 9.331-.423 13.545 1.42 3.669 1.606 6.801 4.332 8.24 8.146 5.459 14.466 6.394 32.818 8.933 48.189a7613 7613 0 0 1 16.879 102.794l15.522 91.244c2.058 12.459 4.874 25.147 6.149 37.682.48 4.719.704 9.78-1.64 14.09-2.302 4.232-9.531 6.829-13.852 8.179-9.109 2.846-19.07 4.115-28.441 6.088a2473 2473 0 0 0-46.043 10.519c-77.168 17.951-155.21 33.425-231.945 53.013-5.187.7-10.161.447-14.426-3.027-4.034-3.287-5.544-10.97-6.64-15.897-11.085-49.819-17.296-101.001-25.977-151.295-7.401-42.875-17.522-85.656-23.547-128.706.897-1.869 1.795-3.764 2.865-5.541 2.495-4.143 5.366-6.091 9.867-7.665 24.871-8.701 52.988-12.015 78.728-18.011 77.053-17.95 154.63-33.697 231.783-51.222"/><path fill="#1D2D58" d="M305.701 884.119c2.002-.161 3.52.03 5.493.312l.335 1.065c-7.407 6.496-98.475 24.442-116.414 28.02-2.651.145-3.259.697-5.506-.889l.548-1.329c14.085-6.678 32.756-8.103 48.097-11.447a2982 2982 0 0 0 67.447-15.732m-26.086-194.888c1.678-.173 2.485.025 4.087.435l.022 1.41c-8.389 5.841-102.631 24.393-120.511 27.992-1.694.171-.949.191-2.792-.06-1.987-.27-1.115.114-2.569-1.758 4.126-4.292 106.971-24.936 121.763-28.019m171.221 151.08c.724.182 2.039 1.034 2.718 1.398.739 2.433.853 2.459-.101 4.792-8.648 6.384-51.146 13.116-64.396 15.899l-2.084-1.823c-.762-2.426-1.023-2.489-.019-4.781 8.695-6.25 51.112-13.223 63.882-15.485m-15.851-187.074c.192-.023.383-.065.576-.07 3.097-.09 3.192-.208 5.345 1.881.284 1.241.925 2.198.116 3.33-3.71 5.195-70.098 18.323-79.793 20.471-2.087.215-2.368.159-4.206-.566-1.517-2.458-1.674-2.542-1.401-5.391 3.435-3.786 68.493-17.021 79.363-19.655m26.948 146.006c1.488.079 2.145.646 3.399 1.395 1.28 2.343 1.623 2.452 1.127 5.028-1.857 1.909-3.661 2.659-6.184 3.329-7.701 2.045-15.853 2.488-23.643 4.261l-52.247 12.339c-2.864-.523-4.49-1.018-6.301-3.249.086-.257.123-.536.257-.771 4.098-7.203 70.803-19.645 83.592-22.332M445.61 689.31c1.639.074 1.741.646 2.899 1.727.538 2.563.697 2.775-.365 5.133-4.102 2.748-73.453 16.852-84.051 19.255-2.405-1.461-2.824-1.563-3.974-4.085l1.21-2.334c11.43-7.944 68.065-16.927 84.281-19.696m7.564 71.817c3.267-.301 4.155-.474 7.26.867 1.02 2.388.712 2.669.049 5.227-5.695 5.561-68.339 17.898-79.256 20.38-2.242.39-4.452.388-6.718.421-1.744-1.758-1.427-1.779-1.809-4.066 1.702-2.803 4.902-3.832 7.881-4.811 10.675-3.506 22.246-5.149 33.211-7.621 13.23-2.983 26.315-6.781 39.382-10.397m-5.748-35.96c.862-.133 2.251-.382 3.091-.344 2.587.118 3.163.917 4.817 2.661l-.203 2.379c-.98 1.157-1.9 2.223-3.304 2.89-6.574 3.123-16.044 4.234-23.2 5.917-17.781 4.183-35.47 8.36-53.358 12.105-.943.12-2.24.324-3.167.249-2.652-.215-3.364-.646-4.927-2.548l.419-2.269c1.679-1.944 3.197-3.26 5.638-4.179 7.59-2.859 17.469-3.74 25.495-5.484a2503 2503 0 0 0 48.699-11.377m-135.554-43.576.566.403.444 1.167.526-.577c2.604 4.118 34.479 189.817 33.801 199.014-1.909-.91-2.421-1.162-3.235-3.307-3.904-10.282-9.286-53.192-11.742-67.582-6.844-40.112-15.959-80.522-21.089-120.869-.409-3.213-.671-5.283.729-8.249"/><path fill="#FC8045" d="M279.906 728.521c1.734.36 3.413.803 5.078 1.415 5.905 2.171 16.336 7.349 18.574 13.379.854 2.302-1.001 6.019-1.982 8.137-8.271 17.871-21.198 34.903-31.955 51.413-7.719 11.847-15.009 24.94-23.708 36.032-2.124 2.708-5.662 7.245-9.103 8.193-5.794 1.596-34.889-22.758-40.977-27.299-7.447-5.275-20.865-12.52-24.188-21.388-1.397-3.727-.688-7.247 1.117-10.643 2.051-3.858 4.943-7.313 9.382-8.34 10.051-2.328 37.409 21.144 46.239 27.48 19.086-24.701 31.612-54.586 51.523-78.379"/></svg>