<svg xmlns="http://www.w3.org/2000/svg" style="display:block" viewBox="0 0 2048 2048"><path fill="#1E2F51" d="M0 0h2048v2048H0z"/><path fill="#F98F2C" d="M1091.47 1257.81c3.8-.11 7.69-.48 11.39.47 2.5 10.53.77 25.26.59 36.27-3.92.17-7.88 0-11.8-.06a2043 2043 0 0 1-.18-36.68m-.81 61.96c4.38-.09 8.78.06 13.16.1l-.05 35.77-12.58.13a884 884 0 0 0-.53-36m.55 120.44 12.39.04a1054 1054 0 0 1-.29 37.25l-11.97.02c-.47-12.39-.14-24.9-.13-37.31m-.69-59.26 13.18-.21a1351 1351 0 0 1-.69 35.53c-4.47.54-7.34 1.16-11.13-1.62-4.33-9.03-1.55-23.51-1.36-33.7m.37 119.75 12.55.02-.05 37.98-12.32-.32c-.2-12.55-.13-25.13-.18-37.68m.3-948.615 11.87.001-.07 39.721-11.77.01zm-.17-58.778 12.67.157c.29 12.427.08 24.898.07 37.33l-12.5.178a1125 1125 0 0 1-.24-37.665m.73 238.784 12.17-.042.07 39.95c-3.89.109-7.97.553-11.75-.532-1.65-12.662-.55-26.567-.49-39.376m-.45 61.018 12.7-.012-.13 39.868c-3.71.133-7.34.062-11.04-.1-2.47-2.913-1.52-33.884-1.53-39.756m.34-121.12 12.15-.036c.04 13.466.4 27.037-.46 40.477-3.97.216-7.97.088-11.96.064a1118 1118 0 0 1 .27-40.505m-.59-59.08 12.84.027.04 39.284c-3.76.174-7.4.121-11.15-.114-3.39-3.498-1.73-32.573-1.73-39.197m-.94 582.041 13.96.05-.12 36.93h-13.87c-.13-12.32.01-24.66.03-36.98m723.76-444.354c8.64 7.158 16.45 17.122 24.14 25.376 13.18 14.14 27.99 28.335 39.44 43.898-21.43.868-43.03.271-64.47.217.03-23.063-.51-46.472.89-69.491m2.14-571.17c.6.379 1.5.911 2.1 1.367 6.05 4.576 62.87 62.576 63.34 66.608-21.87 1.323-44.42-.014-66.35-.248-.09-22.456-.64-45.331.91-67.727M672.64 1020.02l181.759-.14 54.565-.13c9.804-.02 20.252-.84 29.922.61.521 2.78-.291 3.78-1.371 6.34-1.395 1.35-2.64 2.35-4.568 2.85-8.283 2.17-39.174.67-50.285.7l-146.762.03c-8.683-.02-56.865 1.55-61.755-1.18-1.856-3.2-1.444-5.43-1.505-9.08m348.6 158.68c3.03.93 5.54 4.82 7.57 7.23-15.41 15.15-33.162 28.32-50.115 41.72l-64.265 51.23-219.425 174.35c-3.186-1.89-5.258-5.02-7.506-7.9 12.304-11.03 26.099-20.81 39.05-31.12l79.143-63.06 149.013-118.49c22.31-17.82 44.028-36.39 66.535-53.96M690.314 592.053c14.599 10.16 30.255 24.889 44.45 36.324l101.11 80.841 117.595 93.276c29.401 23.104 59.841 45.686 87.601 70.752l-7.34 7.636a9034 9034 0 0 0-112.952-89.887 16930 16930 0 0 1-238.012-190.098c2.175-3.186 4.962-5.988 7.548-8.844M1042.45 1611.5c1.95-15.16 7.67-28.11 19.9-37.85a56.65 56.65 0 0 1 42.7-11.48c14.47 2.02 27.1 9.47 35.66 21.35a58.36 58.36 0 0 1 10.77 27.85l106.98.67c-2.97-3.49-7.44-6.97-8.47-11.41 1.39-2.77 4.14-3.74 6.76-5.11 7.9 6.72 15.95 13.72 22.09 22.14-6.7 8.05-14.57 19.07-24.25 23.45l-2.63-.1c-1.71-2.05-1.62-2.96-2.01-5.65 1.47-4.83 6.77-9.42 10.22-13.11a7014 7014 0 0 0-108.41.41c-2.63 14.96-10.85 28.43-23.43 37.12-11.73 8.1-25.78 11.22-39.84 8.55a57.84 57.84 0 0 1-37.65-25.26c-4.35-6.74-6.63-13.57-8.61-21.26-124.451-.25-249.019 1.23-373.45-.06l.207-10.31c124.422-.31 249.057-1.74 373.463.06"/><path fill="#1E2F51" d="M1091.76 1572.25c8.55-.14 16.91.92 24.67 4.73a42.26 42.26 0 0 1 21.62 25.97c3.31 11 2.36 22.74-3.31 32.79-6.6 11.7-17.04 17.81-29.6 21.28-11.32.79-21.28.19-31.09-6.22a45.63 45.63 0 0 1-19.47-28.5 40.44 40.44 0 0 1 6.3-31.79c7.36-10.51 18.55-16.06 30.88-18.26"/><path fill="#F98F2C" d="M1045.36 425.949c3.52-16.751 10.33-31.068 25.16-40.622a54.1 54.1 0 0 1 41.86-7.07c14.18 3.525 25.81 13.513 33.03 26.021 3.97 6.866 6.37 14.146 7.32 22.027 36.28.059 73.07-1.203 109.29.68-6.01-4.683-15.73-10.976-16.56-19.349-.16-1.647.48-1.704 1.54-2.773 4.77-.759 8.32 1.411 12.12 4.075 8.49 5.954 17.82 14.508 24.32 22.556-4.02 6.052-24.25 25.419-30.85 26.809-2.74.578-3.35.357-5.64-.916-1.15-2.325-1.96-3.383-1.13-6.061 1.73-5.569 9.51-10.572 13.98-14.117a9784 9784 0 0 0-106.52-.388c-3.67 16.459-10.38 29.582-25.19 38.81a53.87 53.87 0 0 1-42.74 6.411c-14.6-3.938-27.05-13.02-34.53-26.247a53.4 53.4 0 0 1-6.57-19.358c-125.496 1.749-251.256.769-376.776.517l-.316-10.937c126.011-.054 252.224-1.702 378.202-.068"/><path fill="#1E2F51" d="M1097.01 388.258c8.24-.03 15.86 1.404 23.07 5.577 10.08 5.84 17.59 16.195 20.37 27.479a40.7 40.7 0 0 1-5.38 32.151c-7.5 11.41-18.42 16.725-31.31 19.621-9.81.194-18.71-1.252-27.3-6.309-9.94-5.85-17.53-15.441-19.96-26.811-2.36-11 .34-23.144 6.59-32.425 7.96-11.818 20.41-16.934 33.92-19.283"/><path fill="#F98F2C" d="m1329.18 741.979 475.12-.18-.17 58.147-474.91-.853zm-.25-573.908 478.19-.003-.21 58.542-477.97 1.192zm-237.38 687.944 12.15.073-.17 34.387c14.64 17.069 32.02 32.181 48.48 47.461a7991 7991 0 0 1 63.45 59.206c12.31 11.438 25.72 22.238 36.69 34.978-12.37 13.77-28.05 26.12-41.75 38.75-37.08 34.23-75.22 67.3-110.48 103.43l-1.46.83c-5.39-2.71-23.4-22.98-29.52-28.71-42.2-39.42-84.084-79.07-127.893-116.72 8.603-12.13 22.46-22.12 33.522-32.138a5911 5911 0 0 1 70.181-63.18c15.77-14.176 33.28-28.022 46.43-44.735a1003 1003 0 0 1 .37-33.632"/><path fill="#1E2F51" d="M1096.19 902.723c3.75 1.636 21.65 20.225 26.63 24.864a7510 7510 0 0 0 73.62 67.85c12.72 11.783 24.9 24.273 38.16 35.453-43.44 44.16-93.8 81.49-136.58 126.29-11-8.25-21.78-21.43-32.05-30.94l-60.14-55.03c-15.192-13.98-30.143-28.47-46.033-41.65 17.81-15.4 34.637-32.295 51.873-48.372a9116 9116 0 0 0 84.52-78.465"/><path fill="#FEFEFE" d="M1065.77 1000.18c3.29-.14 6.5-.573 9.63.64 1.17 13.33 2.77 32.34-.62 45.23-1.39 5.29-4.2 10.04-9.17 12.62-5.83 3.03-12.46 1.39-18.38-.42-.4-.3-.8-.59-1.18-.9-2.74-2.18-4.58-4.83-5.04-8.33 1.19-2.27 1.65-2.31 3.96-3.5 4.62.18 6.24 4.65 10.15 5.93 2.7.89 3.69.16 6.1-.93 7.46-8.95 4.54-37.99 4.55-50.34m64.44-.18c9.37.05 25.09-2.843 33.25 1.6 1.43 2.43 1.34 2.44.9 5.25-5.55 3.1-17.76 1.77-24.3 1.82l-.12 16.16c6.89.17 14.58-1.63 21.05.88 2.26 2.94 1.57 4.77 1.51 8.4l-21.98.04c.1 6.67 1.66 18.91-1.52 24.88-2.68.28-4.55.09-7.15-.41-3.4-4.18-1.69-49.57-1.64-58.62m-44.03 0c11.03-.027 25.6-1.959 35.87 2.64l.72 3.29c-6.89 5.39-17.66 3.95-25.78 3.75l-.04 15.24c6.95.09 14.63-1.89 21.07 1.12 1.76 3.02 1.18 4.68.98 8.12l-22.06.07c-.03 7.9.03 15.8-.31 23.69l-1.54 1.21c-3.12-.06-5.88.34-8.62-1.29-2.48-16.39-.43-40.64-.29-57.84"/><path fill="#A1F3FB" d="M667.474 436.954c-.668 62.217-16.071 118.238-54.556 168.137-41.048 53.224-100.817 89.425-167.889 97.801a244.97 244.97 0 0 1-183.42-49.618 264.26 264.26 0 0 1-97.934-174.332 268.07 268.07 0 0 1 55.229-195.631c39.932-50.886 101.648-83.968 165.6-91.697 63.557-7.682 131.54 9.623 182.049 49.566 59.5 47.054 92.038 109.843 100.605 184.837z"/><path fill="#1E2F51" d="M402.405 199.413c.152-.019.303-.046.456-.058 57.104-4.459 119.008 17.45 163.046 53.403a248.1 248.1 0 0 1 91.232 168.409 251.22 251.22 0 0 1-56.626 184.946c-44.114 52.751-102.843 82.806-171.264 88.813-60.682 3.097-120.247-14.423-167.235-53.627a253.26 253.26 0 0 1-90.351-173.036c-5.678-64.63 16.144-133.429 58.102-182.879 44.19-52.082 105.217-80.296 172.64-85.971"/><path fill="#A1F3FB" d="M397.936 211.408c56.578-5.466 116.084 13.951 160.316 49.142 50.288 40.011 80.716 98.253 87.586 162.016 6.741 62.566-13.643 127.564-53.269 176.12-40.842 50.048-98.133 78.233-161.953 84.919-54.722 5.891-114.887-14.395-157.771-48.366a237.97 237.97 0 0 1-88.672-159.877c-6.988-62.055 11.157-128.635 50.3-177.549 40.332-50.4 99.978-79.508 163.463-86.405"/><path fill="#1E2F51" d="m405.505 220.42 1.869-.115c56.948-3.061 114.438 20.031 156.534 57.663 45.7 40.853 70.722 96.472 74.086 157.391 3.267 59.185-19.574 120.976-59.019 164.951a223.42 223.42 0 0 1-155.221 73.952 74 74 0 0 1-3.739.34c-51.67 3.288-108.961-18.335-147.781-52.244-45.479-39.725-75.93-94.657-79.975-155.466-3.978-59.801 14.452-123.309 54.402-168.811 41.133-46.849 96.694-73.778 158.844-77.661"/><path fill="#FEFEFE" d="M341.986 378.002c3.324-.11 6.254-.232 9.492.6 1.435 10.975 3.878 39.196-1.865 48.398-2.497 3.999-5.788 4.831-10.084 5.977-3.374-.029-6.22.004-9.409-1.179-1.718-2.251-1.563-2.91-1.768-5.784 2.562-3.819 8.173-1.008 11.944-3.844 4.002-10.794 1.794-31.953 1.69-44.168m66.957 92.987c9.03-.164 20.179-1.483 28.384 2.691l.363 1.54c-6.143 3.984-13.876 2.906-20.867 2.763l-.167 18.433c5.008.233 13.502-1.768 17.604 1.376 1.364 1.045 1.149 4.097 1.334 5.771l-18.488.144c-.65 7.006-.519 14.525-2.402 21.276-2.35.431-2.104.136-4.063-.947-3.712-6.823-1.63-43.449-1.698-53.047m-52.83-1.603c1.801.184 3.484.532 5.246.945 5.602 7.684-.6 29.15 2.815 39.59 1.009 3.083 2.859 5.573 5.882 6.937 3.474 1.567 9.336 1.893 12.809.203 12.054-5.864 2.865-33.916 6.81-45.291.795-2.295.946-1.831 2.965-2.769.533.211 1.117.325 1.6.634 3.088 1.972 2.534 3.929 2.697 7.115.073 11.95 3.357 33.913-4.635 43.149-3.602 4.162-8.952 5.657-14.282 5.917-5.86.285-12.061-.804-16.317-5.156-9.743-9.964-5.776-37.944-5.59-51.274m16.026-92.261c5.583-.402 13.772-.583 18.34 3.056.165 2.79-.735 3.852-2 6.299-3.721 2.485-7.088-1.721-11.491-1.279-2.947.296-4.357 1.387-6.23 3.53-3.071 13.04 18.639 10.165 22.027 21.856 1.137 3.925-.206 8.445-1.916 11.997-2.554 5.305-7.014 7.465-12.281 9.445-4.96.482-11.013 1.069-15.422-1.71-2.516-1.586-3.416-2.703-3.938-5.519 3.71-6.605 16.283.044 22.71-4.628 2.955-10.763-18.765-13.335-23.782-24.975-.935-2.168-1.225-4.54-.112-6.697 2.684-5.2 8.857-9.254 14.095-11.375m85.789 92.466c2.178-.086 3.855.055 5.975.567 3.881 3.811 19.635 46.884 20.291 53.299-1.154 1.011-1.898 1.246-3.32 1.749-5.802-2.673-6.092-9.753-9.913-14.391l-2.833-.226-17.258-.126c-1.433 4.78-2.256 10.761-5.873 14.358-2.475.431-2.606.529-4.825-.599-.34-11.008 13.409-42.712 17.756-54.631"/><path fill="#1E2F51" d="M460.999 482.519c2.273 3.989 4 8.505 5.637 12.792 1.077 2.823 2.136 5.533.852 8.334l-3.291.414c-2.291.087-4.643.307-6.906-.134-1.403-.274-1.534-1.088-2.308-2.188-.236-2.483-.047-3.807.94-6.112 1.849-4.317 3.449-8.703 5.076-13.106"/><path fill="#FEFEFE" d="M489.109 416.75c-.075-8.305-.452-16.608-.525-24.914-.042-4.852-.396-11.994 3.242-15.708 2.338-.311 2.198-.275 4.13 1.102 4.791 9.407 2.092 40.121 2.039 51.932-.178 1.023-.678 1.763-1.399 2.529-1.086 1.154-1.589 1.764-3.232 1.49-8.999-1.497-23.894-30.071-29.124-38.601-.355 8.301 2.307 27.958-1.281 34.683-1.329 2.492-1.799 2.518-4.345 3.096l-1.639-1.199c-4.487-9.834-1.953-42.493-1.878-54.705 2.154-.158 5.134-.613 7.188.13 7.533 2.729 22.143 32.27 26.824 40.165m-72.714-39.527c5.073-.384 10.685-.815 15.467 1.251 6.295 2.718 10.757 8.155 12.967 14.556 2.93 8.485 2.731 19.334-1.616 27.309-3.634 6.669-8.465 9.412-15.519 11.59-5.17.422-10.944.877-15.801-1.258-6.243-2.743-10.689-7.864-12.837-14.301-2.758-8.265-2.351-18.89 1.604-26.71 3.592-7.1 8.358-10.081 15.735-12.437"/><path fill="#1E2F51" d="M416.722 387.018c2.709-.288 6.42-.99 9.018-.037 3.77 1.384 6.356 4.24 8.062 7.816 2.976 6.238 2.945 13.697.656 20.152-1.601 4.514-4.009 6.178-8.18 8.246-1.271.124-2.518.249-3.796.255-3.979.02-7.324-.983-10.042-4.022-3.602-4.028-4.816-9.863-4.411-15.128.587-7.616 2.878-12.483 8.693-17.282"/><path fill="#A1F3FB" d="M668.78 1621.75c-5.298 63.56-24.892 119.17-69.796 165.93a260.76 260.76 0 0 1-182.395 79.87c-65.739 1.01-128.167-26.45-174.972-72.02a257.28 257.28 0 0 1-77.759-183.48 265.9 265.9 0 0 1 74.174-189.29c47.699-48.65 108.744-75.61 177.016-76.06a247.92 247.92 0 0 1 177.336 72.05c51.034 51.02 76.473 121.24 76.603 192.69z"/><path fill="#1E2F51" d="M402.559 1356.42c.412-.04.823-.09 1.236-.11 60.761-4.08 123.036 17.65 169.043 57.11a250.12 250.12 0 0 1 86.284 171.44c5.193 68.49-13.456 135.31-58.863 187.73a249.75 249.75 0 0 1-170.187 84.99c-.856.11-1.713.2-2.573.26a232.1 232.1 0 0 1-166.342-56.86c-52.456-45.74-83.655-107.47-88.377-177.14-4.498-66.39 19.55-136.1 63.648-186.03 43.284-49.02 100.897-77.49 166.131-81.39"/><path fill="#A1F3FB" d="M400.027 1368.41c.188-.03.375-.06.564-.08 58.293-5.43 119.254 15.13 163.877 52.55 48.844 40.97 78.803 103.42 84.135 166.6a241.74 241.74 0 0 1-55.92 176.02 236.6 236.6 0 0 1-160.137 82.76c-.127.01-.253.03-.38.04-57.419 5.6-116.668-15.25-160.996-51.38-49.144-40.05-80.36-100.76-86.602-163.68a249.24 249.24 0 0 1 57.069-182.1c40.27-48.45 96.28-74.9 158.39-80.73"/><path fill="#1E2F51" d="M400.628 1377.41c.326-.05.65-.12.979-.15 51.158-4.99 107.281 12.26 147.91 43.27a233.36 233.36 0 0 1 88.623 153.92c8.163 61.86-7.096 124.76-45.337 174.44-38.566 50.11-95.343 79.97-157.591 87.9-58.708 4.5-114.351-12.96-159.843-50.52-46.145-38.11-76.763-98.53-82.193-157.87-5.639-61.65 15.548-125.27 54.998-172.67 39.596-47.58 91.322-72.55 152.454-78.32"/><path fill="#FEFEFE" d="M367.085 1540.97c2.328 3.15 1.564 7.19 1.527 11.05 2.18 2.64 6.014 1.46 9.414 2.21 1.168 2.69 1.481 2.85.745 5.63-2.348 1.93-6.292 2.04-9.224 2.48-1.313 2.44-1.183 4.21-1.284 6.94-.114 3.05-.431 11.7 1.466 13.95 1.204 1.42 4.643 2.14 6.344 3.95.288 2.32-.257 3.32-1.321 5.37-2.744.15-6.333.63-8.944-.34-13.227-4.9-3.02-21.28-7.647-29.71-1.581-.03-2.598-.12-4.093-.44l-.654-1.49c.994-5.26 4.099-9.55 6.237-14.42 1.633-3.71 3.947-3.89 7.434-5.18m14.785 91.32c5.332-.28 13.476.13 17.72 3.82 2.174 1.88 3.275 3.91 3.553 6.77 1.316 13.55-13.777 26.49-21.537 36.28 6.698.72 14.45-.68 20.849 1.05 2.177.58 1.794.75 2.882 2.52-.537 2.6-.815 2.83-2.697 4.74-3.386.74-6.71.42-10.14.26-5.986.15-16.04 1.81-20.768-2.42-3.964-13.77 19.978-24.71 21.456-39.46-.634-1.61-.609-2.5-2.18-3.47-3.525-2.17-6.583-1.78-10.478-.92-2.48.54-4.105.97-6.659.5-.833-2.22-.566-2.6.026-4.94 2.212-2.85 4.656-3.53 7.973-4.73m35.272.99c7.091-.06 18.376-2.78 24.026 2.25.66 2.37 1.081 2.27.017 4.64-5.138 2.76-12.596 1.56-18.306 1.4-.157 2.13-.381 4.31-.333 6.45.216 9.64 10.403 5.62 15.927 11.06 3.599 3.55 3.756 10.41 3.278 15.04-.579 5.63-4.009 8.87-8.225 12.2-.533.17-1.062.34-1.599.5-4.436 1.28-14.408 2.69-18.366.1-1.311-.85-.905-2.13-1.016-3.55 3.746-7.34 12.516-1.55 18.426-6.93.898-2.53 1.126-4.42.707-7.05-1.616-10.16-11.058-4.78-16.987-9.38-1.457-2.35-2.182-4.24-2.308-7.03-.301-6.71.361-14.46 4.759-19.7m-75.067-1.19c6.441-.23 14.186-.11 19.203 4.62 2.565 2.41 3.54 5.67 3.688 9.11.598 13.84-10.762 24.05-19.512 33.28a661 661 0 0 1 7.053-.07c5.437-.07 9.717-.29 13.899 3.69l-.357 1.69c-6.422 4.45-13.118 3.38-20.575 3.24l-16.039-.28c6.401-12.56 20.48-20.84 25.271-33.71 1.346-3.62 1.235-6.24-.509-9.75-5.76-4.63-14.311-2.09-21.104-1.41l-.485-3.14c2.607-3.74 5.349-5.4 9.467-7.27m218.98-78.98c3.696-.07 7.331-.13 10.843 1.2 4.241 1.6 6.517 4.61 8.1 8.75 1.381 3.61 2.153 6.68.44 10.34-5.869 5.58-15.584.81-22.652 3.23l-.54 1.71c.514 1.01 1.191 2.59 2.012 3.44 4.426 4.57 11.255 3.15 16.963 2.81l.977.04-.966.53 1.906.37c.083.48.276.96.249 1.44-.128 2.35-1.742 3.36-3.685 4.24-4.419 2-13.116 1.1-17.593-.49-3.796-1.34-6.803-4.18-8.503-7.82-2.673-5.72-2.259-12.66.016-18.43 2.513-6.37 6.308-8.85 12.433-11.36"/><path fill="#1E2F51" d="m561.707 1559.94 4.796.26c2.852 1.56 3.925 2.49 5.695 5.22l-.446 1.7-2.505 1.09c-3.855.05-8.649.8-11.782-1.55.327-2.98 2.307-4.62 4.242-6.72"/><path fill="#FEFEFE" d="M329.365 1553.31c3.277.24 6.672.35 9.6 2.02 3.871 2.21 6.125 6.67 7.339 10.8 1.692 5.75 2.732 18.69-.515 24-.574.94-.594.72-1.803 1.05-8.107 2.18-18.962 1.68-26.316-2.38-1.657-2.59-3.035-5.74-3.25-8.85-.939-13.6 17.51-8.05 22.633-13.8-.945-2.34-3.044-3.39-5.052-4.75-2.287-.53-3.44-.3-5.588.44-1.586.56-3.001 1.06-4.675 1.27-2.089.27-2.156-.4-3.747-1.63-.315-1.38-.866-1.9.103-3.14 2.638-3.36 7.311-4.27 11.271-5.03"/><path fill="#1E2F51" d="M326.402 1575.17c2.217-.17 5.056-.67 7.235-.35 2.67.4 3.034 1.16 4.242 3.25-.356 3.01-1.098 4.83-2.459 7.55-1.995.13-4.466.4-6.438-.08-2.595-.62-3.541-1.73-4.821-3.92-.025-2.99.677-4.02 2.241-6.45"/><path fill="#FEFEFE" d="M478.609 1553.29c4.6.13 9.292.21 12.764 3.64 4.887 4.82 5.581 12.84 5.75 19.33.146 5.6.536 12.28-3.464 16.52-3.036-.13-3.519-.92-5.868-2.73-3.814-.57-6.028 1.82-9.647 2.56-4.399.9-7.625-.82-11.357-2.94-1.072-1.75-1.945-3.56-2.503-5.54-.87-3.08-.633-6.69 1.147-9.41 4.043-6.19 14.161-7.29 20.808-8.25l.848-1.3c-4.653-6.15-14.378-2.25-19.923-6.41l.847-1.49c3.512-2.24 6.557-3.07 10.598-3.98"/><path fill="#1E2F51" d="M484.609 1574.08c.067.01.136.01.199.03 2.33.89 2.682.57 3.765 2.92-.587 1.46-1.124 3.1-2.061 4.38-2.664 3.63-5.715 3.92-9.891 4.46l-3.139-3.22c-.596-2.7-.716-2.64.614-5.05 3.415-2.28 6.512-2.8 10.513-3.52"/><path fill="#FEFEFE" d="M389.268 1553.24c4.054-.36 8.397-.89 12.435-.13 3.753.7 7.306 3.24 9.4 6.42 5.501 8.33 3.209 22.58 1.325 31.9-4.018 1.13-4.654-2.12-7.813-2.18-3.734-.06-7.965 3.61-15.24 3.09-2.522-1.39-4.714-2.7-6.217-5.22-1.857-3.12-2.701-7.17-1.475-10.66 3.752-10.71 13.603-6.74 21.603-10.12l-.136-2.07c-6.195-7.3-11.703.28-18.657-3.74l-.125-1.92c1.594-3.28 1.753-3.56 4.9-5.37"/><path fill="#1E2F51" d="M393.004 1574.98c2.167-.16 4.449-.44 6.619-.33 2.304.11 3.149.73 4.488 2.48-.257 3.14-1.751 4.83-3.559 7.25-1.613.25-3.469.64-5.097.51-2.45-.18-3.439-1.32-4.725-3.19-.008-3.12.664-4.19 2.274-6.72"/><path fill="#FEFEFE" d="M474.364 1628.59c1.739.07 2.716.26 4.339.74 3.863 7.93 1.315 23.75 1.291 32.69 2.331 3.51 4.915.52 7.699 3.21-.081 1.04-.08 3.06-.486 4.1-1.102 2.81-2.895 2.87-5.45 3.79-2.56 3.62-1.473 7.69-2.836 11.78-.729 2.19-1.059 2.4-3.004 3.34l-2.498-1.63c-2.213-3.1-1.649-6.25-1.507-9.86l-.067-2.27c-4.66-4.34-13.905.43-19.68-1.34-2.613-.8-2.823-1.88-3.759-4.16.855-13.11 17.801-29.98 25.958-40.39"/><path fill="#1E2F51" d="M470.878 1644.8c1.153 5.99.323 13.33.266 19.49l-12.653.59c-.093-5.07 9.316-15.82 12.387-20.08"/><path fill="#FEFEFE" d="M506.03 1537.87c3.518-.32 5.345-.79 8.135 1.47.863 2.24 1.277 3.7 1.112 6.12-.282 4.13-.286 8.24-.322 12.38 1.925-1.52 4.114-3.2 6.37-4.2 3.151-1.38 7.19-1.58 10.422-.37 4.228 1.58 6.974 5.3 8.477 9.43 3.053 8.38 1.37 16-2.313 23.8-1.953 2.01-4.467 3.94-7.049 5.07-4.135 1.81-7.627 1.39-11.743-.13-2.773-1.02-3.992-1.19-6.866-.49-1.9.46-3.147.78-5.127.49-3.286-6.47-1.164-43.86-1.096-53.57"/><path fill="#1E2F51" d="M520.653 1560.78c3.358 0 6.114.02 8.604 2.5 2.301 2.3 3.536 5.93 3.404 9.14-.235 5.72-1.959 8.92-6.204 12.62-2.38-.2-5.515-.28-7.539-1.66-2.628-1.8-4.107-5.64-4.138-8.72-.056-5.53 2.049-10.02 5.873-13.88"/><path fill="#FEFEFE" d="M422.982 1537.01h6.221c6.934 3.97 1.023 12.89 3.798 19.15.786-.35 1.571-.71 2.371-1.03 4.937-2 8.281-3 13.302-.65 4.211 1.96 6.922 5.83 8.306 10.17 2.501 7.84 1.601 15.04-2.062 22.27-1.464 1.27-2.964 2.6-4.605 3.63-8.334 5.28-18.606 1.88-27.246-.56-.489-17.62-.072-35.35-.085-52.98"/><path fill="#1E2F51" d="M436.531 1561.78c3.056.22 5.36.35 7.983 2.18 2.636 1.85 4.253 5.39 4.471 8.52.338 4.88-1.519 8.93-4.591 12.56-3.009.32-7.13.73-9.414-1.65-1.803-1.89-3.062-5.13-3.169-7.71-.231-5.51.902-9.93 4.72-13.9"/><path fill="#FEFEFE" d="M263.888 1540.68c11.701-.55 25.565-1.41 35.704 5.48 5.042 3.43 8.885 8.45 9.983 14.53 1.584 8.77-2.475 17.81-7.47 24.74-11.904 8.95-24.196 7.21-38.153 6.7z"/><path fill="#1E2F51" d="M273.818 1549.02c5.315-.1 10.993-.48 15.972 1.7 4.488 1.96 7.824 4.97 9.307 9.72 1.937 6.2-1.356 13.64-4.528 18.78-6.834 4.56-12.903 4.76-20.827 4.8z"/><path fill="#A1F3FB" d="M394.027 768.408c.282-.041.562-.093.845-.122 59.831-6.24 125.36 13.297 172.992 49.378a261.64 261.64 0 0 1 102.183 176.544c8.626 65.972-11.909 137.262-52.575 189.732-45.5 58.71-106.029 90.71-179.237 99.79-66.505 6.41-131.157-14.93-182.812-56.67-52.948-42.78-85.738-107.09-92.536-174.56a261.3 261.3 0 0 1 57.051-192.502c44.425-54.146 104.673-84.642 174.089-91.59"/><path fill="#1E2F51" d="M400.124 777.418c61.502-5.47 125.643 16.738 172.638 56.006a247.9 247.9 0 0 1 88.776 169.256c5.505 65.48-14.824 133.27-57.555 183.57a249.67 249.67 0 0 1-169.734 88.69c-65.532 4.23-126.206-15.84-176.484-58.14a248.55 248.55 0 0 1-86.399-169.52 254.38 254.38 0 0 1 58.128-184.604c43.539-51.39 104.001-79.976 170.63-85.258"/><path fill="#A1F3FB" d="M413.206 788.455c55.799-.303 113.566 19.764 155.845 56.573a236.08 236.08 0 0 1 81.678 164.982c4.04 62.35-18.432 128.03-60.071 174.72-44.704 50.13-105.075 76.12-171.408 79.85-58.579 1.88-117.973-23.42-161.069-62.37-46.721-42.23-73.414-103.15-76.123-165.83-2.716-62.863 20.109-127.783 63.05-173.941 45.021-48.392 102.722-71.651 168.098-73.984"/><path fill="#1E2F51" d="M403.697 797.43c53.308-4.609 114.513 17.543 155.43 51.309a224.56 224.56 0 0 1 82.119 153.981 232.77 232.77 0 0 1-53.619 171.07c-39.343 47.11-95.052 75.2-155.872 80.59-57.563 5.28-117.308-16.62-161.241-53.44-45.017-37.73-74.284-95.91-79.184-154.32-5.014-59.78 13.697-123.561 52.851-169.386 41.534-48.611 96.094-74.978 159.516-79.804"/><path fill="#FEFEFE" d="M442.184 1051.01c4.01-.36 7.609-.89 11.044 1.4.705 2.94.225 3.7-.695 6.51-3.449.98-6.039 1.23-9.319-.15-1.727-2.71-1.321-4.74-1.03-7.76m.978 37c1.904 0 5.092-.28 6.822.53 2.683 1.24 3.025 2.09 3.988 4.64-.719 2.77-1.153 4.15-3.111 6.36-2.837-.05-5.731-.01-8.319-1.36-2.44-1.27-2.959-2.48-3.463-5.03.976-2.6 2.01-3.43 4.083-5.14m2.813-19.44c1.614.52 3.619 1.09 5.008 2.07 2.181 1.52 2.505 3.33 2.916 5.77-.859 3.35-2.15 4.72-4.618 7.1-2.305-.51-4.939-1.02-6.662-2.8-1.487-1.53-2.204-3.48-1.814-5.6.56-3.05 2.9-4.78 5.17-6.54m-14.371-113.953c2.119.181 4.104.51 6.184.953.261 2.53.22 4.22 1.611 6.427 2.367-2.216 5.047-5.262 7.883-6.826 1.87-1.031 2.261-.757 4.147-.144l1.136 2.42c-1.562 3.255-4.105 5.278-6.741 7.677-2.614 2.38-4.035 4.071-5.502 7.349-.135.3-.261.604-.391.907-.257 6.087 2.002 14.463-1.908 19.476-2.344.676-2.068 1.061-4.43-.067-4.492-9.912-2.082-27.297-1.989-38.172m-95.841 1.273c2.663-.028 5.114-.308 7.53 1.006.344 2.274.363 4.372.35 6.662.365-.204.789-.327 1.097-.612 2.15-1.987 3.236-3.998 5.86-5.702 2.599-1.687 4.593-2.143 7.569-1.425l1.446 2.399c-1.284 5.738-9.333 7.031-12.988 11.197-.406.462-.785.946-1.177 1.419-1.163 6.187 1.49 18.42-2.123 22.943-2.558.265-4.017.182-6.448-.667-2.58-4.617-1.09-30.17-1.116-37.22m-25.749-11.299c2.731.169 5.108.044 7.38 1.779.648 2.684 1.024 5.239 1.334 7.985 3.142 2.539 5.815.813 9.456 2.197.746 2.286.423 3.47-.182 5.763l-1.569.9c-2.309-.454-4.265-.981-6.604-.361-2.657 4.355-1.568 16.182-.326 21.285 1.128 4.638 7.223 2.436 11.081 4.89-.451 1.3-1.024 2.563-1.553 3.833-1.064.589-1.108.669-2.466 1.092-3.533 1.099-7.704 1.185-11.045-.526-10.511-5.384-3.694-20.813-6.258-29.937l-2.902-.821c-1.507-1.948-1.126-2.307-1.184-4.67 4.81-4.587 4.629-7.223 4.838-13.409m97.149.616c2.325-.113 4.104.014 6.37.553 1.645 1.92 1.74 1.971 1.417 4.581-.155 1.25-.143 2.321-.098 3.592l1.583 1.073c2.562-.13 5.209-.615 7.548.633.576 2.593.791 3.287.067 5.803-2.44 1.778-6.556 1.069-9.458.969-.914 35.369 3.779 16.088 11.117 28.078l-2.249 2.746c-4.053 1.336-9.099 2.131-13.004-.159-9.893-5.804-3.206-20.714-5.652-29.743-.769-.232-2.207-.631-2.881-1.001-1.504-.824-1.919-1.43-2.088-3.075-.613-5.963 2.987-2.425 5.814-5.774-.011-3.147-.189-5.476 1.514-8.276m-17.428 96.493c10.537-.1 34.634-3.21 42.843 2.73.915 2.2 1.004 2.12.223 4.36-5.176 1.89-10.892 1.27-16.334 1.18l-.131 31.07c.091 4.24.517 8.88.076 13.08-.26 2.48-.991 3.42-2.928 4.82-2.405-.02-4.281.51-6.181-1.06-1.537-15.6-.419-32.1-.337-47.8-4.951 0-10.979 1.46-15.49-.83-1.911-2.7-1.578-4.29-1.741-7.55m79.82-87.664c2.815-.002 5.749.245 8.394 1.301 3.578 1.429 7.356 4.854 8.842 8.442 1.558 3.765.669 7.09-.778 10.7-4.983 2.16-11.964.647-17.371 1.134-2.634.237-3.889.632-5.576 2.63.025.296.017.596.076.886.443 2.182 2.351 4.404 4.169 5.646 4.284 2.928 10.019 1.563 14.823.971.697.218 1.484.814 2.116 1.193l-.098 3.031c-1.135 1.716-1.521 2.476-3.514 3.286-4.476 1.82-10.51.941-14.847-.883-4.937-2.077-9.085-5.881-11.026-10.935-2.228-5.805-.92-11.418 1.643-16.862 3.133-6.655 6.376-8.243 13.147-10.54"/><path fill="#1E2F51" d="M466.643 962.054c1.738-.196 3.601-.451 5.348-.304 2.711.23 4.726 1.425 6.493 3.434.234 2.3.168 1.969-.756 3.823-4.055.166-9.074.979-12.847-.64-.769-2.904.364-3.738 1.762-6.313"/><path fill="#FEFEFE" d="M279.714 942.17c4.449-.315 10.584-.964 14.832.482 3.214 1.093 3.1 2.093 4.262 5.057-1.689 6.079-13.438.353-18.76 4.084-.581 1.916-.916 2.301-.478 4.363 1.278 6.003 9.162 7.741 13.711 10.792 4.263 2.86 7.896 7.359 8.689 12.543.447 2.917-.127 5.64-1.966 8-3.611 4.633-8.749 6.275-14.305 7.209-.514.001-1.028.012-1.542.002-5.203-.1-11.726.222-15.601-3.696-.515-2.394-1.117-2.675.155-4.889 6.126-2.38 13.414 1.85 19.439-.301 2.803-1 2.971-1.514 4.152-4.035-1.334-7.027-15.253-13.274-19.936-19.127-2.227-2.783-3.734-5.918-2.921-9.59 1.083-4.893 6.192-8.586 10.269-10.894m225.298 11.874c2.99-.133 6.018-.31 8.925.547 4.164 1.228 7.644 4.693 9.461 8.572 1.461 3.121 2.499 7.322 1.344 10.644-5.293 4.699-12.731 1.349-19.156 2.118-2.286.274-2.44.528-3.748 2.25.364 2.449.773 4.128 2.659 5.882 4.102 3.812 11.3 2.832 16.229 2.231.053.035.115.059.159.105 1.829 1.925 1.851 2.051 1.944 4.647-.82.967-.921 1.216-2.147 1.958-3.562 2.159-11.3 1.92-15.188.882-4.563-1.219-8.516-3.841-10.79-8.058-3.204-5.939-2.794-14.228-.738-20.471 1.915-5.813 5.835-8.566 11.046-11.307"/><path fill="#1E2F51" d="M505.676 961.821c2.143-.066 4.466-.293 6.423.75 2.062 1.099 3.906 3.033 4.32 5.277l-2.358 1.264c-3.346.074-8.617.916-11.489-.921.068-3.006 1.356-3.985 3.104-6.37"/><path fill="#FEFEFE" d="M468.343 1048.4c3.495-.22 7.074-.53 10.574-.46 4.36.08 9.231 1.58 12.257 4.87 2.58 2.81 3.234 6.65 2.864 10.34-1.219 12.13-11.621 20.49-20.507 27.52 6.841.11 17.048-2.5 22.516 2.27.673 2.29.895 2.69.249 4.94-2.638 1.78-6 1.13-9.046 1.02-7.898.13-19.041 1.61-26.248-1.63-4.373-7.2 21.532-21.43 23.776-33.27-3.05-12.26-15.215-3.39-22.831-9.55l.092-2.1c1.834-2.02 3.877-2.85 6.304-3.95m-93.456-93.324a37 37 0 0 1 4.419-.344c4.619-.06 8.592.638 11.941 4.101 4.442 4.594 3.843 12.453 3.778 18.325-6.463-.001-16.273-1.754-22.204.867-1.548.685-1.077.6-1.794 2.41 1.003 2.485 2.008 4.113 4.463 5.431 5.003 2.685 11.605.766 16.758-.469.516 1.53.863 3.127 1.26 4.691-.946 1.663-.908 2.004-2.672 3.032-4.622 2.693-11.04 2.335-15.984.791-5.041-1.574-9.498-4.69-11.868-9.518-2.572-5.239-2.178-11.678-.211-17.049 2.257-6.159 6.402-9.45 12.114-12.268"/><path fill="#1E2F51" d="M375.732 961.925c1.96-.038 4.406-.18 6.263.52 2.923 1.101 4.341 3.43 5.659 6.07-1.266 1.924-1.679 1.557-3.808 2.128a252 252 0 0 1-5.076.043c-2.875-.025-5.184.136-7.277-1.978.334-2.99 2.31-4.661 4.239-6.783"/><path fill="#FEFEFE" d="M339.171 1041.3c2.987-.09 4.863-.53 7.54.87 5.912 11.19-1.221 27.06 2.699 39.58 1.202 3.83 3.989 8.16 7.89 9.64 2.55.98 5.223.68 7.64-.49 16.187-7.82 3.002-36.46 8.517-49.04.618-1.4 1.488-1.26 2.818-1.7.937.39 2.871 1.03 3.699 1.75 2.7 2.32 1.905 5.34 1.967 8.59.097 12.19 3.202 33.58-5.396 43.42-3.777 4.32-8.997 5.89-14.586 6.14-5.894.26-11.791-1.13-16.061-5.41-10.942-10.97-6.977-38.6-6.727-53.35m216.596-104.275c1.029-.016 2.635-.061 3.618.023 1.143.098 3.25.116 3.897 1.233 2.433 4.2 1.598 47.402.38 54.336l-2.058 1.414c-3.255-.719-4.137-3.123-6.952-3.753-6.048 3.86-7.988 4.834-15.048 3.399-4.214-2.522-6.814-5.453-8.431-10.18-2.184-6.382-1.895-13.968 1.128-20.037 2.014-4.042 5.384-7.306 9.796-8.528 5.066-1.405 8.664.258 13.075 2.669-.078-6.862-.398-13.767.595-20.576"/><path fill="#1E2F51" d="M543.946 961.938c.432-.012.865-.038 1.297-.037 3.347.007 6.16.192 8.463 2.908 1.647 1.943 2.453 6.03 2.284 8.523-.41 6.017-1.564 9.861-6.112 13.902-2.129-.334-4.055-.539-5.901-1.77-3.069-2.049-4.881-5.811-5.12-9.428-.384-5.798 1.385-9.805 5.089-14.098"/><path fill="#F98F2C" d="m1544.98 811.5 259.88-.814-.05 18.843a2152 2152 0 0 1 79.83.336c1.15 32.272.47 64.836.81 97.157l.54 293.018-216.49-.01-340.69-.06.15-408.016z"/><path fill="#1E2F51" d="M1687.73 1058.39c4.17-.04 8.31-.06 12.47-.35 2.4-.17 3.94.1 6.21.84 1.96 1.86 1.98 1.92 2.4 4.58-1.2 2.29-1.49 2.68-4.13 3.53-4.32 1.4-11.89.22-16.51.05-.23-2.88-.35-5.76-.44-8.65m-83.74-105.689c2.11.258 1.34.013 3.24.818 1.8.76 1.43.92 2.08 2.609-3.11 7.275-10.66 7.704-15.68 13.456-.22.251-.42.511-.64.767-.05 7.667 2.36 17.07-1.22 24.062-2.81 1.584-4.78 1.09-7.97 1.014-.19-10.892-2.43-32.191.36-41.991.31-.063.62-.154.93-.189 2.45-.276 4.13.789 5.85 2.388.45.427.9.866 1.35 1.3l.44-.334.38 1.209c1.88-.087 2.36-.355 3.95-1.452 2.22-1.533 4.46-2.568 6.93-3.657m-46.86-11.825c2.36-.077 4.03.288 6.28.981l.85 1.672c-.84 2.409-1.37 4.055-1.34 6.652 3.03 4.87 7.04 1.051 10.86 4.42.56 2.599.84 2.793-.35 5.122-3.15 2.01-6.88 1.365-10.46 1.195-.15 6.853-1.09 14.75.92 21.367 1.87 6.133 4.91 4.092 9.27 6.715 1.26.76 1.52 3.435 1.91 4.847-4.34 1.663-10.55 3.311-15.01 1.249-10.88-5.038-5.23-24.226-7.53-33.383-2.2-.669-3.5-.995-5.04-2.758-.19-2.302-.09-3.478.83-5.604 1.61-.336 3.22-.608 4.85-.861l1.1-2.497c-.24-2.105-.57-4.079-.1-6.18.36-1.667 1.64-2.007 2.96-2.937"/><path fill="#1E2F51" d="M1678.38 1033c11.02-.17 24.66-1.87 35.07 2.06l.52 2.92c-7.93 4.45-17.3 3.39-26.07 3.2l-.17 17.21c.09 2.89.21 5.77.44 8.65-.27 7.91.85 16.42-.42 24.21-2.45.96-4.96.38-7.51.08-3.5-4.64-1.78-48.73-1.86-58.33m26.09-94.728c1.51.339 2.98.779 4.47 1.2 2.47 4.226.1 7.976 2.09 12.203 2.67.554 5.29.344 7.99.241l1.52 1.447c.1 2.749.46 3.862-.98 6.258-1.53.367-3.76.691-5.11 1.468-2.35 1.363-3.09 3.602-3.63 6.119-.97 4.541-.99 16.509 1.39 20.325 1.99.261 3.96.583 5.94.94 2.1 2.457 1.6 3.733 1.68 6.896-3.19.729-7.33 1.456-10.58.995-16.03-2.267-4.64-31.394-9.52-34.974-1.99-1.461-2.97-.539-4.85-2.891-.05-1.747-.35-3.546.48-5.152.61-1.187 2.33-1.022 3.53-1.247 1.74-1.707 1.78-3.833 2.14-6.131.55-3.576 1.02-4.925 3.44-7.697m34.56 14.885c2.97-.381 6.07-.572 9.05-.123 5.92.895 9.24 4.9 12.52 9.504.69 4.497 1.06 9.043 1.5 13.569-6.29.21-12.62-.296-18.91-.056-3.12.119-4.9.712-6.96 3.04.22 2.346.8 4.236 2.59 5.939 4.31 4.103 10.69 2.561 16.01 2.007 2.14 1.301 2.44 1.6 3.63 3.796-.41 1.322-.28 1.917-1.56 2.712-4.08 2.542-10.83 3.006-15.48 2.131-5.3-.995-9.8-4.053-12.55-8.699-3.26-5.514-3.95-12.366-2.39-18.532 1.96-7.701 5.85-11.452 12.55-15.288"/><path fill="#F98F2C" d="M1743.05 959.71c1.59.577 3.55 1.178 4.87 2.28 2.16 1.799 2.95 3.353 3.31 6.024-1.72 2.035-2.34 1.724-5.01 2.135-4.11.087-6.74.537-9.98-2.302l-.08-2.199c1.95-2.943 3.87-4.172 6.89-5.938"/><path fill="#1E2F51" d="M1621.7 954.184c5.93-.342 13.06-1.478 18.09 2.442 3.17 2.477 4.04 9.038 4.58 12.781.8 5.486 2.61 21.908-.64 26.22-.89.195-2.4.573-3.29.531-2.48-.118-3.09-.932-4.38-2.744-4.74-.497-11.16 2.709-16.62 2.692-3.7-2.057-6.53-4.819-8.73-8.487-1.22-2.042-1.22-4.313-.22-6.472 3.39-7.378 15.51-10.056 22.7-11.679l.72-1.623c-3.17-10.943-11.98-2.735-18.48-6.979l.19-1.992c1.94-2.786 2.92-3.451 6.08-4.69"/><path fill="#F98F2C" d="M1625.56 976.917c2.24-.218 4.24-.152 6.48.063 2.31 1.677 2.33 1.538 2.92 4.307-1.27 3.358-2.63 4.527-5.5 6.616-1.89.067-3.58-.101-5.45-.303-2.34-1.718-2.45-1.666-3.17-4.455.88-3.217 2.23-4.259 4.72-6.228"/><path fill="#1E2F51" d="M1511.09 952.957c4.29-.127 8.66-.359 12.95-.199 5.73.214 9.43 1.895 13.31 6.057 3.58 10.306 3.25 24.034 2.31 34.81-1.33 1.828-1.43 1.787-3.61 2.421-1.86-.976-4.23-2.53-6.25-3.019-3.45-.837-6.07 2.024-8.74 3.824-4.56-.669-8.81-1.773-12.05-5.28-2.17-2.348-2.99-5.925-2.71-9.067 1.02-11.447 15.98-9.477 22.38-15.307.08-2.614-.18-2.629-1.8-4.735-4.25-2.062-9.27-1.419-13.92-1.905-2.31-2.217-1.69-4.478-1.87-7.6"/><path fill="#F98F2C" d="M1520.55 977.147c2.65-.311 4.65-.565 7.27.225 1.84 1.852 1.93 1.852 2.23 4.431-1.17 3.25-2.18 4.294-4.83 6.504-1.51-.041-3.26 0-4.71-.406-2.53-.709-3.3-2.075-4.33-4.288.95-3.424 1.89-4.038 4.37-6.466"/><path fill="#1E2F51" d="m1654.83 933.263 10.2.221-.03 21.694c3.45-.661 7.11-1.172 10.62-1.259 3.62-.089 7.27 1.31 9.8 3.939 6.75 7.021 3.7 28.037 3.6 37.676l-9.65-.009v-22.57c-.04-4.207.22-7.174-2.47-10.594-2.93-1.294-4.4-1.706-7.6-1.559-11.03 6.576.24 25.643-5.83 34.724-2.44.524-3.76.051-6.09-.728-1.47-1.684-2.26-2.4-2.61-4.698-.61-4.04.43-9.03.42-13.189zm-55.7 99.967c6.38-.78 13.62-.78 19.68 1.53 1.59 1.61 1.85 2.49 2.22 4.69-3.73 5.74-14.97 1.34-20.9 3.54-2.54.94-4.47 2.84-5.51 5.33-2.93 6.95 23.4 12.45 26.7 21.52 1.36 3.73.61 8-1.04 11.51-2.71 5.76-7.53 8.47-13.25 10.61-5.57.36-15.41 1.07-20.02-2.57-1.13-.89-.81-1.94-.92-3.27 4.34-9.24 11.25.62 21.15-4 1.39-1.47 2.06-2.47 2.43-4.44 1.79-9.57-17.88-12.7-24.5-22.66-1.66-2.5-2.8-5.55-1.89-8.56 1.89-6.23 10.29-10.88 15.85-13.23m-98.75-.07c5.36-.22 13.13.37 17.97 3.04 2.15 1.18 3.81 2.71 4.45 5.17 1.51 5.86-2.95 12.2-6.19 16.71l-.85 1.17c1.8 5.68 8.26 8.77 9.14 14.67.62 4.18-2.57 10.4-5.6 13.06-5.85 5.13-18.71 6.26-26.01 4.9-3.28-.61-4.91-1.57-6.72-4.34.24-2.58.41-4.29 1.57-6.66l1.28.31c5.03 2.16 14.05 3.45 19.1.92 2.33-1.17 3.63-2.49 4.21-5.12.46-2.04 0-3.85-.96-5.63-2.18-4.07-14.24-5.74-18.62-7.09-.39-2.15-.16-4 .05-6.16 4.39-2.57 9.68.05 14.32-1.03 2.19-.51 3.69-1.93 4.56-3.98 1.14-2.69.35-5.16-.4-7.78-7.91-7.25-16.13 1.37-23.39-2.33-.48-2.12-.31-3.48.11-5.6 2.45-2.82 8.4-3.38 11.98-4.23m143.83-1.03c4.53-.16 9.15-.17 13.67.37 4.28.52 6.63.81 9.37 4.26.19 2.86-.97 4.29-2.48 6.56-2.11.3-1.43.45-3.25-.12-4.72-1.48-8.4-2.78-13.43-2.22-3.52.38-4.7 1.89-6.68 4.51-1.77 10.22 21.06 13.32 25.63 23.3 1.46 3.2 1.32 6.83.14 10.1-2.47 6.79-7.77 10.11-14.07 12.94-7.06.33-16.38.81-22.66-2.91-1.35-2.18-1.62-3.26-1.6-5.82 4.07-5.12 17.25.74 23.73-.8 2.64-.62 3.32-1.34 4.81-3.53 1.68-13.89-20.59-13.83-26.95-27.16-1.2-2.51-1.66-5.35-.47-7.98 2.72-6.05 8.27-9.46 14.24-11.5m-93.99 1.04c5.19-.38 10.12-.27 14.82 2.28 5.81 3.14 9.78 9.12 11.4 15.42 2.51 9.78 2.74 25.93-2.88 34.52-3.11 4.74-7.3 5.63-12.57 6.73-1.19.03-2.38.03-3.57.04-3.21.04-6.56.27-9.65-.7-5.4-1.7-10.05-6.14-12.55-11.14-4.54-9.11-4.12-21.85-.58-31.21 3.22-8.53 7.38-12.32 15.58-15.94"/><path fill="#F98F2C" d="m1543.72 1066.92 23.33-.11-.22 16.26c-3.03.69-6.31 1.03-9.41 1.15-4.04.16-7.5-.65-10.42-3.63-3.47-3.55-3.18-9.09-3.28-13.67m8.03-26.05c1.68-.02 3.69-.16 5.32.2 4.22.92 7.3 4.69 9.15 8.39 1.53 3.07 1.63 5.43.57 8.69-2.17 2-2.54 1.7-5.54 1.84-5.28.04-11.22.69-16.31-.76-1.61-2.06-1.99-2.42-1.53-5.21.9-5.48 3.9-10.03 8.34-13.15"/><path fill="#1E2F51" d="M1452.94 936.892c11.84-.161 29.61-2.505 39.31 5.299 5.09 4.094 7.17 10.254 7.94 16.543 1.38 11.204.11 19.868-6.97 28.831-11.79 10.044-25.76 8.377-40.17 8.063z"/><path fill="#F98F2C" d="M1466.85 945.42a160 160 0 0 1 3.56-.107c6.18-.131 10.68.72 15.12 5.279 3.8 3.906 5.61 9.202 5.51 14.624-.14 7.499-3.27 13.964-8.56 19.093-6.22 3.185-12.22 2.916-19.03 2.931-.26-8.328-2.06-32.751.57-39.625.67-1.734 1.23-1.498 2.83-2.195m214.26-708.934 125.36-.464-.14 21.048 77.92-.009c.71 22.08.23 44.33.27 66.425l.13 124.56c.06 66.283 1.82 133.099-.34 199.33l-349.81-.536-205.54-.108-.26-409.677z"/><path fill="#1E2F51" d="M1570.36 387.782c2.3.06 3.94.723 6.07 1.505 2.88 6.359-7.63 9.205-10.52 13.355-2.15 3.097.32 20.715-.94 26.236-2.54 1.569-5.72 1.149-8.68 1.296-2.89-4.954-1.25-34.877-.13-40.833l2.66-1.541c3.2.118 3.8 1.792 6 4.041 2.98-.27 3.59-1.887 5.54-4.059m-44.22.622c1.7-.03 4.37-.456 5.95-.104 1.6.356 4.46 3.513 6.25 2.961 2.96-.913 3.51-3.411 7.2-3.624 2.49 1.912 2.44 2.741 3.37 5.659-1.36 4.917-7.12 3.551-10.43 6.84-3.55 3.539-2.65 8.501-2.56 13.119.13 3.472.84 8.425-.12 11.754-.89 3.053-2.21 5.328-5.05 6.912l-2.47-1.49c-4.08-6.358-2.16-33.268-2.14-42.027m102.47-.202c3.1-.026 7-.567 9.68 1.182.06 1.928.03 2.457 1.03 4.173 3.7-1.797 7.06-5.546 11.24-5.645 1.61 1.718 1.23 1.883 1.4 4.121-1.99 4.853-7.44 6.36-10.83 9.959-2 2.109-1.85 4.601-1.9 7.317-.01.36-.01.721-.01 1.082l.42 20.188-10.7-.082a1795 1795 0 0 0-.33-42.295m-39.08 68.485c1.98 1.161 4.11 2.117 6.17 3.14.24.456.64.859.72 1.368.27 1.919-25.05 77.992-27.34 85.923-3 .012-5.63.315-8.45-.82 9.44-29.907 21.44-59.102 28.9-89.611m70.56-77.316c2.34-.199 4.67-.431 7.03-.307 4.68.246 1.96 6.901 4.58 9.798 2.48-.042 4.51-.115 6.93.538 1.35 2.266 1.2 2.809 1.13 5.489-2.74 1.888-5.81.795-9.12 1.516-.4 1.142-.46 1.189-.69 2.589-.79 4.964-1.1 18.486 1.85 22.242 2.43.441 5.03.704 7.18 1.972 1.46.858 1.65 3.462 2.08 5.048-1.04 1.129-1.9 1.974-3.4 2.477-3.53 1.19-7.32 1.307-10.72-.371-13.05-6.447-4.65-23.356-7.97-34.08l-2.63-1.156c-2.8-5.784 1.76-5.558 3.39-9.625.52-1.304.27-4.597.36-6.13m-160.29 8.808c3.03-.122 6.16-.258 9.19-.029 2.73.208 4.67.958 6.52 3.033.29 2.596.29 2.827-.91 5.138-2.65 1-3.95.354-6.62-.301-2.11-.518-3.92-1.227-6.11-.645-1.57.421-1.69 1.637-2.39 2.971.96 5.03 15.21 10.211 18.27 17.355.97 2.272 1.13 4.875-.15 7.074-2.34 4.014-6.19 6.693-10.41 8.346-5.23.07-10.14-.226-15.22-1.474-1.17-1.342-1.66-2.121-2.23-3.863-.61-1.854-.66-1.123.14-2.674 4.59-1.437 9.39 1.075 14.12.067 1.62-.345 1.68-1.094 2.56-2.358-.32-2.83-.47-3.335-2.14-5.631-5.07-2.26-10.94-4.787-13.6-10.002-1.27-2.471-1.52-5.203-.6-7.854 1.66-4.782 5.23-7.066 9.58-9.153m209.91 83.279 2.11.027c2.83 6.938.92 37.74.91 47.247a296 296 0 0 1 6.61-.095c3.47.007 5.43.098 7.96 2.61-.1 1.24.19 2.052-.87 2.913-4.62 3.794-19.85 1.862-25.68 1.774l-3.25-.199c-1.88-1.72-2.3-1.82-2.78-4.283 2.92-3.249 4.91-1.356 7.94-3.855.29-11.304.09-22.584-.11-33.887-2.62-1.768-6.67-.28-9.99-1.097-.43-.725-.97-1.527-1.12-2.367-.51-2.669-.01-3.77 1.36-5.856 4.86-2.61 11.48-2.424 16.91-2.932m-244.82-83.373c2.59.099 5.42.159 7.9.95 2.78.886 5.62 2.839 6.71 5.649 2.52 6.448 3.33 29.563.07 35.609-2.38.396-3.56.45-5.83-.419-4.74-5.243-1.45-16.739-1.85-23.515-.24-3.991-1.2-6.011-4.2-8.633-3.09-.809-4.79-.64-7.9.123-.33.082-.66.171-.99.256-8.17 9.459-.16 21.122-4.54 31.502-1.88 1.057-2.83 1.754-5.09.934-2.08-.754-3.87-2.45-4.26-4.674-.92-5.097-.92-33.479 2.05-37.166 9.52-.539 5.52 1.859 10.24 3.666zm117.29.18c2.83-.218 5.46-.189 8.3-.033 4.09 6.224-3.42 24.165 2.6 32.115.95 1.253 2.11 2.009 3.65 2.141 2.4.206 4.84-.548 6.6-2.269 5.92-5.809.9-19.926 2.12-27.497.42-2.58 1.49-3.274 3.58-4.573 3.01-.133 3.61-.341 6.16 1.167 1.93 3.813 1.03 8.976.83 13.162-.07 7.517 2.51 22.996-1.88 28.852-3.48-.036-5.14-4.437-7.29-4.545-3.62-.18-8.08 4.901-12.86 4.621-3.69-.216-7.94-3.045-10.09-5.959-5.42-7.364-3.29-28.666-1.72-37.182m-48.06 82.65c8.95.115 19.34-1.279 28.06-.142 2.49.324 3.48.966 5 2.864-.24 2.885-.17 3.102-2.05 5.266-6.02 2.389-13.98 1.043-20.44.91l-.07 15.257c3.55-.01 7.12.063 10.66-.19 3.16-.225 4.86-.252 7.83.912 2.43 2.818 1.85 4.47 1.97 8.113l-20.76.038c-.14 5.218.95 11.188.05 16.278-.53 3.026-1.8 5.047-4.35 6.801-2.57.15-2.45.153-4.46-1.462-3.35-6.809-1.42-44.518-1.44-54.645m154.98-82.689c3.24-.092 6.84-.51 9.98.426 2.68 9.178-2.89 24.036 2.49 32.005.86 1.272 1.96 2.234 3.49 2.422 3.67.452 6.55-1.758 9.35-3.784 3.44-5.808 1.18-23.578 1.09-30.821 3.36-.189 6.48-.759 9.52.971 2.28 3.485 1.17 9.721 1.01 13.805l.19 26.177c-4.31.338-6.76.225-10.56-1.988-1.69-.982-10.02 3.567-13.17 3.723-3.18.156-6.39-.806-8.66-3.107-7.73-7.873-4.87-29.138-4.73-39.829m-78.08 83.01c6.77-.403 14.87-1.141 20.87 2.602 2.78 1.734 4.16 4.27 4.72 7.432 2.16 12.174-13.24 27.778-20.38 36.677 5.22.178 13.67-1.396 18.36.709 2.6 1.169 2.62 1.756 3.56 4.275l-.99 1.994c-4.6 2.124-10.43 1.247-15.41 1.12a892 892 0 0 1-18.86.418l-.83-1.099c1.99-12.968 19.13-25.187 23.25-39.48-.44-2.638-.56-3.124-2.24-5.185-4.53-.892-9.04-.056-13.61.282-2.95.219-4.66.405-6.95-1.552.08-.367.13-.744.24-1.102 1.3-4.013 4.71-5.543 8.27-7.091m49.89-.054c6.06-.267 11.74.388 17.73 1.159-.83 4.944-1.12 11.912-3.74 16.173-1.08-.409-3.92-5.512-4.83-6.656-1.77-2.255-1.99-2.167-4.71-2.457-2.63 1.148-3.06 1.461-4.78 3.745.31 7.47 12.46 13.564 17.22 19.243 2.59 3.082 4.54 6.512 3.77 10.698-.87 4.749-6.1 9.206-9.93 11.735-7.15 1.944-15.9 2.991-22.75-.354-1.72-2.269-1.73-2.355-1.74-5.207 4.59-6.072 13.89.307 20.21-2.774 1.45-.709 1.41-1.849 1.91-3.261-1.45-10.55-12.44-13.199-18.02-21.209-1.75-2.512-3.05-5.492-2.23-8.592 1.42-5.387 7.22-9.812 11.89-12.243m88.08-83.205c3.25-.345 8-.775 11.04.507 4.14 1.749 8.36 5.32 10.23 9.436 1.75 3.83 2.85 8.072 1.31 12.113-6.1 4.969-13.09 1.002-20.18 1.759-2.19.234-2.45.555-3.79 2.133 0 2.332.02 3.906 1.71 5.693 4.42 4.687 12.07 3.464 17.94 3.341.99-.007 1.96.352 2.91.595l1.18 2.431c-.31 1.212-.26 2.257-1.37 3.027-3.31 2.302-13.71 2.486-17.62 1.888-5.15-.787-9.67-3.164-12.52-7.637-3.68-5.781-4.19-13.352-2.61-19.895 1.82-7.571 5.24-11.422 11.77-15.391"/><path fill="#F98F2C" d="M1752.28 393.476c3.54.761 6.03 2.051 8.21 5.026 1.44 1.955 2.25 3.215 1.75 5.667l-2.08.787c-3.18.031-8.6.915-11.41-.554-1.62-.846-1.33-1.223-1.84-2.847 1.17-3.374 3.02-5.427 5.37-8.079"/><path fill="#1E2F51" d="M1391.2 376.1c1.96-.11 4.62-.526 6.53-.153 9.99 1.951-.73 33.304 7.62 43.847 1.64 2.073 3.88 3.598 6.6 3.708 2.76.111 5.31-1.21 7.26-3.058 7.65-7.244 3.63-22.219 3.67-31.813.01-4.256-.1-9.172 3.14-12.353 2.59-.857 3.84-.471 6.39.147 1.77 2.199 1.17 3.909 1.15 6.643-.35 12.268 3.18 32.071-5.27 41.932-3.29 3.84-7.96 5.593-12.9 6.036-6.04.541-12.3-.345-16.9-4.61-10.84-10.055-7.02-36.265-7.29-50.326m413.71-8.065c3.12-.089 8.01-.75 10.5 1.271 1.92 14.461 1.25 43.442.16 58.369-1.78 1.423-.9 1.188-2.56 1.315-8.45.648-4.13-.136-7.74-3.225-4.73 2.186-8.53 3.582-13.81 4.109-2.28-.438-4.41-.934-6.45-2.099-3.57-2.042-5.62-6.714-6.45-10.531-1.39-6.36-.6-19.959 3.81-25.051 4.15-4.794 16.38-3.026 22.05-2.624 1.74-6.189.59-15.009.49-21.534"/><path fill="#F98F2C" d="M1793.82 395.933c2.5-.14 6.61-.744 8.5 1.222 2.41 2.499 3.63 7.254 3.29 10.681-.6 6.302-1.52 9.758-6.42 13.67-2.19-.381-4.49-.718-6.36-1.999-2.96-2.022-4.54-5.926-4.64-9.413-.17-5.628 1.96-10.069 5.63-14.161"/><path fill="#1E2F51" d="M1477.59 470.883c11.82-.17 28.41-2.302 38.16 5.378 6.29 4.95 8.35 12.928 8.88 20.582.6 8.745-1.28 14.999-7.08 21.522-11.27 9.008-26.46 7.728-40.02 7.616a4157 4157 0 0 0 .06-55.098"/><path fill="#F98F2C" d="M1492.71 479.372c2.3-.012 4.63-.05 6.92.143 4.65.392 7.96 2.95 10.68 6.609a19.56 19.56 0 0 1 3.51 15.128c-1.13 6.47-3.92 10.238-9.15 13.969-5.47 2.13-10.9 3.196-16.64 4.278-.16-8.843-2.57-32.076 1.23-39.363z"/><path fill="#FEFEFE" d="m1680.07 1332.5 124.54-.05c26.41-.09 52.93-.68 79.33 0 1.6 21.77.51 44.17.45 66.02l-.06 112.81.28 364.72-346.11-.05c-69.1.02-138.61 1.45-207.66-.46-2.47-20.56-1.34-42.62-1.43-63.35l-.27-109.89-.14-369.35z"/><path fill="#1E2F51" d="m1337.12 1340.95 538.89.12-.11 414.87c0 11.11 1.18 105.2-.06 109.07-.21.67-.77 1.17-1.16 1.76-59.53-.72-119.17.1-178.71.15l-357.87.07z"/><path fill="#FEFEFE" d="M1536.47 1420.42a297 297 0 0 1 9.33-.35c32.34-.64 83.99 6.75 108.05 30.76 4.86 4.85 8.55 10.51 10.03 17.27 3.43 15.75 1.32 34.65 1.31 50.84l-.12 95.02c37.08.36 86.91 3.35 117.3 26.48 8.03 6.12 13.88 13.75 15.01 23.98.79 7.13.36 68.44-1.05 74.7-1.19 5.27-4 10.05-7.53 14.1-22.67 26.07-68.27 30.26-100.37 32.63-25.48.4-55.54-1.3-79.18-11.56a280 280 0 0 1-33.51 6.22c-38.72 4.59-97.07.26-128.7-25.2-7.73-6.22-14.67-14.36-15.59-24.6-1.35-14.95-.45-30.52-.42-45.56l.62-94.15.09-78.26c-.02-14.47-.9-29.52.57-43.89.63-6.13 3.92-12.23 7.87-16.84 21.64-25.28 65.35-29.66 96.29-31.59"/><path fill="#1E2F51" d="m1784.86 1695.93.78.76c2.29 12.68.63 28.26.28 41.24-3.81 6.87-8.55 11.76-15.08 16.15-35.52 23.87-98.06 23.89-138.37 15.71a333 333 0 0 1-4.97-1.37c2.43-3.27 19.5-10.27 24.81-14.97 9.9-8.77 12.13-17.92 12.66-30.52 40.64 1.1 86.87-.34 119.89-27"/><path fill="#1E2F51" d="M1665.01 1624.98a303 303 0 0 1 47.15 2.95c21.51 3.13 58.65 11.23 72.08 30.45 2.73 3.91 4.11 8.42 3.19 13.17-1.85 9.58-10.85 17.1-18.39 22.53-30.74 17.89-69.34 18.67-103.92 18.02a5939 5939 0 0 0-.11-87.12m-222.47 63.62c22.78 21 55.82 27.63 85.8 30.55 40.07 3.92 93.79-1.82 125.95-28.1-.08 14.48 3.34 34.56-4.11 47.33a105 105 0 0 1-1.77 1.95c-22.52 23.98-65.5 29.72-96.57 30.33-29.5.57-79.29-5.22-101.29-27.41-12.61-12.71-8.29-37.8-8.01-54.65m-.24-191.13c7.19 4.01 13.43 11.28 20.78 15.73 20.33 12.3 53.5 16.66 76.83 17.77 38.43 1.83 85.01-4.13 114.57-31 .11 15.41 1.45 32.3-.57 47.55-1.31 1.91-2.68 3.78-4.24 5.5-19.59 21.74-59.68 27.39-87.13 28.71-31.36 1.5-85.07-3.27-109.09-26.15-14.74-14.05-10.99-39.25-11.15-58.11"/><path fill="#1E2F51" d="M1442.7 1624.63c20.45 23.55 60.64 29.8 89.86 31.89 40.97 2.92 89.96-2.23 122.18-30.09.11 7.93 1.96 45.06-1.42 49.49-1.91 2.21-3.83 4.48-5.9 6.53-22.1 21.87-68.2 26.46-97.45 26.59-28.41.13-77.87-5.9-98.66-27.59-13.05-13.62-8.61-39.17-8.61-56.82"/><path fill="#1E2F51" d="M1443 1559.58c25.28 25.96 63.85 32.52 98.64 34.1 36.47 1.66 85.01-4.63 112.98-30.28.15 10.51 2.38 41.61-1.31 49.29-1.62 1.9-3.26 3.84-5.03 5.61-22.02 21.94-65.64 27.2-95.04 27.6-29.16.4-79.32-5.57-100.91-27.67-13.87-14.19-9.54-40.29-9.33-58.65m93.29-128.17c30.76-2.04 79.04 3.3 104.29 22.65 6.67 5.11 12.19 12.16 12.93 20.78.54 6.28-1.97 12.18-6.08 16.84-17.17 19.45-58.7 25.33-83.27 27.29-35.23.64-79.25-1.11-108.02-24.53-6.24-5.08-12.38-12.26-12.87-20.67-.32-5.49 1.9-10.31 5.51-14.34 18.45-20.57 61.52-26.17 87.51-28.02"/></svg>